<?xml version="1.0" encoding="UTF-8" standalone="no"?>
<!DOCTYPE svg PUBLIC "-//W3C//DTD SVG 1.1//EN" "http://www.w3.org/Graphics/SVG/1.1/DTD/svg11.dtd">
<svg width="100%" height="100%" viewBox="0 0 1024 1024" version="1.1" xmlns="http://www.w3.org/2000/svg" xmlns:xlink="http://www.w3.org/1999/xlink" xml:space="preserve" xmlns:serif="http://www.serif.com/" style="fill-rule:evenodd;clip-rule:evenodd;stroke-linejoin:round;stroke-miterlimit:2;">
    <g transform="matrix(1,0,0,1,-3288,0)">
        <g id="mask-icon" transform="matrix(1,0,0,1,3288,0)">
            <rect x="0" y="0" width="1024" height="1024" style="fill:none;"/>
            <clipPath id="_clip1">
                <rect x="0" y="0" width="1024" height="1024"/>
            </clipPath>
            <g clip-path="url(#_clip1)">
                <g transform="matrix(1.21905,0,0,1.21905,-112.152,-112.152)">
                    <path d="M512,92C280.055,92 92,266.09 92,480.868C92,603.245 153.057,712.393 248.502,783.688L248.502,932L391.513,853.513C429.68,864.065 470.105,869.788 512,869.788C743.945,869.788 932,695.698 932,480.92C932,266.09 743.945,92 512,92ZM544.411,522.886C486.174,581.123 398.899,592.802 327.084,558.878C336.595,579.021 349.498,598.018 366.216,614.735C442.52,691.039 564.833,692.44 639.399,617.874C713.973,543.3 712.564,420.995 636.26,344.691C619.542,327.974 600.546,315.07 580.403,305.56C614.327,377.375 602.648,464.649 544.411,522.886Z"/>
                </g>
            </g>
        </g>
    </g>
</svg>
