<?xml version="1.0" standalone="no"?>
<!DOCTYPE svg PUBLIC "-//W3C//DTD SVG 1.1//EN" "http://www.w3.org/Graphics/SVG/1.1/DTD/svg11.dtd" >
<svg xmlns="http://www.w3.org/2000/svg" xmlns:xlink="http://www.w3.org/1999/xlink" version="1.1">
<metadata></metadata>
<defs>
<font id="sf_pro_displayblack" horiz-adv-x="1412" >
<font-face units-per-em="2048" ascent="1638" descent="-410" />
<missing-glyph horiz-adv-x="390" />
<glyph horiz-adv-x="0" />
<glyph unicode="&#xd;" horiz-adv-x="0" />
<glyph unicode=" "  horiz-adv-x="390" />
<glyph unicode="&#x09;" horiz-adv-x="390" />
<glyph unicode="&#xa0;" horiz-adv-x="390" />
<glyph unicode="!" horiz-adv-x="749" d="M162 160q0 83 62 141t151 58q87 0 149.5 -58t62.5 -141q0 -84 -62.5 -142t-149.5 -58q-89 0 -151 58t-62 142zM165 1443h420l-36 -972h-348z" />
<glyph unicode="&#x22;" horiz-adv-x="1050" d="M81 826v617h340v-617h-340zM629 826v617h340v-617h-340z" />
<glyph unicode="#" horiz-adv-x="1377" d="M0 357l54 287h217l35 177h-214l54 284h216l67 339h299l-66 -339h191l66 339h301l-66 -339h223l-53 -284h-227l-34 -177h221l-53 -287h-224l-70 -357h-301l71 357h-191l-71 -357h-299l70 357h-216zM537 610h244l51 244h-246z" />
<glyph unicode="$" d="M109 435h361q12 -61 63 -96.5t133 -40.5v253l-126 26q-212 45 -319.5 145t-107.5 272q0 197 154 317.5t399 126.5v150h80v-151q248 -13 386 -129t146 -310h-359q-22 128 -173 145v-252l125 -26q223 -47 327.5 -141.5t104.5 -262.5q0 -198 -150.5 -320t-406.5 -135v-146 h-80v145q-254 5 -403 118t-154 312zM499 1033q0 -46 40 -74.5t127 -49.5v236q-82 -4 -124.5 -33t-42.5 -79zM746 299q173 15 173 115q0 48 -38.5 73t-134.5 47v-235z" />
<glyph unicode="%" horiz-adv-x="1983" d="M43 1058q0 196 104 304t282 108t282 -107.5t104 -303.5q0 -194 -104.5 -305.5t-281.5 -111.5q-178 0 -282 110.5t-104 305.5zM335 1058q0 -196 94 -196t94 196q0 106 -24.5 149t-69.5 43t-69.5 -43t-24.5 -149zM381 0l951 1443h270l-951 -1443h-270zM1168 390 q0 196 104 304t282 108t282 -107.5t104 -303.5q0 -194 -104.5 -305.5t-281.5 -111.5q-178 0 -282 110.5t-104 305.5zM1460 390q0 -196 94 -196t94 196q0 106 -24.5 149t-69.5 43t-69.5 -43t-24.5 -149z" />
<glyph unicode="&#x26;" horiz-adv-x="1504" d="M53 371q0 120 59.5 206.5t192.5 162.5l74 41q-98 99 -138 172t-40 153q0 152 128 251t325 99q196 0 317.5 -93t121.5 -244q0 -226 -275 -380l192 -207q34 56 34 161v109h321v-142q0 -99 -34 -199t-91 -168l284 -293h-427l-89 94q-69 -57 -183.5 -89.5t-248.5 -32.5 q-245 0 -384 106t-139 293zM421 406q0 -73 54.5 -116.5t144.5 -43.5q60 0 111 18t76 48l-255 270q-18 -7 -32 -16q-52 -34 -75.5 -72t-23.5 -88zM531 1086q0 -40 25 -78.5t89 -97.5q131 70 131 175q0 55 -33.5 90t-86.5 35q-54 0 -89.5 -35.5t-35.5 -88.5z" />
<glyph unicode="'" horiz-adv-x="502" d="M81 826v617h340v-617h-340z" />
<glyph unicode="(" horiz-adv-x="904" d="M174 565q0 270 74.5 483.5t234.5 394.5h391q-117 -138 -196 -382.5t-79 -493.5q0 -248 79 -493.5t196 -386.5h-391q-160 184 -234.5 397.5t-74.5 480.5z" />
<glyph unicode=")" horiz-adv-x="904" d="M30 -313q117 138 196 382.5t79 493.5q0 248 -79 493.5t-196 386.5h391q160 -184 234.5 -397.5t74.5 -480.5q0 -270 -74.5 -483.5t-234.5 -394.5h-391z" />
<glyph unicode="*" horiz-adv-x="1020" d="M101 1165l98 175l210 -126l-17 229h236l-17 -229l210 126l98 -175l-228 -124l227 -122l-97 -172l-210 124l17 -229h-236l17 229l-210 -124l-97 172l227 122z" />
<glyph unicode="+" d="M151 414v348h375v395h360v-395h375v-348h-375v-395h-360v395h-375z" />
<glyph unicode="," horiz-adv-x="618" d="M95 -344l53 617h370l-131 -617h-292z" />
<glyph unicode="-" horiz-adv-x="931" d="M136 414v348h659v-348h-659z" />
<glyph unicode="." horiz-adv-x="618" d="M101 194q0 86 61 147t147 61t147 -61t61 -147t-61 -147t-147 -61t-147 61t-61 147z" />
<glyph unicode="/" horiz-adv-x="904" d="M0 -313l514 1756h390l-514 -1756h-390z" />
<glyph unicode="0" horiz-adv-x="1443" d="M76 725q0 357 174 558t472 201t471.5 -200.5t173.5 -557.5q0 -356 -173.5 -561t-471.5 -205t-472 204.5t-174 560.5zM508 725q0 -220 56.5 -329.5t157.5 -109.5t157 109.5t56 329.5t-56 326.5t-157 106.5t-157.5 -106.5t-56.5 -326.5z" />
<glyph unicode="1" horiz-adv-x="1058" d="M78 846v355l362 242h424v-1443h-424v1080h-8z" />
<glyph unicode="2" horiz-adv-x="1311" d="M62 982q0 227 159 364t420 137q262 0 418.5 -120.5t156.5 -318.5q0 -58 -13.5 -108t-35 -91t-66 -91t-89 -91.5t-120.5 -107.5l-263 -227v-8h604v-320h-1146v289l513 439q125 107 166.5 166.5t41.5 121.5q0 68 -47 111t-120 43q-84 0 -138.5 -51.5t-54.5 -136.5h-386z " />
<glyph unicode="3" horiz-adv-x="1367" d="M61 435h404q7 -64 61.5 -105t146.5 -41q85 0 138.5 42t53.5 111q0 77 -58 117.5t-168 40.5h-149v279h149q98 0 152.5 40t54.5 110q0 69 -48 107t-127 38q-85 0 -136 -42t-57 -114h-382q8 213 165.5 339t409.5 126q162 0 288.5 -44t201.5 -134t75 -215 q0 -134 -84.5 -221.5t-211.5 -113.5v-8q167 -17 261.5 -105t94.5 -231q0 -208 -167 -329.5t-456 -121.5q-175 0 -311.5 58t-215 166t-85.5 251z" />
<glyph unicode="4" horiz-adv-x="1414" d="M66 229v341q167 328 524 873h586v-889h177v-325h-177v-229h-400v229h-710zM413 537h375v623h-8q-222 -324 -367 -611v-12z" />
<glyph unicode="5" horiz-adv-x="1362" d="M112 433h381q13 -70 69.5 -111.5t136.5 -41.5q91 0 148 56t57 145t-57 144.5t-149 55.5q-68 0 -120 -31.5t-77 -78.5h-366l58 872h1015v-320h-683l-22 -328h8q41 75 126 119.5t197 44.5q204 0 335.5 -132t131.5 -336q0 -239 -165.5 -385t-436.5 -146q-257 0 -421 132.5 t-166 340.5z" />
<glyph unicode="6" horiz-adv-x="1407" d="M72 722q0 352 174 557t472 205q236 0 402 -124t192 -316h-413q-20 57 -66.5 88.5t-114.5 31.5q-86 0 -143 -59t-80 -155.5t-18 -224.5h8q42 106 141.5 167.5t242.5 61.5q210 0 335.5 -129.5t125.5 -333.5q0 -233 -170 -381.5t-431 -148.5q-313 0 -485 205.5t-172 555.5z M523 478q0 -84 58 -141t142 -57t142 55.5t59 136.5q1 85 -56 139.5t-142 54.5q-87 0 -145 -53t-58 -135z" />
<glyph unicode="7" horiz-adv-x="1223" d="M51 1123v320h1110v-319l-563 -1124h-444l589 1115v8h-692z" />
<glyph unicode="8" horiz-adv-x="1445" d="M76 391q0 146 101 242.5t262 122.5v8q-138 27 -224.5 114t-86.5 207q0 174 165 286t429 112t429 -112t165 -287q0 -118 -86.5 -205.5t-222.5 -114.5v-8q161 -26 261.5 -123t100.5 -243q0 -193 -179.5 -311.5t-467.5 -118.5q-289 0 -467.5 118.5t-178.5 312.5zM523 422 q0 -79 55 -129.5t144 -50.5t144 50.5t55 129.5q0 77 -55 126.5t-144 49.5t-144 -49.5t-55 -126.5zM547 1041q0 -72 49 -117t126 -45t126.5 45t49.5 117q0 71 -50 116t-126 45t-125.5 -45t-49.5 -116z" />
<glyph unicode="9" horiz-adv-x="1415" d="M81 953q0 233 170 381.5t431 148.5q143 0 262.5 -48.5t208 -141.5t137.5 -239t49 -332q0 -352 -174 -557t-472 -205q-236 0 -402 122.5t-192 312.5h413q19 -55 66 -85t115 -30q69 0 119 35t76.5 97t38 138.5t7.5 168.5h-8q-33 -105 -128 -168t-238 -63q-131 0 -239 55 t-174 162.5t-66 247.5zM487 971q0 -85 56.5 -139t141.5 -54q87 0 145 53t58 135q0 84 -58 141t-142 57t-142.5 -55.5t-58.5 -137.5z" />
<glyph unicode=":" horiz-adv-x="618" d="M101 194q0 86 61 147t147 61t147 -61t61 -147t-61 -147t-147 -61t-147 61t-61 147zM101 816q0 86 61 147t147 61t147 -61t61 -147t-61 -147t-147 -61t-147 61t-61 147z" />
<glyph unicode=";" horiz-adv-x="618" d="M95 -344l53 617h370l-131 -617h-292zM101 816q0 86 61 147t147 61t147 -61t61 -147t-61 -147t-147 -61t-147 61t-61 147z" />
<glyph unicode="&#x3c;" d="M151 408v359l1110 410v-390l-664 -189v-11l664 -188v-400z" />
<glyph unicode="=" d="M151 153v328h1110v-328h-1110zM151 695v328h1110v-328h-1110z" />
<glyph unicode="&#x3e;" d="M151 -1v390l664 189v11l-664 188v400l1110 -409v-359z" />
<glyph unicode="?" horiz-adv-x="1184" d="M51 1010q0 207 143.5 327t392.5 120q240 0 383 -112t143 -300q0 -109 -51.5 -187.5t-166.5 -144.5q-106 -61 -142 -103t-36 -109v-42h-355l-3 24q-19 136 17.5 214t142.5 139q107 62 141 100.5t34 99.5q0 50 -38 81.5t-97 31.5t-97 -39t-39 -100h-372zM335 160 q0 83 62 141t150 58t150.5 -58t62.5 -141q0 -84 -62.5 -142t-150.5 -58t-150 58t-62 142z" />
<glyph unicode="@" horiz-adv-x="1828" d="M62 628q0 244 109 434t306 295.5t450 105.5q239 0 423.5 -93.5t286.5 -264t102 -392.5q0 -233 -110 -368t-300 -135q-100 0 -166.5 38t-90.5 108h-20q-60 -149 -229 -149q-156 0 -250.5 115t-94.5 305q0 182 89.5 293.5t235.5 111.5q82 0 142.5 -37t90.5 -105h20v117h254 v-483q0 -54 20.5 -84t57.5 -30q58 0 91.5 73t33.5 198q0 273 -158 431.5t-428 158.5q-286 0 -462.5 -178.5t-176.5 -468.5q0 -292 183.5 -461t499.5 -169q129 0 210 22v-194q-105 -25 -238 -25q-195 0 -359 60.5t-279 169t-179 263.5t-64 338zM772 619q0 -87 33 -136t92 -49 q58 0 91 49t33 136q0 88 -33 137.5t-91 49.5q-59 0 -92 -49.5t-33 -137.5z" />
<glyph unicode="A" horiz-adv-x="1534" d="M30 0l471 1443h532l471 -1443h-452l-75 287h-440l-75 -287h-432zM614 586h286l-139 524h-8z" />
<glyph unicode="B" horiz-adv-x="1382" d="M100 0v1443h709q221 0 344.5 -95.5t123.5 -264.5q0 -123 -83 -209.5t-210 -102.5v-8q148 -4 253 -102.5t105 -240.5q0 -190 -139 -305t-370 -115h-733zM524 291h181q99 0 152.5 43.5t53.5 124.5q0 77 -54 120t-149 43h-184v-331zM524 865h164q81 0 129 39t48 105 q0 67 -45.5 105t-125.5 38h-170v-287z" />
<glyph unicode="C" horiz-adv-x="1513" d="M65 722q0 354 191 550t525 196q189 0 341.5 -76t240.5 -215t88 -315h-406q-7 123 -80 198t-184 75q-131 0 -207.5 -110t-76.5 -302q0 -195 76 -305t209 -110q110 0 182.5 74.5t82.5 199.5h406q-1 -177 -87.5 -316t-239 -215t-345.5 -76q-334 0 -525 196.5t-191 550.5z " />
<glyph unicode="D" horiz-adv-x="1477" d="M100 0v1443h617q331 0 513 -183.5t182 -527.5q0 -346 -183.5 -539t-511.5 -193h-617zM524 337h133q323 0 323 395q0 181 -84.5 277.5t-238.5 96.5h-133v-769z" />
<glyph unicode="E" horiz-adv-x="1216" d="M100 0v1443h1018v-337h-594v-233h557v-304h-557v-232h594v-337h-1018z" />
<glyph unicode="F" horiz-adv-x="1164" d="M100 0v1443h1014v-337h-590v-277h534v-318h-534v-511h-424z" />
<glyph unicode="G" horiz-adv-x="1530" d="M65 723q0 353 190 549t526 196q270 0 455 -143t209 -366h-417q-21 80 -87.5 127.5t-157.5 47.5q-135 0 -210.5 -106.5t-75.5 -298.5q0 -196 83 -308t224 -112q103 0 171 53t77 140l2 20h-220v282h628v-190q0 -297 -177.5 -468t-490.5 -171q-345 0 -537 195t-192 553z" />
<glyph unicode="H" horiz-adv-x="1556" d="M100 0v1443h424v-548h508v548h424v-1443h-424v558h-508v-558h-424z" />
<glyph unicode="I" horiz-adv-x="624" d="M100 0v1443h424v-1443h-424z" />
<glyph unicode="J" horiz-adv-x="1271" d="M20 511h406q0 -85 41.5 -133t114.5 -48q70 0 106.5 44.5t36.5 129.5v939h424v-942q0 -252 -148 -389t-413 -137q-263 0 -415.5 143t-152.5 393z" />
<glyph unicode="K" horiz-adv-x="1445" d="M100 0v1443h424v-612h8l446 612h445l-475 -641l497 -802h-493l-315 530l-113 -152v-378h-424z" />
<glyph unicode="L" horiz-adv-x="1150" d="M100 0v1443h424v-1106h566v-337h-990z" />
<glyph unicode="M" horiz-adv-x="1833" d="M100 0v1443h490l323 -859h8l322 859h490v-1443h-370v836h-8l-325 -836h-227l-325 836h-8v-836h-370z" />
<glyph unicode="N" horiz-adv-x="1494" d="M100 0v1443h329l557 -748h8v748h400v-1443h-325l-561 760h-8v-760h-400z" />
<glyph unicode="O" horiz-adv-x="1584" d="M65 721q0 345 196 546t531 201t531 -201t196 -546t-196 -545.5t-531 -200.5q-336 0 -531.5 200.5t-195.5 545.5zM497 721q0 -186 80.5 -297t214.5 -111t214.5 111t80.5 297q0 187 -81 298t-214 111t-214 -111t-81 -298z" />
<glyph unicode="P" horiz-adv-x="1346" d="M100 0v1443h659q242 0 389.5 -143t147.5 -383q0 -237 -156 -380t-410 -143h-206v-394h-424zM524 707h119q107 0 166 53.5t59 155.5q0 101 -58.5 154.5t-163.5 53.5h-122v-417z" />
<glyph unicode="Q" horiz-adv-x="1583" d="M64 722q0 341 198 543.5t529 202.5q333 0 529.5 -199.5t196.5 -546.5q0 -383 -225 -570l201 -260h-360l-92 118q-116 -35 -250 -35q-338 0 -532.5 201t-194.5 546zM489 722q0 -190 82.5 -306t219.5 -116q17 0 25 1l-181 235h360l50 -65q51 102 51 251q0 189 -84 305 t-221 116t-219.5 -116t-82.5 -305z" />
<glyph unicode="R" horiz-adv-x="1395" d="M100 0v1443h641q286 0 434.5 -128t148.5 -362q0 -131 -61.5 -242t-171.5 -164l274 -547h-474l-228 484h-139v-484h-424zM524 764h175q89 0 140.5 50t51.5 132q0 81 -53 132.5t-138 51.5h-176v-366z" />
<glyph unicode="S" horiz-adv-x="1370" d="M60 437h390q12 -64 78 -100.5t159 -36.5q94 0 149.5 34.5t55.5 88.5q0 50 -47.5 77t-170.5 49l-145 26q-216 38 -330 145.5t-114 274.5q0 142 76.5 250.5t211 165.5t305.5 57q286 0 444 -124t160 -340h-390q-2 64 -61 101.5t-148 37.5q-85 0 -131.5 -33t-46.5 -84 q0 -48 47.5 -75t158.5 -47l145 -26q234 -42 345 -142.5t111 -274.5q0 -225 -167 -355.5t-463 -130.5q-285 0 -453 122t-169 340z" />
<glyph unicode="T" horiz-adv-x="1274" d="M45 1106v337h1184v-337h-380v-1106h-424v1106h-380z" />
<glyph unicode="U" horiz-adv-x="1472" d="M100 514v929h424v-882q0 -114 54.5 -174.5t157.5 -60.5t157.5 60.5t54.5 174.5v882h424v-929q0 -246 -174.5 -392.5t-461.5 -146.5t-461.5 146.5t-174.5 392.5z" />
<glyph unicode="V" horiz-adv-x="1486" d="M30 1443h488l231 -1041h8l231 1041h468l-438 -1443h-550z" />
<glyph unicode="W" horiz-adv-x="2062" d="M40 1443h438l166 -912h8l215 912h328l215 -912h8l166 912h438l-372 -1443h-400l-215 826h-8l-215 -826h-400z" />
<glyph unicode="X" horiz-adv-x="1507" d="M40 1443h494l227 -460h8l228 460h470l-447 -714v-8l445 -721h-472l-248 435h-9l-247 -435h-448l425 723v8z" />
<glyph unicode="Y" horiz-adv-x="1470" d="M30 1443h453l253 -585h8l253 585h443l-493 -986v-457h-424v457z" />
<glyph unicode="Z" horiz-adv-x="1321" d="M80 0v266l643 832v8h-637v337h1131v-265l-641 -833v-8h665v-337h-1161z" />
<glyph unicode="[" horiz-adv-x="904" d="M200 -313v1756h674v-294h-281v-1168h281v-294h-674z" />
<glyph unicode="\" horiz-adv-x="904" d="M0 1443h400l504 -1756h-400z" />
<glyph unicode="]" horiz-adv-x="904" d="M30 -19h281v1168h-281v294h674v-1756h-674v294z" />
<glyph unicode="^" horiz-adv-x="1020" d="M54 691l294 701h329l289 -701h-288l-160 429h-18l-171 -429h-275z" />
<glyph unicode="_" horiz-adv-x="886" d="M-38 -107h962v-308h-962v308z" />
<glyph unicode="`" horiz-adv-x="1024" d="M273 1572h337l142 -327h-262z" />
<glyph unicode="a" horiz-adv-x="1213" d="M36 321q0 158 117.5 244.5t340.5 100.5l242 15v54q0 54 -37 84t-96 30q-61 0 -100 -29t-44 -73h-366q8 178 150 281.5t382 103.5q229 0 370 -104.5t141 -272.5v-755h-400v148h-8q-42 -78 -130.5 -121t-189.5 -43q-154 0 -263 95.5t-109 241.5zM440 353q0 -44 33 -69.5 t88 -25.5q71 0 123 36.5t52 95.5v72l-174 -12q-58 -4 -90 -30t-32 -67z" />
<glyph unicode="b" horiz-adv-x="1310" d="M82 0v1443h410v-538h8q39 102 124.5 158.5t203.5 56.5q209 0 321 -147t112 -421q0 -273 -111 -420.5t-317 -147.5q-121 0 -207.5 54.5t-125.5 152.5h-8v-191h-410zM490 551q1 -117 48 -184t128 -67q80 0 127.5 68t47.5 184q0 115 -47.5 183.5t-127.5 68.5t-127.5 -68.5 t-48.5 -184.5z" />
<glyph unicode="c" horiz-adv-x="1205" d="M49 553q0 270 153.5 424.5t420.5 154.5q242 0 388 -131t150 -354h-373q-6 83 -49 131.5t-109 48.5q-81 0 -123.5 -70t-42.5 -204q0 -135 42 -205.5t124 -70.5q69 0 111 45.5t47 127.5h373q-3 -224 -146 -351t-390 -127q-269 0 -422.5 154.5t-153.5 426.5z" />
<glyph unicode="d" horiz-adv-x="1305" d="M49 555q0 266 115.5 415.5t321.5 149.5q118 0 204.5 -59.5t119.5 -155.5h8v538h410v-1443h-410v191h-8q-29 -89 -119.5 -148t-211.5 -59q-204 0 -317 150.5t-113 420.5zM469 552q0 -119 46 -185.5t129 -66.5t129.5 66t46.5 185t-47 186t-129 67t-128.5 -67.5 t-46.5 -184.5z" />
<glyph unicode="e" horiz-adv-x="1224" d="M49 546q0 271 152 428.5t412 157.5q257 0 410 -151.5t153 -404.5v-111h-732v-26q0 -81 53 -133.5t135 -52.5q63 0 109.5 28t64.5 77h365q-26 -179 -172 -282.5t-373 -103.5q-271 0 -424 152.5t-153 421.5zM450 687h344q-5 74 -52.5 118.5t-119.5 44.5q-70 0 -118 -46 t-54 -117z" />
<glyph unicode="f" horiz-adv-x="835" d="M30 807v287h146v46q0 169 95 244.5t326 75.5q111 0 192 -17v-245q-30 6 -78 6q-137 0 -137 -84v-26h212v-287h-200v-807h-410v807h-146z" />
<glyph unicode="g" horiz-adv-x="1305" d="M49 555q0 266 115.5 415.5t321.5 149.5q118 0 204.5 -59.5t119.5 -155.5h8v199h410v-1095q0 -195 -165.5 -310t-434.5 -115q-246 0 -393.5 96.5t-160.5 253.5h394q9 -40 55 -65.5t114 -25.5q89 0 135 42t46 114v212h-8q-27 -88 -117 -142.5t-213 -54.5q-197 0 -314 142.5 t-117 398.5zM469 552q0 -118 45.5 -180t129.5 -62t130 61.5t46 179.5t-47 185.5t-129 67.5t-128.5 -67.5t-46.5 -184.5z" />
<glyph unicode="h" horiz-adv-x="1289" d="M82 0v1443h400v-556h8q41 116 129.5 177.5t214.5 61.5q185 0 283.5 -109.5t98.5 -309.5v-707h-410v616q0 84 -40.5 131.5t-116.5 47.5q-75 0 -116 -49t-41 -129v-617h-410z" />
<glyph unicode="i" horiz-adv-x="564" d="M77 0v1104h410v-1104h-410zM85 1400q0 78 57 134.5t138 56.5t138 -56.5t57 -134.5t-57 -134.5t-138 -56.5t-138 56.5t-57 134.5z" />
<glyph unicode="j" horiz-adv-x="564" d="M-85 -112q18 -3 47 -3q60 0 87.5 20.5t27.5 64.5v1134h410v-1152q0 -168 -117.5 -261.5t-328.5 -93.5q-78 0 -126 6v285zM85 1400q0 78 57 134.5t138 56.5t138 -56.5t57 -134.5t-57 -134.5t-138 -56.5t-138 56.5t-57 134.5z" />
<glyph unicode="k" horiz-adv-x="1209" d="M82 0v1443h410v-738h8l268 399h451l-367 -471l393 -633h-471l-228 388l-54 -72v-316h-410z" />
<glyph unicode="l" horiz-adv-x="574" d="M82 0v1443h410v-1443h-410z" />
<glyph unicode="m" horiz-adv-x="1891" d="M77 0v1104h400v-223h8q31 112 117 178.5t199 66.5q126 0 206.5 -63.5t100.5 -179.5h8q28 110 120.5 176.5t218.5 66.5q161 0 262 -105.5t101 -274.5v-746h-410v640q0 157 -134 157q-62 0 -97 -41.5t-35 -114.5v-641h-389v639q0 158 -133 158q-62 0 -97.5 -42t-35.5 -114 v-641h-410z" />
<glyph unicode="n" horiz-adv-x="1280" d="M77 0v1104h400v-217h8q42 117 128 178t211 61q185 0 284.5 -109.5t99.5 -309.5v-707h-410v616q0 85 -39.5 132t-115.5 47q-72 0 -114 -49.5t-42 -128.5v-617h-410z" />
<glyph unicode="o" horiz-adv-x="1259" d="M49 553q0 271 156.5 425t423.5 154q269 0 425 -153.5t156 -425.5q0 -278 -154 -429.5t-427 -151.5q-272 0 -426 151.5t-154 429.5zM465 552q0 -138 43 -212.5t121 -74.5q77 0 121 75t44 212q0 134 -44.5 210.5t-120.5 76.5t-120 -76.5t-44 -210.5z" />
<glyph unicode="p" horiz-adv-x="1305" d="M77 -353v1457h411v-199h7q40 102 125.5 158.5t203.5 56.5q208 0 320 -147t112 -421q0 -273 -111 -420.5t-316 -147.5q-121 0 -208 54.5t-126 152.5h-8v-544h-410zM485 551q1 -116 48 -183.5t128 -67.5t128 68t47 184q0 115 -47.5 183.5t-127.5 68.5t-127.5 -68.5 t-48.5 -184.5z" />
<glyph unicode="q" horiz-adv-x="1305" d="M49 555q0 266 115.5 415.5t321.5 149.5q118 0 204.5 -59.5t119.5 -155.5h8v199h410v-1457h-410v544h-8q-28 -89 -118.5 -148t-211.5 -59q-204 0 -317.5 150.5t-113.5 420.5zM469 552q0 -119 46 -185.5t129 -66.5t129.5 66t46.5 185t-47 186t-129 67t-128.5 -67.5 t-46.5 -184.5z" />
<glyph unicode="r" horiz-adv-x="859" d="M77 0v1104h400v-217h8q62 233 258 233q53 0 96 -16v-344q-54 23 -119 23q-233 0 -233 -233v-550h-410z" />
<glyph unicode="s" horiz-adv-x="1155" d="M33 351h396q23 -111 160 -111q59 0 93.5 20t34.5 55q0 30 -28 48t-97 31l-200 37q-163 30 -248.5 115.5t-85.5 214.5q0 173 137.5 272t378.5 99q240 0 376 -103.5t140 -281.5h-372q-4 52 -42 84.5t-102 32.5q-56 0 -90 -21.5t-34 -58.5q0 -31 27.5 -49.5t99.5 -32.5 l200 -37q180 -33 263 -105.5t83 -197.5q0 -179 -146 -284.5t-388 -105.5q-255 0 -398 102.5t-158 276.5z" />
<glyph unicode="t" horiz-adv-x="838" d="M30 807v297h146v242h410v-242h194v-297h-194v-408q0 -105 124 -105q40 0 70 5v-284q-73 -15 -169 -15q-233 0 -334 72t-101 236v499h-146z" />
<glyph unicode="u" horiz-adv-x="1280" d="M72 396v708h410v-616q0 -86 43 -132.5t116 -46.5q69 0 110.5 49t41.5 129v617h410v-1104h-400v217h-8q-34 -115 -112.5 -177t-199.5 -62q-182 0 -296.5 112.5t-114.5 305.5z" />
<glyph unicode="v" horiz-adv-x="1172" d="M-11 1104h442l160 -773h8l155 773h429l-354 -1104h-481z" />
<glyph unicode="w" horiz-adv-x="1771" d="M9 1104h415l117 -745h8l145 745h391l147 -745h8l117 745h405l-278 -1104h-445l-154 711h-8l-151 -711h-437z" />
<glyph unicode="x" horiz-adv-x="1200" d="M9 1104h464l135 -335h8l134 335h441l-319 -548l319 -556h-442l-158 347h-8l-152 -347h-421l318 548z" />
<glyph unicode="y" horiz-adv-x="1229" d="M-1 1104h455l168 -810h8l167 810h433l-329 -1078q-70 -230 -218.5 -330.5t-417.5 -100.5h-146v305h79q87 0 127.5 16.5t40.5 53.5q0 15 -5 30z" />
<glyph unicode="z" horiz-adv-x="1111" d="M58 0v208l493 584v8h-477v304h957v-243l-432 -549v-8h454v-304h-995z" />
<glyph unicode="{" horiz-adv-x="904" d="M30 383v366q133 1 193 47.5t60 147.5v97q0 217 114.5 309.5t383.5 92.5h93v-284h-48q-84 0 -117 -36t-33 -128v-145q0 -109 -80 -178.5t-225 -85.5v-40q145 -16 225 -85.5t80 -178.5v-148q0 -91 33.5 -127.5t116.5 -36.5h48v-283h-93q-268 0 -383 95t-115 316v90 q0 101 -59.5 147t-193.5 48z" />
<glyph unicode="|" horiz-adv-x="904" d="M252 -313v1756h400v-1756h-400z" />
<glyph unicode="}" horiz-adv-x="904" d="M30 -29h48q84 0 117 36t33 128v145q0 109 80 178.5t225 85.5v40q-145 16 -225 85.5t-80 178.5v148q0 91 -33.5 127.5t-116.5 36.5h-48v283h93q268 0 383 -95t115 -316v-90q0 -101 59.5 -147t193.5 -48v-366q-133 -1 -193 -47.5t-60 -147.5v-97q0 -217 -114.5 -309.5 t-383.5 -92.5h-93v284z" />
<glyph unicode="~" d="M150 347q-17 230 74.5 367t262.5 137q69 0 131.5 -30t136.5 -96q42 -37 69 -52t57 -15q91 0 91 173h291q17 -230 -74.5 -367t-262.5 -137q-69 0 -131.5 30t-136.5 96q-42 37 -69 52t-57 15q-91 0 -91 -173h-291z" />
<glyph unicode="&#xa1;" horiz-adv-x="749" d="M162 979q0 84 62 141.5t151 57.5q88 0 150 -58t62 -141t-62.5 -141t-149.5 -58q-89 0 -151 58t-62 141zM165 -305l36 972h348l36 -972h-420z" />
<glyph unicode="&#xa2;" d="M150 723q0 260 145 413.5t398 164.5v142h80v-142q225 -12 360 -141.5t139 -342.5h-368q-5 73 -39 119t-92 58v-544q60 10 93 54t38 116h368q-3 -214 -136 -340t-363 -137v-143h-80v143q-254 11 -398.5 164.5t-144.5 415.5zM555 723q0 -128 33.5 -193t104.5 -79v542 q-71 -14 -104.5 -79t-33.5 -191z" />
<glyph unicode="&#xa3;" d="M122 650v180h205q-31 124 -31 196q0 191 156.5 310.5t433.5 119.5q103 0 198 -15.5t134 -38.5v-302q-101 44 -256 44q-129 0 -194.5 -52t-65.5 -142q0 -40 21 -120h435v-180h-402v-12q0 -190 -119 -268v-12h638v-328h-1137v299q107 17 165.5 92.5t58.5 198.5q0 20 -1 30 h-239z" />
<glyph unicode="&#xa4;" d="M120 281l132 132q-55 108 -55 229t55 229l-132 132l226 226l132 -132q108 55 229 55t229 -55l132 132l226 -226l-132 -132q55 -108 55 -229t-55 -229l132 -132l-226 -226l-132 132q-108 -55 -229 -55t-229 55l-132 -132zM502 642q0 -83 61 -145t144 -62t144 62t61 145 t-61 145t-144 62t-144 -62t-61 -145z" />
<glyph unicode="&#xa5;" d="M30 1394h434l243 -571h8l243 571h424l-418 -836h288v-80h-328l-14 -29v-127h342v-80h-342v-233h-408v233h-342v80h342v127l-14 29h-328v80h288z" />
<glyph unicode="&#xa6;" horiz-adv-x="904" d="M252 -313v700h400v-700h-400zM252 743v700h400v-700h-400z" />
<glyph unicode="&#xa7;" horiz-adv-x="1486" d="M199 539q0 93 63 166t171 106v20q-118 56 -167 118.5t-49 156.5q0 165 145.5 263.5t389.5 98.5q226 0 370 -100.5t149 -262.5h-370q-5 43 -47 71.5t-101 28.5t-96.5 -29.5t-37.5 -76.5q0 -30 25 -51t87 -43l226 -77q176 -60 253 -134t77 -180q0 -92 -63 -165.5 t-170 -106.5v-20q118 -58 167 -121.5t49 -158.5q0 -163 -145.5 -260t-389.5 -97q-227 0 -371 100t-149 263h372q4 -43 46 -71.5t101 -28.5t96.5 28t37.5 73q0 63 -112 99l-237 78q-171 57 -245.5 130t-74.5 183zM572 614q0 -33 34 -64t92 -51l153 -55q29 17 48.5 43.5 t19.5 50.5q0 34 -34 64.5t-93 50.5l-152 56q-29 -16 -48.5 -43.5t-19.5 -51.5z" />
<glyph unicode="&#xa8;" horiz-adv-x="1024" d="M100 1400q0 73 52 124.5t127 51.5t128.5 -52t53.5 -124t-53.5 -124t-128.5 -52t-127 51.5t-52 124.5zM563 1400q0 72 53 124t128 52t127.5 -52t52.5 -124t-52.5 -124t-127.5 -52t-128 52t-53 124z" />
<glyph unicode="&#xa9;" horiz-adv-x="1688" d="M60 674q0 212 105.5 392.5t286 286t392.5 105.5t392.5 -105.5t286 -286t105.5 -392.5t-105.5 -392.5t-286 -286t-392.5 -105.5t-392.5 105.5t-286 286t-105.5 392.5zM247 674q0 -121 47.5 -231.5t127.5 -190.5t190.5 -127.5t231.5 -47.5t231.5 47.5t190.5 127.5 t127.5 190.5t47.5 231.5t-47.5 231.5t-127.5 190.5t-190.5 127.5t-231.5 47.5t-231.5 -47.5t-190.5 -127.5t-127.5 -190.5t-47.5 -231.5zM489 675q0 173 98.5 273.5t268.5 100.5q148 0 241 -80t103 -217h-237q-5 47 -32.5 74t-69.5 27q-53 0 -82 -46.5t-29 -131.5 q0 -88 28.5 -134t82.5 -46q43 0 70 25t32 69h237q-10 -136 -101 -213t-241 -77q-172 0 -270.5 100t-98.5 276z" />
<glyph unicode="&#xaa;" horiz-adv-x="793" d="M23 968q0 197 299 216l152 8v29q0 28 -22 43.5t-58 15.5q-37 0 -61 -16t-26 -38h-246q5 113 97.5 178t250.5 65q150 0 242.5 -65.5t92.5 -169.5v-466h-271v87h-5q-27 -47 -83.5 -72t-121.5 -25q-98 0 -169 59.5t-71 150.5zM295 991q0 -24 20 -37t53 -13q43 0 74.5 18 t31.5 47v42l-106 -6q-34 -3 -53.5 -16.5t-19.5 -34.5z" />
<glyph unicode="&#xab;" horiz-adv-x="1390" d="M90 562v8l347 407h338l-342 -406v-6l342 -409h-347zM615 562v8l347 407h338l-342 -406v-6l342 -409h-347z" />
<glyph unicode="&#xac;" d="M165 414v348h1081v-743h-360v395h-721z" />
<glyph unicode="&#xad;" horiz-adv-x="931" d="M136 414v348h659v-348h-659z" />
<glyph unicode="&#xae;" horiz-adv-x="1196" d="M60 1075q0 113 41.5 213t112.5 171t171 112.5t213 41.5t213 -41.5t171 -112.5t112.5 -171t41.5 -213t-41.5 -213t-112.5 -171t-171 -112.5t-213 -41.5t-213 41.5t-171 112.5t-112.5 171t-41.5 213zM227 1075q0 -166 105 -273.5t266 -107.5t266 107.5t105 273.5 t-105 273.5t-266 107.5t-266 -107.5t-105 -273.5zM380 841v477h263q86 0 136.5 -43t50.5 -116q0 -51 -25 -90.5t-66 -55.5l116 -172h-177l-94 150h-52v-150h-152zM532 1098h74q65 0 65 50q0 26 -16.5 40t-46.5 14h-76v-104z" />
<glyph unicode="&#xaf;" horiz-adv-x="1024" d="M160 1309v198h704v-198h-704z" />
<glyph unicode="&#xb0;" horiz-adv-x="1020" d="M103 1041q0 171 115.5 283.5t291.5 112.5t291.5 -112.5t115.5 -283.5t-116 -284t-291 -113t-291 113t-116 284zM368 1041q0 -58 41.5 -100t100.5 -42t100.5 42t41.5 100t-41.5 99.5t-100.5 41.5t-100.5 -41.5t-41.5 -99.5z" />
<glyph unicode="&#xb1;" d="M166 19v325h1080v-325h-1080zM166 652v295h360v210h360v-210h360v-295h-360v-210h-360v210h-360z" />
<glyph unicode="&#xb2;" horiz-adv-x="780" d="M35 1284q0 131 93.5 208t250.5 77q161 0 255 -66t94 -180q0 -79 -39 -127t-141 -120l-133 -88v-6h321v-214h-684v199l290 212q67 46 89.5 72t22.5 52t-21.5 41t-53.5 15q-38 0 -61.5 -19.5t-23.5 -55.5h-259z" />
<glyph unicode="&#xb3;" horiz-adv-x="814" d="M34 1016h273q4 -21 27.5 -36t64.5 -15q37 0 60.5 14.5t23.5 39.5q0 53 -108 53h-77v183h79q100 0 100 54q0 27 -22.5 40t-56.5 13q-39 0 -61.5 -16.5t-25.5 -43.5h-256q4 122 97.5 194.5t245.5 72.5q150 0 245 -54.5t95 -162.5q0 -73 -48 -119.5t-117 -59.5v-5 q95 -11 148 -56.5t53 -119.5q0 -117 -98.5 -183.5t-276.5 -66.5q-158 0 -258.5 74t-106.5 200z" />
<glyph unicode="&#xb4;" horiz-adv-x="1024" d="M273 1245l142 327h337l-217 -327h-262z" />
<glyph unicode="&#xb5;" horiz-adv-x="1390" d="M77 -353v1457h405v-610q0 -92 38 -139t123 -47q75 0 117.5 50t42.5 129v617h405v-711q0 -65 17 -90.5t60 -25.5q39 0 57 11l10 -275q-85 -23 -199 -23q-121 0 -191 38.5t-117 128.5q-3 5 -8 15.5t-7 15.5h-8q-23 -98 -80.5 -154t-139.5 -56q-59 0 -107 28h-8v-359h-410z " />
<glyph unicode="&#xb6;" horiz-adv-x="1486" d="M100 1024q0 182 132 300.5t348 118.5h317v-1733h-300v896h-17q-207 0 -343.5 121.5t-136.5 296.5zM1086 -290v1733h300v-1733h-300z" />
<glyph unicode="&#xb7;" horiz-adv-x="618" d="M101 552q0 86 61 147t147 61t147 -61t61 -147t-61 -147t-147 -61t-147 61t-61 147z" />
<glyph unicode="&#xb8;" horiz-adv-x="1024" d="M348 -296q38 -12 99 -12q94 0 94 37q0 26 -22 36t-78 10h-56v127l63 114h180v-16l-46 -89q72 0 117 -46t45 -122q0 -195 -263 -195q-94 0 -133 15v141z" />
<glyph unicode="&#xb9;" horiz-adv-x="640" d="M44 1185v237l200 121h287v-775h-288v534h-5z" />
<glyph unicode="&#xba;" horiz-adv-x="819" d="M31 1110q0 168 101.5 263.5t276.5 95.5q176 0 277.5 -95t101.5 -264q0 -174 -100 -267t-279 -93q-178 0 -278 93.5t-100 266.5zM312 1109q0 -78 25.5 -120.5t71.5 -42.5t72 42.5t26 120.5q0 77 -26 120.5t-72 43.5q-45 0 -71 -43.5t-26 -120.5z" />
<glyph unicode="&#xbb;" horiz-adv-x="1390" d="M90 156l342 406v6l-342 409h347l338 -406v-8l-347 -407h-338zM615 156l342 406v6l-342 409h347l338 -406v-8l-347 -407h-338z" />
<glyph unicode="&#xbc;" horiz-adv-x="1741" d="M44 1085v237l200 121h287v-775h-288v534h-5zM240 0l951 1443h270l-951 -1443h-270zM946 104v231q97 186 275 440h392v-452h95v-219h-95v-104h-269v104h-398zM1175 309h178v279h-6q-90 -105 -172 -270v-9z" />
<glyph unicode="&#xbd;" horiz-adv-x="1806" d="M44 1085v237l200 121h287v-775h-288v534h-5zM240 0l951 1443h270l-951 -1443h-270zM1061 516q0 131 93.5 208t250.5 77q161 0 255 -66t94 -180q0 -79 -39 -127t-141 -120l-133 -88v-6h321v-214h-684v199l290 212q67 46 89.5 72t22.5 52t-21.5 41t-53.5 15 q-38 0 -61.5 -19.5t-23.5 -55.5h-259z" />
<glyph unicode="&#xbe;" horiz-adv-x="1915" d="M34 916h273q4 -21 27.5 -36t64.5 -15q37 0 60.5 14.5t23.5 39.5q0 53 -108 53h-77v183h79q100 0 100 54q0 27 -22.5 40t-56.5 13q-39 0 -61.5 -16.5t-25.5 -43.5h-256q4 122 97.5 194.5t245.5 72.5q150 0 245 -54.5t95 -162.5q0 -73 -48 -119.5t-117 -59.5v-5 q95 -11 148 -56.5t53 -119.5q0 -117 -98.5 -183.5t-276.5 -66.5q-158 0 -258.5 74t-106.5 200zM414 0l951 1443h270l-951 -1443h-270zM1120 104v231q97 186 275 440h392v-452h95v-219h-95v-104h-269v104h-398zM1349 309h178v279h-6q-90 -105 -172 -270v-9z" />
<glyph unicode="&#xbf;" horiz-adv-x="1184" d="M71 93q0 109 52 187.5t167 144.5q106 61 142 103t36 109v42h354l3 -24q19 -136 -17.5 -214t-142.5 -139q-107 -62 -141 -100.5t-34 -99.5q0 -50 38 -81t98 -31q59 0 96.5 38.5t38.5 99.5h373q-1 -207 -144.5 -327t-391.5 -120q-241 0 -384 112t-143 300zM424 979 q0 84 62.5 141.5t150.5 57.5t150.5 -58t62.5 -141t-63 -141t-150 -58q-88 0 -150.5 58t-62.5 141z" />
<glyph unicode="&#xc0;" horiz-adv-x="1534" d="M30 0l471 1443h532l471 -1443h-452l-75 287h-440l-75 -287h-432zM425 1876h336l139 -321h-262zM614 586h286l-139 524h-8z" />
<glyph unicode="&#xc1;" horiz-adv-x="1534" d="M30 0l471 1443h532l471 -1443h-452l-75 287h-440l-75 -287h-432zM614 586h286l-139 524h-8zM634 1555l139 321h336l-213 -321h-262z" />
<glyph unicode="&#xc2;" horiz-adv-x="1534" d="M30 0l471 1443h532l471 -1443h-452l-75 287h-440l-75 -287h-432zM365 1555l245 321h314l245 -321h-276l-122 177h-8l-122 -177h-276zM614 586h286l-139 524h-8z" />
<glyph unicode="&#xc3;" horiz-adv-x="1534" d="M30 0l471 1443h532l471 -1443h-452l-75 287h-440l-75 -287h-432zM371 1560q0 152 69 232t177 80q52 0 97 -18.5t70.5 -41t54.5 -41t51 -18.5q76 0 76 111h197q-2 -148 -72 -231t-177 -83q-51 0 -95 18.5t-68.5 41t-53 41t-52.5 18.5q-36 0 -56.5 -28t-20.5 -81h-197z M614 586h286l-139 524h-8z" />
<glyph unicode="&#xc4;" horiz-adv-x="1534" d="M30 0l471 1443h532l471 -1443h-452l-75 287h-440l-75 -287h-432zM355 1715q0 73 52 124.5t127 51.5t128.5 -52t53.5 -124t-53.5 -124t-128.5 -52t-127 51.5t-52 124.5zM614 586h286l-139 524h-8zM818 1715q0 72 53 124t128 52t127.5 -52t52.5 -124t-52.5 -124t-127.5 -52 t-128 52t-53 124z" />
<glyph unicode="&#xc5;" horiz-adv-x="1534" d="M30 0l471 1443h532l471 -1443h-452l-75 287h-440l-75 -287h-432zM547 1733q0 90 65 151.5t155 61.5t155 -61.5t65 -151.5t-65 -151.5t-155 -61.5t-155 61.5t-65 151.5zM614 586h286l-139 524h-8zM687 1733q0 -33 23.5 -55t56.5 -22t56.5 22t23.5 55t-23.5 55t-56.5 22 t-56.5 -22t-23.5 -55z" />
<glyph unicode="&#xc6;" horiz-adv-x="2104" d="M50 0l540 1443h1395v-336h-643v-234h606v-304h-606v-233h643v-336h-1015v286h-403l-99 -286h-418zM670 586h300v543h-112z" />
<glyph unicode="&#xc7;" horiz-adv-x="1513" d="M65 722q0 354 191 550t525 196q189 0 341.5 -76t240.5 -215t88 -315h-406q-7 123 -80 198t-184 75q-131 0 -207.5 -110t-76.5 -302q0 -195 76 -305t209 -110q110 0 182.5 74.5t82.5 199.5h406q-1 -248 -164.5 -413t-424.5 -190l-35 -68q72 0 117 -46t45 -122 q0 -195 -263 -195q-94 0 -133 15v141q37 -12 99 -12q94 0 94 37q0 26 -22 36t-78 10h-56v127l43 78q-287 31 -448.5 224t-161.5 518z" />
<glyph unicode="&#xc8;" horiz-adv-x="1216" d="M100 0v1443h1018v-337h-594v-233h557v-304h-557v-232h594v-337h-1018zM267 1876h336l139 -321h-262z" />
<glyph unicode="&#xc9;" horiz-adv-x="1216" d="M100 0v1443h1018v-337h-594v-233h557v-304h-557v-232h594v-337h-1018zM476 1555l139 321h336l-213 -321h-262z" />
<glyph unicode="&#xca;" horiz-adv-x="1216" d="M100 0v1443h1018v-337h-594v-233h557v-304h-557v-232h594v-337h-1018zM207 1555l245 321h314l245 -321h-276l-122 177h-8l-122 -177h-276z" />
<glyph unicode="&#xcb;" horiz-adv-x="1216" d="M100 0v1443h1018v-337h-594v-233h557v-304h-557v-232h594v-337h-1018zM197 1715q0 73 52 124.5t127 51.5t128.5 -52t53.5 -124t-53.5 -124t-128.5 -52t-127 51.5t-52 124.5zM660 1715q0 72 53 124t128 52t127.5 -52t52.5 -124t-52.5 -124t-127.5 -52t-128 52t-53 124z " />
<glyph unicode="&#xcc;" horiz-adv-x="624" d="M-30 1876h336l139 -321h-262zM100 0v1443h424v-1443h-424z" />
<glyph unicode="&#xcd;" horiz-adv-x="624" d="M100 0v1443h424v-1443h-424zM179 1555l139 321h336l-213 -321h-262z" />
<glyph unicode="&#xce;" horiz-adv-x="624" d="M-90 1555l245 321h314l245 -321h-276l-122 177h-8l-122 -177h-276zM100 0v1443h424v-1443h-424z" />
<glyph unicode="&#xcf;" horiz-adv-x="624" d="M-100 1715q0 73 52 124.5t127 51.5t128.5 -52t53.5 -124t-53.5 -124t-128.5 -52t-127 51.5t-52 124.5zM100 0v1443h424v-1443h-424zM363 1715q0 72 53 124t128 52t127.5 -52t52.5 -124t-52.5 -124t-127.5 -52t-128 52t-53 124z" />
<glyph unicode="&#xd0;" horiz-adv-x="1477" d="M0 581v282h100v580h617q331 0 513 -183.5t182 -527.5q0 -346 -183.5 -539t-511.5 -193h-617v581h-100zM524 337h133q323 0 323 395q0 181 -84.5 277.5t-238.5 96.5h-133v-243h198v-282h-198v-244z" />
<glyph unicode="&#xd1;" horiz-adv-x="1494" d="M100 0v1443h329l557 -748h8v748h400v-1443h-325l-561 760h-8v-760h-400zM351 1560q0 152 69 232t177 80q52 0 97 -18.5t70.5 -41t54.5 -41t51 -18.5q76 0 76 111h197q-2 -148 -72 -231t-177 -83q-51 0 -95 18.5t-68.5 41t-53 41t-52.5 18.5q-36 0 -56.5 -28t-20.5 -81 h-197z" />
<glyph unicode="&#xd2;" horiz-adv-x="1584" d="M65 721q0 345 196 546t531 201t531 -201t196 -546t-196 -545.5t-531 -200.5q-336 0 -531.5 200.5t-195.5 545.5zM450 1876h336l139 -321h-262zM497 721q0 -186 80.5 -297t214.5 -111t214.5 111t80.5 297q0 187 -81 298t-214 111t-214 -111t-81 -298z" />
<glyph unicode="&#xd3;" horiz-adv-x="1584" d="M65 721q0 345 196 546t531 201t531 -201t196 -546t-196 -545.5t-531 -200.5q-336 0 -531.5 200.5t-195.5 545.5zM497 721q0 -186 80.5 -297t214.5 -111t214.5 111t80.5 297q0 187 -81 298t-214 111t-214 -111t-81 -298zM659 1555l139 321h336l-213 -321h-262z" />
<glyph unicode="&#xd4;" horiz-adv-x="1584" d="M65 721q0 345 196 546t531 201t531 -201t196 -546t-196 -545.5t-531 -200.5q-336 0 -531.5 200.5t-195.5 545.5zM390 1555l245 321h314l245 -321h-276l-122 177h-8l-122 -177h-276zM497 721q0 -186 80.5 -297t214.5 -111t214.5 111t80.5 297q0 187 -81 298t-214 111 t-214 -111t-81 -298z" />
<glyph unicode="&#xd5;" horiz-adv-x="1584" d="M65 721q0 345 196 546t531 201t531 -201t196 -546t-196 -545.5t-531 -200.5q-336 0 -531.5 200.5t-195.5 545.5zM396 1560q0 152 69 232t177 80q52 0 97 -18.5t70.5 -41t54.5 -41t51 -18.5q76 0 76 111h197q-2 -148 -72 -231t-177 -83q-51 0 -95 18.5t-68.5 41t-53 41 t-52.5 18.5q-36 0 -56.5 -28t-20.5 -81h-197zM497 721q0 -186 80.5 -297t214.5 -111t214.5 111t80.5 297q0 187 -81 298t-214 111t-214 -111t-81 -298z" />
<glyph unicode="&#xd6;" horiz-adv-x="1584" d="M65 721q0 345 196 546t531 201t531 -201t196 -546t-196 -545.5t-531 -200.5q-336 0 -531.5 200.5t-195.5 545.5zM380 1715q0 73 52 124.5t127 51.5t128.5 -52t53.5 -124t-53.5 -124t-128.5 -52t-127 51.5t-52 124.5zM497 721q0 -186 80.5 -297t214.5 -111t214.5 111 t80.5 297q0 187 -81 298t-214 111t-214 -111t-81 -298zM843 1715q0 72 53 124t128 52t127.5 -52t52.5 -124t-52.5 -124t-127.5 -52t-128 52t-53 124z" />
<glyph unicode="&#xd7;" d="M155 272l316 316l-316 316l236 236l316 -306l316 306l236 -236l-316 -316l316 -316l-236 -236l-316 306l-316 -306z" />
<glyph unicode="&#xd8;" horiz-adv-x="1584" d="M65 721q0 345 196 546t531 201q245 0 421 -111l114 127l164 -147l-117 -130q145 -191 145 -486q0 -345 -196 -545.5t-531 -200.5q-246 0 -422 111l-113 -126l-164 147l116 129q-144 192 -144 485zM488 721q0 -82 17 -155l460 514q-74 62 -173 62q-138 0 -221 -114 t-83 -307zM618 363q74 -62 174 -62q138 0 221 114t83 306q0 83 -17 156z" />
<glyph unicode="&#xd9;" horiz-adv-x="1472" d="M100 514v929h424v-882q0 -114 54.5 -174.5t157.5 -60.5t157.5 60.5t54.5 174.5v882h424v-929q0 -246 -174.5 -392.5t-461.5 -146.5t-461.5 146.5t-174.5 392.5zM394 1876h336l139 -321h-262z" />
<glyph unicode="&#xda;" horiz-adv-x="1472" d="M100 514v929h424v-882q0 -114 54.5 -174.5t157.5 -60.5t157.5 60.5t54.5 174.5v882h424v-929q0 -246 -174.5 -392.5t-461.5 -146.5t-461.5 146.5t-174.5 392.5zM603 1555l139 321h336l-213 -321h-262z" />
<glyph unicode="&#xdb;" horiz-adv-x="1472" d="M100 514v929h424v-882q0 -114 54.5 -174.5t157.5 -60.5t157.5 60.5t54.5 174.5v882h424v-929q0 -246 -174.5 -392.5t-461.5 -146.5t-461.5 146.5t-174.5 392.5zM334 1555l245 321h314l245 -321h-276l-122 177h-8l-122 -177h-276z" />
<glyph unicode="&#xdc;" horiz-adv-x="1472" d="M100 514v929h424v-882q0 -114 54.5 -174.5t157.5 -60.5t157.5 60.5t54.5 174.5v882h424v-929q0 -246 -174.5 -392.5t-461.5 -146.5t-461.5 146.5t-174.5 392.5zM324 1715q0 73 52 124.5t127 51.5t128.5 -52t53.5 -124t-53.5 -124t-128.5 -52t-127 51.5t-52 124.5z M787 1715q0 72 53 124t128 52t127.5 -52t52.5 -124t-52.5 -124t-127.5 -52t-128 52t-53 124z" />
<glyph unicode="&#xdd;" horiz-adv-x="1470" d="M30 1443h453l253 -585h8l253 585h443l-493 -986v-457h-424v457zM602 1555l139 321h336l-213 -321h-262z" />
<glyph unicode="&#xde;" horiz-adv-x="1428" d="M142 0v1443h427v-204h242q243 0 385 -134.5t142 -365.5q0 -229 -150 -363t-406 -134h-216v-242h-424zM566 556h129q106 0 160.5 46.5t54.5 135.5q0 88 -54 134.5t-158 46.5h-132v-363z" />
<glyph unicode="&#xdf;" horiz-adv-x="1461" d="M110 0v1054q0 187 153.5 294t421.5 107q252 0 409.5 -103t157.5 -269q0 -114 -55.5 -198t-146.5 -107v-20q143 -4 235 -110.5t92 -259.5q0 -189 -134.5 -296.5t-371.5 -107.5q-144 0 -216 18v312q49 -19 122 -19q86 0 132.5 36.5t46.5 99.5q0 60 -54 96.5t-146 36.5h-82 v305h47q60 0 97.5 35t37.5 91q0 67 -43.5 104.5t-120.5 37.5q-172 0 -172 -182v-955h-410z" />
<glyph unicode="&#xe0;" horiz-adv-x="1213" d="M36 321q0 158 117.5 244.5t340.5 100.5l242 15v54q0 54 -37 84t-96 30q-61 0 -100 -29t-44 -73h-366q8 178 150 281.5t382 103.5q229 0 370 -104.5t141 -272.5v-755h-400v148h-8q-42 -78 -130.5 -121t-189.5 -43q-154 0 -263 95.5t-109 241.5zM275 1572h337l142 -327 h-262zM440 353q0 -44 33 -69.5t88 -25.5q71 0 123 36.5t52 95.5v72l-174 -12q-58 -4 -90 -30t-32 -67z" />
<glyph unicode="&#xe1;" horiz-adv-x="1213" d="M36 321q0 158 117.5 244.5t340.5 100.5l242 15v54q0 54 -37 84t-96 30q-61 0 -100 -29t-44 -73h-366q8 178 150 281.5t382 103.5q229 0 370 -104.5t141 -272.5v-755h-400v148h-8q-42 -78 -130.5 -121t-189.5 -43q-154 0 -263 95.5t-109 241.5zM440 353q0 -44 33 -69.5 t88 -25.5q71 0 123 36.5t52 95.5v72l-174 -12q-58 -4 -90 -30t-32 -67zM488 1245l142 327h337l-217 -327h-262z" />
<glyph unicode="&#xe2;" horiz-adv-x="1213" d="M36 321q0 158 117.5 244.5t340.5 100.5l242 15v54q0 54 -37 84t-96 30q-61 0 -100 -29t-44 -73h-366q8 178 150 281.5t382 103.5q229 0 370 -104.5t141 -272.5v-755h-400v148h-8q-42 -78 -130.5 -121t-189.5 -43q-154 0 -263 95.5t-109 241.5zM209 1245l255 327h314 l255 -327h-284l-124 171h-8l-124 -171h-284zM440 353q0 -44 33 -69.5t88 -25.5q71 0 123 36.5t52 95.5v72l-174 -12q-58 -4 -90 -30t-32 -67z" />
<glyph unicode="&#xe3;" horiz-adv-x="1213" d="M36 321q0 158 117.5 244.5t340.5 100.5l242 15v54q0 54 -37 84t-96 30q-61 0 -100 -29t-44 -73h-366q8 178 150 281.5t382 103.5q229 0 370 -104.5t141 -272.5v-755h-400v148h-8q-42 -78 -130.5 -121t-189.5 -43q-154 0 -263 95.5t-109 241.5zM225 1245q0 152 69 232 t177 80q52 0 97 -18.5t70.5 -41t54.5 -41t51 -18.5q76 0 76 111h197q-2 -148 -72 -231t-177 -83q-51 0 -95 18.5t-68.5 41t-53 41t-52.5 18.5q-36 0 -56.5 -28t-20.5 -81h-197zM440 353q0 -44 33 -69.5t88 -25.5q71 0 123 36.5t52 95.5v72l-174 -12q-58 -4 -90 -30t-32 -67z " />
<glyph unicode="&#xe4;" horiz-adv-x="1213" d="M36 321q0 158 117.5 244.5t340.5 100.5l242 15v54q0 54 -37 84t-96 30q-61 0 -100 -29t-44 -73h-366q8 178 150 281.5t382 103.5q229 0 370 -104.5t141 -272.5v-755h-400v148h-8q-42 -78 -130.5 -121t-189.5 -43q-154 0 -263 95.5t-109 241.5zM209 1400q0 73 52 124.5 t127 51.5t128.5 -52t53.5 -124t-53.5 -124t-128.5 -52t-127 51.5t-52 124.5zM440 353q0 -44 33 -69.5t88 -25.5q71 0 123 36.5t52 95.5v72l-174 -12q-58 -4 -90 -30t-32 -67zM672 1400q0 72 53 124t128 52t127.5 -52t52.5 -124t-52.5 -124t-127.5 -52t-128 52t-53 124z" />
<glyph unicode="&#xe5;" horiz-adv-x="1213" d="M36 321q0 158 117.5 244.5t340.5 100.5l242 15v54q0 54 -37 84t-96 30q-61 0 -100 -29t-44 -73h-366q8 178 150 281.5t382 103.5q229 0 370 -104.5t141 -272.5v-755h-400v148h-8q-42 -78 -130.5 -121t-189.5 -43q-154 0 -263 95.5t-109 241.5zM377 1450q0 97 72.5 166.5 t171.5 69.5t171 -69.5t72 -166.5t-72 -166t-171 -69t-171.5 69.5t-72.5 165.5zM440 353q0 -44 33 -69.5t88 -25.5q71 0 123 36.5t52 95.5v72l-174 -12q-58 -4 -90 -30t-32 -67zM533 1450q0 -34 26.5 -59t61.5 -25t61.5 25t26.5 59q0 35 -26.5 60.5t-61.5 25.5t-61.5 -25.5 t-26.5 -60.5z" />
<glyph unicode="&#xe6;" horiz-adv-x="1886" d="M36 322q0 155 116.5 243t341.5 101l242 15v46q0 52 -41 87t-102 35q-59 0 -103.5 -28.5t-50.5 -73.5h-355q7 176 145 280.5t356 104.5q122 0 212.5 -32.5t143.5 -85.5h8q118 118 353 118q239 0 387.5 -149.5t148.5 -406.5v-111h-733v-26q0 -81 53 -133.5t136 -52.5 q62 0 108.5 28t65.5 77h365q-25 -178 -171.5 -282t-373.5 -104q-139 0 -250 50t-163 135h-8q-50 -81 -150 -127t-239 -46q-204 0 -323 94t-119 244zM417 350q0 -44 40.5 -72.5t97.5 -28.5q73 0 127 42.5t54 98.5v72l-189 -15q-59 -5 -94.5 -31t-35.5 -66zM1111 687h344 q-5 74 -52 118.5t-120 44.5q-70 0 -118 -46t-54 -117z" />
<glyph unicode="&#xe7;" horiz-adv-x="1205" d="M49 553q0 270 153.5 424.5t420.5 154.5q242 0 388 -131t150 -354h-373q-6 83 -49 131.5t-109 48.5q-81 0 -123.5 -70t-42.5 -204q0 -135 42 -205.5t124 -70.5q69 0 111 45.5t47 127.5h373q-3 -206 -125 -330.5t-337 -144.5l-33 -64q72 0 117 -46t45 -122 q0 -195 -263 -195q-94 0 -133 15v141q38 -12 99 -12q94 0 94 37q0 26 -22 36t-78 10h-56v127l43 78q-219 32 -341 181.5t-122 391.5z" />
<glyph unicode="&#xe8;" horiz-adv-x="1224" d="M49 546q0 271 152 428.5t412 157.5q257 0 410 -151.5t153 -404.5v-111h-732v-26q0 -81 53 -133.5t135 -52.5q63 0 109.5 28t64.5 77h365q-26 -179 -172 -282.5t-373 -103.5q-271 0 -424 152.5t-153 421.5zM266 1572h337l142 -327h-262zM450 687h344q-5 74 -52.5 118.5 t-119.5 44.5q-70 0 -118 -46t-54 -117z" />
<glyph unicode="&#xe9;" horiz-adv-x="1224" d="M49 546q0 271 152 428.5t412 157.5q257 0 410 -151.5t153 -404.5v-111h-732v-26q0 -81 53 -133.5t135 -52.5q63 0 109.5 28t64.5 77h365q-26 -179 -172 -282.5t-373 -103.5q-271 0 -424 152.5t-153 421.5zM450 687h344q-5 74 -52.5 118.5t-119.5 44.5q-70 0 -118 -46 t-54 -117zM479 1245l142 327h337l-217 -327h-262z" />
<glyph unicode="&#xea;" horiz-adv-x="1224" d="M49 546q0 271 152 428.5t412 157.5q257 0 410 -151.5t153 -404.5v-111h-732v-26q0 -81 53 -133.5t135 -52.5q63 0 109.5 28t64.5 77h365q-26 -179 -172 -282.5t-373 -103.5q-271 0 -424 152.5t-153 421.5zM200 1245l255 327h314l255 -327h-284l-124 171h-8l-124 -171 h-284zM450 687h344q-5 74 -52.5 118.5t-119.5 44.5q-70 0 -118 -46t-54 -117z" />
<glyph unicode="&#xeb;" horiz-adv-x="1224" d="M49 546q0 271 152 428.5t412 157.5q257 0 410 -151.5t153 -404.5v-111h-732v-26q0 -81 53 -133.5t135 -52.5q63 0 109.5 28t64.5 77h365q-26 -179 -172 -282.5t-373 -103.5q-271 0 -424 152.5t-153 421.5zM200 1400q0 73 52 124.5t127 51.5t128.5 -52t53.5 -124 t-53.5 -124t-128.5 -52t-127 51.5t-52 124.5zM450 687h344q-5 74 -52.5 118.5t-119.5 44.5q-70 0 -118 -46t-54 -117zM663 1400q0 72 53 124t128 52t127.5 -52t52.5 -124t-52.5 -124t-127.5 -52t-128 52t-53 124z" />
<glyph unicode="&#xec;" horiz-adv-x="564" d="M-64 1572h337l142 -327h-262zM77 0v1104h410v-1104h-410z" />
<glyph unicode="&#xed;" horiz-adv-x="564" d="M77 0v1104h410v-1104h-410zM149 1245l142 327h337l-217 -327h-262z" />
<glyph unicode="&#xee;" horiz-adv-x="564" d="M-130 1245l255 327h314l255 -327h-284l-124 171h-8l-124 -171h-284zM77 0v1104h410v-1104h-410z" />
<glyph unicode="&#xef;" horiz-adv-x="564" d="M-130 1400q0 73 52 124.5t127 51.5t128.5 -52t53.5 -124t-53.5 -124t-128.5 -52t-127 51.5t-52 124.5zM77 0v1104h410v-1104h-410zM333 1400q0 72 53 124t128 52t127.5 -52t52.5 -124t-52.5 -124t-127.5 -52t-128 52t-53 124z" />
<glyph unicode="&#xf0;" horiz-adv-x="1288" d="M47 510q0 118 40 212t105 150t142 85t158 29q74 0 139.5 -23.5t107.5 -67.5h17q-19 57 -73 127.5t-135 136.5l-318 -167v169l176 92q-81 46 -176 77v204q255 -28 457 -134l266 140v-169l-120 -63q184 -139 281 -332t97 -390q0 -122 -38 -229.5t-109.5 -191.5 t-185.5 -132.5t-257 -48.5q-141 0 -253 43.5t-181 117.5t-104.5 167t-35.5 198zM464 519q0 -103 46 -165t126 -62q81 0 127 63.5t46 166.5q0 100 -46 163t-128 63q-81 0 -126 -64.5t-45 -164.5z" />
<glyph unicode="&#xf1;" horiz-adv-x="1280" d="M77 0v1104h400v-217h8q42 117 128 178t211 61q185 0 284.5 -109.5t99.5 -309.5v-707h-410v616q0 85 -39.5 132t-115.5 47q-72 0 -114 -49.5t-42 -128.5v-617h-410zM247 1245q0 152 69 232t177 80q52 0 97 -18.5t70.5 -41t54.5 -41t51 -18.5q76 0 76 111h197 q-2 -148 -72 -231t-177 -83q-51 0 -95 18.5t-68.5 41t-53 41t-52.5 18.5q-36 0 -56.5 -28t-20.5 -81h-197z" />
<glyph unicode="&#xf2;" horiz-adv-x="1259" d="M49 553q0 271 156.5 425t423.5 154q269 0 425 -153.5t156 -425.5q0 -278 -154 -429.5t-427 -151.5q-272 0 -426 151.5t-154 429.5zM284 1572h337l142 -327h-262zM465 552q0 -138 43 -212.5t121 -74.5q77 0 121 75t44 212q0 134 -44.5 210.5t-120.5 76.5t-120 -76.5 t-44 -210.5z" />
<glyph unicode="&#xf3;" horiz-adv-x="1259" d="M49 553q0 271 156.5 425t423.5 154q269 0 425 -153.5t156 -425.5q0 -278 -154 -429.5t-427 -151.5q-272 0 -426 151.5t-154 429.5zM465 552q0 -138 43 -212.5t121 -74.5q77 0 121 75t44 212q0 134 -44.5 210.5t-120.5 76.5t-120 -76.5t-44 -210.5zM497 1245l142 327h337 l-217 -327h-262z" />
<glyph unicode="&#xf4;" horiz-adv-x="1259" d="M49 553q0 271 156.5 425t423.5 154q269 0 425 -153.5t156 -425.5q0 -278 -154 -429.5t-427 -151.5q-272 0 -426 151.5t-154 429.5zM218 1245l255 327h314l255 -327h-284l-124 171h-8l-124 -171h-284zM465 552q0 -138 43 -212.5t121 -74.5q77 0 121 75t44 212 q0 134 -44.5 210.5t-120.5 76.5t-120 -76.5t-44 -210.5z" />
<glyph unicode="&#xf5;" horiz-adv-x="1259" d="M49 553q0 271 156.5 425t423.5 154q269 0 425 -153.5t156 -425.5q0 -278 -154 -429.5t-427 -151.5q-272 0 -426 151.5t-154 429.5zM234 1245q0 152 69 232t177 80q52 0 97 -18.5t70.5 -41t54.5 -41t51 -18.5q76 0 76 111h197q-2 -148 -72 -231t-177 -83q-51 0 -95 18.5 t-68.5 41t-53 41t-52.5 18.5q-36 0 -56.5 -28t-20.5 -81h-197zM465 552q0 -138 43 -212.5t121 -74.5q77 0 121 75t44 212q0 134 -44.5 210.5t-120.5 76.5t-120 -76.5t-44 -210.5z" />
<glyph unicode="&#xf6;" horiz-adv-x="1259" d="M49 553q0 271 156.5 425t423.5 154q269 0 425 -153.5t156 -425.5q0 -278 -154 -429.5t-427 -151.5q-272 0 -426 151.5t-154 429.5zM218 1400q0 73 52 124.5t127 51.5t128.5 -52t53.5 -124t-53.5 -124t-128.5 -52t-127 51.5t-52 124.5zM465 552q0 -138 43 -212.5 t121 -74.5q77 0 121 75t44 212q0 134 -44.5 210.5t-120.5 76.5t-120 -76.5t-44 -210.5zM681 1400q0 72 53 124t128 52t127.5 -52t52.5 -124t-52.5 -124t-127.5 -52t-128 52t-53 124z" />
<glyph unicode="&#xf7;" d="M151 434v308h1110v-308h-1110zM513 167q0 85 56 138.5t138 53.5q83 0 138.5 -53.5t55.5 -138.5t-56 -138.5t-138 -53.5t-138 53.5t-56 138.5zM513 1009q0 85 56 138.5t138 53.5q83 0 138.5 -53.5t55.5 -138.5t-56 -138.5t-138 -53.5t-138 53.5t-56 138.5z" />
<glyph unicode="&#xf8;" horiz-adv-x="1259" d="M49 51l115 117q-115 146 -115 385q0 271 156.5 425t423.5 154q226 0 376 -111l112 113l93 -91l-113 -114q113 -149 113 -376q0 -278 -154 -429.5t-427 -151.5q-226 0 -371 105l-116 -117zM455 552q0 -42 5 -85l298 303q-46 84 -129 84q-80 0 -127 -80.5t-47 -221.5z M503 326q46 -76 126 -76q81 0 128 79t47 223q0 44 -4 75z" />
<glyph unicode="&#xf9;" horiz-adv-x="1280" d="M72 396v708h410v-616q0 -86 43 -132.5t116 -46.5q69 0 110.5 49t41.5 129v617h410v-1104h-400v217h-8q-34 -115 -112.5 -177t-199.5 -62q-182 0 -296.5 112.5t-114.5 305.5zM292 1572h337l142 -327h-262z" />
<glyph unicode="&#xfa;" horiz-adv-x="1280" d="M72 396v708h410v-616q0 -86 43 -132.5t116 -46.5q69 0 110.5 49t41.5 129v617h410v-1104h-400v217h-8q-34 -115 -112.5 -177t-199.5 -62q-182 0 -296.5 112.5t-114.5 305.5zM505 1245l142 327h337l-217 -327h-262z" />
<glyph unicode="&#xfb;" horiz-adv-x="1280" d="M72 396v708h410v-616q0 -86 43 -132.5t116 -46.5q69 0 110.5 49t41.5 129v617h410v-1104h-400v217h-8q-34 -115 -112.5 -177t-199.5 -62q-182 0 -296.5 112.5t-114.5 305.5zM226 1245l255 327h314l255 -327h-284l-124 171h-8l-124 -171h-284z" />
<glyph unicode="&#xfc;" horiz-adv-x="1280" d="M72 396v708h410v-616q0 -86 43 -132.5t116 -46.5q69 0 110.5 49t41.5 129v617h410v-1104h-400v217h-8q-34 -115 -112.5 -177t-199.5 -62q-182 0 -296.5 112.5t-114.5 305.5zM226 1400q0 73 52 124.5t127 51.5t128.5 -52t53.5 -124t-53.5 -124t-128.5 -52t-127 51.5 t-52 124.5zM689 1400q0 72 53 124t128 52t127.5 -52t52.5 -124t-52.5 -124t-127.5 -52t-128 52t-53 124z" />
<glyph unicode="&#xfd;" horiz-adv-x="1229" d="M-1 1104h455l168 -810h8l167 810h433l-329 -1078q-70 -230 -218.5 -330.5t-417.5 -100.5h-146v305h79q87 0 127.5 16.5t40.5 53.5q0 15 -5 30zM493 1245l142 327h337l-217 -327h-262z" />
<glyph unicode="&#xfe;" horiz-adv-x="1315" d="M82 -325v1768h410v-518h20q37 92 119.5 143.5t196.5 51.5q209 0 321 -147t112 -421q0 -273 -111 -420.5t-317 -147.5q-118 0 -201.5 49t-119.5 138h-20v-496h-410zM490 551q1 -119 47 -185t129 -66q82 0 128.5 66.5t46.5 185.5q0 117 -46.5 184.5t-128.5 67.5t-128.5 -67 t-47.5 -186z" />
<glyph unicode="&#xff;" horiz-adv-x="1229" d="M-1 1104h455l168 -810h8l167 810h433l-329 -1078q-70 -230 -218.5 -330.5t-417.5 -100.5h-146v305h79q87 0 127.5 16.5t40.5 53.5q0 15 -5 30zM214 1400q0 73 52 124.5t127 51.5t128.5 -52t53.5 -124t-53.5 -124t-128.5 -52t-127 51.5t-52 124.5zM677 1400q0 72 53 124 t128 52t127.5 -52t52.5 -124t-52.5 -124t-127.5 -52t-128 52t-53 124z" />
<glyph unicode="&#x152;" horiz-adv-x="2216" d="M75 721q0 220 83.5 394.5t229 271t325.5 96.5q156 0 276 -78t171 -216v254h958v-337h-594v-233h557v-304h-557v-232h594v-337h-958v244q-32 -122 -163 -203t-291 -81q-177 0 -321 96.5t-227 271t-83 393.5zM507 721q0 -187 80.5 -300.5t214.5 -113.5t214.5 113.5 t80.5 300.5t-81 301t-214 114t-214 -114t-81 -301z" />
<glyph unicode="&#x153;" horiz-adv-x="1952" d="M49 547q0 265 152 425t403 160q126 0 225.5 -45t159.5 -128h20q51 79 152.5 126t221.5 47q231 0 375.5 -154.5t144.5 -401.5v-111h-709v-44q0 -74 52 -121t135 -47q58 0 99.5 23t52.5 62h366q-23 -161 -163 -263.5t-337 -102.5q-131 0 -235 46t-154 127h-20 q-126 -173 -380 -173q-257 0 -409 156t-152 419zM449 549q0 -128 42.5 -200t118.5 -72t118.5 72t42.5 201t-43 203t-118 74t-118 -74t-43 -204zM1194 687h321q-5 75 -47.5 119.5t-109.5 44.5q-70 0 -116 -46.5t-48 -117.5z" />
<glyph unicode="&#x178;" horiz-adv-x="1470" d="M30 1443h453l253 -585h8l253 585h443l-493 -986v-457h-424v457zM323 1715q0 73 52 124.5t127 51.5t128.5 -52t53.5 -124t-53.5 -124t-128.5 -52t-127 51.5t-52 124.5zM786 1715q0 72 53 124t128 52t127.5 -52t52.5 -124t-52.5 -124t-127.5 -52t-128 52t-53 124z" />
<glyph unicode="&#x2c6;" horiz-adv-x="1024" d="M100 1245l255 327h314l255 -327h-284l-124 171h-8l-124 -171h-284z" />
<glyph unicode="&#x2dc;" horiz-adv-x="1024" d="M116 1245q0 152 69 232t177 80q52 0 97 -18.5t70.5 -41t54.5 -41t51 -18.5q76 0 76 111h197q-2 -148 -72 -231t-177 -83q-51 0 -95 18.5t-68.5 41t-53 41t-52.5 18.5q-36 0 -56.5 -28t-20.5 -81h-197z" />
<glyph unicode="&#x2000;" horiz-adv-x="973" />
<glyph unicode="&#x2001;" horiz-adv-x="1946" />
<glyph unicode="&#x2002;" horiz-adv-x="973" />
<glyph unicode="&#x2003;" horiz-adv-x="1946" />
<glyph unicode="&#x2004;" horiz-adv-x="648" />
<glyph unicode="&#x2005;" horiz-adv-x="486" />
<glyph unicode="&#x2006;" horiz-adv-x="324" />
<glyph unicode="&#x2007;" horiz-adv-x="324" />
<glyph unicode="&#x2008;" horiz-adv-x="243" />
<glyph unicode="&#x2009;" horiz-adv-x="389" />
<glyph unicode="&#x200a;" horiz-adv-x="108" />
<glyph unicode="&#x2010;" horiz-adv-x="931" d="M136 414v348h659v-348h-659z" />
<glyph unicode="&#x2011;" horiz-adv-x="931" d="M136 414v348h659v-348h-659z" />
<glyph unicode="&#x2012;" horiz-adv-x="931" d="M136 414v348h659v-348h-659z" />
<glyph unicode="&#x2013;" horiz-adv-x="1024" d="M0 403v363h1024v-363h-1024z" />
<glyph unicode="&#x2014;" horiz-adv-x="2048" d="M0 403v363h2048v-363h-2048z" />
<glyph unicode="&#x2018;" horiz-adv-x="649" d="M103 826l151 617h292l-73 -617h-370z" />
<glyph unicode="&#x2019;" horiz-adv-x="649" d="M103 826l73 617h370l-151 -617h-292z" />
<glyph unicode="&#x201a;" horiz-adv-x="648" d="M135 -344l53 617h370l-131 -617h-292z" />
<glyph unicode="&#x201c;" horiz-adv-x="1198" d="M130 826l151 617h292l-73 -617h-370zM645 826l131 617h292l-53 -617h-370z" />
<glyph unicode="&#x201d;" horiz-adv-x="1198" d="M130 826l53 617h370l-131 -617h-292zM625 826l73 617h370l-151 -617h-292z" />
<glyph unicode="&#x201e;" horiz-adv-x="1198" d="M130 -344l53 617h370l-131 -617h-292zM645 -344l53 617h370l-131 -617h-292z" />
<glyph unicode="&#x2022;" horiz-adv-x="1020" d="M101 573q0 167 121 288t288 121t288 -121t121 -288t-121 -288t-288 -121t-288 121t-121 288z" />
<glyph unicode="&#x2026;" horiz-adv-x="1674" d="M101 194q0 86 61 147t147 61t147 -61t61 -147t-61 -147t-147 -61t-147 61t-61 147zM629 194q0 86 61 147t147 61t147 -61t61 -147t-61 -147t-147 -61t-147 61t-61 147zM1157 194q0 86 61 147t147 61t147 -61t61 -147t-61 -147t-147 -61t-147 61t-61 147z" />
<glyph unicode="&#x202f;" horiz-adv-x="389" />
<glyph unicode="&#x2039;" horiz-adv-x="865" d="M90 562v8l347 407h338l-342 -406v-6l342 -409h-347z" />
<glyph unicode="&#x203a;" horiz-adv-x="865" d="M90 156l342 406v6l-342 409h347l338 -406v-8l-347 -407h-338z" />
<glyph unicode="&#x205f;" horiz-adv-x="486" />
<glyph unicode="&#x20ac;" d="M113 541v80h151q-5 55 -5 101q0 47 4 83h-150v80h161q49 262 255.5 410t543.5 148q104 0 198 -24v-321q-85 18 -187 18q-146 0 -248 -60.5t-145 -170.5h548v-80h-570q-7 -36 -7 -82q0 -56 10 -102h567v-80h-541q45 -102 142.5 -158t234.5 -56q143 0 204 14v-327 q-91 -14 -205 -14q-332 0 -537.5 143t-259.5 398h-164z" />
<glyph unicode="&#x2122;" horiz-adv-x="1920" d="M71 1216v227h686v-227h-200v-548h-286v548h-200zM836 668v775h331l140 -367h4l140 367h330v-775h-247v376h-5l-150 -376h-141l-150 376h-4v-376h-248z" />
<glyph unicode="&#x25fc;" horiz-adv-x="1105" d="M0 0v1105h1105v-1105h-1105z" />
<glyph unicode="&#xfb01;" horiz-adv-x="1399" d="M30 807v287h146v46q0 169 95 244.5t326 75.5q111 0 192 -17v-245q-30 6 -78 6q-137 0 -137 -84v-26h212v-287h-200v-807h-410v807h-146zM912 0v1104h410v-1104h-410zM920 1400q0 78 57 134.5t138 56.5t138 -56.5t57 -134.5t-57 -134.5t-138 -56.5t-138 56.5t-57 134.5z " />
<glyph unicode="&#xfb02;" horiz-adv-x="1409" d="M30 807v287h146v46q0 169 95 244.5t326 75.5q111 0 192 -17v-245q-30 6 -78 6q-137 0 -137 -84v-26h212v-287h-200v-807h-410v807h-146zM917 0v1443h410v-1443h-410z" />
</font>
</defs>
</svg>
