<?xml version="1.0" standalone="no"?>
<!DOCTYPE svg PUBLIC "-//W3C//DTD SVG 1.1//EN" "http://www.w3.org/Graphics/SVG/1.1/DTD/svg11.dtd" >
<svg xmlns="http://www.w3.org/2000/svg" xmlns:xlink="http://www.w3.org/1999/xlink" version="1.1">
<metadata></metadata>
<defs>
<font id="sf_pro_textsemibold_italic" horiz-adv-x="1383" >
<font-face units-per-em="2048" ascent="1638" descent="-410" />
<missing-glyph horiz-adv-x="546" />
<glyph horiz-adv-x="0" />
<glyph unicode="&#xd;" horiz-adv-x="0" />
<glyph unicode=" "  horiz-adv-x="546" />
<glyph unicode="&#x09;" horiz-adv-x="546" />
<glyph unicode="&#xa0;" horiz-adv-x="546" />
<glyph unicode="!" horiz-adv-x="695" d="M93 130q0 71 45.5 117t120.5 46q74 0 119.5 -45t45.5 -112q0 -70 -45.5 -116t-119.5 -46t-120 45t-46 111zM219 477l182 967h277l-229 -967h-230z" />
<glyph unicode="&#x22;" horiz-adv-x="972" d="M228 857l124 586h217l-123 -586h-218zM660 857l124 586h217l-124 -586h-217z" />
<glyph unicode="#" horiz-adv-x="1337" d="M26 387l59 194h231l99 299h-236l60 192h237l124 371h192l-122 -371h284l123 371h193l-123 -371h241l-59 -192h-244l-100 -299h248l-59 -194h-249l-128 -387h-193l128 387h-285l-127 -387h-192l126 387h-228zM495 567h302l109 325h-304z" />
<glyph unicode="$" d="M134 442h237q10 -77 64 -132.5t142 -76.5l85 400l-31 10q-171 54 -254 142t-83 223q0 186 138.5 301t359.5 115q25 0 38 -1l35 165h114l-38 -178q164 -33 258 -136.5t94 -257.5h-232q-3 70 -45.5 120t-117.5 72l-81 -380l38 -12q176 -55 259 -141t83 -220 q0 -186 -140.5 -311t-382.5 -125h-28l-35 -162h-114l37 174q-180 31 -288 139t-112 272zM544 1035q0 -59 39.5 -100t127.5 -72l76 358q-115 -1 -179 -55t-64 -131zM689 222q114 2 184.5 53.5t70.5 137.5q0 67 -39.5 109t-135.5 76z" />
<glyph unicode="%" horiz-adv-x="1957" d="M185 1079q0 159 102 273t264 114q134 0 214 -81t80 -219q0 -161 -103.5 -276t-263.5 -115q-131 0 -212 82.5t-81 221.5zM374 0l1076 1443h208l-1076 -1443h-208zM378 1076q0 -66 30.5 -102.5t80.5 -36.5q68 0 115.5 70t47.5 157q0 67 -31 103.5t-82 36.5 q-70 0 -115.5 -72t-45.5 -156zM1189 290q0 103 44 191t129 142.5t193 54.5q133 0 213 -81.5t80 -218.5q0 -161 -103.5 -276.5t-262.5 -115.5q-132 0 -212.5 82.5t-80.5 221.5zM1382 287q0 -65 30.5 -102t80.5 -37q68 0 115 70t47 158q0 66 -30.5 103t-81.5 37 q-70 0 -115.5 -72t-45.5 -157z" />
<glyph unicode="&#x26;" horiz-adv-x="1500" d="M56 370q0 284 364 426l68 28q-116 168 -116 291q0 149 120.5 252t298.5 103q164 0 272 -85.5t108 -214.5q0 -131 -95 -238.5t-289 -178.5l244 -353q109 134 122 322l3 40h217l-4 -46q-24 -283 -221 -493l149 -223h-271l-55 83q-178 -110 -412 -110q-140 0 -255 51.5 t-181.5 142.5t-66.5 203zM295 391q0 -98 77 -161.5t205 -63.5q169 0 290 80l-284 423q-2 -1 -25.5 -9.5t-24.5 -8.5q-116 -43 -177 -110t-61 -150zM595 1099q0 -43 22 -90.5t74 -115.5q132 43 196 110t64 145q0 64 -45.5 102.5t-116.5 38.5q-80 0 -137 -55.5t-57 -134.5z " />
<glyph unicode="'" horiz-adv-x="540" d="M228 857l124 586h217l-123 -586h-218z" />
<glyph unicode="(" horiz-adv-x="843" d="M244 381q0 323 126 622.5t336 513.5h266q-222 -229 -350 -530.5t-127 -642.5q1 -390 89 -653h-223q-52 115 -84.5 308.5t-32.5 381.5z" />
<glyph unicode=")" horiz-adv-x="843" d="M-105 -309q222 229 350 530.5t127 642.5q-1 390 -89 653h223q52 -116 85 -309t33 -380q0 -324 -126.5 -623t-336.5 -514h-266z" />
<glyph unicode="*" horiz-adv-x="972" d="M195 971l286 95l-239 136l119 147l196 -192l31 286h177l-94 -295l266 157l64 -163l-287 -96l234 -132l-119 -147l-196 186l-31 -280h-177l90 285l-255 -148z" />
<glyph unicode="+" d="M168 462l47 227h394l88 413h225l-88 -413h393l-47 -227h-393l-88 -412h-225l88 412h-394z" />
<glyph unicode="," horiz-adv-x="674" d="M-57 -382l223 604h251l-297 -604h-177z" />
<glyph unicode="-" horiz-adv-x="983" d="M146 465l49 233h656l-48 -233h-657z" />
<glyph unicode="." horiz-adv-x="674" d="M72 134q0 68 45 114.5t115 46.5t115 -45t45 -109q0 -69 -45 -115.5t-115 -46.5q-69 0 -114.5 45.5t-45.5 109.5z" />
<glyph unicode="/" horiz-adv-x="790" d="M-153 -309l889 1826h231l-889 -1826h-231z" />
<glyph unicode="0" horiz-adv-x="1361" d="M143 508q0 206 53.5 387t144.5 309t217.5 201.5t267.5 73.5q219 0 347.5 -148t128.5 -397q0 -207 -53 -388t-144.5 -308t-217.5 -200.5t-268 -73.5q-219 0 -347.5 147.5t-128.5 396.5zM402 498q0 -150 59.5 -234t167.5 -84q109 0 204.5 104t152.5 281t57 379 q0 149 -59.5 234t-165.5 85q-110 0 -206 -104.5t-153 -281.5t-57 -379z" />
<glyph unicode="1" horiz-adv-x="1016" d="M202 917l55 262l433 264h257l-307 -1443h-257l249 1167h-17z" />
<glyph unicode="2" horiz-adv-x="1288" d="M42 0l40 193l577 483q199 165 260.5 240.5t61.5 154.5q0 85 -64.5 140t-165.5 55q-98 0 -174.5 -58.5t-97.5 -169.5h-242q19 194 169 317.5t367 123.5q200 0 333 -109t133 -274q0 -130 -88.5 -244.5t-340.5 -321.5l-356 -295l-4 -18h656l-45 -217h-1019z" />
<glyph unicode="3" horiz-adv-x="1336" d="M102 371q0 24 4 49h243v-5q-5 -101 74 -167t206 -66q135 0 217 70.5t82 188.5q0 89 -74.5 145t-192.5 56h-157l40 200h199q121 0 199.5 67t78.5 170q0 85 -66.5 137t-173.5 52q-94 0 -168 -52.5t-100 -138.5h-242q38 183 183 292.5t349 109.5q205 0 338.5 -104.5 t133.5 -265.5q0 -140 -94 -243t-242 -126l-3 -18q120 -26 185 -102.5t65 -192.5q0 -133 -72 -239t-201 -165t-291 -59q-226 0 -373 115t-147 292z" />
<glyph unicode="4" horiz-adv-x="1378" d="M57 269l42 240q237 313 782 934h380l-204 -956h194l-45 -218h-195l-57 -269h-248l58 269h-707zM341 481h472l161 752h-15q-341 -384 -615 -737z" />
<glyph unicode="5" horiz-adv-x="1327" d="M125 378q0 8 2 34h243v-4q1 -102 77 -165t196 -63q139 0 226 92t87 234q0 115 -72.5 183.5t-186.5 68.5q-77 0 -145 -31t-112 -84h-242l243 800h862l-47 -218h-652l-119 -380l17 -1q112 107 283 107q177 0 299 -118.5t122 -297.5q0 -165 -70.5 -294.5t-201.5 -203 t-302 -73.5q-217 0 -362 119t-145 295z" />
<glyph unicode="6" horiz-adv-x="1369" d="M146 524q0 115 20 228.5t58.5 220.5t99 199t136.5 160.5t176.5 107.5t214.5 39q206 0 343.5 -117.5t142.5 -299.5h-255q-11 92 -77.5 146t-169.5 54q-149 0 -258 -131t-155 -366l17 -1q65 88 161 136t209 48q188 0 309 -118t121 -302q0 -117 -44.5 -222t-121 -180 t-183 -118.5t-226.5 -43.5q-240 0 -379 150t-139 410zM403 431q0 -112 74 -182t193 -70q132 0 223 94t91 230q0 109 -72 177.5t-185 68.5q-135 0 -229.5 -92.5t-94.5 -225.5z" />
<glyph unicode="7" horiz-adv-x="1213" d="M83 0l887 1209l4 17h-716l46 217h984l-47 -220l-878 -1223h-280z" />
<glyph unicode="8" horiz-adv-x="1376" d="M92 359q0 162 110.5 279t284.5 139l4 17q-88 38 -139.5 110.5t-51.5 158.5q0 180 149 298t375 118q205 0 344 -105t139 -259q0 -139 -89.5 -239.5t-235.5 -126.5l-4 -18q112 -41 175.5 -124t63.5 -189q0 -198 -165 -326t-419 -128q-238 0 -389.5 110.5t-151.5 284.5z M362 387q0 -101 76.5 -160.5t205.5 -59.5q135 0 223.5 74.5t88.5 189.5q0 99 -79 160.5t-204 61.5q-134 0 -222.5 -75.5t-88.5 -190.5zM547 1039q0 -85 66 -138.5t170 -53.5q114 0 190.5 69t76.5 171q0 85 -66 138.5t-171 53.5q-115 0 -190.5 -68t-75.5 -172z" />
<glyph unicode="9" horiz-adv-x="1369" d="M105 373h256q8 -88 76 -140.5t174 -52.5q152 0 261.5 131.5t153.5 364.5l-17 1q-66 -89 -161.5 -136.5t-207.5 -47.5q-190 0 -313 119t-123 303q0 158 75.5 287.5t208 203t294.5 73.5q239 0 376.5 -150t137.5 -411q0 -113 -20 -226.5t-58 -220.5t-98.5 -198.5 t-136 -160.5t-176 -108.5t-213.5 -39.5q-204 0 -342.5 115.5t-146.5 293.5zM461 938q0 -108 71.5 -177t183.5 -69q135 0 229 92.5t94 226.5q0 112 -73 181.5t-192 69.5q-132 0 -222.5 -93.5t-90.5 -230.5z" />
<glyph unicode=":" horiz-adv-x="674" d="M72 134q0 68 45 114.5t115 46.5t115 -45t45 -109q0 -69 -45 -115.5t-115 -46.5q-69 0 -114.5 45.5t-45.5 109.5zM228 863q0 68 45 114.5t115 46.5t115 -45t45 -109q0 -68 -45 -114.5t-115 -46.5q-69 0 -114.5 45t-45.5 109z" />
<glyph unicode=";" horiz-adv-x="674" d="M-57 -382l223 604h251l-297 -604h-177zM228 863q0 68 45 114.5t115 46.5t115 -45t45 -109q0 -68 -45 -114.5t-115 -46.5q-69 0 -114.5 45t-45.5 109z" />
<glyph unicode="&#x3c;" d="M169 463l46 227l1103 425l-56 -268l-788 -275l-2 -10l667 -282l-50 -244z" />
<glyph unicode="=" d="M134 233l44 215h984l-44 -215h-984zM233 704l44 215h984l-43 -215h-985z" />
<glyph unicode="&#x3e;" d="M78 36l56 268l788 276l2 10l-667 282l50 243l920 -426l-46 -228z" />
<glyph unicode="?" horiz-adv-x="1108" d="M190 1066q29 177 157.5 283.5t329.5 106.5q200 0 324 -99.5t124 -249.5q0 -127 -77 -232.5t-209 -164.5q-111 -49 -157 -93.5t-60 -118.5l-9 -49h-237l14 70q24 128 81 196t176 121q117 54 167.5 112.5t50.5 136.5q0 68 -54 114.5t-148 46.5q-86 0 -149 -48t-87 -132 h-237zM265 129q0 72 47 119t121 47q72 0 119.5 -43.5t47.5 -111.5q0 -71 -47 -118t-120 -47q-74 0 -121 43t-47 111z" />
<glyph unicode="@" horiz-adv-x="1892" d="M170 501q0 199 71 374t194.5 299.5t296.5 196t371 71.5q213 0 384.5 -86t268 -238.5t96.5 -342.5q0 -178 -62 -325t-170 -231t-240 -84q-101 0 -166.5 46.5t-65.5 119.5q0 4 0.5 11.5t0.5 10.5l-17 -1q-81 -141 -239 -141q-138 0 -221 92.5t-83 246.5q0 137 53 251.5 t145.5 180.5t203.5 66q88 0 155.5 -45.5t83.5 -116.5l17 -1l26 125h188l-125 -574q-4 -24 -4 -35q0 -85 94 -85q66 0 126.5 68t97 180t36.5 234q0 230 -167.5 377t-429.5 147q-207 0 -380.5 -103t-273.5 -281.5t-100 -392.5q0 -274 189.5 -439t503.5 -165q113 0 175 19 l-31 -150q-95 -19 -198 -19q-175 0 -325 54.5t-255 151.5t-164.5 235t-59.5 299zM792 530q0 -83 43.5 -132t117.5 -49q97 0 164.5 88.5t67.5 214.5q0 87 -45 139t-120 52q-95 0 -161.5 -91t-66.5 -222z" />
<glyph unicode="A" horiz-adv-x="1457" d="M-45 0l829 1443h283l201 -1443h-261l-44 369h-535l-202 -369h-271zM532 573h415l-72 593h-17z" />
<glyph unicode="B" horiz-adv-x="1393" d="M61 0l307 1443h558q185 0 297.5 -86t112.5 -228q0 -140 -89.5 -242.5t-231.5 -125.5l-3 -18q118 -21 186.5 -97.5t68.5 -188.5q0 -131 -70.5 -235.5t-196.5 -163t-284 -58.5h-655zM365 208h316q140 0 231.5 72t91.5 181q0 94 -66 143.5t-191 49.5h-287zM500 840h261 q139 0 226 65t87 168q0 169 -242 169h-246z" />
<glyph unicode="C" horiz-adv-x="1507" d="M141 563q0 262 100.5 471.5t279 327t401.5 117.5q243 0 406 -142t163 -354q0 -9 -2 -29h-253v9q-8 129 -98 207t-233 78q-139 0 -253.5 -87t-180 -239.5t-65.5 -338.5q0 -179 92.5 -283.5t250.5 -104.5q131 0 233.5 65.5t139.5 172.5h259q-50 -215 -227 -342t-429 -127 q-264 0 -424 164t-160 435z" />
<glyph unicode="D" horiz-adv-x="1517" d="M63 0l305 1443h472q285 0 445 -160t160 -443q0 -239 -97 -431t-269 -300.5t-385 -108.5h-631zM369 222h311q217 0 358.5 166.5t141.5 426.5q0 190 -103 298.5t-285 108.5h-208z" />
<glyph unicode="E" horiz-adv-x="1253" d="M61 0l307 1443h935l-47 -223h-673l-84 -383h637l-44 -210h-636l-89 -404h675l-46 -223h-935z" />
<glyph unicode="F" horiz-adv-x="1211" d="M61 0l307 1443h921l-47 -223h-659l-92 -420h604l-45 -215h-604l-124 -585h-261z" />
<glyph unicode="G" horiz-adv-x="1551" d="M142 570q0 262 100 469.5t278 323.5t402 116q234 0 396.5 -132t172.5 -330v-35h-254q-8 119 -99.5 192t-233.5 73q-140 0 -253.5 -85t-178.5 -236t-65 -336q0 -183 96 -288.5t262 -105.5q152 0 262.5 87t139.5 231l8 36h-341l42 201h596l-39 -188q-59 -292 -237.5 -445.5 t-457.5 -153.5q-268 0 -432 166.5t-164 439.5z" />
<glyph unicode="H" horiz-adv-x="1575" d="M61 0l307 1443h261l-128 -597h699l128 597h260l-307 -1443h-261l133 623h-699l-133 -623h-260z" />
<glyph unicode="I" horiz-adv-x="616" d="M61 0l307 1443h261l-307 -1443h-261z" />
<glyph unicode="J" horiz-adv-x="1182" d="M42 366q0 13 1 20h252v-6q1 -83 53.5 -131.5t141.5 -48.5q182 0 232 231l216 1012h257l-224 -1056q-43 -205 -169.5 -314t-326.5 -109q-197 0 -319 113q-114 107 -114 270v19z" />
<glyph unicode="K" horiz-adv-x="1415" d="M62 0l307 1443h257l-141 -659h17l701 659h312l-681 -647l407 -796h-293l-325 639l-206 -190l-97 -449h-258z" />
<glyph unicode="L" horiz-adv-x="1199" d="M61 0l307 1443h260l-260 -1217h660l-46 -226h-921z" />
<glyph unicode="M" horiz-adv-x="1847" d="M61 0l307 1443h294l205 -1058h17l661 1058h315l-307 -1443h-241l217 1015h-15l-607 -965h-183l-189 965h-15l-217 -1015h-242z" />
<glyph unicode="N" horiz-adv-x="1553" d="M61 0l307 1443h212l499 -1011h17l218 1011h253l-307 -1443h-212l-500 1005h-18l-216 -1005h-253z" />
<glyph unicode="O" horiz-adv-x="1603" d="M142 571q0 195 60 364.5t164 288.5t250 187t312 68q180 0 319.5 -79t214 -217t74.5 -311q0 -196 -60 -365.5t-164 -288.5t-249 -186.5t-311 -67.5q-179 0 -318.5 79t-215.5 217t-76 311zM408 591q0 -178 98 -286.5t258 -108.5q142 0 257.5 85t181.5 235t66 335 q0 178 -97.5 286.5t-255.5 108.5q-141 0 -258 -86t-183.5 -236.5t-66.5 -332.5z" />
<glyph unicode="P" horiz-adv-x="1345" d="M62 0l306 1443h520q201 0 326.5 -112.5t125.5 -298.5q0 -170 -78.5 -298t-215.5 -194.5t-312 -66.5h-311l-101 -473h-260zM467 687h260q159 0 254 86.5t95 235.5q0 105 -68 161.5t-188 56.5h-236z" />
<glyph unicode="Q" horiz-adv-x="1603" d="M142 571q0 195 60 364.5t164.5 288.5t250 187t311.5 68q180 0 319 -79t214 -216.5t75 -311.5q0 -251 -96 -454t-267 -321l118 -246h-253l-71 143q-99 -30 -215 -30q-178 0 -318 79t-216 217t-76 311zM406 591q0 -179 98.5 -288t259.5 -109q61 0 108 12l-121 250h245 l65 -121q99 84 154.5 219.5t55.5 297.5q0 178 -98 287t-257 109q-141 0 -258.5 -86t-184.5 -237t-67 -334z" />
<glyph unicode="R" horiz-adv-x="1389" d="M61 0l307 1443h545q199 0 321.5 -110.5t122.5 -288.5q0 -164 -99.5 -293t-267.5 -178l201 -573h-278l-178 541h-298l-115 -541h-261zM480 746h294q142 0 230.5 77t88.5 198q0 97 -60 152.5t-166 55.5h-283z" />
<glyph unicode="S" horiz-adv-x="1331" d="M65 407h252q19 -103 108.5 -165.5t217.5 -62.5q132 0 214 59t82 154q0 73 -54 122.5t-179 90.5l-146 47q-156 51 -241 151.5t-85 234.5q0 190 155.5 315.5t391.5 125.5q225 0 373.5 -122t159.5 -315h-247q-19 102 -99 162t-199 60q-117 0 -193.5 -56t-76.5 -142 q0 -66 50 -115t157 -85l142 -47q182 -60 268 -155t86 -236q0 -208 -160.5 -336t-418.5 -128q-238 0 -388.5 119t-169.5 324z" />
<glyph unicode="T" horiz-adv-x="1328" d="M235 1220l46 223h1147l-46 -223h-443l-261 -1220h-260l260 1220h-443z" />
<glyph unicode="U" horiz-adv-x="1549" d="M172 426v8q0 55 13 119l187 890h261l-186 -880q-12 -55 -12 -114q4 -118 82 -185t221 -67q140 0 237.5 81t128.5 227l199 938h261l-211 -994q-49 -231 -213.5 -358t-425.5 -127q-252 0 -396 129t-146 333z" />
<glyph unicode="V" horiz-adv-x="1442" d="M261 1443h267l132 -1138h17l596 1138h289l-805 -1443h-297z" />
<glyph unicode="W" horiz-adv-x="2036" d="M279 1443h253l31 -1074h14l515 1074h215l72 -1074h14l480 1074h265l-687 -1443h-250l-79 1022h-15l-502 -1022h-246z" />
<glyph unicode="X" horiz-adv-x="1456" d="M-27 0l638 747l-315 696h291l225 -523h18l439 523h289l-640 -730l326 -713h-283l-238 522h-17l-448 -522h-285z" />
<glyph unicode="Y" horiz-adv-x="1412" d="M262 1443h269l222 -622h18l475 622h286l-696 -896l-115 -547h-260l120 564z" />
<glyph unicode="Z" horiz-adv-x="1373" d="M22 0l37 176l963 1027l3 17h-722l46 223h1057l-37 -176l-961 -1027l-2 -17h759l-46 -223h-1097z" />
<glyph unicode="[" horiz-adv-x="843" d="M57 -309l389 1826h526l-40 -191h-286l-310 -1444h287l-40 -191h-526z" />
<glyph unicode="\" horiz-adv-x="790" d="M271 1517h221l50 -1826h-219z" />
<glyph unicode="]" horiz-adv-x="843" d="M-105 -309l40 191h287l309 1445h-287l40 190h526l-389 -1826h-526z" />
<glyph unicode="^" horiz-adv-x="972" d="M105 737l431 640h246l159 -640h-206l-104 446h-17l-295 -446h-214z" />
<glyph unicode="_" horiz-adv-x="934" d="M-183 -298l39 191h944l-39 -191h-944z" />
<glyph unicode="`" horiz-adv-x="1024" d="M535 1591h253l70 -348h-188z" />
<glyph unicode="a" horiz-adv-x="1174" d="M45 282q0 165 126 261t355 104l286 11l15 70q6 30 6 44q0 66 -53.5 104t-147.5 38q-161 0 -208 -112h-242q36 145 162.5 229.5t306.5 84.5q193 0 310.5 -87t117.5 -229q0 -40 -9 -89l-151 -711h-241l30 138h-18q-50 -72 -135 -114t-182 -42q-140 0 -234 86t-94 214z M291 316q0 -62 50.5 -101t129.5 -39q103 0 183 59t100 150l23 106l-249 -11q-111 -4 -174 -48t-63 -116z" />
<glyph unicode="b" horiz-adv-x="1311" d="M41 0l322 1517h248l-121 -575l18 1q117 169 334 169q166 0 272.5 -116.5t106.5 -303.5q0 -199 -72.5 -362t-199 -255.5t-279.5 -92.5q-114 0 -206.5 60.5t-122.5 156.5h-17l-43 -199h-240zM392 454q0 -121 63.5 -189.5t169.5 -68.5q144 0 241 130.5t97 324.5 q0 120 -60.5 186t-164.5 66q-144 0 -245 -131.5t-101 -317.5z" />
<glyph unicode="c" horiz-adv-x="1181" d="M95 440q0 192 74.5 346t210.5 242t309 88q180 0 301 -99t138 -240q3 -21 3 -45h-239q-6 79 -68 127t-152 48q-142 0 -234 -127t-92 -318q0 -131 63 -202.5t167 -71.5q89 0 152.5 42t90.5 120h243q-31 -163 -167 -267.5t-335 -104.5q-212 0 -338.5 126t-126.5 336z" />
<glyph unicode="d" horiz-adv-x="1314" d="M91 415q0 198 74 358t201.5 249.5t282.5 89.5q118 0 203 -58.5t113 -151.5h18l131 615h249l-322 -1517h-240l32 151h-18q-58 -79 -145.5 -124t-192.5 -45q-167 0 -276.5 118t-109.5 315zM349 456q0 -120 64 -192.5t166 -72.5q144 0 243.5 131.5t99.5 318.5 q0 120 -63.5 189t-169.5 69q-144 0 -242 -126t-98 -317z" />
<glyph unicode="e" horiz-adv-x="1223" d="M97 443q0 300 162.5 486.5t420.5 186.5q192 0 318.5 -123t127.5 -330q0 -88 -16 -173h-772q-2 -24 -2 -39q0 -133 71 -202t175 -69q177 0 237 122h245q-37 -145 -170 -234.5t-327 -89.5q-208 0 -339 124.5t-131 340.5zM366 658h518q2 12 2 40q0 95 -58.5 157.5 t-160.5 62.5q-108 0 -188.5 -70.5t-112.5 -189.5z" />
<glyph unicode="f" horiz-adv-x="801" d="M114 0l187 889h-179l41 198h177l24 118q31 159 125.5 231t266.5 72q86 0 160 -19l-38 -182q-40 11 -110 11q-133 0 -161 -138l-18 -93h239l-41 -198h-235l-188 -889h-250z" />
<glyph unicode="g" horiz-adv-x="1298" d="M-2 -91h251q8 -60 72.5 -98t168.5 -38q122 0 193.5 54.5t94.5 152.5l45 197h-17q-112 -157 -325 -157q-167 0 -276.5 117t-109.5 304q0 190 71.5 344t196 240.5t275.5 86.5q114 0 205.5 -59t122.5 -154h17l42 195h241l-245 -1141q-36 -172 -180.5 -270.5t-367.5 -98.5 q-207 0 -339.5 93.5t-135.5 231.5zM351 475q0 -122 61.5 -192.5t167.5 -70.5q143 0 239 121.5t96 307.5q0 118 -64 188t-173 70q-142 0 -234.5 -118.5t-92.5 -305.5z" />
<glyph unicode="h" horiz-adv-x="1270" d="M41 0l323 1512h249l-126 -582h17q121 184 330 184q153 0 243.5 -91.5t90.5 -227.5q0 -57 -14 -129l-141 -666h-249l133 625q11 59 11 91q0 86 -53 137t-147 51q-106 0 -180 -68t-98 -178l-140 -658h-249z" />
<glyph unicode="i" horiz-adv-x="569" d="M44 0l232 1094h248l-232 -1094h-248zM319 1424q0 62 43.5 106t104.5 44q62 0 105.5 -44t43.5 -106t-43.5 -105.5t-105.5 -43.5q-61 0 -104.5 43.5t-43.5 105.5z" />
<glyph unicode="j" horiz-adv-x="569" d="M-223 -364l44 199q27 -5 61 -5q67 0 103 30.5t52 103.5l240 1130h248l-246 -1159q-66 -309 -383 -309q-65 0 -119 10zM320 1424q0 62 43.5 106t104.5 44q62 0 105.5 -44t43.5 -106t-43.5 -105.5t-105.5 -43.5q-61 0 -104.5 43.5t-43.5 105.5z" />
<glyph unicode="k" horiz-adv-x="1165" d="M41 0l322 1517h249l-180 -846h17l484 423h299l-542 -476l341 -618h-278l-263 479l-118 -94l-82 -385h-249z" />
<glyph unicode="l" horiz-adv-x="565" d="M41 0l322 1517h251l-323 -1517h-250z" />
<glyph unicode="m" horiz-adv-x="1852" d="M32 0l232 1094h241l-38 -176h18q49 87 132 140.5t176 53.5q111 0 187 -58t98 -141h17q126 199 352 199q133 0 219.5 -86t86.5 -217q0 -57 -14 -129l-144 -680h-249l136 641q11 53 11 91q0 73 -45.5 120.5t-122.5 47.5q-87 0 -156 -63t-92 -170l-141 -667h-243l135 641 q12 58 12 91q0 73 -46 120.5t-123 47.5q-86 0 -155.5 -62t-90.5 -164l-144 -674h-249z" />
<glyph unicode="n" horiz-adv-x="1253" d="M32 0l233 1094h241l-37 -170h18q121 188 334 188q150 0 240 -92.5t90 -230.5q0 -58 -14 -128l-141 -661h-248l132 619q11 53 11 92q0 85 -51.5 137t-143.5 52q-104 0 -177.5 -68.5t-97.5 -178.5l-140 -653h-249z" />
<glyph unicode="o" horiz-adv-x="1267" d="M95 447q0 290 171.5 479.5t433.5 189.5q212 0 341.5 -129t129.5 -340q0 -189 -78 -342.5t-215.5 -240t-308.5 -86.5q-212 0 -343 129.5t-131 339.5zM355 460q0 -125 63.5 -199.5t169.5 -74.5q133 0 227.5 128.5t94.5 307.5q0 134 -60 210t-166 76q-143 0 -236 -126.5 t-93 -321.5z" />
<glyph unicode="p" horiz-adv-x="1305" d="M-42 -364l310 1458h240l-32 -151h18q58 79 147 124t194 45q166 0 273 -116.5t107 -303.5q0 -199 -72.5 -362t-199.5 -255.5t-281 -92.5q-118 0 -203.5 60t-113.5 157h-17l-122 -563h-248zM387 454q0 -121 63.5 -189.5t169.5 -68.5q143 0 240.5 130.5t97.5 324.5 q0 120 -61 186t-165 66q-94 0 -173.5 -60.5t-125.5 -163.5t-46 -225z" />
<glyph unicode="q" horiz-adv-x="1305" d="M90 412q0 196 73.5 357t200.5 252t281 91q117 0 207.5 -59.5t120.5 -150.5h18l40 192h241l-309 -1458h-248l108 515h-16q-125 -169 -338 -169q-166 0 -272.5 119.5t-106.5 310.5zM348 454q0 -125 60.5 -194t164.5 -69q144 0 245 131.5t101 318.5q0 120 -63.5 189 t-169.5 69q-143 0 -240.5 -128t-97.5 -317z" />
<glyph unicode="r" horiz-adv-x="865" d="M27 0l232 1094h241l-30 -146h17q97 164 280 164q87 0 135 -20l-50 -231q-69 24 -156 24q-117 0 -188 -65.5t-100 -200.5l-132 -619h-249z" />
<glyph unicode="s" horiz-adv-x="1114" d="M41 307h243q15 -63 74.5 -102t147.5 -39q94 0 152.5 37.5t58.5 97.5q0 41 -28 70.5t-93 50.5l-170 57q-130 45 -193 115.5t-63 177.5q0 154 122 249t316 95q188 0 305 -86t132 -230h-232q-13 59 -68.5 93t-138.5 34q-85 0 -140 -36.5t-55 -93.5q0 -41 32.5 -70.5 t100.5 -52.5l167 -57q135 -45 195.5 -114t60.5 -176q0 -155 -129.5 -252t-334.5 -97q-199 0 -326.5 91t-135.5 238z" />
<glyph unicode="t" horiz-adv-x="809" d="M125 889l41 198h179l57 275h250l-59 -275h239l-43 -198h-236l-111 -515q-10 -50 -10 -76q0 -105 127 -105q43 0 83 5l-40 -192q-44 -11 -139 -11q-133 0 -213 59.5t-80 168.5q0 42 11 95l122 571h-178z" />
<glyph unicode="u" horiz-adv-x="1252" d="M104 297q0 62 15 140l138 657h250l-131 -617q-12 -55 -12 -99q0 -183 187 -183q109 0 183.5 69t99.5 185l137 645h249l-232 -1094h-240l35 159h-17q-107 -181 -330 -181q-149 0 -240.5 88.5t-91.5 230.5z" />
<glyph unicode="v" horiz-adv-x="1157" d="M174 1094h250l86 -825h17l421 825h268l-615 -1094h-277z" />
<glyph unicode="w" horiz-adv-x="1681" d="M179 1094h238l21 -811h17l376 811h244l36 -817h18l356 817h248l-529 -1094h-262l-48 783h-17l-376 -783h-257z" />
<glyph unicode="x" horiz-adv-x="1151" d="M-45 0l470 551l-241 543h271l147 -374h17l295 374h281l-471 -548l242 -546h-261l-156 372h-17l-300 -372h-277z" />
<glyph unicode="y" horiz-adv-x="1173" d="M-37 -389l41 200q37 -8 90 -8q68 0 119 33.5t90 110.5l28 54l-155 1093h251l87 -835h18l429 835h267l-650 -1163q-101 -185 -210 -257.5t-274 -72.5q-25 0 -73 4t-58 6z" />
<glyph unicode="z" horiz-adv-x="1140" d="M10 0l33 155l716 722l2 17h-554l42 200h872l-36 -169l-691 -708l-2 -17h546l-41 -200h-887z" />
<glyph unicode="{" horiz-adv-x="843" d="M78 481l51 246q117 0 176.5 46.5t83.5 163.5l49 229q39 189 148 270t305 81h80l-40 -191h-44q-98 0 -148 -48t-75 -164l-54 -248q-25 -116 -102.5 -188t-194.5 -83l-4 -17q105 -17 150 -62.5t45 -119.5q0 -28 -11 -85l-46 -218q-12 -53 -12 -88q0 -62 33.5 -94.5 t110.5 -32.5h44l-39 -187h-79q-141 0 -227.5 67t-86.5 196q0 53 13 110l44 209q12 57 12 87q0 66 -42.5 93.5t-139.5 27.5z" />
<glyph unicode="|" horiz-adv-x="790" d="M102 -309l388 1826h222l-388 -1826h-222z" />
<glyph unicode="}" horiz-adv-x="843" d="M-104 -309l40 191h44q98 0 148 48t75 164l54 248q25 116 102.5 188t194.5 83l4 17q-105 17 -150 62.5t-45 119.5q0 30 11 85l46 218q12 55 12 89q0 62 -33.5 94t-109.5 32h-45l39 187h80q141 0 227 -67t86 -196q0 -53 -13 -110l-44 -209q-12 -57 -12 -87 q0 -66 42.5 -93.5t139.5 -27.5l-51 -246q-117 0 -176 -46.5t-84 -163.5l-49 -229q-39 -189 -148 -270t-305 -81h-80z" />
<glyph unicode="~" d="M138 394q15 79 44 148t72.5 125.5t106.5 89.5t138 33q59 0 109 -21.5t85 -52t67 -60.5t68.5 -51.5t76.5 -21.5q113 0 154 175h199q-14 -80 -42.5 -149.5t-72 -126t-106.5 -89t-139 -32.5q-59 0 -110 21.5t-86.5 52t-67.5 61t-68 52t-74 21.5q-112 0 -155 -175h-199z" />
<glyph unicode="&#xa1;" horiz-adv-x="695" d="M21 -329l229 967h230l-182 -967h-277zM275 978q0 71 45 116.5t120 45.5q74 0 120 -44.5t46 -110.5q0 -71 -45.5 -117t-120.5 -46q-74 0 -119.5 45t-45.5 111z" />
<glyph unicode="&#xa2;" d="M245 643q0 139 41 258.5t114 204t178.5 132.5t229.5 48h6l33 157h114l-36 -168q151 -31 237 -133t86 -235v-23h-235q-2 64 -36.5 112.5t-95.5 68.5l-144 -673q78 8 134 55t82 124h237q-34 -171 -170 -280.5t-319 -109.5h-8l-39 -181h-113l41 193q-161 33 -249 153 t-88 297zM492 653q0 -94 35.5 -158t99.5 -89l142 669q-124 -14 -200.5 -130t-76.5 -292z" />
<glyph unicode="&#xa3;" d="M39 17l43 203q166 24 252.5 133t86.5 279v20h-253l33 157h215q-1 17 -1 49q0 275 160 433t452 158q94 0 181 -19.5t135 -42.5l-45 -202q-108 51 -270 51q-184 0 -272 -94.5t-88 -259.5q0 -9 0.5 -34t0.5 -39h467l-33 -157h-430q-2 -139 -66 -251.5t-175 -161.5l-1 -7h739 l-45 -215h-1086z" />
<glyph unicode="&#xa4;" d="M88 281l215 178q-44 91 -44 192q0 143 84 257l-109 138l171 143l111 -141q83 36 171 36q148 0 265 -93l217 180l116 -150l-214 -178q45 -90 45 -192q0 -143 -84 -257l108 -137l-171 -143l-110 140q-83 -36 -172 -36q-149 0 -264 93l-219 -181zM442 651q0 -100 72.5 -172 t172.5 -72q101 0 173.5 72t72.5 172t-72.5 172t-173.5 72q-100 0 -172.5 -72t-72.5 -172z" />
<glyph unicode="&#xa5;" d="M168 274l25 116h338l32 148h-338l24 117h288l-279 757h265l215 -614h5l471 614h278l-589 -757h278l-24 -117h-339l-31 -148h338l-25 -116h-338l-57 -271h-256l58 271h-339z" />
<glyph unicode="&#xa6;" horiz-adv-x="790" d="M102 -309l147 692h222l-147 -692h-222zM337 796l153 721h222l-153 -721h-222z" />
<glyph unicode="&#xa7;" horiz-adv-x="1321" d="M107 66h245q11 -62 67 -102t137 -40q87 0 142.5 42t54.5 105q0 92 -114 136l-171 71q-246 100 -247 296q-1 111 74.5 190t203.5 105l3 18q-85 52 -121.5 109t-36.5 136q-2 152 120.5 247t314.5 95q185 0 302.5 -88.5t134.5 -237.5h-241q-10 62 -63 99t-132 37 q-81 0 -133 -40t-51 -102q0 -85 125 -136l154 -66q129 -53 192 -124t64 -172q2 -108 -72.5 -192t-201.5 -111l-2 -15q83 -52 117.5 -108.5t35.5 -135.5q1 -152 -126.5 -249.5t-326.5 -97.5q-187 0 -314 92t-134 239zM469 615q2 -95 129 -147l108 -47q80 17 128 65t47 113 q0 100 -117 146l-105 45q-82 -11 -136 -60t-54 -115z" />
<glyph unicode="&#xa8;" horiz-adv-x="1024" d="M323 1422q0 60 42 102t101 42t101 -42t42 -102q0 -59 -42 -101t-101 -42t-101 42t-42 101zM787 1422q0 60 42 102t101 42t100.5 -42t41.5 -102q0 -59 -41.5 -101t-100.5 -42t-101 42t-42 101z" />
<glyph unicode="&#xa9;" horiz-adv-x="1742" d="M113 576q0 179 66.5 338t181.5 273t275 180.5t340 66.5q156 0 294 -55.5t236.5 -151t155.5 -230t57 -286.5q0 -239 -113.5 -436t-312 -310t-438.5 -113q-153 0 -291 56.5t-236.5 152.5t-156.5 230.5t-58 284.5zM270 587q0 -163 78 -296.5t215 -209.5t304 -76 q142 0 270.5 54.5t221.5 147.5t147.5 222t54.5 271q0 165 -77 298t-213.5 208t-305.5 75q-142 0 -270.5 -55t-221.5 -147.5t-148 -221.5t-55 -270zM545 585q0 203 118.5 336.5t297.5 133.5q141 0 229 -79t89 -204h-167q-3 61 -47 99.5t-112 38.5q-101 0 -169 -91.5 t-68 -226.5q0 -95 44.5 -148.5t123.5 -53.5q126 0 172 107h171q-28 -117 -123 -185t-229 -68q-148 0 -239 94t-91 247z" />
<glyph unicode="&#xaa;" horiz-adv-x="837" d="M147 907q-1 111 88.5 176.5t250.5 69.5l194 6l10 45q3 20 3 26q-2 38 -38 60t-97 22q-107 0 -136 -65h-184q24 100 114.5 159t220.5 59q139 0 224 -59t86 -156q0 -34 -6 -59l-100 -472h-187l20 90h-13q-33 -47 -92 -74t-126 -27q-98 0 -164.5 57t-67.5 142zM337 935 q1 -36 35 -58.5t87 -22.5q67 0 118.5 34t63.5 86l14 63l-165 -6q-73 -2 -114 -28t-39 -68z" />
<glyph unicode="&#xab;" horiz-adv-x="1426" d="M146 562l2 8l428 412h266l-447 -428l-2 -12l251 -393h-237zM645 562l2 8l428 412h266l-446 -428l-3 -12l252 -393h-237z" />
<glyph unicode="&#xac;" d="M190 463l47 227h968l-135 -640h-225l88 413h-743z" />
<glyph unicode="&#xad;" horiz-adv-x="983" d="M146 465l49 233h656l-48 -233h-657z" />
<glyph unicode="&#xae;" horiz-adv-x="1261" d="M193 969q0 219 153.5 371.5t373.5 152.5q226 0 376.5 -149.5t150.5 -374.5q0 -218 -153.5 -371t-373.5 -153q-148 0 -269 68.5t-189.5 188.5t-68.5 267zM315 969q0 -173 115 -288t288 -115q170 0 288.5 117.5t118.5 285.5q0 174 -115.5 289t-289.5 115 q-169 0 -287 -117.5t-118 -286.5zM461 737l104 491h242q66 0 111 -42t45 -100q0 -64 -38 -108t-101 -57l88 -184h-128l-81 171h-91l-36 -171h-115zM632 1000h111q96 0 96 74q0 25 -18 40t-52 15h-109z" />
<glyph unicode="&#xaf;" horiz-adv-x="1024" d="M330 1337l35 165h699l-34 -165h-700z" />
<glyph unicode="&#xb0;" horiz-adv-x="972" d="M236 1032q0 160 106 271.5t263 111.5q154 0 250.5 -93.5t96.5 -239.5q0 -160 -106.5 -271.5t-263.5 -111.5q-154 0 -250 93.5t-96 239.5zM425 1037q0 -67 42.5 -111.5t114.5 -44.5q78 0 129 56t51 140q0 67 -42.5 111.5t-114.5 44.5q-78 0 -129 -56t-51 -140z" />
<glyph unicode="&#xb1;" d="M68 50l44 210h1037l-44 -210h-1037zM192 636l42 201h410l57 265h217l-58 -265h411l-42 -201h-410l-57 -265h-216l57 265h-411z" />
<glyph unicode="&#xb2;" horiz-adv-x="847" d="M138 719l31 149l347 256q128 97 168.5 141.5t39.5 89.5q-1 43 -39 71t-97 28q-55 0 -98.5 -29t-56.5 -95h-185q10 125 111 205.5t248 80.5q135 0 224.5 -68.5t90.5 -174.5q1 -84 -57 -153t-224 -193l-191 -132l-2 -11h399l-34 -165h-675z" />
<glyph unicode="&#xb3;" horiz-adv-x="878" d="M173 954q0 20 4 41h187h1q-5 -56 41 -93t121 -37t121 35.5t44 91.5q-1 46 -44 74t-109 28h-102l31 149h122q74 0 117.5 31.5t42.5 83.5q-1 44 -40.5 71t-102.5 27q-56 0 -97.5 -26t-55.5 -69h-184q25 117 120.5 186t233.5 69t228 -65.5t91 -167.5q1 -83 -60.5 -146 t-153.5 -73l-2 -11q78 -17 120 -64t42 -119q2 -119 -101 -196.5t-264 -77.5q-154 0 -252 71.5t-99 186.5z" />
<glyph unicode="&#xb4;" horiz-adv-x="1024" d="M461 1243l218 348h253l-282 -348h-189z" />
<glyph unicode="&#xb5;" horiz-adv-x="1331" d="M-52 -364l308 1458h250l-126 -594q-16 -82 -16 -116q0 -188 187 -188q105 0 188 78.5t109 200.5l131 619h248l-166 -778q-7 -28 -7 -56q0 -37 20 -53t67 -16q30 0 53 5l-40 -194q-46 -12 -117 -12q-219 0 -219 193v6h-17q-49 -88 -129.5 -149.5t-185.5 -61.5 q-64 0 -113 29.5t-62 78.5h-18l-96 -450h-249z" />
<glyph unicode="&#xb6;" horiz-adv-x="1321" d="M191 943q0 141 76 256.5t202.5 179.5t275.5 64h222l-358 -1688h-205l177 828h-19q-164 0 -267.5 101t-103.5 259zM772 -245l359 1688h204l-358 -1688h-205z" />
<glyph unicode="&#xb7;" horiz-adv-x="674" d="M160 544q0 68 45 114.5t115 46.5q69 0 114.5 -45t45.5 -109q0 -68 -45 -115t-115 -47q-69 0 -114.5 45.5t-45.5 109.5z" />
<glyph unicode="&#xb8;" horiz-adv-x="1024" d="M135 -468l28 127q51 -15 105 -15q117 0 117 58q0 59 -121 59h-56l22 104l116 161h153v-26l-96 -130q67 -4 116 -46.5t49 -118.5q0 -94 -77 -144.5t-200 -50.5q-88 0 -156 22z" />
<glyph unicode="&#xb9;" horiz-adv-x="688" d="M234 1248l40 193l271 152h199l-185 -874h-200l143 673h-11z" />
<glyph unicode="&#xba;" horiz-adv-x="901" d="M181 1023q-2 191 118.5 316.5t306.5 125.5q153 0 246.5 -87.5t94.5 -232.5q3 -190 -118 -316t-305 -126q-153 0 -247.5 88t-95.5 232zM381 1028q1 -76 43.5 -121t111.5 -45q88 0 150 80.5t60 192.5q-1 81 -41 126t-110 45q-95 0 -155.5 -79t-58.5 -199z" />
<glyph unicode="&#xbb;" horiz-adv-x="1426" d="M93 149l446 428l3 13l-252 392h237l262 -413l-2 -8l-428 -412h-266zM592 149l447 428l2 13l-251 392h237l261 -413l-2 -8l-428 -412h-266z" />
<glyph unicode="&#xbc;" horiz-adv-x="2069" d="M202 1098l40 193l271 152h199l-185 -874h-200l143 673h-11zM393 0l1076 1443h208l-1076 -1443h-208zM1147 145l34 187q123 160 475 542h290l-120 -562h120l-35 -167h-120l-31 -145h-190l31 145h-454zM1359 304h280l89 416h-11q-7 -8 -61 -65.5t-72.5 -78t-62.5 -69.5 t-81.5 -94.5t-78.5 -97.5z" />
<glyph unicode="&#xbd;" horiz-adv-x="2120" d="M202 1098l40 193l271 152h199l-185 -874h-200l143 673h-11zM393 0l1076 1443h208l-1076 -1443h-208zM1258 0l31 149l347 256q128 97 168.5 141.5t39.5 89.5q-1 43 -39 71t-97 28q-55 0 -98.5 -29t-56.5 -95h-185q10 125 111 205.5t248 80.5q135 0 224.5 -68.5 t90.5 -174.5q1 -84 -57 -153t-224 -193l-191 -132l-2 -11h399l-34 -165h-675z" />
<glyph unicode="&#xbe;" horiz-adv-x="2260" d="M141 804q0 20 4 41h187h1q-5 -56 41 -93t121 -37t121 35.5t44 91.5q-1 46 -44 74t-109 28h-102l31 149h122q74 0 117.5 31.5t42.5 83.5q-1 44 -40.5 71t-102.5 27q-56 0 -97.5 -26t-55.5 -69h-184q25 117 120.5 186t233.5 69t228 -65.5t91 -167.5q1 -83 -60.5 -146 t-153.5 -73l-2 -11q78 -17 120 -64t42 -119q2 -119 -101 -196.5t-264 -77.5q-154 0 -252 71.5t-99 186.5zM583 0l1076 1443h208l-1076 -1443h-208zM1338 145l34 187q123 160 475 542h290l-120 -562h120l-35 -167h-120l-31 -145h-190l31 145h-454zM1550 304h280l89 416h-11 q-7 -8 -61 -65.5t-72.5 -78t-62.5 -69.5t-81.5 -94.5t-78.5 -97.5z" />
<glyph unicode="&#xbf;" horiz-adv-x="1107" d="M-13 7q0 128 76.5 233.5t209.5 164.5q111 49 157 93.5t60 118.5l9 48h237l-14 -69q-24 -129 -81 -197t-176 -121q-117 -53 -167.5 -111.5t-50.5 -136.5q0 -68 54 -115t148 -47q86 0 149 48t87 133h236q-28 -176 -156.5 -283t-329.5 -107q-200 0 -324 99t-124 249z M512 975q0 71 47 118t120 47q74 0 121 -43t47 -111q0 -72 -47 -118.5t-121 -46.5q-72 0 -119.5 43t-47.5 111z" />
<glyph unicode="&#xc0;" horiz-adv-x="1457" d="M-45 0l829 1443h283l201 -1443h-261l-44 369h-535l-202 -369h-271zM532 573h415l-72 593h-17zM743 1900h249l65 -315h-188z" />
<glyph unicode="&#xc1;" horiz-adv-x="1457" d="M-45 0l829 1443h283l201 -1443h-261l-44 369h-535l-202 -369h-271zM532 573h415l-72 593h-17zM854 1585l199 315h248l-258 -315h-189z" />
<glyph unicode="&#xc2;" horiz-adv-x="1457" d="M-45 0l829 1443h283l201 -1443h-261l-44 369h-535l-202 -369h-271zM532 573h415l-72 593h-17zM567 1585l316 321h259l184 -321h-227l-94 194h-18l-180 -194h-240z" />
<glyph unicode="&#xc3;" horiz-adv-x="1457" d="M-45 0l829 1443h283l201 -1443h-261l-44 369h-535l-202 -369h-271zM532 573h415l-72 593h-17zM593 1607q22 129 88 205.5t167 76.5q52 0 96 -23.5t68 -51t52.5 -51t53.5 -23.5q62 0 90 121h167q-23 -129 -88.5 -205t-167.5 -76q-43 0 -79.5 15t-60.5 37t-45 44t-42.5 37 t-42.5 15q-32 0 -53.5 -28.5t-36.5 -92.5h-166z" />
<glyph unicode="&#xc4;" horiz-adv-x="1457" d="M-45 0l829 1443h283l201 -1443h-261l-44 369h-535l-202 -369h-271zM532 573h415l-72 593h-17zM616 1755q0 60 41.5 101.5t100.5 41.5t101 -41.5t42 -101.5t-42 -101.5t-101 -41.5t-100.5 41.5t-41.5 101.5zM1080 1755q0 60 41.5 101.5t100.5 41.5t101 -41.5t42 -101.5 t-42 -101.5t-101 -41.5t-100.5 41.5t-41.5 101.5z" />
<glyph unicode="&#xc5;" horiz-adv-x="1457" d="M-45 0l829 1443h283l201 -1443h-261l-44 369h-535l-202 -369h-271zM532 573h415l-72 593h-17zM784 1749q0 88 62.5 148.5t150.5 60.5t150 -60.5t62 -148.5q0 -87 -62 -147.5t-150 -60.5t-150.5 60.5t-62.5 147.5zM900 1749q0 -40 28 -67.5t69 -27.5t69 27.5t28 67.5 q0 41 -28 68.5t-69 27.5t-69 -27.5t-28 -68.5z" />
<glyph unicode="&#xc6;" horiz-adv-x="2025" d="M-46 0l923 1443h1204l-46 -223h-654l-83 -389h616l-44 -211h-616l-87 -397h653l-46 -223h-895l86 398h-487l-261 -398h-263zM600 603h407l136 632h-136z" />
<glyph unicode="&#xc7;" horiz-adv-x="1507" d="M141 563q0 262 100.5 471.5t279 327t401.5 117.5q243 0 406 -142t163 -354q0 -9 -2 -29h-253v9q-8 129 -98 207t-233 78q-139 0 -253.5 -87t-180 -239.5t-65.5 -338.5q0 -179 92.5 -283.5t250.5 -104.5q131 0 233.5 65.5t139.5 172.5h259q-46 -195 -196 -318t-368 -146 l-73 -99q67 -4 116 -46.5t49 -118.5q0 -94 -76.5 -144.5t-200.5 -50.5q-88 0 -156 22l28 127q51 -15 105 -15q117 0 117 58q0 59 -121 59h-56l22 104l74 103q-231 25 -367.5 185t-136.5 410z" />
<glyph unicode="&#xc8;" horiz-adv-x="1253" d="M61 0l307 1443h935l-47 -223h-673l-84 -383h637l-44 -210h-636l-89 -404h675l-46 -223h-935zM653 1900h249l65 -315h-188z" />
<glyph unicode="&#xc9;" horiz-adv-x="1253" d="M61 0l307 1443h935l-47 -223h-673l-84 -383h637l-44 -210h-636l-89 -404h675l-46 -223h-935zM764 1585l199 315h248l-258 -315h-189z" />
<glyph unicode="&#xca;" horiz-adv-x="1253" d="M61 0l307 1443h935l-47 -223h-673l-84 -383h637l-44 -210h-636l-89 -404h675l-46 -223h-935zM476 1585l316 321h259l184 -321h-227l-94 194h-18l-180 -194h-240z" />
<glyph unicode="&#xcb;" horiz-adv-x="1253" d="M61 0l307 1443h935l-47 -223h-673l-84 -383h637l-44 -210h-636l-89 -404h675l-46 -223h-935zM526 1755q0 60 41.5 101.5t100.5 41.5t101 -41.5t42 -101.5t-42 -101.5t-101 -41.5t-100.5 41.5t-41.5 101.5zM990 1755q0 60 41.5 101.5t100.5 41.5t101 -41.5t42 -101.5 t-42 -101.5t-101 -41.5t-100.5 41.5t-41.5 101.5z" />
<glyph unicode="&#xcc;" horiz-adv-x="616" d="M61 0l307 1443h261l-307 -1443h-261zM316 1900h249l65 -315h-188z" />
<glyph unicode="&#xcd;" horiz-adv-x="616" d="M61 0l307 1443h261l-307 -1443h-261zM427 1585l199 315h248l-258 -315h-189z" />
<glyph unicode="&#xce;" horiz-adv-x="616" d="M61 0l307 1443h261l-307 -1443h-261zM140 1585l316 321h259l184 -321h-227l-94 194h-18l-180 -194h-240z" />
<glyph unicode="&#xcf;" horiz-adv-x="616" d="M61 0l307 1443h261l-307 -1443h-261zM189 1755q0 60 41.5 101.5t100.5 41.5t101 -41.5t42 -101.5t-42 -101.5t-101 -41.5t-100.5 41.5t-41.5 101.5zM653 1755q0 60 41.5 101.5t100.5 41.5t101 -41.5t42 -101.5t-42 -101.5t-101 -41.5t-100.5 41.5t-41.5 101.5z" />
<glyph unicode="&#xd0;" horiz-adv-x="1517" d="M63 0l134 634h-130l42 204h131l128 605h472q285 0 445 -160t160 -443q0 -239 -97 -431t-269 -300.5t-385 -108.5h-631zM369 222h311q217 0 358.5 166.5t141.5 426.5q0 190 -103 298.5t-285 108.5h-208l-83 -384h285l-43 -204h-285z" />
<glyph unicode="&#xd1;" horiz-adv-x="1553" d="M61 0l307 1443h212l499 -1011h17l218 1011h253l-307 -1443h-212l-500 1005h-18l-216 -1005h-253zM627 1607q22 129 88 205.5t167 76.5q52 0 96 -23.5t68 -51t52.5 -51t53.5 -23.5q62 0 90 121h167q-23 -129 -88.5 -205t-167.5 -76q-43 0 -79.5 15t-60.5 37t-45 44 t-42.5 37t-42.5 15q-32 0 -53.5 -28.5t-36.5 -92.5h-166z" />
<glyph unicode="&#xd2;" horiz-adv-x="1603" d="M142 571q0 195 60 364.5t164 288.5t250 187t312 68q180 0 319.5 -79t214 -217t74.5 -311q0 -196 -60 -365.5t-164 -288.5t-249 -186.5t-311 -67.5q-179 0 -318.5 79t-215.5 217t-76 311zM408 591q0 -178 98 -286.5t258 -108.5q142 0 257.5 85t181.5 235t66 335 q0 178 -97.5 286.5t-255.5 108.5q-141 0 -258 -86t-183.5 -236.5t-66.5 -332.5zM745 1899h249l65 -315h-188z" />
<glyph unicode="&#xd3;" horiz-adv-x="1603" d="M142 571q0 195 60 364.5t164 288.5t250 187t312 68q180 0 319.5 -79t214 -217t74.5 -311q0 -196 -60 -365.5t-164 -288.5t-249 -186.5t-311 -67.5q-179 0 -318.5 79t-215.5 217t-76 311zM408 591q0 -178 98 -286.5t258 -108.5q142 0 257.5 85t181.5 235t66 335 q0 178 -97.5 286.5t-255.5 108.5q-141 0 -258 -86t-183.5 -236.5t-66.5 -332.5zM856 1584l199 315h248l-258 -315h-189z" />
<glyph unicode="&#xd4;" horiz-adv-x="1603" d="M142 571q0 195 60 364.5t164 288.5t250 187t312 68q180 0 319.5 -79t214 -217t74.5 -311q0 -196 -60 -365.5t-164 -288.5t-249 -186.5t-311 -67.5q-179 0 -318.5 79t-215.5 217t-76 311zM408 591q0 -178 98 -286.5t258 -108.5q142 0 257.5 85t181.5 235t66 335 q0 178 -97.5 286.5t-255.5 108.5q-141 0 -258 -86t-183.5 -236.5t-66.5 -332.5zM568 1584l316 321h259l184 -321h-227l-94 194h-18l-180 -194h-240z" />
<glyph unicode="&#xd5;" horiz-adv-x="1603" d="M142 571q0 195 60 364.5t164 288.5t250 187t312 68q180 0 319.5 -79t214 -217t74.5 -311q0 -196 -60 -365.5t-164 -288.5t-249 -186.5t-311 -67.5q-179 0 -318.5 79t-215.5 217t-76 311zM408 591q0 -178 98 -286.5t258 -108.5q142 0 257.5 85t181.5 235t66 335 q0 178 -97.5 286.5t-255.5 108.5q-141 0 -258 -86t-183.5 -236.5t-66.5 -332.5zM595 1606q22 129 88 205.5t167 76.5q52 0 96 -23.5t68 -51t52.5 -51t53.5 -23.5q62 0 90 121h167q-23 -129 -88.5 -205t-167.5 -76q-43 0 -79.5 15t-60.5 37t-45 44t-42.5 37t-42.5 15 q-32 0 -53.5 -28.5t-36.5 -92.5h-166z" />
<glyph unicode="&#xd6;" horiz-adv-x="1603" d="M142 571q0 195 60 364.5t164 288.5t250 187t312 68q180 0 319.5 -79t214 -217t74.5 -311q0 -196 -60 -365.5t-164 -288.5t-249 -186.5t-311 -67.5q-179 0 -318.5 79t-215.5 217t-76 311zM408 591q0 -178 98 -286.5t258 -108.5q142 0 257.5 85t181.5 235t66 335 q0 178 -97.5 286.5t-255.5 108.5q-141 0 -258 -86t-183.5 -236.5t-66.5 -332.5zM618 1754q0 60 41.5 101.5t100.5 41.5t101 -41.5t42 -101.5t-42 -101.5t-101 -41.5t-100.5 41.5t-41.5 101.5zM1082 1754q0 60 41.5 101.5t100.5 41.5t101 -41.5t42 -101.5t-42 -101.5 t-101 -41.5t-100.5 41.5t-41.5 101.5z" />
<glyph unicode="&#xd7;" d="M145 251l409 334l-255 333l167 141l256 -332l405 332l124 -158l-409 -335l256 -332l-168 -142l-255 332l-406 -332z" />
<glyph unicode="&#xd8;" horiz-adv-x="1577" d="M129 147l100 95q-87 144 -87 329q0 195 60 364.5t164 288.5t250 187t312 68q266 0 434 -166l95 90l106 -121l-103 -98q76 -140 76 -312q0 -196 -60 -365.5t-164 -288.5t-249 -186.5t-311 -67.5q-254 0 -421 153l-97 -91zM403 590q0 -86 25 -161l750 710q-98 114 -262 114 q-142 0 -260 -87t-185.5 -239.5t-67.5 -336.5zM512 289q97 -100 251 -100q108 0 202.5 50.5t162.5 138.5t107 211.5t39 263.5q0 74 -18 139z" />
<glyph unicode="&#xd9;" horiz-adv-x="1549" d="M172 426q-1 58 13 127l187 890h261l-186 -880q-12 -55 -12 -114q4 -118 82 -185t221 -67q140 0 237.5 81t128.5 227l199 938h261l-211 -994q-49 -231 -213.5 -358t-425.5 -127q-252 0 -396 129t-146 333zM784 1900h249l65 -315h-188z" />
<glyph unicode="&#xda;" horiz-adv-x="1549" d="M172 426q-1 58 13 127l187 890h261l-186 -880q-12 -55 -12 -114q4 -118 82 -185t221 -67q140 0 237.5 81t128.5 227l199 938h261l-211 -994q-49 -231 -213.5 -358t-425.5 -127q-252 0 -396 129t-146 333zM895 1585l199 315h248l-258 -315h-189z" />
<glyph unicode="&#xdb;" horiz-adv-x="1549" d="M172 426q-1 58 13 127l187 890h261l-186 -880q-12 -55 -12 -114q4 -118 82 -185t221 -67q140 0 237.5 81t128.5 227l199 938h261l-211 -994q-49 -231 -213.5 -358t-425.5 -127q-252 0 -396 129t-146 333zM607 1585l316 321h259l184 -321h-227l-94 194h-18l-180 -194h-240 z" />
<glyph unicode="&#xdc;" horiz-adv-x="1549" d="M172 426q-1 58 13 127l187 890h261l-186 -880q-12 -55 -12 -114q4 -118 82 -185t221 -67q140 0 237.5 81t128.5 227l199 938h261l-211 -994q-49 -231 -213.5 -358t-425.5 -127q-252 0 -396 129t-146 333zM657 1755q0 60 41.5 101.5t100.5 41.5t101 -41.5t42 -101.5 t-42 -101.5t-101 -41.5t-100.5 41.5t-41.5 101.5zM1121 1755q0 60 41.5 101.5t100.5 41.5t101 -41.5t42 -101.5t-42 -101.5t-101 -41.5t-100.5 41.5t-41.5 101.5z" />
<glyph unicode="&#xdd;" horiz-adv-x="1412" d="M262 1443h269l222 -622h18l475 622h286l-696 -896l-115 -547h-260l120 564zM823 1585l199 315h248l-258 -315h-189z" />
<glyph unicode="&#xde;" horiz-adv-x="1345" d="M62 0l307 1443h258l-53 -244h293q181 0 297.5 -107.5t116.5 -275.5q0 -220 -159.5 -362.5t-411.5 -142.5h-324l-66 -311h-258zM430 526h259q154 0 242 70.5t88 193.5q0 91 -60 141.5t-175 50.5h-256z" />
<glyph unicode="&#xdf;" horiz-adv-x="1381" d="M79 0l231 1082q36 167 168 262.5t325 95.5q196 0 323 -99.5t127 -254.5q0 -134 -87.5 -229.5t-224.5 -112.5l-4 -19q139 -21 218.5 -101t79.5 -202q0 -195 -141.5 -317t-364.5 -122q-138 0 -236 38l44 204q73 -33 173 -33q119 0 198 67.5t79 169.5q0 90 -73 141t-197 51 h-73l45 218h76q100 0 170 60t70 147q0 82 -58.5 132.5t-152.5 50.5q-98 0 -164 -60t-90 -170l-213 -999h-248z" />
<glyph unicode="&#xe0;" horiz-adv-x="1174" d="M45 282q0 165 126 261t355 104l286 11l15 70q6 30 6 44q0 66 -53.5 104t-147.5 38q-161 0 -208 -112h-242q36 145 162.5 229.5t306.5 84.5q193 0 310.5 -87t117.5 -229q0 -40 -9 -89l-151 -711h-241l30 138h-18q-50 -72 -135 -114t-182 -42q-140 0 -234 86t-94 214z M291 316q0 -62 50.5 -101t129.5 -39q103 0 183 59t100 150l23 106l-249 -11q-111 -4 -174 -48t-63 -116zM473 1591h253l70 -348h-188z" />
<glyph unicode="&#xe1;" horiz-adv-x="1174" d="M45 282q0 165 126 261t355 104l286 11l15 70q6 30 6 44q0 66 -53.5 104t-147.5 38q-161 0 -208 -112h-242q36 145 162.5 229.5t306.5 84.5q193 0 310.5 -87t117.5 -229q0 -40 -9 -89l-151 -711h-241l30 138h-18q-50 -72 -135 -114t-182 -42q-140 0 -234 86t-94 214z M291 316q0 -62 50.5 -101t129.5 -39q103 0 183 59t100 150l23 106l-249 -11q-111 -4 -174 -48t-63 -116zM597 1243l217 348h254l-283 -348h-188z" />
<glyph unicode="&#xe2;" horiz-adv-x="1174" d="M45 282q0 165 126 261t355 104l286 11l15 70q6 30 6 44q0 66 -53.5 104t-147.5 38q-161 0 -208 -112h-242q36 145 162.5 229.5t306.5 84.5q193 0 310.5 -87t117.5 -229q0 -40 -9 -89l-151 -711h-241l30 138h-18q-50 -72 -135 -114t-182 -42q-140 0 -234 86t-94 214z M291 316q0 -62 50.5 -101t129.5 -39q103 0 183 59t100 150l23 106l-249 -11q-111 -4 -174 -48t-63 -116zM321 1243l314 348h258l187 -348h-228l-95 215h-17l-183 -215h-236z" />
<glyph unicode="&#xe3;" horiz-adv-x="1174" d="M45 282q0 165 126 261t355 104l286 11l15 70q6 30 6 44q0 66 -53.5 104t-147.5 38q-161 0 -208 -112h-242q36 145 162.5 229.5t306.5 84.5q193 0 310.5 -87t117.5 -229q0 -40 -9 -89l-151 -711h-241l30 138h-18q-50 -72 -135 -114t-182 -42q-140 0 -234 86t-94 214z M291 316q0 -62 50.5 -101t129.5 -39q103 0 183 59t100 150l23 106l-249 -11q-111 -4 -174 -48t-63 -116zM336 1275q22 129 88 205t167 76q43 0 79.5 -15t60.5 -37t45 -44t42.5 -37t42.5 -15q63 0 90 121h167q-22 -129 -88 -205.5t-168 -76.5q-52 0 -96 23.5t-68 51t-52 51 t-54 23.5q-62 0 -89 -121h-167z" />
<glyph unicode="&#xe4;" horiz-adv-x="1174" d="M45 282q0 165 126 261t355 104l286 11l15 70q6 30 6 44q0 66 -53.5 104t-147.5 38q-161 0 -208 -112h-242q36 145 162.5 229.5t306.5 84.5q193 0 310.5 -87t117.5 -229q0 -40 -9 -89l-151 -711h-241l30 138h-18q-50 -72 -135 -114t-182 -42q-140 0 -234 86t-94 214z M291 316q0 -62 50.5 -101t129.5 -39q103 0 183 59t100 150l23 106l-249 -11q-111 -4 -174 -48t-63 -116zM359 1422q0 60 42 102t101 42t100.5 -42t41.5 -102q0 -59 -41.5 -101t-100.5 -42t-101 42t-42 101zM823 1422q0 60 41.5 102t100.5 42t101 -42t42 -102q0 -59 -42 -101 t-101 -42t-100.5 42t-41.5 101z" />
<glyph unicode="&#xe5;" horiz-adv-x="1174" d="M45 282q0 165 126 261t355 104l286 11l15 70q6 30 6 44q0 66 -53.5 104t-147.5 38q-161 0 -208 -112h-242q36 145 162.5 229.5t306.5 84.5q193 0 310.5 -87t117.5 -229q0 -40 -9 -89l-151 -711h-241l30 138h-18q-50 -72 -135 -114t-182 -42q-140 0 -234 86t-94 214z M291 316q0 -62 50.5 -101t129.5 -39q103 0 183 59t100 150l23 106l-249 -11q-111 -4 -174 -48t-63 -116zM506 1474q0 100 70.5 167.5t169.5 67.5t169.5 -67.5t70.5 -167.5t-70.5 -167.5t-169.5 -67.5t-169.5 67.5t-70.5 167.5zM634 1474q0 -48 32.5 -79.5t79.5 -31.5 q48 0 80.5 31.5t32.5 79.5t-32.5 79.5t-80.5 31.5q-47 0 -79.5 -31.5t-32.5 -79.5z" />
<glyph unicode="&#xe6;" horiz-adv-x="1904" d="M46 285q0 169 125 264t356 103l286 10l15 66q6 29 6 44q0 66 -53.5 104t-147.5 38q-161 0 -208 -112h-242q36 147 161 230.5t304 83.5q117 0 207 -42.5t134 -117.5h17q141 160 362 160q186 0 311.5 -124t126.5 -329q0 -88 -16 -173h-772q0 -6 -0.5 -20t-0.5 -20 q0 -134 71 -202t175 -68q176 0 236 122h245q-37 -146 -171 -235t-332 -89q-124 0 -233 59.5t-153 155.5h-17q-58 -92 -171 -153.5t-245 -61.5q-164 0 -270 88t-106 219zM292 315q0 -63 50.5 -103.5t129.5 -40.5q103 0 183 61t100 153l23 106l-249 -11q-112 -4 -174.5 -48 t-62.5 -117zM1047 658h517q3 9 3 40q0 95 -58.5 157.5t-160.5 62.5q-108 0 -188.5 -70.5t-112.5 -189.5z" />
<glyph unicode="&#xe7;" horiz-adv-x="1181" d="M95 440q0 192 74.5 346t210.5 242t309 88q180 0 301 -99t138 -240q3 -21 3 -45h-239q-6 79 -68 127t-152 48q-142 0 -234 -127t-92 -318q0 -131 63 -202.5t167 -71.5q89 0 152.5 42t90.5 120h243q-29 -153 -151.5 -255t-304.5 -115l-81 -110q67 -4 116 -46.5t49 -118.5 q0 -94 -77 -144.5t-200 -50.5q-88 0 -156 22l28 127q51 -15 105 -15q117 0 117 58q0 59 -121 59h-56l22 104l90 125q-162 33 -254.5 152.5t-92.5 297.5z" />
<glyph unicode="&#xe8;" horiz-adv-x="1223" d="M97 443q0 300 162.5 486.5t420.5 186.5q192 0 318.5 -123t127.5 -330q0 -88 -16 -173h-772q-2 -24 -2 -39q0 -133 71 -202t175 -69q177 0 237 122h245q-37 -145 -170 -234.5t-327 -89.5q-208 0 -339 124.5t-131 340.5zM366 658h518q2 12 2 40q0 95 -58.5 157.5 t-160.5 62.5q-108 0 -188.5 -70.5t-112.5 -189.5zM487 1591h253l70 -348h-188z" />
<glyph unicode="&#xe9;" horiz-adv-x="1223" d="M97 443q0 300 162.5 486.5t420.5 186.5q192 0 318.5 -123t127.5 -330q0 -88 -16 -173h-772q-2 -24 -2 -39q0 -133 71 -202t175 -69q177 0 237 122h245q-37 -145 -170 -234.5t-327 -89.5q-208 0 -339 124.5t-131 340.5zM366 658h518q2 12 2 40q0 95 -58.5 157.5 t-160.5 62.5q-108 0 -188.5 -70.5t-112.5 -189.5zM611 1243l217 348h254l-283 -348h-188z" />
<glyph unicode="&#xea;" horiz-adv-x="1223" d="M97 443q0 300 162.5 486.5t420.5 186.5q192 0 318.5 -123t127.5 -330q0 -88 -16 -173h-772q-2 -24 -2 -39q0 -133 71 -202t175 -69q177 0 237 122h245q-37 -145 -170 -234.5t-327 -89.5q-208 0 -339 124.5t-131 340.5zM335 1243l314 348h258l187 -348h-228l-95 215h-17 l-183 -215h-236zM366 658h518q2 12 2 40q0 95 -58.5 157.5t-160.5 62.5q-108 0 -188.5 -70.5t-112.5 -189.5z" />
<glyph unicode="&#xeb;" horiz-adv-x="1223" d="M97 443q0 300 162.5 486.5t420.5 186.5q192 0 318.5 -123t127.5 -330q0 -88 -16 -173h-772q-2 -24 -2 -39q0 -133 71 -202t175 -69q177 0 237 122h245q-37 -145 -170 -234.5t-327 -89.5q-208 0 -339 124.5t-131 340.5zM366 658h518q2 12 2 40q0 95 -58.5 157.5 t-160.5 62.5q-108 0 -188.5 -70.5t-112.5 -189.5zM373 1422q0 60 42 102t101 42t100.5 -42t41.5 -102q0 -59 -41.5 -101t-100.5 -42t-101 42t-42 101zM837 1422q0 60 41.5 102t100.5 42t101 -42t42 -102q0 -59 -42 -101t-101 -42t-100.5 42t-41.5 101z" />
<glyph unicode="&#xec;" horiz-adv-x="569" d="M44 0l232 1094h248l-232 -1094h-248zM208 1591h253l70 -348h-188z" />
<glyph unicode="&#xed;" horiz-adv-x="569" d="M44 0l232 1094h248l-232 -1094h-248zM332 1243l217 348h254l-283 -348h-188z" />
<glyph unicode="&#xee;" horiz-adv-x="569" d="M44 0l232 1094h248l-232 -1094h-248zM56 1243l314 348h258l187 -348h-228l-95 215h-17l-183 -215h-236z" />
<glyph unicode="&#xef;" horiz-adv-x="569" d="M44 0l232 1094h248l-232 -1094h-248zM94 1422q0 60 42 102t101 42t100.5 -42t41.5 -102q0 -59 -41.5 -101t-100.5 -42t-101 42t-42 101zM558 1422q0 60 41.5 102t100.5 42t101 -42t42 -102q0 -59 -42 -101t-101 -42t-100.5 42t-41.5 101z" />
<glyph unicode="&#xf0;" horiz-adv-x="1260" d="M86 450q0 155 69 292t192 221.5t268 84.5q118 0 211 -53t130 -134h15q-15 213 -141 359l-345 -109l31 145l201 64q-73 49 -167 81l31 150q200 -56 336 -168l283 90l-30 -145l-151 -48q169 -208 169 -515q0 -152 -37 -291q-64 -227 -215 -362t-367 -135q-213 0 -348 128.5 t-135 344.5zM342 442q0 -123 65 -190.5t166 -67.5q91 0 171 58.5t126.5 154t46.5 202.5q0 112 -70.5 183.5t-178.5 71.5q-90 0 -166.5 -60.5t-118 -155t-41.5 -196.5z" />
<glyph unicode="&#xf1;" horiz-adv-x="1253" d="M32 0l233 1094h241l-37 -170h18q121 188 334 188q150 0 240 -92.5t90 -230.5q0 -58 -14 -128l-141 -661h-248l132 619q11 53 11 92q0 85 -51.5 137t-143.5 52q-104 0 -177.5 -68.5t-97.5 -178.5l-140 -653h-249zM424 1279q22 129 88 205t167 76q43 0 79.5 -15t60.5 -37 t45 -44t42.5 -37t42.5 -15q63 0 90 121h167q-22 -129 -88 -205.5t-168 -76.5q-52 0 -96 23.5t-68 51t-52 51t-54 23.5q-62 0 -89 -121h-167z" />
<glyph unicode="&#xf2;" horiz-adv-x="1267" d="M95 447q0 290 171.5 479.5t433.5 189.5q212 0 341.5 -129t129.5 -340q0 -189 -78 -342.5t-215.5 -240t-308.5 -86.5q-212 0 -343 129.5t-131 339.5zM355 460q0 -125 63.5 -199.5t169.5 -74.5q133 0 227.5 128.5t94.5 307.5q0 134 -60 210t-166 76q-143 0 -236 -126.5 t-93 -321.5zM505 1591h253l70 -348h-188z" />
<glyph unicode="&#xf3;" horiz-adv-x="1267" d="M95 447q0 290 171.5 479.5t433.5 189.5q212 0 341.5 -129t129.5 -340q0 -189 -78 -342.5t-215.5 -240t-308.5 -86.5q-212 0 -343 129.5t-131 339.5zM355 460q0 -125 63.5 -199.5t169.5 -74.5q133 0 227.5 128.5t94.5 307.5q0 134 -60 210t-166 76q-143 0 -236 -126.5 t-93 -321.5zM629 1243l217 348h254l-283 -348h-188z" />
<glyph unicode="&#xf4;" horiz-adv-x="1267" d="M95 447q0 290 171.5 479.5t433.5 189.5q212 0 341.5 -129t129.5 -340q0 -189 -78 -342.5t-215.5 -240t-308.5 -86.5q-212 0 -343 129.5t-131 339.5zM353 1243l314 348h258l187 -348h-228l-95 215h-17l-183 -215h-236zM355 460q0 -125 63.5 -199.5t169.5 -74.5 q133 0 227.5 128.5t94.5 307.5q0 134 -60 210t-166 76q-143 0 -236 -126.5t-93 -321.5z" />
<glyph unicode="&#xf5;" horiz-adv-x="1267" d="M95 447q0 290 171.5 479.5t433.5 189.5q212 0 341.5 -129t129.5 -340q0 -189 -78 -342.5t-215.5 -240t-308.5 -86.5q-212 0 -343 129.5t-131 339.5zM355 460q0 -125 63.5 -199.5t169.5 -74.5q133 0 227.5 128.5t94.5 307.5q0 134 -60 210t-166 76q-143 0 -236 -126.5 t-93 -321.5zM368 1275q22 129 88 205t167 76q43 0 79.5 -15t60.5 -37t45 -44t42.5 -37t42.5 -15q63 0 90 121h167q-22 -129 -88 -205.5t-168 -76.5q-52 0 -96 23.5t-68 51t-52 51t-54 23.5q-62 0 -89 -121h-167z" />
<glyph unicode="&#xf6;" horiz-adv-x="1267" d="M95 447q0 290 171.5 479.5t433.5 189.5q212 0 341.5 -129t129.5 -340q0 -189 -78 -342.5t-215.5 -240t-308.5 -86.5q-212 0 -343 129.5t-131 339.5zM355 460q0 -125 63.5 -199.5t169.5 -74.5q133 0 227.5 128.5t94.5 307.5q0 134 -60 210t-166 76q-143 0 -236 -126.5 t-93 -321.5zM391 1422q0 60 42 102t101 42t100.5 -42t41.5 -102q0 -59 -41.5 -101t-100.5 -42t-101 42t-42 101zM855 1422q0 60 41.5 102t100.5 42t101 -42t42 -102q0 -59 -42 -101t-101 -42t-100.5 42t-41.5 101z" />
<glyph unicode="&#xf7;" d="M170 472l43 207h1012l-43 -207h-1012zM460 200q0 66 42 109t109 43t108.5 -42t41.5 -103q0 -67 -41 -109.5t-109 -42.5q-67 0 -109 41.5t-42 103.5zM620 959q0 66 42 109t109 43t108.5 -42t41.5 -104q0 -67 -41 -109.5t-109 -42.5q-67 0 -109 41.5t-42 104.5z" />
<glyph unicode="&#xf8;" horiz-adv-x="1267" d="M92 5l110 128q-107 127 -107 314q0 290 171.5 479.5t433.5 189.5q161 0 277 -77l98 114l90 -61l-106 -124q112 -126 112 -321q0 -189 -78 -342.5t-215.5 -240t-308.5 -86.5q-166 0 -285 82l-102 -120zM355 460q0 -69 20 -124l449 524q-57 48 -140 48q-143 0 -236 -126.5 t-93 -321.5zM438 240q60 -54 150 -54q133 0 227.5 128.5t94.5 307.5q0 83 -23 144z" />
<glyph unicode="&#xf9;" horiz-adv-x="1252" d="M104 297q0 62 15 140l138 657h250l-131 -617q-12 -55 -12 -99q0 -183 187 -183q109 0 183.5 69t99.5 185l137 645h249l-232 -1094h-240l35 159h-17q-107 -181 -330 -181q-149 0 -240.5 88.5t-91.5 230.5zM544 1591h253l70 -348h-188z" />
<glyph unicode="&#xfa;" horiz-adv-x="1252" d="M104 297q0 62 15 140l138 657h250l-131 -617q-12 -55 -12 -99q0 -183 187 -183q109 0 183.5 69t99.5 185l137 645h249l-232 -1094h-240l35 159h-17q-107 -181 -330 -181q-149 0 -240.5 88.5t-91.5 230.5zM668 1243l217 348h254l-283 -348h-188z" />
<glyph unicode="&#xfb;" horiz-adv-x="1252" d="M104 297q0 62 15 140l138 657h250l-131 -617q-12 -55 -12 -99q0 -183 187 -183q109 0 183.5 69t99.5 185l137 645h249l-232 -1094h-240l35 159h-17q-107 -181 -330 -181q-149 0 -240.5 88.5t-91.5 230.5zM392 1243l314 348h258l187 -348h-228l-95 215h-17l-183 -215h-236 z" />
<glyph unicode="&#xfc;" horiz-adv-x="1252" d="M104 297q0 62 15 140l138 657h250l-131 -617q-12 -55 -12 -99q0 -183 187 -183q109 0 183.5 69t99.5 185l137 645h249l-232 -1094h-240l35 159h-17q-107 -181 -330 -181q-149 0 -240.5 88.5t-91.5 230.5zM430 1422q0 60 42 102t101 42t100.5 -42t41.5 -102 q0 -59 -41.5 -101t-100.5 -42t-101 42t-42 101zM894 1422q0 60 41.5 102t100.5 42t101 -42t42 -102q0 -59 -42 -101t-101 -42t-100.5 42t-41.5 101z" />
<glyph unicode="&#xfd;" horiz-adv-x="1173" d="M-37 -389l41 200q37 -8 90 -8q68 0 119 33.5t90 110.5l28 54l-155 1093h251l87 -835h18l429 835h267l-650 -1163q-101 -185 -210 -257.5t-274 -72.5q-25 0 -73 4t-58 6zM633 1243l217 348h254l-283 -348h-188z" />
<glyph unicode="&#xfe;" horiz-adv-x="1309" d="M-36 -350l395 1857h248l-119 -564h18q122 170 334 170q165 0 272 -117t107 -304q0 -199 -73 -362t-200 -255.5t-281 -92.5q-117 0 -203 60t-114 157h-17l-119 -549h-248zM390 454q0 -121 63.5 -189.5t169.5 -68.5q144 0 241 130.5t97 324.5q0 120 -60.5 186t-164.5 66 q-144 0 -245 -131.5t-101 -317.5z" />
<glyph unicode="&#xff;" horiz-adv-x="1173" d="M-37 -389l41 200q37 -8 90 -8q68 0 119 33.5t90 110.5l28 54l-155 1093h251l87 -835h18l429 835h267l-650 -1163q-101 -185 -210 -257.5t-274 -72.5q-25 0 -73 4t-58 6zM395 1422q0 60 42 102t101 42t100.5 -42t41.5 -102q0 -59 -41.5 -101t-100.5 -42t-101 42t-42 101z M859 1422q0 60 41.5 102t100.5 42t101 -42t42 -102q0 -59 -42 -101t-101 -42t-100.5 42t-41.5 101z" />
<glyph unicode="&#x152;" horiz-adv-x="2317" d="M144 571q0 258 102 466t282 325t403 117q157 0 279.5 -68.5t186.5 -183.5l18 1l47 215h899l-47 -223h-674l-83 -383h637l-44 -210h-636l-89 -404h675l-46 -223h-899l25 116l-16 -1q-69 -68 -177 -109.5t-232 -41.5q-268 0 -439.5 170.5t-171.5 436.5zM409 591 q0 -179 98.5 -288t259.5 -109q142 0 258.5 86t182.5 237t66 336q0 178 -98 287t-257 109q-142 0 -259 -86.5t-184 -237.5t-67 -334z" />
<glyph unicode="&#x153;" horiz-adv-x="2027" d="M95 446q0 191 77.5 344.5t215.5 239.5t310 86q123 0 218.5 -53t148.5 -152h17q147 205 402 205q197 0 321 -126t125 -327q0 -79 -16 -173h-772q-2 -34 -2 -40q0 -123 67 -196.5t179 -73.5q176 0 237 122h245q-37 -148 -172 -236t-325 -88q-123 0 -221 52t-155 148h-17 q-151 -200 -411 -200q-212 0 -342 129t-130 339zM355 459q0 -124 63.5 -198.5t169.5 -74.5q133 0 227.5 128.5t94.5 307.5q0 134 -60 210t-166 76q-143 0 -236 -126.5t-93 -322.5zM1170 658h518q2 12 2 40q0 99 -60.5 159.5t-158.5 60.5q-107 0 -187.5 -69.5t-113.5 -190.5z " />
<glyph unicode="&#x178;" horiz-adv-x="1412" d="M262 1443h269l222 -622h18l475 622h286l-696 -896l-115 -547h-260l120 564zM585 1755q0 60 41.5 101.5t100.5 41.5t101 -41.5t42 -101.5t-42 -101.5t-101 -41.5t-100.5 41.5t-41.5 101.5zM1049 1755q0 60 41.5 101.5t100.5 41.5t101 -41.5t42 -101.5t-42 -101.5 t-101 -41.5t-100.5 41.5t-41.5 101.5z" />
<glyph unicode="&#x2c6;" horiz-adv-x="1024" d="M280 1243l313 348h259l187 -348h-228l-95 215h-17l-183 -215h-236z" />
<glyph unicode="&#x2dc;" horiz-adv-x="1024" d="M302 1275q22 129 88 205t167 76q43 0 79.5 -15t61 -37t45.5 -44t42.5 -37t42.5 -15q62 0 89 121h167q-22 -129 -87.5 -205.5t-167.5 -76.5q-53 0 -96.5 23.5t-67.5 51t-52 51t-54 23.5q-63 0 -90 -121h-167z" />
<glyph unicode="&#x2000;" horiz-adv-x="979" />
<glyph unicode="&#x2001;" horiz-adv-x="1958" />
<glyph unicode="&#x2002;" horiz-adv-x="979" />
<glyph unicode="&#x2003;" horiz-adv-x="1958" />
<glyph unicode="&#x2004;" horiz-adv-x="652" />
<glyph unicode="&#x2005;" horiz-adv-x="489" />
<glyph unicode="&#x2006;" horiz-adv-x="326" />
<glyph unicode="&#x2007;" horiz-adv-x="326" />
<glyph unicode="&#x2008;" horiz-adv-x="244" />
<glyph unicode="&#x2009;" horiz-adv-x="391" />
<glyph unicode="&#x200a;" horiz-adv-x="108" />
<glyph unicode="&#x2010;" horiz-adv-x="983" d="M146 465l49 233h656l-48 -233h-657z" />
<glyph unicode="&#x2011;" horiz-adv-x="983" d="M146 465l49 233h656l-48 -233h-657z" />
<glyph unicode="&#x2012;" horiz-adv-x="983" d="M146 465l49 233h656l-48 -233h-657z" />
<glyph unicode="&#x2013;" horiz-adv-x="1181" d="M-17 465l49 233h1181l-49 -233h-1181z" />
<glyph unicode="&#x2014;" horiz-adv-x="2048" d="M-17 465l49 233h2048l-49 -233h-2048z" />
<glyph unicode="&#x2018;" horiz-adv-x="634" d="M196 858l313 585h175l-234 -585h-254z" />
<glyph unicode="&#x2019;" horiz-adv-x="634" d="M196 858l234 585h254l-314 -585h-174z" />
<glyph unicode="&#x201a;" horiz-adv-x="634" d="M-41 -382l224 604h251l-298 -604h-177z" />
<glyph unicode="&#x201c;" horiz-adv-x="1087" d="M192 838l312 605h183l-244 -605h-251zM640 838l295 605h183l-227 -605h-251z" />
<glyph unicode="&#x201d;" horiz-adv-x="1087" d="M222 838l227 605h251l-294 -605h-184zM653 838l244 605h251l-311 -605h-184z" />
<glyph unicode="&#x201e;" horiz-adv-x="1087" d="M-38 -382l224 604h251l-298 -604h-177zM394 -382l240 604h251l-314 -604h-177z" />
<glyph unicode="&#x2022;" horiz-adv-x="972" d="M153 567q0 142 98.5 241.5t238.5 99.5q141 0 239.5 -99.5t98.5 -241.5t-98.5 -241t-239.5 -99q-140 0 -238.5 99t-98.5 241z" />
<glyph unicode="&#x2026;" horiz-adv-x="1842" d="M72 134q0 68 45 114.5t115 46.5t115 -45t45 -109q0 -69 -45 -115.5t-115 -46.5q-69 0 -114.5 45.5t-45.5 109.5zM657 134q0 68 44.5 114.5t114.5 46.5t115 -45t45 -109q0 -69 -45 -115.5t-115 -46.5q-69 0 -114 45.5t-45 109.5zM1241 134q0 68 45 114.5t115 46.5 q69 0 114 -45t45 -109q0 -69 -44.5 -115.5t-114.5 -46.5q-69 0 -114.5 45.5t-45.5 109.5z" />
<glyph unicode="&#x202f;" horiz-adv-x="391" />
<glyph unicode="&#x2039;" horiz-adv-x="927" d="M146 562l2 8l428 412h266l-447 -428l-2 -12l251 -393h-237z" />
<glyph unicode="&#x203a;" horiz-adv-x="927" d="M93 149l446 428l3 13l-252 392h237l262 -413l-2 -8l-428 -412h-266z" />
<glyph unicode="&#x205f;" horiz-adv-x="489" />
<glyph unicode="&#x20ac;" d="M113 521l24 117h180q2 92 14 164h-159l25 117h162q76 245 275.5 385t488.5 140q87 0 170 -15t124 -34l-48 -217q-37 17 -103.5 30t-135.5 13q-181 0 -309 -79.5t-190 -222.5h570l-26 -117h-581q-15 -73 -15 -157v-7h561l-24 -117h-521q41 -145 175 -227t339 -82 q45 0 66 7l-46 -219q-42 -7 -73 -7q-294 0 -493 144t-238 384h-212z" />
<glyph unicode="&#x2122;" horiz-adv-x="2036" d="M192 1271l36 172h751l-37 -172h-275l-149 -702h-201l150 702h-275zM960 569l186 874h230l118 -552h11l357 552h243l-186 -874h-186l120 562h-10l-327 -502h-129l-110 502h-10l-120 -562h-187z" />
<glyph unicode="&#x25fc;" horiz-adv-x="1095" d="M0 0v1095h1095v-1095h-1095z" />
<glyph unicode="&#xfb01;" horiz-adv-x="1370" d="M114 0l187 889h-179l41 198h177l24 118q31 159 125.5 231t266.5 72q86 0 160 -19l-38 -182q-40 11 -110 11q-133 0 -161 -138l-18 -93h239l-41 -198h-235l-188 -889h-250zM845 0l232 1094h248l-232 -1094h-248zM1120 1424q0 62 43.5 106t104.5 44q62 0 105.5 -44 t43.5 -106t-43.5 -105.5t-105.5 -43.5q-61 0 -104.5 43.5t-43.5 105.5z" />
<glyph unicode="&#xfb02;" horiz-adv-x="1366" d="M114 0l187 889h-179l41 198h177l24 118q31 159 125.5 231t266.5 72q86 0 160 -19l-38 -182q-40 11 -110 11q-133 0 -161 -138l-18 -93h239l-41 -198h-235l-188 -889h-250zM842 0l322 1517h251l-323 -1517h-250z" />
</font>
</defs>
</svg>
