<?xml version="1.0" standalone="no"?>
<!DOCTYPE svg PUBLIC "-//W3C//DTD SVG 1.1//EN" "http://www.w3.org/Graphics/SVG/1.1/DTD/svg11.dtd" >
<svg xmlns="http://www.w3.org/2000/svg" xmlns:xlink="http://www.w3.org/1999/xlink" version="1.1">
<metadata></metadata>
<defs>
<font id="sf_pro_displayheavy_italic" horiz-adv-x="1371" >
<font-face units-per-em="2048" ascent="1638" descent="-410" />
<missing-glyph horiz-adv-x="431" />
<glyph horiz-adv-x="0" />
<glyph unicode="&#xd;" horiz-adv-x="0" />
<glyph unicode=" "  horiz-adv-x="431" />
<glyph unicode="&#x09;" horiz-adv-x="431" />
<glyph unicode="&#xa0;" horiz-adv-x="431" />
<glyph unicode="!" horiz-adv-x="707" d="M79 147q0 75 55 127t135 52q78 0 133 -52t55 -127t-55 -127.5t-133 -52.5q-80 0 -135 52t-55 128zM191 473l175 970h369l-238 -970h-306z" />
<glyph unicode="&#x22;" horiz-adv-x="975" d="M165 851l126 592h298l-126 -592h-298zM643 851l126 592h297l-125 -592h-298z" />
<glyph unicode="#" horiz-adv-x="1343" d="M-5 368l79 253h222l72 221h-222l79 251h223l115 351h262l-113 -351h222l114 351h264l-114 -351h230l-79 -251h-232l-72 -221h231l-79 -253h-233l-119 -368h-264l120 368h-223l-120 -368h-262l119 368h-220zM529 594h264l91 274h-266z" />
<glyph unicode="$" d="M86 439h334q7 -58 52 -99.5t116 -56.5l64 301l-75 24q-174 56 -259.5 147.5t-85.5 229.5q0 201 151.5 324.5t393.5 123.5q20 0 56 -2l33 157h89l-35 -166q189 -30 294.5 -138.5t106.5 -277.5h-323q-2 56 -37 96.5t-97 56.5l-62 -293l81 -26q185 -58 267 -142.5t82 -227.5 q0 -207 -156.5 -333.5t-420.5 -126.5q-23 0 -35 1l-32 -152h-90l34 158q-210 26 -327 135.5t-119 286.5zM589 1029q0 -46 29.5 -78t99.5 -58l59 275q-89 -1 -138.5 -40.5t-49.5 -98.5zM677 276q91 3 143.5 41t52.5 102q0 47 -29 77.5t-108 59.5z" />
<glyph unicode="%" horiz-adv-x="2021" d="M189 1062q0 78 26.5 150t75 129t124.5 91t168 34q143 0 230 -80t87 -225q0 -107 -46.5 -198.5t-138.5 -150t-211 -58.5q-141 0 -228 81.5t-87 226.5zM321 0l1179 1443h277l-1178 -1443h-278zM445 1053q0 -49 20.5 -76.5t53.5 -27.5q51 0 88.5 69t37.5 145 q0 53 -21.5 80.5t-54.5 27.5q-38 0 -67.5 -38.5t-43 -87.5t-13.5 -92zM1206 291q0 78 26.5 149.5t75 128.5t124.5 91t168 34q143 0 230 -80t87 -224q0 -107 -46.5 -199t-138.5 -150t-211 -58q-141 0 -228 81t-87 227zM1461 281q0 -49 21 -76.5t54 -27.5q51 0 88.5 69.5 t37.5 145.5q0 52 -21.5 80t-54.5 28q-55 0 -90 -74t-35 -145z" />
<glyph unicode="&#x26;" horiz-adv-x="1489" d="M22 364q0 280 348 417l77 31q-116 166 -116 297q0 150 127.5 251t317.5 101q182 0 304 -89.5t122 -223.5q0 -269 -370 -418l179 -266q92 133 101 274l2 24h285l-3 -29q-27 -276 -234 -491l163 -242h-352l-45 68q-181 -96 -382 -96q-227 0 -375.5 111t-148.5 281zM344 394 q0 -79 65 -129t169 -50q118 0 218 55l-229 348q-7 -2 -23.5 -8t-18.5 -7q-88 -34 -134.5 -87.5t-46.5 -121.5zM625 1078q0 -69 84 -176q202 76 202 215q0 54 -36 86.5t-93 32.5q-65 0 -111 -46t-46 -112z" />
<glyph unicode="'" horiz-adv-x="497" d="M165 851l126 592h298l-126 -592h-298z" />
<glyph unicode="(" horiz-adv-x="775" d="M114 351q0 313 119 599t331 493h369q-211 -208 -336.5 -503.5t-122.5 -648.5q1 -377 85 -603h-320q-56 116 -90.5 299.5t-34.5 363.5z" />
<glyph unicode=")" horiz-adv-x="775" d="M-149 -312q211 208 336.5 503.5t122.5 648.5q-1 374 -86 603h320q57 -115 91 -298.5t34 -364.5q0 -313 -118.5 -599t-331.5 -493h-368z" />
<glyph unicode="*" horiz-adv-x="973" d="M175 936l260 126l-199 130l112 147l185 -130l40 234h210l-65 -233l231 118l67 -150l-261 -128l199 -128l-111 -145l-186 131l-39 -237h-210l64 233l-230 -117z" />
<glyph unicode="+" d="M124 431l64 305h382l85 401h313l-85 -401h381l-64 -305h-382l-85 -401h-313l85 401h-381z" />
<glyph unicode="," horiz-adv-x="593" d="M-90 -331l189 592h326l-258 -592h-257z" />
<glyph unicode="-" horiz-adv-x="830" d="M67 437l65 302h650l-65 -302h-650z" />
<glyph unicode="." horiz-adv-x="595" d="M34 173q0 77 54 131.5t131 54.5t131.5 -54.5t54.5 -131.5t-54.5 -131.5t-131.5 -54.5t-131 54.5t-54 131.5z" />
<glyph unicode="/" horiz-adv-x="775" d="M-181 -312l806 1755h341l-806 -1755h-341z" />
<glyph unicode="0" horiz-adv-x="1413" d="M110 543q0 266 92.5 477.5t257.5 329.5t373 118q247 0 396.5 -155.5t149.5 -410.5q0 -267 -93 -478.5t-259 -330t-375 -118.5q-244 0 -393 156t-149 412zM481 552q0 -141 48.5 -217t137.5 -76q90 0 169 86.5t125.5 233t46.5 314.5q0 140 -49 215t-139 75t-168.5 -86 t-124.5 -232t-46 -313z" />
<glyph unicode="1" horiz-adv-x="1030" d="M161 865l69 328l421 250h366l-307 -1443h-366l236 1109h-7z" />
<glyph unicode="2" horiz-adv-x="1284" d="M-4 0l56 256l585 443q167 127 224 194.5t57 140.5q0 68 -50 110.5t-128 42.5q-91 0 -152.5 -51.5t-79.5 -144.5h-333q15 208 181.5 342.5t408.5 134.5q222 0 367 -111t145 -286q0 -139 -83.5 -248t-325.5 -289l-324 -244l-1 -7h603l-60 -283h-1090z" />
<glyph unicode="3" horiz-adv-x="1332" d="M58 411q0 23 6 53h338q-9 -87 51 -146t173 -59q102 0 166.5 53t64.5 139q0 79 -55.5 125t-153.5 46h-161l53 250h171q114 0 180 42t66 117q0 71 -54.5 113.5t-146.5 42.5q-85 0 -146 -41.5t-81 -112.5h-332q41 201 199.5 318t390.5 117q228 0 373 -112.5t145 -285.5 q0 -129 -95.5 -222t-244.5 -113l-1 -7q117 -28 183 -108t66 -193q0 -197 -166.5 -324t-420.5 -127q-261 0 -415.5 120t-152.5 315z" />
<glyph unicode="4" horiz-adv-x="1378" d="M8 234l61 321q233 318 731 888h528l-196 -923h179l-60 -286h-180l-50 -234h-347l50 234h-716zM384 507h407l144 677h-7q-307 -346 -543 -670z" />
<glyph unicode="5" horiz-adv-x="1326" d="M100 421q0 8 0.5 20t0.5 15h332q7 -89 71.5 -143.5t161.5 -54.5q103 0 174.5 69t71.5 174q0 99 -59.5 158t-158.5 59q-63 0 -121 -27t-92 -72h-332l248 824h956l-63 -283h-664l-105 -325h7q111 125 316 125q177 0 292 -116t117 -303q2 -166 -77 -297t-218.5 -201.5 t-313.5 -67.5q-162 3 -287 64.5t-190.5 161.5t-66.5 220z" />
<glyph unicode="6" horiz-adv-x="1387" d="M121 579q0 188 55 352.5t150.5 282.5t231 186t290.5 68q229 0 378.5 -122t153.5 -313h-352q-13 71 -65.5 111t-131.5 40q-124 0 -219 -115t-122 -297h7q61 83 153.5 128t206.5 45q188 0 309.5 -120.5t121.5 -307.5q0 -110 -44.5 -209.5t-121.5 -173t-188 -116.5t-238 -43 q-269 0 -422 158t-153 446zM478 464q0 -90 62 -149.5t156 -59.5q105 0 172.5 66t67.5 167q0 91 -60.5 149t-154.5 58q-105 0 -174 -64.5t-69 -166.5z" />
<glyph unicode="7" horiz-adv-x="1187" d="M23 0l842 1153v8h-680l60 282h1067l-61 -283l-829 -1160h-399z" />
<glyph unicode="8" horiz-adv-x="1386" d="M53 381q0 154 111 265t295 142l2 7q-95 33 -150 105.5t-55 163.5q0 173 162 288t406 115q228 0 382 -108.5t154 -268.5q0 -136 -93 -233t-246 -120l-1 -8q117 -36 182.5 -121.5t65.5 -199.5q0 -188 -177.5 -310.5t-451.5 -122.5q-258 0 -422 113.5t-164 292.5zM439 414 q0 -79 60.5 -129t156.5 -50q103 0 171.5 59t68.5 148q0 80 -60.5 130t-156.5 50q-103 0 -171.5 -59.5t-68.5 -148.5zM603 1025q0 -69 52 -114t131 -45q88 0 150 55.5t62 132.5q0 69 -52.5 114t-132.5 45q-87 0 -148.5 -55t-61.5 -133z" />
<glyph unicode="9" horiz-adv-x="1387" d="M92 403h352q9 -65 64.5 -104.5t137.5 -39.5q136 0 232.5 114.5t115.5 293.5h-7q-111 -173 -359 -173q-190 0 -314.5 121t-124.5 309q0 111 41.5 210.5t116 174t187.5 117.5t247 42q266 -2 415 -165t149 -454q0 -193 -54.5 -357t-149 -277t-225.5 -176.5t-281 -63.5 q-226 0 -377.5 122.5t-165.5 305.5zM542 950q-1 -91 58.5 -149.5t154.5 -58.5q105 0 172 63.5t67 165.5q0 94 -60 152.5t-153 58.5q-103 0 -170.5 -65.5t-68.5 -166.5z" />
<glyph unicode=":" horiz-adv-x="595" d="M34 173q0 77 54 131.5t131 54.5t131.5 -54.5t54.5 -131.5t-54.5 -131.5t-131.5 -54.5t-131 54.5t-54 131.5zM175 838q0 77 54.5 131.5t131.5 54.5t131 -54.5t54 -131.5t-54 -131.5t-131 -54.5t-131.5 54.5t-54.5 131.5z" />
<glyph unicode=";" horiz-adv-x="593" d="M-90 -331l189 592h326l-258 -592h-257zM175 838q0 77 54.5 131.5t131.5 54.5t131 -54.5t54 -131.5t-54 -131.5t-131 -54.5t-131.5 54.5t-54.5 131.5z" />
<glyph unicode="&#x3c;" d="M123 428l66 311l1164 416l-76 -359l-734 -220l-2 -11l639 -222l-69 -331z" />
<glyph unicode="=" d="M76 182l60 287h1067l-61 -287h-1066zM185 698l61 287h1066l-60 -287h-1067z" />
<glyph unicode="&#x3e;" d="M35 12l77 359l733 220l2 11l-639 222l69 331l988 -416l-66 -311z" />
<glyph unicode="?" horiz-adv-x="1118" d="M155 1039q21 185 162.5 301t357.5 116q224 0 360 -103.5t136 -267.5q0 -128 -71.5 -232.5t-208.5 -164.5q-115 -50 -161 -91t-60 -109l-8 -35h-318l8 55q21 136 74 207.5t169 122.5q124 55 172 104.5t48 115.5q0 56 -42.5 91t-113.5 35q-64 0 -113 -39.5t-65 -105.5h-326 zM226 147q0 75 55 127t135 52q78 0 133.5 -52t55.5 -127t-55.5 -127.5t-133.5 -52.5q-80 0 -135 52t-55 128z" />
<glyph unicode="@" horiz-adv-x="1838" d="M98 536q0 153 45.5 293.5t129.5 251.5t198 193.5t257 127t300 44.5q222 0 394.5 -86t267.5 -241.5t95 -356.5q0 -262 -135 -433.5t-341 -171.5q-109 0 -179 41.5t-72 109.5q0 5 0.5 13.5t0.5 11.5l-19 -4q-82 -144 -235 -144q-132 0 -212.5 96.5t-80.5 256.5 q0 201 114 340t278 139q88 0 151 -43t80 -116l19 -2l25 126h232l-112 -524q-5 -21 -5 -44q0 -35 19 -55.5t53 -20.5q85 0 148.5 125t63.5 292q0 231 -154.5 372t-407.5 141q-199 0 -363 -95.5t-258 -262t-94 -367.5q0 -275 181.5 -437.5t489.5 -161.5q87 0 125 12l-38 -179 q-71 -11 -142 -11q-242 0 -428.5 96t-288.5 271t-102 403zM772 546q0 -73 34.5 -116.5t92.5 -43.5q75 0 126.5 74.5t51.5 183.5q0 74 -33 116t-91 42q-75 0 -128 -75t-53 -181z" />
<glyph unicode="A" horiz-adv-x="1446" d="M-102 0l804 1443h449l166 -1443h-373l-24 317h-471l-163 -317h-388zM582 581h323l-40 540h-8z" />
<glyph unicode="B" horiz-adv-x="1366" d="M0 0l307 1443h632q199 0 310 -86.5t111 -223.5q0 -141 -92.5 -242.5t-241.5 -131.5l-1 -7q118 -25 190.5 -104t72.5 -188q0 -201 -152.5 -330.5t-390.5 -129.5h-745zM415 260h246q118 0 189 59.5t71 157.5q0 75 -52.5 116t-153.5 41h-221zM545 871h207q108 0 174.5 54.5 t66.5 140.5q0 65 -47.5 102t-136.5 37h-194z" />
<glyph unicode="C" horiz-adv-x="1507" d="M105 586q0 262 101 462.5t287 310t431 109.5q255 0 420.5 -146.5t169.5 -376.5q0 -28 -4 -56h-357q1 7 0 37q-3 105 -78 173.5t-186 68.5q-179 0 -293 -157.5t-114 -403.5q0 -153 73.5 -241t200.5 -88q115 0 201.5 65t122.5 178h357q-42 -245 -236 -395.5t-468 -150.5 q-286 0 -457 166.5t-171 444.5z" />
<glyph unicode="D" horiz-adv-x="1473" d="M0 0l307 1443h557q263 0 423 -149.5t160 -410.5q0 -192 -55.5 -355.5t-155 -280t-242.5 -182t-312 -65.5h-682zM433 294h199q194 0 316 148t122 395q0 146 -76 229t-214 83h-166z" />
<glyph unicode="E" horiz-adv-x="1191" d="M0 0l307 1443h988l-63 -295h-621l-61 -288h584l-57 -270h-584l-63 -295h621l-62 -295h-989z" />
<glyph unicode="F" horiz-adv-x="1149" d="M0 0l307 1443h981l-63 -295h-600l-70 -329h544l-60 -281h-544l-114 -538h-381z" />
<glyph unicode="G" horiz-adv-x="1519" d="M105 598q0 179 57 338t159 277t253 186.5t330 68.5q133 0 247.5 -39t193 -105.5t123.5 -154.5t46 -185q0 -5 -0.5 -15t-0.5 -13h-354q-7 96 -79 156.5t-185 60.5q-126 0 -222.5 -77.5t-145.5 -204t-49 -278.5q0 -159 78 -251t221 -92q114 0 199.5 67.5t110.5 174.5l3 13 h-273l54 252h621l-31 -170q-54 -305 -242 -468.5t-480 -163.5q-287 0 -460.5 171t-173.5 452z" />
<glyph unicode="H" horiz-adv-x="1540" d="M0 0l307 1443h375l-122 -568h559l122 568h375l-307 -1443h-375l124 584h-558l-125 -584h-375z" />
<glyph unicode="I" horiz-adv-x="598" d="M0 0l307 1443h367l-307 -1443h-367z" />
<glyph unicode="J" horiz-adv-x="1205" d="M12 409q0 43 2 60h352v-16q0 -75 41.5 -119t115.5 -44q143 0 184 186l206 967h367l-216 -1013q-47 -221 -186.5 -338t-361.5 -117q-227 0 -365.5 119.5t-138.5 314.5z" />
<glyph unicode="K" horiz-adv-x="1410" d="M0 0l307 1443h367l-131 -616h7l612 616h423l-661 -669l355 -774h-404l-255 566l-168 -168l-85 -398h-367z" />
<glyph unicode="L" horiz-adv-x="1136" d="M0 0l307 1443h367l-242 -1140h612l-64 -303h-980z" />
<glyph unicode="M" horiz-adv-x="1816" d="M1 0l306 1443h422l149 -978h7l550 978h457l-307 -1443h-327l206 959h-11l-549 -957h-222l-144 957h-8l-203 -959h-326z" />
<glyph unicode="N" horiz-adv-x="1491" d="M0 0l307 1443h288l426 -882h7l186 882h353l-307 -1443h-288l-426 882h-7l-186 -882h-353z" />
<glyph unicode="O" horiz-adv-x="1570" d="M105 593q0 190 61.5 354t167 277.5t250.5 178.5t309 65q300 0 473.5 -172.5t173.5 -445.5q0 -190 -62 -354t-168 -278t-251.5 -178.5t-308.5 -64.5q-148 0 -269.5 46.5t-203.5 128.5t-127 196t-45 247zM478 614q0 -155 76.5 -248t205.5 -93q84 0 159.5 44t130 118.5 t86.5 177t32 216.5q0 156 -77 248.5t-206 92.5q-112 0 -205.5 -74.5t-147.5 -202.5t-54 -279z" />
<glyph unicode="P" horiz-adv-x="1326" d="M1 0l306 1443h538q234 0 369 -118.5t135 -316.5q0 -270 -177 -427.5t-475 -157.5h-239l-90 -423h-367zM516 700h181q128 0 205.5 76.5t77.5 198.5q0 92 -54.5 139t-156.5 47h-155z" />
<glyph unicode="Q" horiz-adv-x="1570" d="M105 593q0 190 61.5 354t167 277.5t250.5 178.5t309 65q300 0 473.5 -172.5t173.5 -445.5q0 -225 -85.5 -410t-242.5 -310l114 -262h-331l-57 131q-96 -24 -188 -24q-148 0 -269.5 46.5t-203.5 128.5t-127 196t-45 247zM478 614q0 -155 76.5 -248t205.5 -93q26 0 64 7 l-96 224h303l22 -43q54 69 84.5 165t30.5 203q0 156 -77 248.5t-206 92.5q-112 0 -205.5 -74.5t-147.5 -202.5t-54 -279z" />
<glyph unicode="R" horiz-adv-x="1365" d="M0 0l307 1443h615q217 0 341 -116t124 -303q0 -161 -93 -294t-258 -189l170 -541h-383l-148 505h-200l-107 -505h-368zM529 764h227q118 0 189.5 64t71.5 165q0 84 -51 128.5t-145 44.5h-205z" />
<glyph unicode="S" horiz-adv-x="1347" d="M38 425h349q11 -75 83.5 -123t179.5 -48q104 0 167 40.5t63 109.5q0 55 -39 89t-146 67l-138 42q-182 56 -273.5 153.5t-91.5 243.5q0 210 162 339.5t417 129.5q266 0 422 -119.5t157 -328.5h-339q-3 77 -66 123.5t-167 46.5q-98 0 -155.5 -42t-57.5 -104q0 -54 41 -91 t137 -65l144 -43q193 -57 281 -147.5t88 -240.5q0 -215 -168 -348.5t-445 -133.5q-278 0 -440.5 119t-164.5 331z" />
<glyph unicode="T" horiz-adv-x="1284" d="M171 1148l63 295h1198l-63 -295h-415l-244 -1148h-367l243 1148h-415z" />
<glyph unicode="U" horiz-adv-x="1484" d="M111 454q0 63 13 125l183 864h367l-181 -858q-10 -49 -10 -85v-6q1 -96 66.5 -151.5t171.5 -55.5q108 0 180.5 64.5t97.5 184.5l192 907h368l-209 -987q-48 -225 -222 -353t-428 -128q-272 0 -430.5 132.5t-158.5 346.5z" />
<glyph unicode="V" horiz-adv-x="1409" d="M205 1443h403l57 -1061h7l500 1061h415l-767 -1443h-449z" />
<glyph unicode="W" horiz-adv-x="1986" d="M215 1443h373l-5 -962h7l445 962h291l49 -962h7l394 962h378l-681 -1443h-344l-59 898h-7l-429 -898h-348z" />
<glyph unicode="X" horiz-adv-x="1435" d="M-86 0l619 729l-311 714h395l191 -453h8l354 453h429l-623 -726l312 -717h-394l-194 458h-8l-358 -458h-420z" />
<glyph unicode="Y" horiz-adv-x="1389" d="M205 1443h380l165 -602h7l410 602h400l-699 -951l-104 -492h-368l105 498z" />
<glyph unicode="Z" horiz-adv-x="1277" d="M-37 0l49 233l838 908l1 7h-634l63 295h1087l-49 -233l-839 -908v-7h666l-62 -295h-1120z" />
<glyph unicode="[" horiz-adv-x="775" d="M-28 -312l374 1755h607l-55 -257h-267l-265 -1241h267l-54 -257h-607z" />
<glyph unicode="\" horiz-adv-x="775" d="M202 1443h328l52 -1755h-328z" />
<glyph unicode="]" horiz-adv-x="775" d="M-169 -312l55 257h267l265 1242h-267l54 256h607l-374 -1755h-607z" />
<glyph unicode="^" horiz-adv-x="973" d="M92 721l430 670h293l141 -670h-246l-76 427h-16l-266 -427h-260z" />
<glyph unicode="_" horiz-adv-x="1024" d="M-241 -400l64 300h1105l-64 -300h-1105z" />
<glyph unicode="`" horiz-adv-x="1024" d="M514 1553h290l67 -321h-233z" />
<glyph unicode="a" horiz-adv-x="1143" d="M3 280q0 167 130 264.5t358 104.5l257 8l13 64q4 17 4 36q0 47 -41 75.5t-110 28.5q-67 0 -111.5 -27.5t-60.5 -78.5h-315q31 165 169 262.5t343 97.5q207 0 335 -91t128 -237q0 -48 -9 -89l-148 -698h-334l28 129h-7q-44 -67 -125 -106t-182 -39q-137 0 -229.5 84 t-92.5 212zM336 329q0 -48 39.5 -77t102.5 -29q76 0 136 44.5t74 111.5l18 81l-198 -6q-79 -3 -125.5 -36.5t-46.5 -88.5z" />
<glyph unicode="b" horiz-adv-x="1280" d="M-19 0l307 1443h344l-110 -513h8q49 82 136.5 128.5t192.5 46.5q172 0 272 -114t100 -313q0 -143 -40 -271t-109.5 -221t-169.5 -147.5t-214 -54.5q-120 0 -211.5 59.5t-122.5 157.5h-7l-43 -201h-333zM432 468q0 -94 50.5 -152t132.5 -58q111 0 186.5 107.5t75.5 260.5 q0 98 -48.5 156t-130.5 58q-110 0 -188 -110.5t-78 -261.5z" />
<glyph unicode="c" horiz-adv-x="1160" d="M55 444q0 305 164 488t440 183q210 0 344 -115t134 -285q0 -37 -1 -43h-329q-1 75 -44.5 120.5t-118.5 45.5q-109 0 -177 -105.5t-68 -274.5q0 -94 45.5 -150.5t120.5 -56.5q73 0 124 43.5t71 120.5h329q-28 -196 -176.5 -318.5t-361.5 -122.5q-229 0 -362.5 128 t-133.5 342z" />
<glyph unicode="d" horiz-adv-x="1282" d="M49 409q0 197 71 356.5t196 249.5t278 90q121 0 205.5 -54.5t111.5 -147.5h7l115 540h345l-308 -1443h-336l33 158h-7q-119 -174 -339 -174q-172 0 -272 114.5t-100 310.5zM404 463q0 -97 48 -155t129 -58q110 0 188.5 109.5t78.5 261.5q0 94 -49.5 152t-130.5 58 q-111 0 -187.5 -106t-76.5 -262z" />
<glyph unicode="e" horiz-adv-x="1193" d="M57 469q0 183 74.5 330t212 231.5t313.5 84.5q216 0 349 -128t133 -340q0 -103 -17 -178h-751q-3 -17 -3 -33q0 -94 55 -153t149 -59q74 0 127.5 34.5t72.5 92.5h322q-43 -170 -187.5 -273t-349.5 -103q-232 0 -366 132.5t-134 361.5zM404 667h417q2 6 2 31 q0 74 -49 122.5t-132 48.5q-86 0 -151 -56t-87 -146z" />
<glyph unicode="f" horiz-adv-x="778" d="M61 0l175 820h-168l54 255h164l27 130q31 149 131.5 217.5t278.5 68.5q109 0 210 -26l-49 -223q-40 12 -107 12q-113 0 -133 -96l-17 -83h218l-54 -255h-211l-174 -820h-345z" />
<glyph unicode="g" horiz-adv-x="1269" d="M-48 -62h334q10 -56 63 -87.5t137 -31.5q195 0 234 180l39 176h-16q-48 -74 -132 -115t-188 -41q-167 0 -269.5 112.5t-102.5 296.5q0 135 41.5 259.5t112.5 217t172 147.5q99 53 211 53h4q114 0 198.5 -57t112.5 -152h15l43 193h335l-235 -1106q-40 -188 -196 -291 t-396 -103q-239 0 -377.5 93.5t-139.5 255.5zM401 465q0 -95 47.5 -152.5t130.5 -57.5q111 0 188.5 108.5t77.5 257.5q0 94 -50 152t-131 58q-112 0 -187.5 -106t-75.5 -260z" />
<glyph unicode="h" horiz-adv-x="1257" d="M-19 0l307 1443h342l-112 -520h7q59 88 150 137.5t204 49.5q150 0 242.5 -86t92.5 -221q0 -61 -15 -132l-142 -671h-341l131 617q8 46 8 76q0 66 -46.5 108t-121.5 42q-82 0 -145 -56t-82 -145l-136 -642h-343z" />
<glyph unicode="i" horiz-adv-x="631" d="M35 0l232 1089h345l-232 -1089h-345zM328 1385q0 71 51 121.5t124 50.5t124 -50.5t51 -121.5q0 -70 -51 -120.5t-124 -50.5q-72 0 -123.5 50.5t-51.5 120.5z" />
<glyph unicode="j" horiz-adv-x="526" d="M-280 -379l55 247q34 -6 66 -6q106 0 127 103l239 1124h344l-247 -1159q-33 -153 -147.5 -238t-284.5 -85q-86 0 -152 14zM268 1385q0 71 51 121.5t124 50.5t124 -50.5t51 -121.5q0 -70 -51 -120.5t-124 -50.5q-72 0 -123.5 50.5t-51.5 120.5z" />
<glyph unicode="k" horiz-adv-x="1176" d="M-19 0l307 1443h344l-161 -753h8l396 399h398l-497 -473l297 -616h-373l-200 429l-105 -97l-70 -332h-344z" />
<glyph unicode="l" horiz-adv-x="540" d="M-18 0l307 1443h345l-307 -1443h-345z" />
<glyph unicode="m" horiz-adv-x="1827" d="M-27 0l232 1089h332l-37 -173h7q50 91 138.5 145t190.5 54t176 -53t100 -141h7q61 90 154.5 142t209.5 52q132 0 217.5 -86t85.5 -219q0 -58 -14 -131l-143 -679h-343l133 630q8 45 8 75q0 61 -36 99.5t-97 38.5q-68 0 -120 -50.5t-70 -137.5l-138 -655h-328l132 630 q8 45 8 75q0 61 -36 99.5t-97 38.5q-68 0 -120 -51t-70 -137l-139 -655h-343z" />
<glyph unicode="n" horiz-adv-x="1241" d="M-27 0l232 1089h332l-36 -166h8q56 91 151 141.5t207 50.5q147 0 239 -86t92 -225q0 -61 -15 -133l-141 -671h-342l131 617q8 50 8 78q0 66 -45.5 107t-119.5 41q-80 0 -141 -55.5t-80 -145.5l-137 -642h-343z" />
<glyph unicode="o" horiz-adv-x="1251" d="M55 465q0 139 47.5 260t130 206.5t200 134.5t252.5 49q229 0 370 -135.5t141 -355.5q0 -186 -80.5 -334.5t-224.5 -232t-325 -83.5q-229 0 -370 135.5t-141 355.5zM404 472q0 -104 48.5 -167t127.5 -63q113 0 189 108t76 267q0 104 -48 167t-127 63q-115 0 -190.5 -107 t-75.5 -268z" />
<glyph unicode="p" horiz-adv-x="1273" d="M-101 -352l306 1441h335l-33 -157h7q59 85 147 129t192 44q172 0 271 -114t99 -311q0 -198 -70 -357t-193.5 -249t-276.5 -90q-118 0 -201.5 57t-115.5 159h-6l-118 -552h-343zM425 468q0 -94 49.5 -152t131.5 -58q111 0 187.5 106.5t76.5 261.5q0 98 -48 156t-130 58 q-111 0 -189 -111t-78 -261z" />
<glyph unicode="q" horiz-adv-x="1280" d="M50 409q0 196 70.5 355.5t195.5 250t279 90.5q117 0 205.5 -54.5t124.5 -147.5h7l39 186h336l-307 -1441h-344l111 511h-6q-124 -175 -339 -175q-172 0 -272 114.5t-100 310.5zM405 463q0 -97 48 -155t129 -58q110 0 188.5 109.5t78.5 261.5q0 94 -49.5 152t-130.5 58 q-111 0 -187.5 -106.5t-76.5 -261.5z" />
<glyph unicode="r" horiz-adv-x="848" d="M-27 0l234 1089h334l-31 -155h7q42 78 113 124.5t160 46.5q83 0 144 -28l-66 -301q-75 36 -157 36q-218 0 -270 -239l-123 -573h-345z" />
<glyph unicode="s" horiz-adv-x="1108" d="M3 345h327q5 -61 56.5 -99t133.5 -38q66 0 105 26t39 70q0 34 -29 55.5t-110 48.5l-98 33q-151 50 -222.5 126.5t-71.5 189.5q0 161 130.5 259t346.5 98q203 0 333.5 -100t135.5 -259h-310q-4 57 -49 92t-115 35q-67 0 -106 -26t-39 -69q0 -36 30 -59t113 -51l116 -38 q154 -52 219.5 -120t65.5 -178q0 -165 -135.5 -266t-358.5 -101q-226 0 -363.5 101t-143.5 270z" />
<glyph unicode="t" horiz-adv-x="813" d="M83 808l56 256h162l55 262h344l-56 -262h218l-55 -256h-217l-91 -429q-7 -24 -7 -56q0 -46 31.5 -67t98.5 -21q51 0 72 6l-54 -242q-50 -13 -148 -13q-169 0 -263 61.5t-94 178.5q0 59 12 114l98 468h-162z" />
<glyph unicode="u" horiz-adv-x="1241" d="M46 291q0 77 14 141l139 657h344l-128 -601q-7 -42 -7 -73q0 -77 41.5 -117.5t120.5 -40.5q83 0 141 54.5t78 148.5l134 629h345l-231 -1089h-334l37 172h-7q-47 -90 -140 -144t-207 -54q-156 0 -248 87t-92 230z" />
<glyph unicode="v" horiz-adv-x="1131" d="M126 1090h345l33 -785h7l359 785h368l-592 -1090h-399z" />
<glyph unicode="w" horiz-adv-x="1691" d="M134 1089h341l-21 -769h7l326 769h335l4 -769h7l301 769h355l-507 -1089h-374l-17 735h-7l-321 -735h-379z" />
<glyph unicode="x" horiz-adv-x="1161" d="M-89 0l446 549l-211 540h369l109 -341h7l238 341h382l-447 -549l211 -540h-368l-110 341h-7l-238 -341h-381z" />
<glyph unicode="y" horiz-adv-x="1152" d="M-95 -395l55 267q8 -3 103 -3q158 0 181 114q0 3 4 17.5t3 16.5l-125 1072h352l28 -818h7l377 818h368l-587 -1102q-111 -209 -256 -297.5t-366 -88.5q-132 0 -144 4z" />
<glyph unicode="z" horiz-adv-x="1074" d="M-51 0l40 188l630 628l2 7h-485l57 266h920l-47 -216l-593 -600l-1 -7h483l-57 -266h-949z" />
<glyph unicode="{" horiz-adv-x="775" d="M-16 410l65 310q111 0 167.5 45.5t81.5 160.5l29 133q47 212 162.5 298t340.5 86h124l-54 -250h-43q-91 0 -136 -44t-68 -154l-40 -184q-25 -111 -101.5 -168t-213.5 -69l-5 -19q218 -23 218 -190q0 -24 -10 -78l-33 -152q-11 -55 -11 -91q0 -59 31 -83.5t101 -24.5h43 l-53 -248h-123q-96 0 -166.5 22.5t-109.5 63t-57 88.5t-18 106q0 57 14 117l26 120q12 55 12 87q0 60 -39 89t-134 29z" />
<glyph unicode="|" horiz-adv-x="775" d="M35 -312l374 1755h340l-374 -1755h-340z" />
<glyph unicode="}" horiz-adv-x="775" d="M-170 -312l54 250h43q90 0 135 43.5t69 154.5l40 184q25 111 101.5 168t213.5 69l4 19q-217 24 -217 190q0 33 10 78l32 152q12 52 12 91q0 59 -31 83.5t-101 24.5h-43l52 248h124q96 0 166.5 -22.5t109.5 -63t57 -88.5t18 -106q0 -47 -14 -117l-26 -120q-12 -55 -12 -87 q0 -60 39 -89t134 -29l-66 -310q-111 0 -167 -45.5t-81 -160.5l-30 -133q-47 -212 -162.5 -298t-339.5 -86h-124z" />
<glyph unicode="~" d="M103 361q32 205 130 335t249 130q59 0 110.5 -20t87.5 -48t68.5 -56t69.5 -48t75 -20q102 0 134 171h259q-32 -209 -129 -337t-249 -128q-60 0 -111 20t-87.5 48t-69 56t-69.5 48t-75 20q-100 0 -134 -171h-259z" />
<glyph unicode="&#xa1;" horiz-adv-x="707" d="M-24 -340l238 970h305l-175 -970h-368zM253 956q0 75 55.5 127.5t133.5 52.5q79 0 134 -52t55 -128q0 -75 -55 -127t-134 -52q-78 0 -133.5 52t-55.5 127z" />
<glyph unicode="&#xa2;" d="M202 626q0 305 164 487.5t440 182.5h20l31 147h90l-33 -156q167 -28 268 -136t101 -254v-43h-329q-1 56 -27 97t-72 58l-123 -575q65 6 110.5 49t64.5 114h329q-28 -196 -177 -318.5t-362 -122.5h-24l-33 -156h-89l35 165q-180 30 -282 153t-102 308zM545 640 q0 -71 26.5 -122t74.5 -72l121 573q-99 -12 -160.5 -116t-61.5 -263z" />
<glyph unicode="&#xa3;" d="M13 25l56 265q145 22 226 115.5t86 245.5h-247l36 171h207q-2 60 -2 83q0 119 40.5 218.5t119 173.5t202.5 115t282 41q102 0 197.5 -20t147.5 -44l-59 -262q-104 51 -268 51q-158 0 -237 -71t-79 -201q0 -20 2 -84h448l-36 -171h-410q-12 -227 -203 -329l-1 -10h673 l-62 -287h-1119z" />
<glyph unicode="&#xa4;" d="M64 278l205 170q-43 92 -43 197q0 142 78 263l-97 121l238 196l101 -126q78 28 162 28q154 0 278 -89l209 173l156 -199l-204 -168q43 -94 43 -199q0 -141 -78 -262l97 -121l-238 -196l-100 125q-79 -28 -163 -28q-153 0 -279 89l-208 -172zM489 645q0 -89 65 -154.5 t154 -65.5t154 65.5t65 154.5t-65 155t-154 66t-154 -66t-65 -155z" />
<glyph unicode="&#xa5;" d="M105 255l19 90h341l31 147l-3 10h-336l19 89h289l-255 810h371l154 -587h7l401 587h378l-594 -810h286l-19 -89h-332l-12 -16l-30 -141h341l-19 -90h-341l-53 -248h-355l53 248h-341z" />
<glyph unicode="&#xa6;" horiz-adv-x="775" d="M36 -312l145 689h340l-145 -689h-340zM262 755l147 688h340l-147 -688h-340z" />
<glyph unicode="&#xa7;" horiz-adv-x="1421" d="M101 60h325q6 -52 55 -86.5t120 -34.5t116.5 33t44.5 82q0 72 -103 116l-202 89q-255 113 -259 298q-3 112 77 189.5t218 105.5v15q-87 54 -124 108.5t-39 130.5q-4 158 135.5 257.5t362.5 99.5q214 0 350 -96.5t149 -259.5h-323q-4 55 -52 88.5t-120 33.5 q-68 0 -112 -31.5t-43 -80.5q1 -67 108 -116l188 -87q134 -61 200.5 -133.5t68.5 -165.5q2 -110 -80 -190.5t-213 -104.5v-15q86 -56 122 -110.5t38 -129.5q2 -103 -61 -185t-178.5 -128t-261.5 -46q-214 0 -357 97t-150 257zM535 612q3 -77 116 -126l129 -60q56 16 91 53 t35 80q-3 77 -111 126l-127 59q-58 -14 -95.5 -51t-37.5 -81z" />
<glyph unicode="&#xa8;" horiz-adv-x="1024" d="M306 1384q0 66 47.5 113.5t115.5 47.5q69 0 117 -47.5t48 -113.5t-48 -113t-117 -47q-68 0 -115.5 47t-47.5 113zM748 1384q0 66 48 113.5t116 47.5q69 0 116.5 -47.5t47.5 -113.5t-47.5 -113t-116.5 -47q-68 0 -116 47t-48 113z" />
<glyph unicode="&#xa9;" horiz-adv-x="1672" d="M75 645q0 162 63.5 310.5t170 255.5t254 170.5t308.5 63.5q166 0 310 -58t246.5 -158.5t161.5 -243t59 -305.5q0 -162 -63.5 -310.5t-170 -255.5t-254 -170.5t-309.5 -63.5q-165 0 -309.5 58t-246.5 159t-161 243t-59 305zM251 645q0 -128 45 -239t124 -189.5 t190.5 -123.5t240.5 -45q125 0 240 50.5t198.5 135.5t133 202t49.5 244q0 260 -169.5 428.5t-431.5 168.5q-125 0 -240 -50.5t-198 -135.5t-132.5 -202t-49.5 -244zM504 611q0 190 114.5 315t287.5 125q149 0 242 -88.5t82 -218.5h-216q1 60 -29.5 94t-84.5 34 q-74 0 -124.5 -77.5t-50.5 -189.5q0 -72 32.5 -111.5t90.5 -39.5q81 0 120 83h224q-33 -125 -124.5 -193.5t-225.5 -68.5q-149 0 -243.5 94t-94.5 242z" />
<glyph unicode="&#xaa;" horiz-adv-x="740" d="M124 957q0 103 84 164t230 65l157 3l8 38q4 13 2 19q-1 23 -25.5 37t-65.5 14q-83 0 -101 -52h-212q19 103 108 163.5t221 60.5q135 0 219 -56.5t85 -147.5q0 -27 -4 -53l-91 -426h-228l17 79h-5q-27 -41 -77.5 -65t-115.5 -24q-87 0 -146 51.5t-60 129.5zM351 993 q1 -25 25 -40t61 -15q45 0 79.5 22.5t42.5 56.5l9 43l-117 -3q-45 0 -73 -18t-27 -46z" />
<glyph unicode="&#xab;" horiz-adv-x="1388" d="M111 562l3 11l405 406h329l-430 -421l-1 -8l260 -397h-303zM622 562l2 11l405 406h329l-430 -421l-1 -8l260 -397h-303z" />
<glyph unicode="&#xac;" d="M140 432l65 304h1042l-150 -706h-313l85 402h-729z" />
<glyph unicode="&#xad;" horiz-adv-x="830" d="M67 437l65 302h650l-65 -302h-650z" />
<glyph unicode="&#xae;" horiz-adv-x="1191" d="M183 1072q0 146 68.5 265.5t189 188t266.5 68.5t266.5 -68.5t189.5 -188t69 -265.5t-69 -265.5t-189.5 -188t-266.5 -68.5t-266.5 68.5t-189 188t-68.5 265.5zM337 1072q0 -163 105 -270.5t265 -107.5t265.5 107.5t105.5 270.5t-105.5 270.5t-265.5 107.5t-265 -107.5 t-105 -270.5zM459 842l100 471h245q66 0 111 -43t45 -105q0 -55 -35 -98t-91 -59l75 -166h-156l-63 154h-60l-32 -154h-139zM652 1095h87q34 0 54 17t20 44q0 49 -57 49h-81z" />
<glyph unicode="&#xaf;" horiz-adv-x="1024" d="M331 1298l38 180h683l-38 -180h-683z" />
<glyph unicode="&#xb0;" horiz-adv-x="973" d="M228 1059q0 156 105.5 260t263.5 104t263 -104t105 -260t-105.5 -260.5t-262.5 -104.5q-158 0 -263.5 104.5t-105.5 260.5zM447 1059q0 -61 44 -106t106 -45t106 45t44 106q0 63 -44 107t-106 44t-106 -44t-44 -107z" />
<glyph unicode="&#xb1;" d="M44 30l60 284h1065l-60 -284h-1065zM175 646l55 261h377l50 230h310l-49 -230h377l-55 -261h-377l-49 -230h-311l49 230h-377z" />
<glyph unicode="&#xb2;" horiz-adv-x="738" d="M112 786l39 175l316 212q85 55 112.5 81.5t26.5 57.5q-1 23 -23.5 37.5t-56.5 14.5q-41 0 -69 -20t-36 -58h-224q6 116 105.5 193.5t243.5 77.5q131 0 217 -61t87 -158q1 -73 -44 -127.5t-176 -142.5l-145 -85l-1 -5h301l-41 -192h-632z" />
<glyph unicode="&#xb3;" horiz-adv-x="766" d="M145 1002q0 20 6 48h228q-7 -30 19.5 -56.5t77.5 -26.5q44 0 72 19t26 46q-2 29 -27.5 46t-68.5 17h-84l35 168h91q111 0 109 50q-2 23 -27.5 37.5t-65.5 14.5q-81 0 -102 -56h-224q24 115 117 181.5t230 66.5q135 0 221 -59.5t86 -155.5q1 -66 -52 -114.5t-136 -59.5 l-1 -5q65 -14 101.5 -54t37.5 -98q2 -103 -93.5 -171t-243.5 -68q-151 0 -241 61.5t-91 168.5z" />
<glyph unicode="&#xb4;" horiz-adv-x="1024" d="M444 1232l202 321h294l-262 -321h-234z" />
<glyph unicode="&#xb5;" horiz-adv-x="1328" d="M-101 -352l306 1441h345l-122 -573q-12 -57 -12 -90q0 -79 40.5 -121t116.5 -42q82 0 143 59.5t83 160.5l129 606h345l-155 -729q-7 -36 -7 -52q0 -67 81 -67q29 0 56 9l-51 -238q-64 -20 -154 -20q-126 0 -190.5 51.5t-64.5 150.5v4h-8q-37 -96 -122 -156t-183 -60 q-97 0 -142 58h-7l-83 -392h-344z" />
<glyph unicode="&#xb6;" horiz-adv-x="1421" d="M219 982q0 96 40 180.5t112 146.5t178.5 98t233.5 36h270l-365 -1716h-265l191 896h-17q-168 0 -273 102t-105 257zM867 -273l365 1716h265l-366 -1716h-264z" />
<glyph unicode="&#xb7;" horiz-adv-x="595" d="M112 544q0 77 54.5 131.5t131.5 54.5t131.5 -54.5t54.5 -131.5t-54.5 -131t-131.5 -54t-131.5 54t-54.5 131z" />
<glyph unicode="&#xb8;" horiz-adv-x="1024" d="M133 -433l29 129q44 -13 93 -13q100 0 100 46q0 50 -100 50h-40l24 114l104 134h161v-27l-85 -109q51 -9 90 -48t39 -108q0 -89 -71.5 -138.5t-197.5 -49.5q-79 0 -146 20z" />
<glyph unicode="&#xb9;" horiz-adv-x="619" d="M199 1206l45 215l225 122h250l-161 -757h-251l115 538h-5z" />
<glyph unicode="&#xba;" horiz-adv-x="808" d="M157 1071q-1 175 112.5 286.5t292.5 111.5q148 0 240 -83.5t93 -218.5q1 -175 -112.5 -286.5t-292.5 -111.5q-148 0 -240 83.5t-93 218.5zM394 1076q2 -56 31 -90t76 -34q67 0 112 60.5t43 149.5q-1 56 -30 90t-76 34q-69 0 -113.5 -59.5t-42.5 -150.5z" />
<glyph unicode="&#xbb;" horiz-adv-x="1388" d="M39 153l431 421l1 8l-261 397h304l262 -409l-2 -11l-405 -406h-330zM549 153l431 421l1 8l-260 397h303l262 -409l-2 -11l-405 -406h-330z" />
<glyph unicode="&#xbc;" horiz-adv-x="1809" d="M178 1106l45 215l225 122h250l-161 -757h-251l115 538h-5zM196 0l1179 1443h276l-1177 -1443h-278zM958 99l44 223q69 94 144.5 181.5t225.5 253.5h356l-99 -463h93l-41 -195h-93l-21 -99h-236l21 99h-394zM1208 283h191l64 301h-5q-129 -137 -250 -295v-6z" />
<glyph unicode="&#xbd;" horiz-adv-x="1858" d="M178 1106l45 215l225 122h250l-161 -757h-251l115 538h-5zM196 0l1179 1443h276l-1177 -1443h-278zM1065 0l39 175l316 212q85 55 112.5 81.5t26.5 57.5q-1 23 -23.5 37.5t-56.5 14.5q-41 0 -69 -20t-36 -58h-224q6 116 105.5 193.5t243.5 77.5q131 0 217 -61t87 -158 q1 -73 -44 -127.5t-176 -142.5l-145 -85l-1 -5h301l-41 -192h-632z" />
<glyph unicode="&#xbe;" horiz-adv-x="1957" d="M124 902q0 20 6 48h228q-7 -30 19.5 -56.5t77.5 -26.5q44 0 72 19t26 46q-2 29 -27.5 46t-68.5 17h-84l35 168h91q111 0 109 50q-2 23 -27.5 37.5t-65.5 14.5q-81 0 -102 -56h-224q24 115 117 181.5t230 66.5q135 0 221 -59.5t86 -155.5q1 -66 -52 -114.5t-136 -59.5 l-1 -5q65 -14 101.5 -54t37.5 -98q2 -103 -93.5 -171t-243.5 -68q-151 0 -241 61.5t-91 168.5zM343 0l1179 1443h276l-1177 -1443h-278zM1105 99l44 223q69 94 144.5 181.5t225.5 253.5h356l-99 -463h93l-41 -195h-93l-21 -99h-236l21 99h-394zM1355 283h191l64 301h-5 q-129 -137 -250 -295v-6z" />
<glyph unicode="&#xbf;" horiz-adv-x="1118" d="M-49 18q0 128 71.5 232.5t208.5 164.5q115 50 161 91t60 109l7 35h319l-9 -55q-20 -136 -73 -207.5t-169 -122.5q-124 -55 -172 -104.5t-48 -115.5q0 -56 42.5 -91t113.5 -35q64 0 113 39.5t65 105.5h326q-21 -185 -162.5 -301t-357.5 -116q-224 0 -360 103.5t-136 267.5 zM517 956q0 75 55.5 127.5t133.5 52.5q79 0 134.5 -52.5t55.5 -127.5t-55.5 -127t-134.5 -52q-78 0 -133.5 52t-55.5 127z" />
<glyph unicode="&#xc0;" horiz-adv-x="1446" d="M-102 0l804 1443h449l166 -1443h-373l-24 317h-471l-163 -317h-388zM582 581h323l-40 540h-8zM703 1870h293l67 -314h-235z" />
<glyph unicode="&#xc1;" horiz-adv-x="1446" d="M-102 0l804 1443h449l166 -1443h-373l-24 317h-471l-163 -317h-388zM582 581h323l-40 540h-8zM836 1556l200 314h294l-260 -314h-234z" />
<glyph unicode="&#xc2;" horiz-adv-x="1446" d="M-102 0l804 1443h449l166 -1443h-373l-24 317h-471l-163 -317h-388zM553 1542l325 327h272l192 -327h-249l-102 191h-7l-181 -191h-250zM582 581h323l-40 540h-8z" />
<glyph unicode="&#xc3;" horiz-adv-x="1446" d="M-102 0l804 1443h449l166 -1443h-373l-24 317h-471l-163 -317h-388zM582 581h323l-40 540h-8zM586 1571q24 126 92.5 200.5t165.5 74.5q47 0 90 -20.5t69 -45.5t55 -45.5t51 -20.5q58 0 80 103h185q-24 -124 -92.5 -200t-164.5 -76q-46 0 -89.5 21t-69.5 45.5t-55.5 45.5 t-51.5 21q-58 0 -80 -103h-185z" />
<glyph unicode="&#xc4;" horiz-adv-x="1446" d="M-102 0l804 1443h449l166 -1443h-373l-24 317h-471l-163 -317h-388zM582 581h323l-40 540h-8zM599 1715q0 66 47 113.5t115 47.5q69 0 117 -47.5t48 -113.5t-48 -113t-117 -47q-68 0 -115 47t-47 113zM1041 1715q0 66 47.5 113.5t116.5 47.5q68 0 115.5 -47.5 t47.5 -113.5t-47.5 -113t-115.5 -47q-69 0 -116.5 47t-47.5 113z" />
<glyph unicode="&#xc5;" horiz-adv-x="1446" d="M-102 0l804 1443h449l166 -1443h-373l-24 317h-471l-163 -317h-388zM582 581h323l-40 540h-8zM763 1770q0 93 68.5 159t163.5 66t163 -66t68 -159t-68 -159t-163 -66t-163.5 66t-68.5 159zM903 1770q0 -36 27.5 -62.5t64.5 -26.5t64 26t27 63t-27 63.5t-64 26.5 t-64.5 -26.5t-27.5 -63.5z" />
<glyph unicode="&#xc6;" horiz-adv-x="2035" d="M-82 0l873 1443h1337l-63 -295h-646l-61 -290h609l-58 -270h-608l-63 -293h645l-62 -295h-976l70 327h-432l-194 -327h-371zM635 592h336l122 575h-120z" />
<glyph unicode="&#xc7;" horiz-adv-x="1507" d="M105 586q0 262 101 462.5t287 310t431 109.5q255 0 420.5 -146.5t169.5 -376.5q0 -28 -4 -56h-357q1 7 0 37q-3 105 -78 173.5t-186 68.5q-179 0 -293 -157.5t-114 -403.5q0 -153 73.5 -241t200.5 -88q115 0 201.5 65t122.5 178h357q-38 -223 -204.5 -369.5 t-408.5 -171.5l-69 -89q51 -9 90 -48t39 -108q0 -89 -71.5 -138.5t-197.5 -49.5q-79 0 -146 20l29 129q44 -13 93 -13q100 0 100 46q0 50 -100 50h-40l24 114l67 87q-248 26 -392.5 188.5t-144.5 417.5z" />
<glyph unicode="&#xc8;" horiz-adv-x="1191" d="M0 0l307 1443h988l-63 -295h-621l-61 -288h584l-57 -270h-584l-63 -295h621l-62 -295h-989zM559 1870h293l67 -314h-235z" />
<glyph unicode="&#xc9;" horiz-adv-x="1191" d="M0 0l307 1443h988l-63 -295h-621l-61 -288h584l-57 -270h-584l-63 -295h621l-62 -295h-989zM691 1556l200 314h294l-260 -314h-234z" />
<glyph unicode="&#xca;" horiz-adv-x="1191" d="M0 0l307 1443h988l-63 -295h-621l-61 -288h584l-57 -270h-584l-63 -295h621l-62 -295h-989zM408 1542l325 327h272l192 -327h-249l-102 191h-7l-181 -191h-250z" />
<glyph unicode="&#xcb;" horiz-adv-x="1191" d="M0 0l307 1443h988l-63 -295h-621l-61 -288h584l-57 -270h-584l-63 -295h621l-62 -295h-989zM455 1715q0 66 47 113.5t115 47.5q69 0 117 -47.5t48 -113.5t-48 -113t-117 -47q-68 0 -115 47t-47 113zM897 1715q0 66 47.5 113.5t116.5 47.5q68 0 115.5 -47.5t47.5 -113.5 t-47.5 -113t-115.5 -47q-69 0 -116.5 47t-47.5 113z" />
<glyph unicode="&#xcc;" horiz-adv-x="598" d="M0 0l307 1443h367l-307 -1443h-367zM268 1870h293l67 -314h-235z" />
<glyph unicode="&#xcd;" horiz-adv-x="598" d="M0 0l307 1443h367l-307 -1443h-367zM401 1556l200 314h294l-260 -314h-234z" />
<glyph unicode="&#xce;" horiz-adv-x="598" d="M0 0l307 1443h367l-307 -1443h-367zM118 1542l325 327h272l192 -327h-249l-102 191h-7l-181 -191h-250z" />
<glyph unicode="&#xcf;" horiz-adv-x="598" d="M0 0l307 1443h367l-307 -1443h-367zM164 1715q0 66 47 113.5t115 47.5q69 0 117 -47.5t48 -113.5t-48 -113t-117 -47q-68 0 -115 47t-47 113zM606 1715q0 66 47.5 113.5t116.5 47.5q68 0 115.5 -47.5t47.5 -113.5t-47.5 -113t-115.5 -47q-69 0 -116.5 47t-47.5 113z" />
<glyph unicode="&#xd0;" horiz-adv-x="1473" d="M0 0l128 600h-115l54 254h115l125 589h557q263 0 423 -149.5t160 -410.5q0 -192 -55.5 -355.5t-155 -280t-242.5 -182t-312 -65.5h-682zM433 294h199q194 0 316 148t122 395q0 146 -76 229t-214 83h-166l-62 -295h222l-54 -254h-222z" />
<glyph unicode="&#xd1;" horiz-adv-x="1491" d="M0 0l307 1443h288l426 -882h7l186 882h353l-307 -1443h-288l-426 882h-7l-186 -882h-353zM565 1571q24 126 92.5 200.5t165.5 74.5q47 0 90 -20.5t69 -45.5t55 -45.5t51 -20.5q58 0 80 103h185q-24 -124 -92.5 -200t-164.5 -76q-46 0 -89.5 21t-70 45.5t-55.5 45.5 t-51 21q-58 0 -80 -103h-185z" />
<glyph unicode="&#xd2;" horiz-adv-x="1570" d="M105 593q0 190 61.5 354t167 277.5t250.5 178.5t309 65q300 0 473.5 -172.5t173.5 -445.5q0 -190 -62 -354t-168 -278t-251.5 -178.5t-308.5 -64.5q-148 0 -269.5 46.5t-203.5 128.5t-127 196t-45 247zM478 614q0 -155 76.5 -248t205.5 -93q84 0 159.5 44t130 118.5 t86.5 177t32 216.5q0 156 -77 248.5t-206 92.5q-112 0 -205.5 -74.5t-147.5 -202.5t-54 -279zM684 1870h293l67 -314h-235z" />
<glyph unicode="&#xd3;" horiz-adv-x="1570" d="M105 593q0 190 61.5 354t167 277.5t250.5 178.5t309 65q300 0 473.5 -172.5t173.5 -445.5q0 -190 -62 -354t-168 -278t-251.5 -178.5t-308.5 -64.5q-148 0 -269.5 46.5t-203.5 128.5t-127 196t-45 247zM478 614q0 -155 76.5 -248t205.5 -93q84 0 159.5 44t130 118.5 t86.5 177t32 216.5q0 156 -77 248.5t-206 92.5q-112 0 -205.5 -74.5t-147.5 -202.5t-54 -279zM817 1556l200 314h294l-260 -314h-234z" />
<glyph unicode="&#xd4;" horiz-adv-x="1570" d="M105 593q0 190 61.5 354t167 277.5t250.5 178.5t309 65q300 0 473.5 -172.5t173.5 -445.5q0 -190 -62 -354t-168 -278t-251.5 -178.5t-308.5 -64.5q-148 0 -269.5 46.5t-203.5 128.5t-127 196t-45 247zM478 614q0 -155 76.5 -248t205.5 -93q84 0 159.5 44t130 118.5 t86.5 177t32 216.5q0 156 -77 248.5t-206 92.5q-112 0 -205.5 -74.5t-147.5 -202.5t-54 -279zM534 1542l325 327h272l192 -327h-249l-102 191h-7l-181 -191h-250z" />
<glyph unicode="&#xd5;" horiz-adv-x="1570" d="M105 593q0 190 61.5 354t167 277.5t250.5 178.5t309 65q300 0 473.5 -172.5t173.5 -445.5q0 -190 -62 -354t-168 -278t-251.5 -178.5t-308.5 -64.5q-148 0 -269.5 46.5t-203.5 128.5t-127 196t-45 247zM478 614q0 -155 76.5 -248t205.5 -93q84 0 159.5 44t130 118.5 t86.5 177t32 216.5q0 156 -77 248.5t-206 92.5q-112 0 -205.5 -74.5t-147.5 -202.5t-54 -279zM567 1571q24 126 92.5 200.5t165.5 74.5q47 0 90 -20.5t69 -45.5t55 -45.5t51 -20.5q58 0 80 103h185q-24 -124 -92.5 -200t-164.5 -76q-46 0 -89.5 21t-70 45.5t-55.5 45.5 t-51 21q-58 0 -80 -103h-185z" />
<glyph unicode="&#xd6;" horiz-adv-x="1570" d="M105 593q0 190 61.5 354t167 277.5t250.5 178.5t309 65q300 0 473.5 -172.5t173.5 -445.5q0 -190 -62 -354t-168 -278t-251.5 -178.5t-308.5 -64.5q-148 0 -269.5 46.5t-203.5 128.5t-127 196t-45 247zM478 614q0 -155 76.5 -248t205.5 -93q84 0 159.5 44t130 118.5 t86.5 177t32 216.5q0 156 -77 248.5t-206 92.5q-112 0 -205.5 -74.5t-147.5 -202.5t-54 -279zM580 1715q0 66 47 113.5t115 47.5q69 0 117 -47.5t48 -113.5t-48 -113t-117 -47q-68 0 -115 47t-47 113zM1022 1715q0 66 47.5 113.5t116.5 47.5q68 0 115.5 -47.5t47.5 -113.5 t-47.5 -113t-115.5 -47q-69 0 -116.5 47t-47.5 113z" />
<glyph unicode="&#xd7;" d="M99 271l396 326l-244 322l233 192l245 -322l391 322l171 -215l-397 -326l245 -321l-233 -193l-245 322l-391 -322z" />
<glyph unicode="&#xd8;" horiz-adv-x="1570" d="M91 153l104 100q-90 146 -90 340q0 190 61.5 354t167 277.5t250.5 178.5t309 65q258 0 428 -132l98 94l136 -145l-102 -98q87 -147 87 -337t-62 -354t-168 -278t-251.5 -178.5t-308.5 -64.5q-251 0 -422 130l-100 -96zM478 614q0 -44 6 -83l589 566q-75 73 -188 73 q-112 0 -205.5 -74.5t-147.5 -202.5t-54 -279zM576 343q73 -70 184 -70q84 0 159.5 44t130 118.5t86.5 177t32 216.5q0 42 -6 78z" />
<glyph unicode="&#xd9;" horiz-adv-x="1484" d="M111 454q0 63 13 125l183 864h367l-181 -858q-11 -53 -10 -91q1 -96 66.5 -151.5t171.5 -55.5q108 0 180.5 64.5t97.5 184.5l192 907h368l-209 -987q-48 -225 -222 -353t-428 -128q-272 0 -430.5 132.5t-158.5 346.5zM700 1870h293l67 -314h-235z" />
<glyph unicode="&#xda;" horiz-adv-x="1484" d="M111 454q0 63 13 125l183 864h367l-181 -858q-11 -53 -10 -91q1 -96 66.5 -151.5t171.5 -55.5q108 0 180.5 64.5t97.5 184.5l192 907h368l-209 -987q-48 -225 -222 -353t-428 -128q-272 0 -430.5 132.5t-158.5 346.5zM832 1556l200 314h294l-260 -314h-234z" />
<glyph unicode="&#xdb;" horiz-adv-x="1484" d="M111 454q0 63 13 125l183 864h367l-181 -858q-11 -53 -10 -91q1 -96 66.5 -151.5t171.5 -55.5q108 0 180.5 64.5t97.5 184.5l192 907h368l-209 -987q-48 -225 -222 -353t-428 -128q-272 0 -430.5 132.5t-158.5 346.5zM549 1542l325 327h272l192 -327h-249l-102 191h-7 l-181 -191h-250z" />
<glyph unicode="&#xdc;" horiz-adv-x="1484" d="M111 454q0 63 13 125l183 864h367l-181 -858q-11 -53 -10 -91q1 -96 66.5 -151.5t171.5 -55.5q108 0 180.5 64.5t97.5 184.5l192 907h368l-209 -987q-48 -225 -222 -353t-428 -128q-272 0 -430.5 132.5t-158.5 346.5zM596 1715q0 66 47 113.5t115 47.5q69 0 117 -47.5 t48 -113.5t-48 -113t-117 -47q-68 0 -115 47t-47 113zM1038 1715q0 66 47.5 113.5t116.5 47.5q68 0 115.5 -47.5t47.5 -113.5t-47.5 -113t-115.5 -47q-69 0 -116.5 47t-47.5 113z" />
<glyph unicode="&#xdd;" horiz-adv-x="1389" d="M205 1443h380l165 -602h7l410 602h400l-699 -951l-104 -492h-368l105 498zM792 1556l200 314h294l-260 -314h-234z" />
<glyph unicode="&#xde;" horiz-adv-x="1365" d="M20 0l307 1443h368l-48 -219h239q196 0 324 -117t128 -296q0 -151 -75 -275t-212 -197t-308 -73h-301l-57 -266h-365zM500 546h207q121 0 193.5 62t72.5 165q0 82 -51 125t-149 43h-189z" />
<glyph unicode="&#xdf;" horiz-adv-x="1370" d="M0 0l239 1100q36 167 184 266t362 99q232 0 378.5 -108.5t146.5 -280.5q0 -127 -81 -222t-206 -118l-4 -19q130 -29 200.5 -106t70.5 -194q0 -196 -140 -311.5t-369 -115.5q-161 0 -276 42l59 266q68 -34 159 -34q95 0 154 48t59 127q0 71 -59.5 108.5t-164.5 37.5h-77 l58 275h72q81 0 136.5 46t55.5 118q0 71 -50 115t-130 44q-82 0 -138 -52.5t-77 -151.5l-208 -979h-354z" />
<glyph unicode="&#xe0;" horiz-adv-x="1143" d="M3 280q0 167 130 264.5t358 104.5l257 8l13 64q4 17 4 36q0 47 -41 75.5t-110 28.5q-67 0 -111.5 -27.5t-60.5 -78.5h-315q31 165 169 262.5t343 97.5q207 0 335 -91t128 -237q0 -48 -9 -89l-148 -698h-334l28 129h-7q-44 -67 -125 -106t-182 -39q-137 0 -229.5 84 t-92.5 212zM336 329q0 -48 39.5 -77t102.5 -29q76 0 136 44.5t74 111.5l18 81l-198 -6q-79 -3 -125.5 -36.5t-46.5 -88.5zM431 1553h290l67 -321h-233z" />
<glyph unicode="&#xe1;" horiz-adv-x="1143" d="M3 280q0 167 130 264.5t358 104.5l257 8l13 64q4 17 4 36q0 47 -41 75.5t-110 28.5q-67 0 -111.5 -27.5t-60.5 -78.5h-315q31 165 169 262.5t343 97.5q207 0 335 -91t128 -237q0 -48 -9 -89l-148 -698h-334l28 129h-7q-44 -67 -125 -106t-182 -39q-137 0 -229.5 84 t-92.5 212zM336 329q0 -48 39.5 -77t102.5 -29q76 0 136 44.5t74 111.5l18 81l-198 -6q-79 -3 -125.5 -36.5t-46.5 -88.5zM553 1232l203 321h294l-262 -321h-235z" />
<glyph unicode="&#xe2;" horiz-adv-x="1143" d="M3 280q0 167 130 264.5t358 104.5l257 8l13 64q4 17 4 36q0 47 -41 75.5t-110 28.5q-67 0 -111.5 -27.5t-60.5 -78.5h-315q31 165 169 262.5t343 97.5q207 0 335 -91t128 -237q0 -48 -9 -89l-148 -698h-334l28 129h-7q-44 -67 -125 -106t-182 -39q-137 0 -229.5 84 t-92.5 212zM312 1232l308 321h273l192 -321h-242l-98 175h-7l-169 -175h-257zM336 329q0 -48 39.5 -77t102.5 -29q76 0 136 44.5t74 111.5l18 81l-198 -6q-79 -3 -125.5 -36.5t-46.5 -88.5z" />
<glyph unicode="&#xe3;" horiz-adv-x="1143" d="M3 280q0 167 130 264.5t358 104.5l257 8l13 64q4 17 4 36q0 47 -41 75.5t-110 28.5q-67 0 -111.5 -27.5t-60.5 -78.5h-315q31 165 169 262.5t343 97.5q207 0 335 -91t128 -237q0 -48 -9 -89l-148 -698h-334l28 129h-7q-44 -67 -125 -106t-182 -39q-137 0 -229.5 84 t-92.5 212zM306 1239q24 125 92 200.5t165 75.5q47 0 90 -21t69 -45.5t55 -45.5t51 -21q59 0 81 104h184q-23 -125 -91.5 -200.5t-165.5 -75.5q-46 0 -89 20.5t-69.5 45.5t-55.5 45.5t-51 20.5q-59 0 -80 -103h-185zM336 329q0 -48 39.5 -77t102.5 -29q76 0 136 44.5 t74 111.5l18 81l-198 -6q-79 -3 -125.5 -36.5t-46.5 -88.5z" />
<glyph unicode="&#xe4;" horiz-adv-x="1143" d="M3 280q0 167 130 264.5t358 104.5l257 8l13 64q4 17 4 36q0 47 -41 75.5t-110 28.5q-67 0 -111.5 -27.5t-60.5 -78.5h-315q31 165 169 262.5t343 97.5q207 0 335 -91t128 -237q0 -48 -9 -89l-148 -698h-334l28 129h-7q-44 -67 -125 -106t-182 -39q-137 0 -229.5 84 t-92.5 212zM318 1384q0 66 47.5 113.5t115.5 47.5q69 0 117 -47.5t48 -113.5t-48 -113t-117 -47q-68 0 -115.5 47t-47.5 113zM336 329q0 -48 39.5 -77t102.5 -29q76 0 136 44.5t74 111.5l18 81l-198 -6q-79 -3 -125.5 -36.5t-46.5 -88.5zM760 1384q0 66 48 113.5t116 47.5 q69 0 116.5 -47.5t47.5 -113.5t-47.5 -113t-116.5 -47q-68 0 -116 47t-48 113z" />
<glyph unicode="&#xe5;" horiz-adv-x="1143" d="M3 280q0 167 130 264.5t358 104.5l257 8l13 64q4 17 4 36q0 47 -41 75.5t-110 28.5q-67 0 -111.5 -27.5t-60.5 -78.5h-315q31 165 169 262.5t343 97.5q207 0 335 -91t128 -237q0 -48 -9 -89l-148 -698h-334l28 129h-7q-44 -67 -125 -106t-182 -39q-137 0 -229.5 84 t-92.5 212zM336 329q0 -48 39.5 -77t102.5 -29q76 0 136 44.5t74 111.5l18 81l-198 -6q-79 -3 -125.5 -36.5t-46.5 -88.5zM479 1420q0 93 68.5 159t163.5 66q94 0 162.5 -66t68.5 -159q0 -92 -68.5 -158.5t-162.5 -66.5q-95 0 -163.5 66.5t-68.5 158.5zM619 1420 q0 -37 27 -62.5t65 -25.5q37 0 64 26t27 62q0 37 -27 63.5t-64 26.5q-38 0 -65 -26.5t-27 -63.5z" />
<glyph unicode="&#xe6;" horiz-adv-x="1847" d="M7 280q0 170 127.5 266.5t360.5 102.5l257 8l13 64q3 15 3 36q0 46 -41 75t-109 29q-141 0 -173 -106h-316q32 162 166.5 261t327.5 99q103 0 198 -39t141 -101h16q64 67 153 103.5t187 36.5q208 0 341.5 -131t133.5 -336q0 -99 -16 -179h-750v-18q0 -107 56 -169 t152 -62q73 0 122.5 34t69.5 97h321q-44 -173 -190 -275t-348 -102q-118 0 -223.5 54t-146.5 135h-15q-63 -88 -175 -138.5t-241 -50.5q-175 0 -288.5 87t-113.5 219zM340 323q0 -46 39.5 -75.5t102.5 -29.5q78 0 138.5 44t74.5 111l18 82l-201 -7q-78 -3 -125 -37t-47 -88z M1062 667h417q3 15 3 31q0 76 -49.5 123.5t-127.5 47.5q-88 0 -154 -55t-89 -147z" />
<glyph unicode="&#xe7;" horiz-adv-x="1160" d="M55 444q0 305 164 488t440 183q210 0 344 -115t134 -285q0 -37 -1 -43h-329q-1 75 -44.5 120.5t-118.5 45.5q-109 0 -177 -105.5t-68 -274.5q0 -94 45.5 -150.5t120.5 -56.5q73 0 124 43.5t71 120.5h329q-25 -173 -146 -291t-300 -144l-70 -89q51 -9 90 -48t39 -108 q0 -89 -71.5 -138.5t-197.5 -49.5q-79 0 -146 20l29 129q44 -13 93 -13q100 0 100 46q0 50 -100 50h-40l24 114l67 87q-189 25 -297 149t-108 315z" />
<glyph unicode="&#xe8;" horiz-adv-x="1193" d="M57 469q0 183 74.5 330t212 231.5t313.5 84.5q216 0 349 -128t133 -340q0 -103 -17 -178h-751q-3 -17 -3 -33q0 -94 55 -153t149 -59q74 0 127.5 34.5t72.5 92.5h322q-43 -170 -187.5 -273t-349.5 -103q-232 0 -366 132.5t-134 361.5zM404 667h417q2 6 2 31 q0 74 -49 122.5t-132 48.5q-86 0 -151 -56t-87 -146zM445 1553h290l67 -321h-233z" />
<glyph unicode="&#xe9;" horiz-adv-x="1193" d="M57 469q0 183 74.5 330t212 231.5t313.5 84.5q216 0 349 -128t133 -340q0 -103 -17 -178h-751q-3 -17 -3 -33q0 -94 55 -153t149 -59q74 0 127.5 34.5t72.5 92.5h322q-43 -170 -187.5 -273t-349.5 -103q-232 0 -366 132.5t-134 361.5zM404 667h417q2 6 2 31 q0 74 -49 122.5t-132 48.5q-86 0 -151 -56t-87 -146zM567 1232l203 321h294l-262 -321h-235z" />
<glyph unicode="&#xea;" horiz-adv-x="1193" d="M57 469q0 183 74.5 330t212 231.5t313.5 84.5q216 0 349 -128t133 -340q0 -103 -17 -178h-751q-3 -17 -3 -33q0 -94 55 -153t149 -59q74 0 127.5 34.5t72.5 92.5h322q-43 -170 -187.5 -273t-349.5 -103q-232 0 -366 132.5t-134 361.5zM326 1232l308 321h273l192 -321 h-242l-98 175h-7l-169 -175h-257zM404 667h417q2 6 2 31q0 74 -49 122.5t-132 48.5q-86 0 -151 -56t-87 -146z" />
<glyph unicode="&#xeb;" horiz-adv-x="1193" d="M57 469q0 183 74.5 330t212 231.5t313.5 84.5q216 0 349 -128t133 -340q0 -103 -17 -178h-751q-3 -17 -3 -33q0 -94 55 -153t149 -59q74 0 127.5 34.5t72.5 92.5h322q-43 -170 -187.5 -273t-349.5 -103q-232 0 -366 132.5t-134 361.5zM332 1384q0 66 47.5 113.5 t115.5 47.5q69 0 117 -47.5t48 -113.5t-48 -113t-117 -47q-68 0 -115.5 47t-47.5 113zM404 667h417q2 6 2 31q0 74 -49 122.5t-132 48.5q-86 0 -151 -56t-87 -146zM774 1384q0 66 48 113.5t116 47.5q69 0 116.5 -47.5t47.5 -113.5t-47.5 -113t-116.5 -47q-68 0 -116 47 t-48 113z" />
<glyph unicode="&#xec;" horiz-adv-x="631" d="M35 0l232 1089h345l-232 -1089h-345zM231 1553h290l67 -321h-233z" />
<glyph unicode="&#xed;" horiz-adv-x="631" d="M35 0l232 1089h345l-232 -1089h-345zM353 1232l203 321h294l-262 -321h-235z" />
<glyph unicode="&#xee;" horiz-adv-x="631" d="M35 0l232 1089h345l-232 -1089h-345zM112 1232l308 321h273l192 -321h-242l-98 175h-7l-169 -175h-257z" />
<glyph unicode="&#xef;" horiz-adv-x="631" d="M35 0l232 1089h345l-232 -1089h-345zM118 1384q0 66 47.5 113.5t115.5 47.5q69 0 117 -47.5t48 -113.5t-48 -113t-117 -47q-68 0 -115.5 47t-47.5 113zM560 1384q0 66 48 113.5t116 47.5q69 0 116.5 -47.5t47.5 -113.5t-47.5 -113t-116.5 -47q-68 0 -116 47t-48 113z" />
<glyph unicode="&#xf0;" horiz-adv-x="1277" d="M55 463q0 152 69.5 280t191.5 202.5t267 74.5q113 0 195.5 -48t120.5 -121h17q-25 207 -129 337l-338 -107l34 157l186 58q-65 44 -150 73l39 182q217 -50 375 -171l261 82l-33 -156l-113 -36q182 -213 182 -514q0 -146 -41 -287q-66 -222 -220.5 -354t-377.5 -132 q-237 0 -386.5 135t-149.5 345zM406 452q0 -92 51 -147.5t136 -55.5q102 0 180.5 101.5t78.5 234.5q0 91 -52.5 147t-138.5 56q-102 0 -178.5 -101t-76.5 -235z" />
<glyph unicode="&#xf1;" horiz-adv-x="1241" d="M-27 0l232 1089h332l-36 -166h8q56 91 151 141.5t207 50.5q147 0 239 -86t92 -225q0 -61 -15 -133l-141 -671h-342l131 617q8 50 8 78q0 66 -45.5 107t-119.5 41q-80 0 -141 -55.5t-80 -145.5l-137 -642h-343zM350 1239q24 125 92 200.5t165 75.5q47 0 90 -21t69 -45.5 t55 -45.5t51 -21q59 0 81 104h184q-23 -125 -91.5 -200.5t-165.5 -75.5q-46 0 -89 20.5t-69.5 45.5t-55.5 45.5t-51 20.5q-59 0 -80 -103h-185z" />
<glyph unicode="&#xf2;" horiz-adv-x="1251" d="M55 465q0 139 47.5 260t130 206.5t200 134.5t252.5 49q229 0 370 -135.5t141 -355.5q0 -186 -80.5 -334.5t-224.5 -232t-325 -83.5q-229 0 -370 135.5t-141 355.5zM404 472q0 -104 48.5 -167t127.5 -63q113 0 189 108t76 267q0 104 -48 167t-127 63q-115 0 -190.5 -107 t-75.5 -268zM472 1553h290l67 -321h-233z" />
<glyph unicode="&#xf3;" horiz-adv-x="1251" d="M55 465q0 139 47.5 260t130 206.5t200 134.5t252.5 49q229 0 370 -135.5t141 -355.5q0 -186 -80.5 -334.5t-224.5 -232t-325 -83.5q-229 0 -370 135.5t-141 355.5zM404 472q0 -104 48.5 -167t127.5 -63q113 0 189 108t76 267q0 104 -48 167t-127 63q-115 0 -190.5 -107 t-75.5 -268zM594 1232l203 321h294l-262 -321h-235z" />
<glyph unicode="&#xf4;" horiz-adv-x="1251" d="M55 465q0 139 47.5 260t130 206.5t200 134.5t252.5 49q229 0 370 -135.5t141 -355.5q0 -186 -80.5 -334.5t-224.5 -232t-325 -83.5q-229 0 -370 135.5t-141 355.5zM353 1232l308 321h273l192 -321h-242l-98 175h-7l-169 -175h-257zM404 472q0 -104 48.5 -167t127.5 -63 q113 0 189 108t76 267q0 104 -48 167t-127 63q-115 0 -190.5 -107t-75.5 -268z" />
<glyph unicode="&#xf5;" horiz-adv-x="1251" d="M55 465q0 139 47.5 260t130 206.5t200 134.5t252.5 49q229 0 370 -135.5t141 -355.5q0 -186 -80.5 -334.5t-224.5 -232t-325 -83.5q-229 0 -370 135.5t-141 355.5zM347 1239q24 125 92 200.5t165 75.5q47 0 90 -21t69 -45.5t55 -45.5t51 -21q59 0 81 104h184 q-23 -125 -91.5 -200.5t-165.5 -75.5q-46 0 -89 20.5t-69.5 45.5t-55.5 45.5t-51 20.5q-59 0 -80 -103h-185zM404 472q0 -104 48.5 -167t127.5 -63q113 0 189 108t76 267q0 104 -48 167t-127 63q-115 0 -190.5 -107t-75.5 -268z" />
<glyph unicode="&#xf6;" horiz-adv-x="1251" d="M55 465q0 139 47.5 260t130 206.5t200 134.5t252.5 49q229 0 370 -135.5t141 -355.5q0 -186 -80.5 -334.5t-224.5 -232t-325 -83.5q-229 0 -370 135.5t-141 355.5zM359 1384q0 66 47.5 113.5t115.5 47.5q69 0 117 -47.5t48 -113.5t-48 -113t-117 -47q-68 0 -115.5 47 t-47.5 113zM404 472q0 -104 48.5 -167t127.5 -63q113 0 189 108t76 267q0 104 -48 167t-127 63q-115 0 -190.5 -107t-75.5 -268zM801 1384q0 66 48 113.5t116 47.5q69 0 116.5 -47.5t47.5 -113.5t-47.5 -113t-116.5 -47q-68 0 -116 47t-48 113z" />
<glyph unicode="&#xf7;" d="M127 448l58 271h1076l-58 -271h-1076zM436 170q0 72 50.5 122.5t122.5 50.5t123 -50.5t51 -122.5t-51 -123t-123 -51t-122.5 51t-50.5 123zM607 997q0 72 50.5 123t122.5 51t123 -51t51 -123t-51 -123t-123 -51t-122.5 51t-50.5 123z" />
<glyph unicode="&#xf8;" horiz-adv-x="1251" d="M33 73l105 105q-83 122 -83 287q0 139 47.5 260t130 206.5t200 134.5t252.5 49q177 0 305 -84l107 107l122 -122l-106 -106q83 -120 83 -286q0 -186 -80.5 -334.5t-224.5 -232t-325 -83.5q-175 0 -305 83l-106 -106zM392 466q0 -22 1 -32l391 390q-46 41 -111 41 q-122 0 -201.5 -113t-79.5 -286zM468 264q45 -40 109 -40q120 0 200.5 114.5t80.5 284.5q0 21 -1 31z" />
<glyph unicode="&#xf9;" horiz-adv-x="1241" d="M46 291q0 77 14 141l139 657h344l-128 -601q-7 -42 -7 -73q0 -77 41.5 -117.5t120.5 -40.5q83 0 141 54.5t78 148.5l134 629h345l-231 -1089h-334l37 172h-7q-47 -90 -140 -144t-207 -54q-156 0 -248 87t-92 230zM523 1553h290l67 -321h-233z" />
<glyph unicode="&#xfa;" horiz-adv-x="1241" d="M46 291q0 77 14 141l139 657h344l-128 -601q-7 -42 -7 -73q0 -77 41.5 -117.5t120.5 -40.5q83 0 141 54.5t78 148.5l134 629h345l-231 -1089h-334l37 172h-7q-47 -90 -140 -144t-207 -54q-156 0 -248 87t-92 230zM645 1232l203 321h294l-262 -321h-235z" />
<glyph unicode="&#xfb;" horiz-adv-x="1241" d="M46 291q0 77 14 141l139 657h344l-128 -601q-7 -42 -7 -73q0 -77 41.5 -117.5t120.5 -40.5q83 0 141 54.5t78 148.5l134 629h345l-231 -1089h-334l37 172h-7q-47 -90 -140 -144t-207 -54q-156 0 -248 87t-92 230zM404 1232l308 321h273l192 -321h-242l-98 175h-7 l-169 -175h-257z" />
<glyph unicode="&#xfc;" horiz-adv-x="1241" d="M46 291q0 77 14 141l139 657h344l-128 -601q-7 -42 -7 -73q0 -77 41.5 -117.5t120.5 -40.5q83 0 141 54.5t78 148.5l134 629h345l-231 -1089h-334l37 172h-7q-47 -90 -140 -144t-207 -54q-156 0 -248 87t-92 230zM410 1384q0 66 47.5 113.5t115.5 47.5q69 0 117 -47.5 t48 -113.5t-48 -113t-117 -47q-68 0 -115.5 47t-47.5 113zM852 1384q0 66 48 113.5t116 47.5q69 0 116.5 -47.5t47.5 -113.5t-47.5 -113t-116.5 -47q-68 0 -116 47t-48 113z" />
<glyph unicode="&#xfd;" horiz-adv-x="1152" d="M-95 -395l55 267q8 -3 103 -3q158 0 181 114q0 3 4 17.5t3 16.5l-125 1072h352l28 -818h7l377 818h368l-587 -1102q-111 -209 -256 -297.5t-366 -88.5q-132 0 -144 4zM597 1233l203 321h294l-262 -321h-235z" />
<glyph unicode="&#xfe;" horiz-adv-x="1274" d="M-94 -330l377 1775h344l-110 -515h15q54 83 139 129t184 46q170 0 270 -115t100 -310q0 -148 -41 -277.5t-113 -221.5t-172 -144.5t-215 -52.5q-114 0 -196 58.5t-110 157.5h-15l-114 -530h-343zM427 468q0 -94 49.5 -152t131.5 -58q110 0 187 107t77 261q0 98 -48 156 t-129 58q-112 0 -190 -110.5t-78 -261.5z" />
<glyph unicode="&#xff;" horiz-adv-x="1152" d="M-95 -395l55 267q8 -3 103 -3q158 0 181 114q0 3 4 17.5t3 16.5l-125 1072h352l28 -818h7l377 818h368l-587 -1102q-111 -209 -256 -297.5t-366 -88.5q-132 0 -144 4zM362 1385q0 66 47.5 113.5t115.5 47.5q69 0 117 -47.5t48 -113.5t-48 -113t-117 -47q-68 0 -115.5 47 t-47.5 113zM804 1385q0 66 48 113.5t116 47.5q69 0 116.5 -47.5t47.5 -113.5t-47.5 -113t-116.5 -47q-68 0 -116 47t-48 113z" />
<glyph unicode="&#x152;" horiz-adv-x="2236" d="M113 595q0 246 101.5 445.5t282.5 313.5t406 114q155 0 271 -68.5t183 -197.5h7l52 241h904l-64 -295h-621l-61 -288h584l-57 -270h-584l-63 -295h622l-63 -295h-904l35 174h-7q-72 -93 -191.5 -146t-256.5 -53q-257 0 -416.5 171.5t-159.5 448.5zM485 614 q0 -155 77 -248t205 -93q113 0 207 75t148 202.5t54 278.5q0 156 -77 248.5t-206 92.5q-112 0 -206 -75t-148 -202.5t-54 -278.5z" />
<glyph unicode="&#x153;" horiz-adv-x="1963" d="M54 465q0 136 48 256.5t131 207t199.5 136.5t247.5 50q116 0 209.5 -46t152.5 -126h16q62 76 160.5 124t208.5 48q215 0 349.5 -129.5t134.5 -337.5q0 -78 -18 -179h-748q-1 -2 -1 -18q0 -106 56 -168.5t151 -62.5q154 0 194 131h320q-43 -172 -189 -274t-349 -102 q-110 0 -216.5 50.5t-145.5 122.5h-15q-66 -84 -165 -128.5t-220 -44.5q-232 0 -371.5 133.5t-139.5 356.5zM409 465q0 -106 44 -166.5t121 -60.5q109 0 185.5 112.5t76.5 271.5q0 107 -43.5 168.5t-119.5 61.5q-109 0 -186.5 -114t-77.5 -273zM1178 667h417q3 15 3 31 q0 76 -49.5 123.5t-127.5 47.5q-88 0 -154 -55.5t-89 -146.5z" />
<glyph unicode="&#x178;" horiz-adv-x="1389" d="M205 1443h380l165 -602h7l410 602h400l-699 -951l-104 -492h-368l105 498zM555 1715q0 66 47 113.5t115 47.5q69 0 117 -47.5t48 -113.5t-48 -113t-117 -47q-68 0 -115 47t-47 113zM997 1715q0 66 47.5 113.5t116.5 47.5q68 0 115.5 -47.5t47.5 -113.5t-47.5 -113 t-115.5 -47q-69 0 -116.5 47t-47.5 113z" />
<glyph unicode="&#x2c6;" horiz-adv-x="1024" d="M272 1232l309 321h273l191 -321h-242l-98 175h-7l-169 -175h-257z" />
<glyph unicode="&#x2dc;" horiz-adv-x="1024" d="M293 1241q24 125 92 200.5t165 75.5q47 0 90 -21t69 -45.5t55 -45.5t51 -21q58 0 80 104h185q-24 -125 -92 -200.5t-165 -75.5q-46 0 -89.5 20.5t-69.5 45.5t-55 45.5t-51 20.5q-59 0 -81 -103h-184z" />
<glyph unicode="&#x2000;" horiz-adv-x="997" />
<glyph unicode="&#x2001;" horiz-adv-x="1995" />
<glyph unicode="&#x2002;" horiz-adv-x="997" />
<glyph unicode="&#x2003;" horiz-adv-x="1995" />
<glyph unicode="&#x2004;" horiz-adv-x="665" />
<glyph unicode="&#x2005;" horiz-adv-x="498" />
<glyph unicode="&#x2006;" horiz-adv-x="332" />
<glyph unicode="&#x2007;" horiz-adv-x="332" />
<glyph unicode="&#x2008;" horiz-adv-x="249" />
<glyph unicode="&#x2009;" horiz-adv-x="399" />
<glyph unicode="&#x200a;" horiz-adv-x="110" />
<glyph unicode="&#x2010;" horiz-adv-x="830" d="M67 437l65 302h650l-65 -302h-650z" />
<glyph unicode="&#x2011;" horiz-adv-x="830" d="M67 437l65 302h650l-65 -302h-650z" />
<glyph unicode="&#x2012;" horiz-adv-x="830" d="M67 437l65 302h650l-65 -302h-650z" />
<glyph unicode="&#x2013;" horiz-adv-x="1024" d="M-23 437l65 302h1024l-65 -302h-1024z" />
<glyph unicode="&#x2014;" horiz-adv-x="2048" d="M-23 437l65 302h2048l-65 -302h-2048z" />
<glyph unicode="&#x2018;" horiz-adv-x="623" d="M174 851l274 592h257l-204 -592h-327z" />
<glyph unicode="&#x2019;" horiz-adv-x="623" d="M175 851l204 592h326l-273 -592h-257z" />
<glyph unicode="&#x201a;" horiz-adv-x="622" d="M-52 -331l189 592h326l-258 -592h-257z" />
<glyph unicode="&#x201c;" horiz-adv-x="1134" d="M195 851l273 592h258l-205 -592h-326zM680 851l258 592h257l-189 -592h-326z" />
<glyph unicode="&#x201d;" horiz-adv-x="1134" d="M195 851l189 592h326l-258 -592h-257zM665 851l204 592h326l-273 -592h-257z" />
<glyph unicode="&#x201e;" horiz-adv-x="1134" d="M-56 -331l189 592h326l-258 -592h-257zM429 -331l189 592h326l-258 -592h-257z" />
<glyph unicode="&#x2022;" horiz-adv-x="973" d="M108 570q0 158 113 271t271 113t271 -113t113 -271t-113 -271.5t-271 -113.5t-271 113.5t-113 271.5z" />
<glyph unicode="&#x2026;" horiz-adv-x="1606" d="M34 173q0 77 54 131.5t131 54.5t131.5 -54.5t54.5 -131.5t-54.5 -131.5t-131.5 -54.5t-131 54.5t-54 131.5zM539 173q0 77 54.5 131.5t131.5 54.5t131.5 -54.5t54.5 -131.5t-54.5 -131.5t-131.5 -54.5t-131.5 54.5t-54.5 131.5zM1044 173q0 77 54.5 131.5t131.5 54.5 t131.5 -54.5t54.5 -131.5t-54.5 -131.5t-131.5 -54.5t-131.5 54.5t-54.5 131.5z" />
<glyph unicode="&#x202f;" horiz-adv-x="399" />
<glyph unicode="&#x2039;" horiz-adv-x="878" d="M111 562l3 11l405 406h329l-430 -421l-1 -8l260 -397h-303z" />
<glyph unicode="&#x203a;" horiz-adv-x="878" d="M39 153l431 421l1 8l-261 397h304l262 -409l-2 -11l-405 -406h-330z" />
<glyph unicode="&#x205f;" horiz-adv-x="498" />
<glyph unicode="&#x20ac;" d="M98 536l18 89h158v3q0 95 16 178h-135l19 89h137q73 252 278 400t501 148q105 0 200 -18t139 -38l-63 -283q-99 46 -246 46q-158 0 -268.5 -67.5t-165.5 -187.5h571l-19 -89h-583q-18 -72 -18 -153q0 -19 1 -28h562l-19 -89h-529q35 -121 146.5 -186.5t295.5 -65.5 q78 0 115 13l-62 -287q-71 -13 -120 -13q-315 0 -515 144.5t-232 394.5h-182z" />
<glyph unicode="&#x2122;" horiz-adv-x="1890" d="M227 1240l43 203h684l-44 -203h-216l-118 -554h-250l117 554h-216zM878 686l161 757h291l59 -427h5l230 427h313l-161 -757h-221l96 443h-7l-246 -445h-141l-60 445h-4l-95 -443h-220z" />
<glyph unicode="&#x25fc;" horiz-adv-x="1090" d="M0 0v1090h1090v-1090h-1090z" />
<glyph unicode="&#xfb01;" horiz-adv-x="1409" d="M61 0l175 820h-168l54 255h164l27 130q31 149 131.5 217.5t278.5 68.5q109 0 210 -26l-49 -223q-40 12 -107 12q-113 0 -133 -96l-17 -83h218l-54 -255h-211l-174 -820h-345zM813 0l232 1089h345l-232 -1089h-345zM1106 1385q0 71 51 121.5t124 50.5t124 -50.5t51 -121.5 q0 -70 -51 -120.5t-124 -50.5q-72 0 -123.5 50.5t-51.5 120.5z" />
<glyph unicode="&#xfb02;" horiz-adv-x="1318" d="M61 0l175 820h-168l54 255h164l27 130q31 149 131.5 217.5t278.5 68.5q109 0 210 -26l-49 -223q-40 12 -107 12q-113 0 -133 -96l-17 -83h218l-54 -255h-211l-174 -820h-345zM760 0l307 1443h345l-307 -1443h-345z" />
</font>
</defs>
</svg>
