<?xml version="1.0" standalone="no"?>
<!DOCTYPE svg PUBLIC "-//W3C//DTD SVG 1.1//EN" "http://www.w3.org/Graphics/SVG/1.1/DTD/svg11.dtd" >
<svg xmlns="http://www.w3.org/2000/svg" xmlns:xlink="http://www.w3.org/1999/xlink" version="1.1">
<metadata></metadata>
<defs>
<font id="sf_pro_displaysemibold" horiz-adv-x="1293" >
<font-face units-per-em="2048" ascent="1638" descent="-410" />
<missing-glyph horiz-adv-x="410" />
<glyph horiz-adv-x="0" />
<glyph unicode="&#xd;" horiz-adv-x="0" />
<glyph unicode=" "  horiz-adv-x="410" />
<glyph unicode="&#x09;" horiz-adv-x="410" />
<glyph unicode="&#xa0;" horiz-adv-x="410" />
<glyph unicode="!" horiz-adv-x="611" d="M160 122q0 59 42 100t103 41t103.5 -41t42.5 -100t-42.5 -100.5t-103.5 -41.5t-103 41.5t-42 100.5zM177 1443h257l-20 -967h-217z" />
<glyph unicode="&#x22;" horiz-adv-x="884" d="M118 900v543h217v-543h-217zM549 900v543h217v-543h-217z" />
<glyph unicode="#" horiz-adv-x="1282" d="M0 388l36 190h231l61 304h-237l37 188h237l77 373h192l-74 -373h288l76 373h193l-76 -373h241l-36 -188h-243l-62 -304h248l-36 -190h-250l-78 -388h-193l78 388h-289l-78 -388h-192l77 388h-228zM447 565h307l68 329h-308z" />
<glyph unicode="$" d="M114 427h233q30 -184 245 -205v404l-55 13q-198 45 -297.5 138t-99.5 246q0 171 125.5 278.5t326.5 120.5v166h108v-166q200 -14 324 -123t130 -281h-233q-10 87 -68.5 139t-152.5 64v-389l61 -14q208 -48 309 -138.5t101 -247.5q0 -181 -131 -289.5t-340 -121.5v-164 h-108v164q-207 12 -340 120t-138 286zM381 1043q0 -66 50 -111.5t161 -74.5v364q-101 -11 -156 -60.5t-55 -117.5zM700 221q116 9 173.5 58.5t57.5 127.5q0 74 -51 118.5t-180 76.5v-381z" />
<glyph unicode="%" horiz-adv-x="1720" d="M45 1100q0 167 90 265t240 98q149 0 239.5 -98t90.5 -264t-90 -265t-240 -99t-240 99t-90 264zM227 1100q0 -100 40.5 -156t107.5 -56q68 0 108 56t40 156q0 102 -40 156.5t-108 54.5t-108 -55t-40 -156zM268 0l988 1443h197l-988 -1443h-197zM1016 344q0 167 90 265 t240 98q149 0 239 -98t90 -264t-89.5 -265t-239.5 -99t-240 99t-90 264zM1197 344q0 -100 41 -156t108 -56t107.5 56t40.5 156q0 102 -40 156.5t-108 54.5t-108.5 -55t-40.5 -156z" />
<glyph unicode="&#x26;" horiz-adv-x="1413" d="M73 380q0 125 66.5 219.5t206.5 170.5q8 4 22.5 12t25.5 13.5l13 6.5q-97 102 -138 177.5t-41 154.5q0 142 112 236t281 94q170 0 279 -92t109 -235q0 -111 -71.5 -200.5t-226.5 -172.5l304 -329q58 104 58 313v64h216v-75q0 -285 -121 -460l263 -277h-290l-120 129 q-85 -73 -203 -113.5t-249 -40.5q-223 0 -359.5 111.5t-136.5 293.5zM311 399q0 -105 78 -170t205 -65q85 0 164.5 30.5t126.5 82.5l-358 389q-26 -11 -42 -23q-93 -58 -133.5 -114.5t-40.5 -129.5zM449 1121q0 -53 31.5 -105.5t109.5 -128.5q109 56 156.5 110.5t47.5 124.5 q0 74 -48 120.5t-124 46.5t-124.5 -47.5t-48.5 -120.5z" />
<glyph unicode="'" horiz-adv-x="453" d="M118 900v543h217v-543h-217z" />
<glyph unicode="(" horiz-adv-x="738" d="M185 567q0 264 71.5 479t220.5 397h224q-110 -128 -185 -378t-75 -497q0 -246 75 -497t185 -380h-224q-149 183 -220.5 398t-71.5 478z" />
<glyph unicode=")" horiz-adv-x="738" d="M37 -309q110 129 185 379t75 496t-75 497t-185 380h224q292 -359 292 -876q0 -264 -71.5 -478.5t-220.5 -397.5h-224z" />
<glyph unicode="*" horiz-adv-x="884" d="M86 958l220 126l-219 127l70 125l213 -130l-9 237h161l-9 -237l213 130l72 -125l-222 -128l221 -126l-71 -125l-213 130l9 -237h-161l9 237l-214 -130z" />
<glyph unicode="+" d="M141 464v222h393v413h225v-413h394v-222h-394v-413h-225v413h-393z" />
<glyph unicode="," horiz-adv-x="551" d="M90 -305l83 543h243l-135 -543h-191z" />
<glyph unicode="-" horiz-adv-x="895" d="M119 475v222h657v-222h-657z" />
<glyph unicode="." horiz-adv-x="551" d="M132 133q0 60 41.5 102t102.5 42q60 0 101.5 -42t41.5 -102q0 -61 -41.5 -102.5t-101.5 -41.5q-61 0 -102.5 41.5t-41.5 102.5z" />
<glyph unicode="/" horiz-adv-x="738" d="M0 -309l512 1752h226l-512 -1752h-226z" />
<glyph unicode="0" horiz-adv-x="1306" d="M86 723q0 347 151.5 548t416.5 201q264 0 415 -200.5t151 -547.5q0 -348 -150.5 -550.5t-415.5 -202.5q-266 0 -417 201.5t-151 550.5zM346 724q0 -257 80.5 -399.5t227.5 -142.5q146 0 226 142t80 399q0 254 -80.5 396t-225.5 142t-226.5 -142.5t-81.5 -394.5z" />
<glyph unicode="1" horiz-adv-x="956" d="M92 941v237l377 265h255v-1443h-253v1197h-6z" />
<glyph unicode="2" horiz-adv-x="1207" d="M93 1012q0 201 145.5 330.5t370.5 129.5q217 0 353.5 -118t136.5 -295q0 -125 -69 -232t-264 -299l-318 -312v-5h673v-211h-1014v176l510 502q139 137 184.5 210t45.5 155q0 96 -66 159t-172 63q-118 0 -196 -71.5t-78 -181.5h-242z" />
<glyph unicode="3" horiz-adv-x="1261" d="M82 399h247q8 -99 88 -158t208 -59q123 0 200.5 63t77.5 162q1 115 -77.5 177.5t-218.5 62.5h-171v192h165q119 0 192 61t73 158t-63 153t-180 56q-115 0 -189 -58t-81 -159h-240q13 193 152.5 307.5t357.5 114.5q222 0 356.5 -105t134.5 -274q0 -132 -84 -221t-219 -117 v-5q162 -15 258 -107.5t96 -241.5q0 -191 -151 -310.5t-389 -119.5q-236 0 -384.5 118t-158.5 310z" />
<glyph unicode="4" horiz-adv-x="1294" d="M74 277v220q95 178 231 393.5t368 552.5h367v-954h196v-212h-196v-277h-246v277h-720zM306 483h492v768h-4q-331 -475 -488 -761v-7z" />
<glyph unicode="5" horiz-adv-x="1250" d="M116 406h242q12 -101 91 -163.5t193 -62.5q129 0 210 80.5t81 208.5q0 127 -81 207.5t-209 80.5q-93 0 -164 -39.5t-112 -113.5h-225l69 839h886v-211h-680l-40 -435h5q47 73 133 113.5t194 40.5q206 0 339.5 -134.5t133.5 -340.5q0 -224 -151 -364.5t-391 -140.5 q-223 0 -369.5 121.5t-154.5 313.5z" />
<glyph unicode="6" horiz-adv-x="1284" d="M85 705q0 361 156 564.5t431 203.5q201 0 342.5 -107t173.5 -281h-256q-28 85 -96 131.5t-165 46.5q-164 0 -250.5 -144.5t-88.5 -403.5h5q44 104 149.5 168.5t247.5 64.5q207 0 340 -134t133 -339q0 -220 -152.5 -362t-386.5 -142q-122 0 -225.5 43.5t-184.5 130.5 t-127 230.5t-46 329.5zM376 470q0 -121 83.5 -205t204.5 -84t205 82.5t84 201.5q1 124 -80 204t-206 80t-208 -79.5t-83 -199.5z" />
<glyph unicode="7" horiz-adv-x="1153" d="M68 1232v211h1004v-215l-617 -1228h-270l633 1227v5h-750z" />
<glyph unicode="8" horiz-adv-x="1296" d="M86 390q0 139 90 239t236 130v6q-125 33 -199.5 120t-74.5 202q0 167 143.5 276t366.5 109t366 -109t143 -277q0 -114 -74 -200t-199 -121v-6q146 -30 236.5 -130.5t90.5 -238.5q0 -185 -157.5 -302t-405.5 -117t-405 117t-157 302zM353 409q0 -105 83 -173t212 -68 t212 68t83 173q0 106 -82.5 173.5t-212.5 67.5q-129 0 -212 -68t-83 -173zM393 1061q0 -94 71 -154t184 -60q112 0 183.5 60t71.5 154q0 96 -71.5 156t-183.5 60t-183.5 -60.5t-71.5 -155.5z" />
<glyph unicode="9" horiz-adv-x="1286" d="M78 968q0 220 152.5 362.5t386.5 142.5q92 0 174.5 -24.5t158 -80.5t130.5 -139.5t87.5 -209t32.5 -281.5q0 -360 -156 -563.5t-431 -203.5q-202 0 -345.5 106t-173.5 277h256q27 -85 96 -129.5t169 -44.5q167 0 252 145.5t85 403.5h-4q-43 -106 -147.5 -170t-243.5 -64 q-205 0 -342 133t-137 340zM331 978q0 -123 81.5 -203t204.5 -80q126 0 209 79t83 199q0 122 -83.5 205t-205.5 83q-121 0 -205 -82.5t-84 -200.5z" />
<glyph unicode=":" horiz-adv-x="551" d="M132 133q0 60 41.5 102t102.5 42q60 0 101.5 -42t41.5 -102q0 -61 -41.5 -102.5t-101.5 -41.5q-61 0 -102.5 41.5t-41.5 102.5zM132 880q0 60 41.5 102t102.5 42q60 0 101.5 -42t41.5 -102t-41.5 -102t-101.5 -42q-61 0 -102.5 42t-41.5 102z" />
<glyph unicode=";" horiz-adv-x="551" d="M90 -305l83 543h243l-135 -543h-191zM132 880q0 60 41.5 102t102.5 42q60 0 101.5 -42t41.5 -102t-41.5 -102t-101.5 -42q-61 0 -102.5 42t-41.5 102z" />
<glyph unicode="&#x3c;" d="M141 465v218l1012 429v-247l-729 -280v-10l729 -286v-251z" />
<glyph unicode="=" d="M154 237v209h985v-209h-985zM154 705v209h985v-209h-985z" />
<glyph unicode="&#x3e;" d="M141 38v247l729 280v10l-729 287v250l1012 -427v-218z" />
<glyph unicode="?" horiz-adv-x="1060" d="M54 1048q6 182 128.5 294.5t339.5 112.5q204 0 330.5 -106t126.5 -272q0 -215 -212 -341q-98 -57 -133 -105t-35 -123v-58h-232l-1 71q-7 109 37.5 183t149.5 136q94 57 130 105.5t36 122.5q0 80 -58 131.5t-152 51.5q-96 0 -155 -55t-65 -148h-235zM340 122 q0 59 42.5 100t103.5 41t103 -41t42 -100t-42 -100.5t-103 -41.5t-103.5 41.5t-42.5 100.5z" />
<glyph unicode="@" horiz-adv-x="1803" d="M87 610q0 184 62 339.5t171.5 264t265.5 169.5t339 61q234 0 417 -92t285.5 -261t102.5 -388q0 -239 -103.5 -381t-283.5 -142q-91 0 -156 44t-78 117h-12q-31 -76 -94.5 -116t-151.5 -40q-156 0 -251.5 116.5t-95.5 307.5q0 182 94.5 296t246.5 114q81 0 145.5 -38 t93.5 -103h12v120h183v-554q0 -52 26 -82t76 -30q81 0 131 97t50 266q0 272 -178 437t-468 165q-191 0 -342 -87.5t-235 -246t-84 -359.5q0 -159 51.5 -288t144 -214t220.5 -131t281 -46q197 0 295 40v-148q-128 -41 -305 -41q-187 0 -344.5 57t-270.5 162.5t-176.5 263.5 t-63.5 351zM707 603q0 -116 49 -182.5t134 -66.5q89 0 141 67t52 182t-51.5 182.5t-139.5 67.5t-136.5 -66t-48.5 -184z" />
<glyph unicode="A" horiz-adv-x="1369" d="M27 0l512 1443h291l512 -1443h-272l-123 373h-531l-123 -373h-266zM476 572h410l-201 616h-7z" />
<glyph unicode="B" horiz-adv-x="1284" d="M127 0v1443h599q197 0 314 -98t117 -262q0 -116 -76 -206t-187 -108v-8q148 -14 240.5 -111t92.5 -240q0 -191 -132 -300.5t-363 -109.5h-605zM385 201h288q142 0 216.5 58t74.5 169q0 110 -76.5 167t-225.5 57h-277v-451zM385 835h236q135 0 208 54.5t73 155.5 q0 94 -62.5 145.5t-178.5 51.5h-276v-407z" />
<glyph unicode="C" horiz-adv-x="1439" d="M78 722q0 344 181.5 544.5t489.5 200.5q252 0 425 -143.5t197 -375.5h-254q-25 136 -126.5 218t-241.5 82q-186 0 -296.5 -142.5t-110.5 -383.5q0 -243 110 -385t298 -142q143 0 240.5 73.5t127.5 203.5h253q-34 -232 -200 -364t-422 -132q-310 0 -490.5 200t-180.5 546z " />
<glyph unicode="D" horiz-adv-x="1418" d="M127 0v1443h527q324 0 505 -188t181 -530q0 -343 -181 -534t-505 -191h-527zM385 218h242q218 0 334 130t116 376q0 242 -117 371.5t-333 129.5h-242v-1007z" />
<glyph unicode="E" horiz-adv-x="1158" d="M127 0v1443h934v-218h-676v-390h639v-205h-639v-412h676v-218h-934z" />
<glyph unicode="F" horiz-adv-x="1107" d="M127 0v1443h920v-218h-662v-426h605v-210h-605v-589h-258z" />
<glyph unicode="G" horiz-adv-x="1473" d="M78 727q0 343 182.5 541.5t495.5 198.5q246 0 417 -133t206 -350h-262q-37 124 -132 194t-228 70q-195 0 -305 -137t-110 -381q0 -249 113.5 -392t308.5 -143q163 0 266.5 94t106.5 246l1 24h-348v197h600v-154q0 -294 -166.5 -460t-462.5 -166q-316 0 -499.5 201.5 t-183.5 549.5z" />
<glyph unicode="H" horiz-adv-x="1471" d="M127 0v1443h258v-600h702v600h257v-1443h-257v626h-702v-626h-258z" />
<glyph unicode="I" horiz-adv-x="512" d="M127 0v1443h258v-1443h-258z" />
<glyph unicode="J" horiz-adv-x="1096" d="M35 394h251q2 -89 58.5 -144t146.5 -55q104 0 158.5 61.5t54.5 178.5v1008h257v-1010q0 -220 -123.5 -342t-343.5 -122q-207 0 -333 116.5t-126 308.5z" />
<glyph unicode="K" horiz-adv-x="1319" d="M127 0v1443h258v-675h9l576 675h297l-556 -640l599 -803h-314l-469 630l-142 -166v-464h-258z" />
<glyph unicode="L" horiz-adv-x="1098" d="M127 0v1443h258v-1225h655v-218h-913z" />
<glyph unicode="M" horiz-adv-x="1744" d="M127 0v1443h299l442 -1101h8l442 1101h298v-1443h-232v1024h-7l-417 -1024h-176l-417 1024h-7v-1024h-233z" />
<glyph unicode="N" horiz-adv-x="1452" d="M127 0v1443h224l716 -1011h9v1011h248v-1443h-222l-717 1012h-9v-1012h-249z" />
<glyph unicode="O" horiz-adv-x="1525" d="M78 721q0 344 184.5 545t500.5 201q315 0 499.5 -201t184.5 -545t-184.5 -544.5t-499.5 -200.5q-316 0 -500.5 200.5t-184.5 544.5zM342 721q0 -241 114 -383t307 -142t307 142t114 383t-114 383.5t-307 142.5t-307 -142t-114 -384z" />
<glyph unicode="P" horiz-adv-x="1235" d="M127 0v1443h561q216 0 351 -133.5t135 -349.5q0 -215 -138.5 -349t-358.5 -134h-292v-477h-258zM385 685h234q139 0 216 72t77 203q0 130 -76.5 201t-215.5 71h-235v-547z" />
<glyph unicode="Q" horiz-adv-x="1525" d="M78 721q0 343 185 544.5t499 201.5q316 0 500.5 -200.5t184.5 -545.5q0 -200 -63.5 -354.5t-186.5 -249.5l194 -263h-253l-120 164q-116 -42 -256 -42q-317 0 -500.5 200.5t-183.5 544.5zM339 721q0 -242 114.5 -385.5t308.5 -143.5q57 0 113 16l-181 244h253l99 -135 q141 138 141 404q0 242 -115 386t-310 144q-194 0 -308.5 -143.5t-114.5 -386.5z" />
<glyph unicode="R" horiz-adv-x="1280" d="M127 0v1443h573q233 0 366 -120.5t133 -328.5q0 -145 -72 -255.5t-200 -156.5l315 -582h-294l-284 543h-279v-543h-258zM385 741h291q123 0 191 65t68 182q0 114 -71 180t-193 66h-286v-493z" />
<glyph unicode="S" horiz-adv-x="1264" d="M67 403h247q14 -99 103.5 -156t225.5 -57q130 0 212.5 58t82.5 148q0 79 -60.5 128.5t-199.5 78.5l-155 32q-424 87 -424 406q0 190 150 308t386 118q238 0 384.5 -119t151.5 -313h-247q-9 101 -87.5 159.5t-203.5 58.5q-121 0 -197.5 -53.5t-76.5 -143.5 q0 -75 59.5 -123t192.5 -76l156 -32q227 -47 329 -142.5t102 -256.5q0 -207 -152 -328.5t-412 -121.5q-251 0 -404.5 115t-162.5 312z" />
<glyph unicode="T" horiz-adv-x="1217" d="M48 1225v218h1120v-218h-431v-1225h-257v1225h-432z" />
<glyph unicode="U" horiz-adv-x="1441" d="M127 509v934h258v-911q0 -150 88.5 -240.5t246.5 -90.5t247 90.5t89 240.5v911h257v-934q0 -239 -160.5 -386t-432.5 -147q-271 0 -432 147t-161 386z" />
<glyph unicode="V" horiz-adv-x="1354" d="M27 1443h284l366 -1166h6l366 1166h278l-502 -1443h-296z" />
<glyph unicode="W" horiz-adv-x="1946" d="M43 1443h268l250 -1093h8l290 1093h228l290 -1093h8l250 1093h268l-387 -1443h-243l-295 1044h-10l-295 -1044h-243z" />
<glyph unicode="X" horiz-adv-x="1366" d="M44 0l470 723v7l-466 713h305l334 -542h8l338 542h289l-481 -719v-7l473 -717h-297l-340 530h-8l-344 -530h-281z" />
<glyph unicode="Y" horiz-adv-x="1323" d="M27 1443h283l350 -628h6l349 628h281l-506 -874v-569h-257v569z" />
<glyph unicode="Z" horiz-adv-x="1281" d="M92 0v172l766 1046v7h-745v218h1057v-172l-762 -1046v-7h781v-218h-1097z" />
<glyph unicode="[" horiz-adv-x="738" d="M204 -309v1752h510v-186h-270v-1380h270v-186h-510z" />
<glyph unicode="\" horiz-adv-x="738" d="M0 1443h229l509 -1752h-229z" />
<glyph unicode="]" horiz-adv-x="738" d="M23 -123h271v1380h-271v186h511v-1752h-511v186z" />
<glyph unicode="^" horiz-adv-x="884" d="M55 777l275 612h225l274 -612h-201l-181 423h-12l-184 -423h-196z" />
<glyph unicode="_" horiz-adv-x="846" d="M-49 -107h944v-185h-944v185z" />
<glyph unicode="`" horiz-adv-x="1024" d="M311 1516h237l166 -309h-175z" />
<glyph unicode="a" horiz-adv-x="1087" d="M60 303q0 141 104.5 223t298.5 94l280 16v76q0 83 -52.5 129t-145.5 46q-87 0 -142 -39t-67 -106h-231q8 151 129.5 245.5t320.5 94.5q197 0 315.5 -96t118.5 -256v-730h-240v169h-5q-45 -85 -136 -135.5t-194 -50.5q-155 0 -254.5 89t-99.5 231zM309 313 q0 -65 49.5 -103.5t130.5 -38.5q107 0 180.5 63.5t73.5 158.5v81l-245 -15q-90 -6 -139.5 -44.5t-49.5 -101.5z" />
<glyph unicode="b" horiz-adv-x="1191" d="M109 0v1443h249v-565h6q45 94 132 147t199 53q201 0 319 -147.5t118 -400.5q0 -254 -117.5 -400.5t-319.5 -146.5q-115 0 -202.5 52t-134.5 146h-5v-181h-244zM357 530q0 -155 72.5 -249t188.5 -94q120 0 189.5 92.5t69.5 250.5t-70 250.5t-189 92.5q-116 0 -188.5 -94.5 t-72.5 -248.5z" />
<glyph unicode="c" horiz-adv-x="1083" d="M58 530q0 253 138 402.5t370 149.5q204 0 330.5 -113.5t139.5 -286.5h-235q-16 89 -76 143.5t-156 54.5q-118 0 -188 -93.5t-70 -256.5q0 -165 70 -257.5t190 -92.5q94 0 154 50.5t77 141.5h235q-15 -178 -142.5 -285.5t-326.5 -107.5q-234 0 -372 147.5t-138 403.5z" />
<glyph unicode="d" horiz-adv-x="1188" d="M58 531q0 251 119.5 399t320.5 148q112 0 198.5 -53t129.5 -143h6v561h249v-1443h-244v181h-4q-44 -91 -132.5 -144.5t-202.5 -53.5q-201 0 -320.5 148t-119.5 400zM313 530q0 -159 69.5 -251t190.5 -92q118 0 189 93t71 250q0 156 -71 249.5t-189 93.5 q-120 0 -190 -92.5t-70 -250.5z" />
<glyph unicode="e" horiz-adv-x="1105" d="M58 526q0 252 135.5 404t364.5 152q225 0 357 -144.5t132 -386.5v-81h-741v-15q0 -128 72.5 -206t194.5 -78q86 0 148.5 39.5t82.5 106.5h233q-24 -151 -153 -244.5t-316 -93.5q-238 0 -374 146.5t-136 400.5zM308 634h495q-4 113 -71 184t-173 71q-104 0 -173.5 -71.5 t-77.5 -183.5z" />
<glyph unicode="f" horiz-adv-x="690" d="M26 868v189h145v94q0 156 78.5 229.5t249.5 73.5q77 0 134 -11v-174q-42 6 -79 6q-138 0 -138 -131v-87h212v-189h-208v-868h-249v868h-145z" />
<glyph unicode="g" horiz-adv-x="1182" d="M58 534q0 251 119 397.5t322 146.5q112 0 200 -53.5t134 -146.5h4v182h244v-1043q0 -190 -140 -303.5t-372 -113.5q-195 0 -325.5 89.5t-149.5 230.5h247q20 -61 84 -98.5t152 -37.5q120 0 187.5 61.5t67.5 164.5v179h-6q-42 -87 -130.5 -138.5t-201.5 -51.5 q-198 0 -317 144.5t-119 390.5zM313 533q0 -157 69.5 -246.5t187.5 -89.5q120 0 191 90.5t71 245.5t-71.5 247.5t-190.5 92.5q-118 0 -187.5 -92t-69.5 -248z" />
<glyph unicode="h" horiz-adv-x="1163" d="M109 0v1443h246v-565h5q43 97 129 149.5t206 52.5q174 0 272.5 -106.5t98.5 -290.5v-683h-249v632q0 113 -55.5 175t-162.5 62q-112 0 -176.5 -71t-64.5 -189v-609h-249z" />
<glyph unicode="i" horiz-adv-x="464" d="M95 1355q0 56 40 95.5t96 39.5q58 0 97.5 -39.5t39.5 -95.5t-40 -95.5t-97 -39.5q-56 0 -96 39.5t-40 95.5zM108 0v1060h249v-1060h-249z" />
<glyph unicode="j" horiz-adv-x="464" d="M-67 -180q5 -1 33 -1q77 0 109.5 31t32.5 104v1106h249v-1110q0 -322 -362 -322q-44 0 -62 2v190zM95 1355q0 56 40 95.5t96 39.5q58 0 97.5 -39.5t39.5 -95.5t-40 -95.5t-97 -39.5q-56 0 -96 39.5t-40 95.5z" />
<glyph unicode="k" horiz-adv-x="1062" d="M109 0v1443h249v-825h3l399 442h287l-424 -456l442 -604h-288l-335 453l-84 -85v-368h-249z" />
<glyph unicode="l" horiz-adv-x="468" d="M109 0v1443h249v-1443h-249z" />
<glyph unicode="m" horiz-adv-x="1723" d="M102 0v1060h239v-184h5q35 94 115 149t187 55q112 0 189.5 -55.5t106.5 -157.5h6q38 98 126.5 155.5t203.5 57.5q157 0 251.5 -97t94.5 -256v-727h-249v666q0 98 -49.5 151t-140.5 53q-90 0 -146 -60t-56 -155v-655h-242v679q0 88 -50.5 139.5t-137.5 51.5 q-90 0 -147 -62.5t-57 -158.5v-649h-249z" />
<glyph unicode="n" horiz-adv-x="1143" d="M102 0v1060h239v-182h5q44 96 128.5 149t204.5 53q174 0 270.5 -105t96.5 -290v-685h-249v635q0 114 -53.5 174t-158.5 60q-107 0 -170.5 -70t-63.5 -185v-614h-249z" />
<glyph unicode="o" horiz-adv-x="1142" d="M58 530q0 255 140 403.5t373 148.5q234 0 373.5 -148.5t139.5 -403.5q0 -256 -139 -403.5t-374 -147.5t-374 147.5t-139 403.5zM311 530q0 -168 70 -261t190 -93t190 93t70 261q0 167 -70 260.5t-190 93.5q-119 0 -189.5 -93.5t-70.5 -260.5z" />
<glyph unicode="p" horiz-adv-x="1182" d="M102 -349v1409h243v-183h5q46 94 133 147.5t201 53.5q202 0 321 -147t119 -401q0 -253 -118 -400t-318 -147q-114 0 -201 51.5t-131 141.5h-5v-525h-249zM349 530q1 -156 72 -249.5t187 -93.5q121 0 191 92.5t70 250.5q0 157 -70.5 250t-190.5 93q-116 0 -187 -94 t-72 -249z" />
<glyph unicode="q" horiz-adv-x="1182" d="M58 531q0 252 119 399.5t322 147.5q113 0 200 -54t133 -147h5v183h244v-1409h-249v528h-6q-42 -90 -130.5 -143t-201.5 -53q-200 0 -318 148t-118 400zM313 530q0 -159 69 -251t188 -92q118 0 190 93.5t72 249.5t-72 249.5t-190 93.5q-119 0 -188 -92t-69 -251z" />
<glyph unicode="r" horiz-adv-x="704" d="M102 0v1060h239v-185h5q27 97 93.5 150t160.5 53q33 0 78 -10v-225q-37 14 -101 14q-106 0 -166 -64t-60 -176v-617h-249z" />
<glyph unicode="s" horiz-adv-x="1017" d="M56 316h245q29 -155 216 -155q91 0 143.5 35t52.5 94q0 49 -33.5 78t-115.5 47l-176 39q-305 68 -305 302q0 146 117 236t308 90q192 0 307.5 -94t120.5 -246h-232q-8 73 -59.5 115t-136.5 42q-82 0 -132.5 -35.5t-50.5 -94.5q0 -47 37 -78.5t118 -49.5l176 -39 q164 -36 234.5 -104t70.5 -184q0 -149 -124 -242t-320 -93q-205 0 -325.5 90.5t-135.5 246.5z" />
<glyph unicode="t" horiz-adv-x="687" d="M19 868v192h152v248h249v-248h200v-192h-200v-551q0 -65 31 -96t97 -31q44 0 71 5v-190q-45 -10 -129 -10q-172 0 -245.5 66t-73.5 221v586h-152z" />
<glyph unicode="u" horiz-adv-x="1143" d="M97 375v685h249v-635q0 -114 54.5 -174t159.5 -60q107 0 170 70t63 186v613h249v-1060h-240v184h-5q-88 -203 -324 -203q-173 0 -274.5 105.5t-101.5 288.5z" />
<glyph unicode="v" horiz-adv-x="1047" d="M12 1060h266l246 -829h5l246 829h260l-373 -1060h-274z" />
<glyph unicode="w" horiz-adv-x="1562" d="M22 1060h250l179 -814h5l207 814h239l207 -814h6l179 814h246l-287 -1060h-262l-209 775h-5l-208 -775h-260z" />
<glyph unicode="x" horiz-adv-x="1037" d="M26 0l342 529l-339 531h280l214 -372h5l211 372h273l-341 -524l337 -536h-272l-220 380h-5l-220 -380h-265z" />
<glyph unicode="y" horiz-adv-x="1070" d="M16 1060h272l249 -848h5l250 848h262l-384 -1102q-67 -197 -167 -274.5t-282 -77.5q-81 0 -98 4v197q17 -4 72 -4q77 0 120 32t63 105q0 1 8 29t7 30z" />
<glyph unicode="z" horiz-adv-x="1007" d="M81 0v151l549 711v4h-544v194h831v-164l-527 -697v-5h536v-194h-845z" />
<glyph unicode="{" horiz-adv-x="738" d="M23 444v246q126 1 177.5 47.5t51.5 160.5v183q0 188 95 275t300 87h67v-186h-42q-99 0 -141 -47.5t-42 -158.5v-226q0 -217 -246 -243v-29q246 -26 246 -244v-226q0 -111 42 -158.5t141 -47.5h42v-186h-67q-205 0 -300 88t-95 277v181q0 114 -51.5 160t-177.5 47z" />
<glyph unicode="|" horiz-adv-x="738" d="M255 -309v1752h227v-1752h-227z" />
<glyph unicode="}" horiz-adv-x="738" d="M23 -122h43q99 0 140.5 47t41.5 158v226q0 217 247 243v29q-247 26 -247 244v226q0 111 -42 158.5t-140 47.5h-43v186h67q206 0 300.5 -88t94.5 -277v-181q0 -114 51.5 -160t177.5 -47v-246q-126 -1 -177.5 -47.5t-51.5 -160.5v-182q0 -189 -94.5 -276t-300.5 -87h-67 v187z" />
<glyph unicode="~" d="M125 397q-5 189 82.5 290.5t222.5 101.5q74 0 135.5 -32t141.5 -106q48 -43 78.5 -58t62.5 -15q114 0 122 177h198q4 -127 -37.5 -217.5t-110.5 -132.5t-156 -42q-74 0 -133.5 30.5t-144.5 107.5q-47 41 -78 57.5t-63 16.5q-56 0 -87 -45.5t-34 -132.5h-199z" />
<glyph unicode="&#xa1;" horiz-adv-x="611" d="M160 993q0 60 42 100.5t103 40.5q62 0 104 -40.5t42 -100.5q0 -59 -42.5 -100t-103.5 -41t-103 41t-42 100zM177 -330l20 966h217l20 -966h-257z" />
<glyph unicode="&#xa2;" d="M148 722q0 241 127 389.5t344 166.5v165h107v-165q191 -15 308 -127.5t129 -276.5h-233q-14 82 -66.5 136t-137.5 66v-708q84 10 136.5 60.5t68.5 134.5h233q-14 -169 -132.5 -276t-305.5 -121v-166h-107v166q-218 18 -344.5 165.5t-126.5 390.5zM397 722 q0 -154 58.5 -243t163.5 -109v704q-105 -20 -163.5 -110t-58.5 -242z" />
<glyph unicode="&#xa3;" d="M106 655v150h214q-27 113 -27 191q0 206 142.5 329t385.5 123q95 0 180.5 -14.5t127.5 -35.5v-204q-108 47 -273 47q-144 0 -226 -70.5t-82 -189.5q0 -80 25 -176h468v-150h-432q9 -59 9 -106q0 -111 -42 -196t-118 -121v-6h739v-210h-1086v199q126 20 193.5 108.5 t67.5 214.5q0 49 -15 117h-251z" />
<glyph unicode="&#xa4;" d="M125 272l157 158q-62 103 -62 222t62 221l-157 157l144 144l157 -156q103 62 222 62t222 -62l156 156l144 -144l-156 -156q63 -102 63 -222t-63 -224l156 -156l-144 -144l-157 157q-103 -62 -221 -62q-120 0 -222 63l-157 -158zM403 652q0 -101 72 -173.5t173 -72.5 t173 72.5t72 173.5t-72 173t-173 72q-100 0 -172.5 -72.5t-72.5 -172.5z" />
<glyph unicode="&#xa5;" d="M35 1413h276l339 -630h7l339 630h273l-435 -759h284v-107h-341v-159h341v-107h-341v-278h-250v278h-341v107h341v159h-341v107h284z" />
<glyph unicode="&#xa6;" horiz-adv-x="738" d="M255 -309v700h227v-700h-227zM255 743v700h227v-700h-227z" />
<glyph unicode="&#xa7;" horiz-adv-x="1264" d="M177 535q0 94 60 164t167 101v17q-112 47 -165 113.5t-53 160.5q0 148 122 238.5t321 90.5q185 0 304.5 -85.5t132.5 -227.5h-236q-9 59 -64.5 94t-138.5 35q-88 0 -142 -38.5t-54 -101.5q0 -49 39.5 -82t129.5 -58l168 -51q167 -49 242.5 -118.5t75.5 -171.5 q0 -100 -68 -177t-179 -103v-17q124 -38 183 -102t59 -162q0 -147 -124 -238t-324 -91q-190 0 -313.5 88.5t-131.5 230.5h239q8 -61 67 -98.5t145 -37.5q88 0 143 38.5t55 101.5q0 48 -40.5 81.5t-129.5 58.5l-172 51q-166 48 -242 118.5t-76 177.5zM417 582q0 -53 41 -92.5 t115 -58.5l105 -29q73 5 122 51t49 109q0 54 -41 93t-116 57l-105 30q-71 -5 -120.5 -52t-49.5 -108z" />
<glyph unicode="&#xa8;" horiz-adv-x="1024" d="M179 1355q0 54 38 92t93 38t94 -38t39 -92q0 -53 -39 -91.5t-94 -38.5q-54 0 -92.5 38.5t-38.5 91.5zM581 1355q0 54 38.5 92t93.5 38t93.5 -38t38.5 -92t-38.5 -92t-93.5 -38t-93.5 38.5t-38.5 91.5z" />
<glyph unicode="&#xa9;" horiz-adv-x="1700" d="M60 641q0 165 62 312t167.5 252t252 166t308.5 61q131 0 251.5 -39t217.5 -111t169.5 -169t112 -218.5t39.5 -253.5q0 -164 -61.5 -311t-167 -252t-252 -166.5t-309.5 -61.5q-162 0 -308.5 61.5t-252 166.5t-167.5 252t-62 311zM216 641q0 -176 84.5 -322.5t230 -230 t319.5 -83.5q131 0 248.5 49.5t202.5 133.5t134.5 202.5t49.5 250.5q0 133 -49.5 251.5t-134.5 202.5t-202.5 133t-248.5 49q-174 0 -319.5 -83t-230 -229.5t-84.5 -323.5zM479 643q0 186 105 295.5t282 109.5q149 0 244.5 -79.5t110.5 -205.5h-170q-13 61 -61.5 99.5 t-122.5 38.5q-96 0 -152 -68.5t-56 -189.5q0 -123 56.5 -192.5t151.5 -69.5q73 0 121.5 34.5t62.5 98.5h170q-15 -127 -109.5 -203.5t-244.5 -76.5q-178 0 -283 110t-105 299z" />
<glyph unicode="&#xaa;" horiz-adv-x="695" d="M37 1001q0 87 66 136t190 57l168 9v40q0 42 -30.5 65.5t-82.5 23.5q-50 0 -81.5 -20.5t-38.5 -54.5h-162q5 95 83 152t207 57q126 0 202.5 -58t76.5 -154v-435h-172v95h-3q-27 -49 -82.5 -77t-119.5 -28q-95 0 -158 53.5t-63 138.5zM212 1012q0 -33 28.5 -53t74.5 -20 q61 0 103.5 31.5t42.5 78.5v46l-141 -8q-51 -4 -79.5 -23.5t-28.5 -51.5z" />
<glyph unicode="&#xab;" horiz-adv-x="1303" d="M121 561v8l349 413h246l-348 -410v-12l348 -412h-249zM587 561v8l349 413h247l-348 -410v-12l348 -412h-250z" />
<glyph unicode="&#xac;" d="M162 465v221h969v-635h-225v414h-744z" />
<glyph unicode="&#xad;" horiz-adv-x="895" d="M119 475v222h657v-222h-657z" />
<glyph unicode="&#xae;" horiz-adv-x="1171" d="M87 1066q0 136 66 249t180.5 178t252.5 65t252.5 -65t180 -178t65.5 -249t-65.5 -249t-180 -177.5t-252.5 -64.5q-210 0 -354.5 142t-144.5 349zM215 1066q0 -158 107 -265.5t264 -107.5t263.5 107.5t106.5 265.5q0 159 -106.5 266.5t-263.5 107.5t-264 -107.5 t-107 -266.5zM393 844v459h234q74 0 121 -40t47 -104q0 -53 -27.5 -89.5t-74.5 -47.5l125 -178h-137l-105 162h-70v-162h-113zM506 1090h97q71 0 71 62q0 60 -69 60h-99v-122z" />
<glyph unicode="&#xaf;" horiz-adv-x="1024" d="M204 1278v146h616v-146h-616z" />
<glyph unicode="&#xb0;" horiz-adv-x="884" d="M101 1083q0 143 98 240t243 97q144 0 242.5 -97.5t98.5 -239.5q0 -143 -98.5 -240.5t-242.5 -97.5q-145 0 -243 97.5t-98 240.5zM288 1083q0 -66 45.5 -112t108.5 -46q65 0 109.5 46t44.5 112q0 67 -44.5 112t-109.5 45q-64 0 -109 -45.5t-45 -111.5z" />
<glyph unicode="&#xb1;" d="M128 51v205h1038v-205h-1038zM128 636v195h411v268h216v-268h411v-195h-411v-268h-216v268h-411z" />
<glyph unicode="&#xb2;" horiz-adv-x="676" d="M49 1315q0 111 80 179t209 68q127 0 205 -60.5t78 -156.5q0 -68 -36.5 -118t-136.5 -133l-152 -123v-4h335v-148h-572v132l269 227q69 57 92.5 88.5t23.5 64.5q0 38 -29.5 62t-76.5 24q-53 0 -87 -28t-34 -74h-168z" />
<glyph unicode="&#xb3;" horiz-adv-x="707" d="M43 1033h175q4 -36 39 -58.5t92 -22.5q53 0 87 23.5t35 61.5q0 43 -36 66t-101 23h-83v129h82q57 0 90 22.5t33 60.5q0 39 -28.5 59.5t-79.5 20.5q-53 0 -85 -22.5t-36 -62.5h-167q6 105 84.5 167t203.5 62t202.5 -52t77.5 -144q0 -67 -44.5 -111.5t-113.5 -57.5v-3 q87 -9 137 -53.5t50 -116.5q0 -102 -84 -163t-224 -61q-133 0 -217 63.5t-89 169.5z" />
<glyph unicode="&#xb4;" horiz-adv-x="1024" d="M311 1207l166 309h237l-228 -309h-175z" />
<glyph unicode="&#xb5;" horiz-adv-x="1245" d="M102 -349v1409h247v-629q0 -117 53.5 -178t159.5 -61q112 0 175 69t63 186v613h246v-753q0 -67 20 -95t66 -28q36 0 56 9l3 -186q-54 -16 -123 -16q-100 0 -158.5 36.5t-87.5 117.5q-3 8 -10 33h-4q-39 -93 -107.5 -145t-155.5 -52q-62 0 -114.5 27t-75.5 70h-4v-427 h-249z" />
<glyph unicode="&#xb6;" horiz-adv-x="1264" d="M127 1045q0 172 124 285t313 113h215v-1685h-198v898h-17q-187 0 -312 111.5t-125 277.5zM939 -242v1685h197v-1685h-197z" />
<glyph unicode="&#xb7;" horiz-adv-x="551" d="M132 530q0 60 41.5 102t102.5 42q60 0 101.5 -42t41.5 -102t-41.5 -102t-101.5 -42q-61 0 -102.5 42t-41.5 102z" />
<glyph unicode="&#xb8;" horiz-adv-x="1024" d="M360 -331q40 -12 109 -12q120 0 120 56q0 31 -30 44.5t-97 13.5h-65v89l75 151h141v-11l-58 -115q90 -2 143.5 -45.5t53.5 -119.5q0 -86 -68 -134t-179 -49q-94 -2 -145 14v118z" />
<glyph unicode="&#xb9;" horiz-adv-x="547" d="M48 1254v164l195 125h182v-724h-182v555h-4z" />
<glyph unicode="&#xba;" horiz-adv-x="724" d="M36 1136q0 154 88 242t238 88q149 0 237.5 -88.5t88.5 -241.5q0 -156 -87.5 -243.5t-238.5 -87.5q-150 0 -238 87.5t-88 243.5zM215 1135q0 -91 39.5 -141.5t107.5 -50.5t107 50.5t39 141.5q0 92 -39 143t-107 51t-107.5 -51.5t-39.5 -142.5z" />
<glyph unicode="&#xbb;" horiz-adv-x="1303" d="M121 148l348 411v12l-348 411h249l346 -412v-8l-349 -414h-246zM587 148l348 411v12l-348 411h250l346 -412v-8l-349 -414h-247z" />
<glyph unicode="&#xbc;" horiz-adv-x="1519" d="M48 1154v164l195 125h182v-724h-182v555h-4zM147 0l989 1443h196l-987 -1443h-198zM841 120v158q91 170 294 446h256v-454h97v-150h-97v-120h-174v120h-376zM996 263h225v330h-3q-145 -180 -222 -325v-5z" />
<glyph unicode="&#xbd;" horiz-adv-x="1579" d="M48 1154v164l195 125h182v-724h-182v555h-4zM147 0l989 1443h196l-987 -1443h-198zM952 496q0 111 80 179t209 68q127 0 205 -60.5t78 -156.5q0 -68 -36.5 -118t-136.5 -133l-152 -123v-4h335v-148h-572v132l269 227q69 57 92.5 88.5t23.5 64.5q0 38 -29.5 62t-76.5 24 q-53 0 -87 -28t-34 -74h-168z" />
<glyph unicode="&#xbe;" horiz-adv-x="1679" d="M43 933h175q4 -36 39 -58.5t92 -22.5q53 0 87 23.5t35 61.5q0 43 -36 66t-101 23h-83v129h82q57 0 90 22.5t33 60.5q0 39 -28.5 59.5t-79.5 20.5q-53 0 -85 -22.5t-36 -62.5h-167q6 105 84.5 167t203.5 62t202.5 -52t77.5 -144q0 -67 -44.5 -111.5t-113.5 -57.5v-3 q87 -9 137 -53.5t50 -116.5q0 -102 -84 -163t-224 -61q-133 0 -217 63.5t-89 169.5zM307 0l989 1443h196l-987 -1443h-198zM1001 120v158q91 170 294 446h256v-454h97v-150h-97v-120h-174v120h-376zM1156 263h225v330h-3q-145 -180 -222 -325v-5z" />
<glyph unicode="&#xbf;" horiz-adv-x="1060" d="M81 34q0 213 212 340q98 57 132.5 105t34.5 123v58h232l1 -70q7 -110 -37 -183.5t-149 -136.5q-94 -57 -130 -105.5t-36 -121.5q0 -81 58 -132t153 -51t154 54.5t65 148.5h235q-5 -182 -128 -295t-339 -113q-205 0 -331.5 106t-126.5 273zM420 993q0 60 42.5 100.5 t102.5 40.5q62 0 104 -40.5t42 -100.5q0 -59 -42.5 -100t-103.5 -41q-60 0 -102.5 41t-42.5 100z" />
<glyph unicode="&#xc0;" horiz-adv-x="1369" d="M27 0l512 1443h291l512 -1443h-272l-123 373h-531l-123 -373h-266zM354 1858h241l167 -300h-175zM476 572h410l-201 616h-7z" />
<glyph unicode="&#xc1;" horiz-adv-x="1369" d="M27 0l512 1443h291l512 -1443h-272l-123 373h-531l-123 -373h-266zM476 572h410l-201 616h-7zM606 1558l167 300h241l-233 -300h-175z" />
<glyph unicode="&#xc2;" horiz-adv-x="1369" d="M27 0l512 1443h291l512 -1443h-272l-123 373h-531l-123 -373h-266zM327 1552l261 306h192l261 -306h-199l-155 188h-6l-155 -188h-199zM476 572h410l-201 616h-7z" />
<glyph unicode="&#xc3;" horiz-adv-x="1369" d="M27 0l512 1443h291l512 -1443h-272l-123 373h-531l-123 -373h-266zM343 1582q0 128 58 198.5t156 70.5q49 0 89.5 -20.5t62 -45t47 -45t48.5 -20.5q78 0 78 123h143q-1 -127 -59.5 -198.5t-156.5 -71.5q-40 0 -73.5 13.5t-56 32.5t-41.5 38.5t-38.5 33t-38.5 13.5 q-75 0 -75 -122h-143zM476 572h410l-201 616h-7z" />
<glyph unicode="&#xc4;" horiz-adv-x="1369" d="M27 0l512 1443h291l512 -1443h-272l-123 373h-531l-123 -373h-266zM351 1716q0 54 38 92.5t93 38.5t94 -38.5t39 -92.5q0 -53 -39 -91.5t-94 -38.5q-54 0 -92.5 38t-38.5 92zM476 572h410l-201 616h-7zM753 1716q0 54 38.5 92.5t93.5 38.5t93.5 -38.5t38.5 -92.5 t-38.5 -92t-93.5 -38t-93.5 38.5t-38.5 91.5z" />
<glyph unicode="&#xc5;" horiz-adv-x="1369" d="M27 0l512 1443h291l512 -1443h-272l-123 373h-531l-123 -373h-266zM476 572h410l-201 616h-7zM484 1715q0 82 59 140t141 58t141 -58t59 -140t-59 -140t-141 -58t-141 58t-59 140zM588 1715q0 -40 28 -67t68 -27t68 27t28 67t-28 67.5t-68 27.5t-68 -27.5t-28 -67.5z" />
<glyph unicode="&#xc6;" horiz-adv-x="2015" d="M19 0l641 1443h1223v-217h-677v-397h640v-206h-640v-406h677v-217h-918v404h-507l-180 -404h-259zM540 604h425v636h-145z" />
<glyph unicode="&#xc7;" horiz-adv-x="1439" d="M78 722q0 344 181.5 544.5t489.5 200.5q252 0 425 -143.5t197 -375.5h-254q-25 136 -126.5 218t-241.5 82q-186 0 -296.5 -142.5t-110.5 -383.5q0 -243 110 -385t298 -142q143 0 240.5 73.5t127.5 203.5h253q-31 -211 -173.5 -341t-364.5 -151l-48 -95q90 -2 143.5 -45.5 t53.5 -119.5q0 -86 -68 -134t-179 -49q-94 -2 -145 14v118q40 -12 109 -12q120 0 120 56q0 31 -30 44.5t-97 13.5h-65v89l59 118q-283 21 -445.5 218.5t-162.5 525.5z" />
<glyph unicode="&#xc8;" horiz-adv-x="1158" d="M127 0v1443h934v-218h-676v-390h639v-205h-639v-412h676v-218h-934zM264 1858h241l167 -300h-175z" />
<glyph unicode="&#xc9;" horiz-adv-x="1158" d="M127 0v1443h934v-218h-676v-390h639v-205h-639v-412h676v-218h-934zM516 1558l167 300h241l-233 -300h-175z" />
<glyph unicode="&#xca;" horiz-adv-x="1158" d="M127 0v1443h934v-218h-676v-390h639v-205h-639v-412h676v-218h-934zM237 1552l261 306h192l261 -306h-199l-155 188h-6l-155 -188h-199z" />
<glyph unicode="&#xcb;" horiz-adv-x="1158" d="M127 0v1443h934v-218h-676v-390h639v-205h-639v-412h676v-218h-934zM261 1716q0 54 38 92.5t93 38.5t94 -38.5t39 -92.5q0 -53 -39 -91.5t-94 -38.5q-54 0 -92.5 38t-38.5 92zM663 1716q0 54 38.5 92.5t93.5 38.5t93.5 -38.5t38.5 -92.5t-38.5 -92t-93.5 -38t-93.5 38.5 t-38.5 91.5z" />
<glyph unicode="&#xcc;" horiz-adv-x="512" d="M-74 1858h241l167 -300h-175zM127 0v1443h258v-1443h-258z" />
<glyph unicode="&#xcd;" horiz-adv-x="512" d="M127 0v1443h258v-1443h-258zM178 1558l167 300h241l-233 -300h-175z" />
<glyph unicode="&#xce;" horiz-adv-x="512" d="M-101 1552l261 306h192l261 -306h-199l-155 188h-6l-155 -188h-199zM127 0v1443h258v-1443h-258z" />
<glyph unicode="&#xcf;" horiz-adv-x="512" d="M-77 1716q0 54 38 92.5t93 38.5t94 -38.5t39 -92.5q0 -53 -39 -91.5t-94 -38.5q-54 0 -92.5 38t-38.5 92zM127 0v1443h258v-1443h-258zM325 1716q0 54 38.5 92.5t93.5 38.5t93.5 -38.5t38.5 -92.5t-38.5 -92t-93.5 -38t-93.5 38.5t-38.5 91.5z" />
<glyph unicode="&#xd0;" horiz-adv-x="1418" d="M4 637v200h123v606h527q324 0 505 -188t181 -530q0 -343 -181 -534t-505 -191h-527v637h-123zM385 218h242q218 0 334 130t116 376q0 242 -117 371.5t-333 129.5h-242v-388h286v-200h-286v-419z" />
<glyph unicode="&#xd1;" horiz-adv-x="1452" d="M127 0v1443h224l716 -1011h9v1011h248v-1443h-222l-717 1012h-9v-1012h-249zM385 1582q0 128 58 198.5t156 70.5q49 0 89.5 -20.5t62 -45t47 -45t48.5 -20.5q78 0 78 123h143q-1 -127 -59.5 -198.5t-156.5 -71.5q-40 0 -73.5 13.5t-56 32.5t-41.5 38.5t-38.5 33 t-38.5 13.5q-75 0 -75 -122h-143z" />
<glyph unicode="&#xd2;" horiz-adv-x="1525" d="M78 721q0 344 184.5 545t500.5 201q315 0 499.5 -201t184.5 -545t-184.5 -544.5t-499.5 -200.5q-316 0 -500.5 200.5t-184.5 544.5zM342 721q0 -241 114 -383t307 -142t307 142t114 383t-114 383.5t-307 142.5t-307 -142t-114 -384zM433 1858h241l167 -300h-175z" />
<glyph unicode="&#xd3;" horiz-adv-x="1525" d="M78 721q0 344 184.5 545t500.5 201q315 0 499.5 -201t184.5 -545t-184.5 -544.5t-499.5 -200.5q-316 0 -500.5 200.5t-184.5 544.5zM342 721q0 -241 114 -383t307 -142t307 142t114 383t-114 383.5t-307 142.5t-307 -142t-114 -384zM685 1558l167 300h241l-233 -300h-175 z" />
<glyph unicode="&#xd4;" horiz-adv-x="1525" d="M78 721q0 344 184.5 545t500.5 201q315 0 499.5 -201t184.5 -545t-184.5 -544.5t-499.5 -200.5q-316 0 -500.5 200.5t-184.5 544.5zM342 721q0 -241 114 -383t307 -142t307 142t114 383t-114 383.5t-307 142.5t-307 -142t-114 -384zM406 1552l261 306h192l261 -306h-199 l-155 188h-6l-155 -188h-199z" />
<glyph unicode="&#xd5;" horiz-adv-x="1525" d="M78 721q0 344 184.5 545t500.5 201q315 0 499.5 -201t184.5 -545t-184.5 -544.5t-499.5 -200.5q-316 0 -500.5 200.5t-184.5 544.5zM342 721q0 -241 114 -383t307 -142t307 142t114 383t-114 383.5t-307 142.5t-307 -142t-114 -384zM422 1582q0 128 58 198.5t156 70.5 q49 0 89.5 -20.5t62 -45t47 -45t48.5 -20.5q78 0 78 123h143q-1 -127 -59.5 -198.5t-156.5 -71.5q-40 0 -73.5 13.5t-56 32.5t-41.5 38.5t-38.5 33t-38.5 13.5q-75 0 -75 -122h-143z" />
<glyph unicode="&#xd6;" horiz-adv-x="1525" d="M78 721q0 344 184.5 545t500.5 201q315 0 499.5 -201t184.5 -545t-184.5 -544.5t-499.5 -200.5q-316 0 -500.5 200.5t-184.5 544.5zM342 721q0 -241 114 -383t307 -142t307 142t114 383t-114 383.5t-307 142.5t-307 -142t-114 -384zM430 1716q0 54 38 92.5t93 38.5 t94 -38.5t39 -92.5q0 -53 -39 -91.5t-94 -38.5t-93 38t-38 92zM832 1716q0 54 38.5 92.5t93.5 38.5t93.5 -38.5t38.5 -92.5t-38.5 -92t-93.5 -38t-93.5 38.5t-38.5 91.5z" />
<glyph unicode="&#xd7;" d="M167 241l333 334l-333 334l146 146l334 -330l334 330l146 -146l-333 -334l333 -334l-146 -146l-334 330l-334 -330z" />
<glyph unicode="&#xd8;" horiz-adv-x="1525" d="M78 721q0 344 184.5 545t500.5 201q246 0 417 -126l118 146l119 -94l-128 -158q158 -198 158 -514q0 -344 -184.5 -544.5t-499.5 -200.5q-232 0 -398 112l-107 -133l-121 99l112 138q-171 199 -171 529zM332 721q0 -197 76 -332l625 771q-110 99 -270 99 q-198 0 -314.5 -145.5t-116.5 -392.5zM510 268q104 -84 253 -84q197 0 314 145t117 392q0 184 -66 313z" />
<glyph unicode="&#xd9;" horiz-adv-x="1441" d="M127 509v934h258v-911q0 -150 88.5 -240.5t246.5 -90.5t247 90.5t89 240.5v911h257v-934q0 -239 -160.5 -386t-432.5 -147q-271 0 -432 147t-161 386zM390 1858h241l167 -300h-175z" />
<glyph unicode="&#xda;" horiz-adv-x="1441" d="M127 509v934h258v-911q0 -150 88.5 -240.5t246.5 -90.5t247 90.5t89 240.5v911h257v-934q0 -239 -160.5 -386t-432.5 -147q-271 0 -432 147t-161 386zM642 1558l167 300h241l-233 -300h-175z" />
<glyph unicode="&#xdb;" horiz-adv-x="1441" d="M127 509v934h258v-911q0 -150 88.5 -240.5t246.5 -90.5t247 90.5t89 240.5v911h257v-934q0 -239 -160.5 -386t-432.5 -147q-271 0 -432 147t-161 386zM363 1552l261 306h192l261 -306h-199l-155 188h-6l-155 -188h-199z" />
<glyph unicode="&#xdc;" horiz-adv-x="1441" d="M127 509v934h258v-911q0 -150 88.5 -240.5t246.5 -90.5t247 90.5t89 240.5v911h257v-934q0 -239 -160.5 -386t-432.5 -147q-271 0 -432 147t-161 386zM387 1716q0 54 38 92.5t93 38.5t94 -38.5t39 -92.5q0 -53 -39 -91.5t-94 -38.5q-54 0 -92.5 38t-38.5 92zM789 1716 q0 54 38.5 92.5t93.5 38.5t93.5 -38.5t38.5 -92.5t-38.5 -92t-93.5 -38t-93.5 38.5t-38.5 91.5z" />
<glyph unicode="&#xdd;" horiz-adv-x="1323" d="M27 1443h283l350 -628h6l349 628h281l-506 -874v-569h-257v569zM583 1558l167 300h241l-233 -300h-175z" />
<glyph unicode="&#xde;" horiz-adv-x="1294" d="M154 0v1443h259v-246h331q128 0 230.5 -51.5t164 -153.5t61.5 -237q0 -202 -133 -322.5t-333 -120.5h-322v-312h-258zM412 521h260q122 0 193.5 59.5t71.5 173.5q0 113 -71 172.5t-193 59.5h-261v-465z" />
<glyph unicode="&#xdf;" horiz-adv-x="1282" d="M154 0v1065q0 178 124.5 282.5t336.5 104.5q201 0 328.5 -102t127.5 -263q0 -119 -58.5 -208.5t-156.5 -118.5v-9q150 -16 237.5 -115.5t87.5 -248.5q0 -184 -125 -293t-336 -109q-98 0 -165 15v203q49 -16 126 -16q115 0 182 58.5t67 156.5q0 104 -75.5 164t-208.5 60 h-67v212h49q93 0 147 57.5t54 156.5q0 88 -58 142t-152 54q-105 0 -161.5 -59t-56.5 -169v-1020h-247z" />
<glyph unicode="&#xe0;" horiz-adv-x="1087" d="M60 303q0 141 104.5 223t298.5 94l280 16v76q0 83 -52.5 129t-145.5 46q-87 0 -142 -39t-67 -106h-231q8 151 129.5 245.5t320.5 94.5q197 0 315.5 -96t118.5 -256v-730h-240v169h-5q-45 -85 -136 -135.5t-194 -50.5q-155 0 -254.5 89t-99.5 231zM228 1516h238l166 -309 h-175zM309 313q0 -65 49.5 -103.5t130.5 -38.5q107 0 180.5 63.5t73.5 158.5v81l-245 -15q-90 -6 -139.5 -44.5t-49.5 -101.5z" />
<glyph unicode="&#xe1;" horiz-adv-x="1087" d="M60 303q0 141 104.5 223t298.5 94l280 16v76q0 83 -52.5 129t-145.5 46q-87 0 -142 -39t-67 -106h-231q8 151 129.5 245.5t320.5 94.5q197 0 315.5 -96t118.5 -256v-730h-240v169h-5q-45 -85 -136 -135.5t-194 -50.5q-155 0 -254.5 89t-99.5 231zM309 313 q0 -65 49.5 -103.5t130.5 -38.5q107 0 180.5 63.5t73.5 158.5v81l-245 -15q-90 -6 -139.5 -44.5t-49.5 -101.5zM458 1207l166 309h238l-229 -309h-175z" />
<glyph unicode="&#xe2;" horiz-adv-x="1087" d="M60 303q0 141 104.5 223t298.5 94l280 16v76q0 83 -52.5 129t-145.5 46q-87 0 -142 -39t-67 -106h-231q8 151 129.5 245.5t320.5 94.5q197 0 315.5 -96t118.5 -256v-730h-240v169h-5q-45 -85 -136 -135.5t-194 -50.5q-155 0 -254.5 89t-99.5 231zM198 1207l251 309h192 l251 -309h-199l-145 184h-6l-145 -184h-199zM309 313q0 -65 49.5 -103.5t130.5 -38.5q107 0 180.5 63.5t73.5 158.5v81l-245 -15q-90 -6 -139.5 -44.5t-49.5 -101.5z" />
<glyph unicode="&#xe3;" horiz-adv-x="1087" d="M60 303q0 141 104.5 223t298.5 94l280 16v76q0 83 -52.5 129t-145.5 46q-87 0 -142 -39t-67 -106h-231q8 151 129.5 245.5t320.5 94.5q197 0 315.5 -96t118.5 -256v-730h-240v169h-5q-45 -85 -136 -135.5t-194 -50.5q-155 0 -254.5 89t-99.5 231zM204 1220 q0 128 58 198.5t156 70.5q49 0 89.5 -20.5t62 -45t47 -45t48.5 -20.5q78 0 78 123h143q-1 -126 -59.5 -197.5t-156.5 -71.5q-40 0 -73.5 13.5t-56 33t-41.5 38.5t-38.5 32.5t-38.5 13.5q-75 0 -75 -123h-143zM309 313q0 -65 49.5 -103.5t130.5 -38.5q107 0 180.5 63.5 t73.5 158.5v81l-245 -15q-90 -6 -139.5 -44.5t-49.5 -101.5z" />
<glyph unicode="&#xe4;" horiz-adv-x="1087" d="M60 303q0 141 104.5 223t298.5 94l280 16v76q0 83 -52.5 129t-145.5 46q-87 0 -142 -39t-67 -106h-231q8 151 129.5 245.5t320.5 94.5q197 0 315.5 -96t118.5 -256v-730h-240v169h-5q-45 -85 -136 -135.5t-194 -50.5q-155 0 -254.5 89t-99.5 231zM212 1355q0 54 38 92 t93 38t94 -38t39 -92q0 -53 -39 -91.5t-94 -38.5t-93 38.5t-38 91.5zM309 313q0 -65 49.5 -103.5t130.5 -38.5q107 0 180.5 63.5t73.5 158.5v81l-245 -15q-90 -6 -139.5 -44.5t-49.5 -101.5zM614 1355q0 54 38.5 92t93.5 38t93.5 -38t38.5 -92t-38.5 -92t-93.5 -38 t-93.5 38.5t-38.5 91.5z" />
<glyph unicode="&#xe5;" horiz-adv-x="1087" d="M60 303q0 141 104.5 223t298.5 94l280 16v76q0 83 -52.5 129t-145.5 46q-87 0 -142 -39t-67 -106h-231q8 151 129.5 245.5t320.5 94.5q197 0 315.5 -96t118.5 -256v-730h-240v169h-5q-45 -85 -136 -135.5t-194 -50.5q-155 0 -254.5 89t-99.5 231zM309 313 q0 -65 49.5 -103.5t130.5 -38.5q107 0 180.5 63.5t73.5 158.5v81l-245 -15q-90 -6 -139.5 -44.5t-49.5 -101.5zM337 1363q0 85 61 145.5t147 60.5t147 -60.5t61 -145.5q0 -84 -61.5 -144.5t-146.5 -60.5t-146.5 60.5t-61.5 144.5zM447 1363q0 -40 29 -68.5t69 -28.5t69 28.5 t29 68.5q0 41 -28.5 69.5t-69.5 28.5t-69.5 -28.5t-28.5 -69.5z" />
<glyph unicode="&#xe6;" horiz-adv-x="1765" d="M56 302q0 142 106 222.5t305 91.5l275 15v65q0 82 -59 136.5t-151 54.5q-85 0 -140.5 -40.5t-63.5 -104.5h-229q8 150 124.5 245t302.5 95q127 0 221 -47.5t137 -130.5h8q111 178 353 178q210 0 336 -144t126 -387v-80h-730v-16q0 -126 73 -205t192 -79q83 0 141.5 39.5 t81.5 106.5h232q-23 -151 -149 -244.5t-309 -93.5q-131 0 -233 56t-154 154h-9q-60 -98 -159.5 -152t-230.5 -54q-182 0 -289.5 87.5t-107.5 231.5zM298 313q0 -63 51 -103.5t132 -40.5q109 0 185 66t76 158v77l-245 -15q-95 -6 -147 -42.5t-52 -99.5zM979 634h484 q-4 115 -67.5 185t-166.5 70q-104 0 -173 -71t-77 -184z" />
<glyph unicode="&#xe7;" horiz-adv-x="1083" d="M58 530q0 253 138 402.5t370 149.5q204 0 330.5 -113.5t139.5 -286.5h-235q-16 89 -76 143.5t-156 54.5q-118 0 -188 -93.5t-70 -256.5q0 -165 70 -257.5t190 -92.5q94 0 154 50.5t77 141.5h235q-13 -158 -116.5 -261.5t-269.5 -126.5l-50 -99q90 -2 143.5 -45.5 t53.5 -119.5q0 -86 -68 -134t-179 -49q-94 -2 -145 14v118q40 -12 109 -12q120 0 120 56q0 31 -30 44.5t-97 13.5h-65v89l61 122q-207 20 -326.5 165t-119.5 383z" />
<glyph unicode="&#xe8;" horiz-adv-x="1105" d="M58 526q0 252 135.5 404t364.5 152q225 0 357 -144.5t132 -386.5v-81h-741v-15q0 -128 72.5 -206t194.5 -78q86 0 148.5 39.5t82.5 106.5h233q-24 -151 -153 -244.5t-316 -93.5q-238 0 -374 146.5t-136 400.5zM241 1516h238l166 -309h-175zM308 634h495q-4 113 -71 184 t-173 71q-104 0 -173.5 -71.5t-77.5 -183.5z" />
<glyph unicode="&#xe9;" horiz-adv-x="1105" d="M58 526q0 252 135.5 404t364.5 152q225 0 357 -144.5t132 -386.5v-81h-741v-15q0 -128 72.5 -206t194.5 -78q86 0 148.5 39.5t82.5 106.5h233q-24 -151 -153 -244.5t-316 -93.5q-238 0 -374 146.5t-136 400.5zM308 634h495q-4 113 -71 184t-173 71q-104 0 -173.5 -71.5 t-77.5 -183.5zM471 1207l166 309h238l-229 -309h-175z" />
<glyph unicode="&#xea;" horiz-adv-x="1105" d="M58 526q0 252 135.5 404t364.5 152q225 0 357 -144.5t132 -386.5v-81h-741v-15q0 -128 72.5 -206t194.5 -78q86 0 148.5 39.5t82.5 106.5h233q-24 -151 -153 -244.5t-316 -93.5q-238 0 -374 146.5t-136 400.5zM211 1207l251 309h192l251 -309h-199l-145 184h-6l-145 -184 h-199zM308 634h495q-4 113 -71 184t-173 71q-104 0 -173.5 -71.5t-77.5 -183.5z" />
<glyph unicode="&#xeb;" horiz-adv-x="1105" d="M58 526q0 252 135.5 404t364.5 152q225 0 357 -144.5t132 -386.5v-81h-741v-15q0 -128 72.5 -206t194.5 -78q86 0 148.5 39.5t82.5 106.5h233q-24 -151 -153 -244.5t-316 -93.5q-238 0 -374 146.5t-136 400.5zM225 1355q0 54 38 92t93 38t94 -38t39 -92q0 -53 -39 -91.5 t-94 -38.5q-54 0 -92.5 38.5t-38.5 91.5zM308 634h495q-4 113 -71 184t-173 71q-104 0 -173.5 -71.5t-77.5 -183.5zM627 1355q0 54 38.5 92t93.5 38t93.5 -38t38.5 -92t-38.5 -92t-93.5 -38t-93.5 38.5t-38.5 91.5z" />
<glyph unicode="&#xec;" horiz-adv-x="464" d="M-85 1516h238l166 -309h-175zM108 0v1060h249v-1060h-249z" />
<glyph unicode="&#xed;" horiz-adv-x="464" d="M108 0v1060h249v-1060h-249zM145 1207l166 309h238l-229 -309h-175z" />
<glyph unicode="&#xee;" horiz-adv-x="464" d="M-115 1207l251 309h192l251 -309h-199l-145 184h-6l-145 -184h-199zM108 0v1060h249v-1060h-249z" />
<glyph unicode="&#xef;" horiz-adv-x="464" d="M-101 1355q0 54 38 92t93 38t94 -38t39 -92q0 -53 -39 -91.5t-94 -38.5q-54 0 -92.5 38.5t-38.5 91.5zM108 0v1060h249v-1060h-249zM301 1355q0 54 38.5 92t93.5 38t93.5 -38t38.5 -92t-38.5 -92t-93.5 -38t-93.5 38.5t-38.5 91.5z" />
<glyph unicode="&#xf0;" horiz-adv-x="1171" d="M70 509q0 118 37 214t100 157t143.5 94t170.5 33t162 -39.5t113 -105.5h15q-23 79 -93.5 169t-175.5 169l-299 -165v146l179 99q-89 51 -183 85v151q204 -50 363 -136l277 153l2 -146l-156 -86q183 -136 272 -322t89 -400q0 -126 -32.5 -233.5t-94 -189t-158.5 -128 t-219 -46.5q-243 0 -377.5 145t-134.5 382zM324 512q0 -152 69.5 -239t192.5 -87q121 0 189.5 89.5t68.5 227.5q0 151 -69.5 238t-189.5 87q-117 0 -189 -84.5t-72 -231.5z" />
<glyph unicode="&#xf1;" horiz-adv-x="1143" d="M102 0v1060h239v-182h5q44 96 128.5 149t204.5 53q174 0 270.5 -105t96.5 -290v-685h-249v635q0 114 -53.5 174t-158.5 60q-107 0 -170.5 -70t-63.5 -185v-614h-249zM233 1220q0 128 58 198.5t156 70.5q49 0 89.5 -20.5t62 -45t47 -45t48.5 -20.5q78 0 78 123h143 q-1 -126 -59.5 -197.5t-156.5 -71.5q-40 0 -73.5 13.5t-56 33t-41.5 38.5t-38.5 32.5t-38.5 13.5q-75 0 -75 -123h-143z" />
<glyph unicode="&#xf2;" horiz-adv-x="1142" d="M58 530q0 255 140 403.5t373 148.5q234 0 373.5 -148.5t139.5 -403.5q0 -256 -139 -403.5t-374 -147.5t-374 147.5t-139 403.5zM254 1516h238l166 -309h-175zM311 530q0 -168 70 -261t190 -93t190 93t70 261q0 167 -70 260.5t-190 93.5q-119 0 -189.5 -93.5t-70.5 -260.5 z" />
<glyph unicode="&#xf3;" horiz-adv-x="1142" d="M58 530q0 255 140 403.5t373 148.5q234 0 373.5 -148.5t139.5 -403.5q0 -256 -139 -403.5t-374 -147.5t-374 147.5t-139 403.5zM311 530q0 -168 70 -261t190 -93t190 93t70 261q0 167 -70 260.5t-190 93.5q-119 0 -189.5 -93.5t-70.5 -260.5zM484 1207l166 309h238 l-229 -309h-175z" />
<glyph unicode="&#xf4;" horiz-adv-x="1142" d="M58 530q0 255 140 403.5t373 148.5q234 0 373.5 -148.5t139.5 -403.5q0 -256 -139 -403.5t-374 -147.5t-374 147.5t-139 403.5zM224 1207l251 309h192l251 -309h-199l-145 184h-6l-145 -184h-199zM311 530q0 -168 70 -261t190 -93t190 93t70 261q0 167 -70 260.5 t-190 93.5q-119 0 -189.5 -93.5t-70.5 -260.5z" />
<glyph unicode="&#xf5;" horiz-adv-x="1142" d="M58 530q0 255 140 403.5t373 148.5q234 0 373.5 -148.5t139.5 -403.5q0 -256 -139 -403.5t-374 -147.5t-374 147.5t-139 403.5zM230 1220q0 128 58 198.5t156 70.5q49 0 89.5 -20.5t62 -45t47 -45t48.5 -20.5q78 0 78 123h143q-1 -126 -59.5 -197.5t-156.5 -71.5 q-40 0 -73.5 13.5t-56 33t-41.5 38.5t-38.5 32.5t-38.5 13.5q-75 0 -75 -123h-143zM311 530q0 -168 70 -261t190 -93t190 93t70 261q0 167 -70 260.5t-190 93.5q-119 0 -189.5 -93.5t-70.5 -260.5z" />
<glyph unicode="&#xf6;" horiz-adv-x="1142" d="M58 530q0 255 140 403.5t373 148.5q234 0 373.5 -148.5t139.5 -403.5q0 -256 -139 -403.5t-374 -147.5t-374 147.5t-139 403.5zM238 1355q0 54 38 92t93 38t94 -38t39 -92q0 -53 -39 -91.5t-94 -38.5t-93 38.5t-38 91.5zM311 530q0 -168 70 -261t190 -93t190 93t70 261 q0 167 -70 260.5t-190 93.5q-119 0 -189.5 -93.5t-70.5 -260.5zM640 1355q0 54 38.5 92t93.5 38t93.5 -38t38.5 -92t-38.5 -92t-93.5 -38t-93.5 38.5t-38.5 91.5z" />
<glyph unicode="&#xf7;" d="M141 474v202h1012v-202h-1012zM510 175q0 60 39 99t99 39q59 0 98.5 -39t39.5 -99t-39.5 -99t-98.5 -39q-60 0 -99 39t-39 99zM510 974q0 60 39 99t99 39q59 0 98.5 -39t39.5 -99t-39.5 -98.5t-98.5 -38.5q-60 0 -99 38.5t-39 98.5z" />
<glyph unicode="&#xf8;" horiz-adv-x="1142" d="M58 530q0 255 140 403.5t373 148.5q170 0 294 -81l75 96l95 -70l-81 -104q130 -149 130 -393q0 -256 -139 -403.5t-374 -147.5q-166 0 -288 77l-73 -94l-98 74l77 99q-131 147 -131 395zM304 530q0 -119 35 -203l395 506q-66 61 -163 61q-123 0 -195 -96.5t-72 -267.5z M412 223q64 -57 159 -57q123 0 195 96t72 268q0 114 -34 199z" />
<glyph unicode="&#xf9;" horiz-adv-x="1143" d="M97 375v685h249v-635q0 -114 54.5 -174t159.5 -60q107 0 170 70t63 186v613h249v-1060h-240v184h-5q-88 -203 -324 -203q-173 0 -274.5 105.5t-101.5 288.5zM253 1516h238l166 -309h-175z" />
<glyph unicode="&#xfa;" horiz-adv-x="1143" d="M97 375v685h249v-635q0 -114 54.5 -174t159.5 -60q107 0 170 70t63 186v613h249v-1060h-240v184h-5q-88 -203 -324 -203q-173 0 -274.5 105.5t-101.5 288.5zM483 1207l166 309h238l-229 -309h-175z" />
<glyph unicode="&#xfb;" horiz-adv-x="1143" d="M97 375v685h249v-635q0 -114 54.5 -174t159.5 -60q107 0 170 70t63 186v613h249v-1060h-240v184h-5q-88 -203 -324 -203q-173 0 -274.5 105.5t-101.5 288.5zM223 1207l251 309h192l251 -309h-199l-145 184h-6l-145 -184h-199z" />
<glyph unicode="&#xfc;" horiz-adv-x="1143" d="M97 375v685h249v-635q0 -114 54.5 -174t159.5 -60q107 0 170 70t63 186v613h249v-1060h-240v184h-5q-88 -203 -324 -203q-173 0 -274.5 105.5t-101.5 288.5zM237 1355q0 54 38 92t93 38t94 -38t39 -92q0 -53 -39 -91.5t-94 -38.5q-54 0 -92.5 38.5t-38.5 91.5zM639 1355 q0 54 38.5 92t93.5 38t93.5 -38t38.5 -92t-38.5 -92t-93.5 -38t-93.5 38.5t-38.5 91.5z" />
<glyph unicode="&#xfd;" horiz-adv-x="1070" d="M16 1060h272l249 -848h5l250 848h262l-384 -1102q-67 -197 -167 -274.5t-282 -77.5q-81 0 -98 4v197q17 -4 72 -4q77 0 120 32t63 105q0 1 8 29t7 30zM453 1207l166 309h238l-229 -309h-175z" />
<glyph unicode="&#xfe;" horiz-adv-x="1191" d="M109 -339v1782h243v-558h17q45 90 131.5 141.5t195.5 51.5q202 0 318.5 -146.5t116.5 -401.5q0 -253 -117 -400t-317 -147q-113 0 -198 47t-125 131h-17v-500h-248zM354 530q0 -159 70 -251t191 -92q123 0 192 91t69 252q0 160 -69.5 251.5t-190.5 91.5t-191.5 -92 t-70.5 -251z" />
<glyph unicode="&#xff;" horiz-adv-x="1070" d="M16 1060h272l249 -848h5l250 848h262l-384 -1102q-67 -197 -167 -274.5t-282 -77.5q-81 0 -98 4v197q17 -4 72 -4q77 0 120 32t63 105q0 1 8 29t7 30zM207 1355q0 54 38 92t93 38t94 -38t39 -92q0 -53 -39 -91.5t-94 -38.5q-54 0 -92.5 38.5t-38.5 91.5zM609 1355 q0 54 38.5 92t93.5 38t93.5 -38t38.5 -92t-38.5 -92t-93.5 -38t-93.5 38.5t-38.5 91.5z" />
<glyph unicode="&#x152;" horiz-adv-x="2216" d="M81 721q0 341 181.5 546t479.5 205q160 0 284.5 -68.5t191.5 -194.5v234h901v-218h-663v-390h625v-205h-625v-412h663v-218h-901v233q-61 -121 -190.5 -191.5t-287.5 -70.5q-297 0 -478 205t-181 545zM345 721q0 -242 115 -384.5t311 -142.5q194 0 309.5 143t115.5 384 t-115.5 384.5t-309.5 143.5q-196 0 -311 -143t-115 -385z" />
<glyph unicode="&#x153;" horiz-adv-x="1872" d="M58 529q0 251 137.5 402t366.5 151q256 0 387 -203h12q53 93 153 148t225 55q216 0 345.5 -145.5t129.5 -385.5v-81h-734v-21q0 -124 73.5 -201t192.5 -77q84 0 145 39t80 101h233q-22 -144 -149.5 -238t-303.5 -94q-127 0 -231.5 53t-158.5 142h-12q-131 -195 -385 -195 q-232 0 -369 149.5t-137 400.5zM306 529q0 -164 68.5 -256.5t189.5 -92.5q122 0 190.5 93t68.5 257t-68.5 257t-190.5 93q-121 0 -189.5 -93t-68.5 -258zM1080 634h488q-4 114 -69.5 184.5t-169.5 70.5t-173 -71.5t-76 -183.5z" />
<glyph unicode="&#x178;" horiz-adv-x="1323" d="M27 1443h283l350 -628h6l349 628h281l-506 -874v-569h-257v569zM328 1716q0 54 38 92.5t93 38.5t94 -38.5t39 -92.5q0 -53 -39 -91.5t-94 -38.5t-93 38t-38 92zM730 1716q0 54 38.5 92.5t93.5 38.5t93.5 -38.5t38.5 -92.5t-38.5 -92t-93.5 -38t-93.5 38.5t-38.5 91.5z " />
<glyph unicode="&#x2c6;" horiz-adv-x="1024" d="M165 1207l251 309h192l251 -309h-199l-145 184h-6l-145 -184h-199z" />
<glyph unicode="&#x2dc;" horiz-adv-x="1024" d="M171 1220q0 128 58 198.5t156 70.5q49 0 89.5 -20.5t62 -45t47 -45t48.5 -20.5q78 0 78 123h143q-1 -126 -59.5 -197.5t-156.5 -71.5q-40 0 -73.5 13.5t-56 33t-41.5 38.5t-38.5 32.5t-38.5 13.5q-75 0 -75 -123h-143z" />
<glyph unicode="&#x2000;" horiz-adv-x="956" />
<glyph unicode="&#x2001;" horiz-adv-x="1913" />
<glyph unicode="&#x2002;" horiz-adv-x="956" />
<glyph unicode="&#x2003;" horiz-adv-x="1913" />
<glyph unicode="&#x2004;" horiz-adv-x="637" />
<glyph unicode="&#x2005;" horiz-adv-x="478" />
<glyph unicode="&#x2006;" horiz-adv-x="318" />
<glyph unicode="&#x2007;" horiz-adv-x="318" />
<glyph unicode="&#x2008;" horiz-adv-x="239" />
<glyph unicode="&#x2009;" horiz-adv-x="382" />
<glyph unicode="&#x200a;" horiz-adv-x="106" />
<glyph unicode="&#x2010;" horiz-adv-x="895" d="M119 475v222h657v-222h-657z" />
<glyph unicode="&#x2011;" horiz-adv-x="895" d="M119 475v222h657v-222h-657z" />
<glyph unicode="&#x2012;" horiz-adv-x="895" d="M119 475v222h657v-222h-657z" />
<glyph unicode="&#x2013;" horiz-adv-x="1024" d="M0 472v226h1024v-226h-1024z" />
<glyph unicode="&#x2014;" horiz-adv-x="2048" d="M0 472v226h2048v-226h-2048z" />
<glyph unicode="&#x2018;" horiz-adv-x="573" d="M120 900l142 543h191l-89 -543h-244z" />
<glyph unicode="&#x2019;" horiz-adv-x="573" d="M120 900l89 543h244l-141 -543h-192z" />
<glyph unicode="&#x201a;" horiz-adv-x="573" d="M130 -305l83 543h244l-135 -543h-192z" />
<glyph unicode="&#x201c;" horiz-adv-x="1012" d="M129 900l141 543h192l-90 -543h-243zM557 900l135 543h192l-83 -543h-244z" />
<glyph unicode="&#x201d;" horiz-adv-x="1012" d="M129 900l83 543h243l-135 -543h-191zM551 900l89 543h244l-142 -543h-191z" />
<glyph unicode="&#x201e;" horiz-adv-x="1012" d="M129 -305l83 543h243l-135 -543h-191zM557 -305l83 543h244l-135 -543h-192z" />
<glyph unicode="&#x2022;" horiz-adv-x="884" d="M104 563q0 139 99.5 238.5t238.5 99.5t238 -99.5t99 -238.5q0 -138 -99 -237.5t-238 -99.5t-238.5 99.5t-99.5 237.5z" />
<glyph unicode="&#x2026;" horiz-adv-x="1473" d="M132 133q0 60 41.5 102t102.5 42q60 0 101.5 -42t41.5 -102q0 -61 -41.5 -102.5t-101.5 -41.5q-61 0 -102.5 41.5t-41.5 102.5zM593 133q0 60 42 102t102 42t102 -42t42 -102q0 -61 -42 -102.5t-102 -41.5t-102 41.5t-42 102.5zM1054 133q0 60 42 102t102 42t102 -42 t42 -102q0 -61 -42 -102.5t-102 -41.5t-102 41.5t-42 102.5z" />
<glyph unicode="&#x202f;" horiz-adv-x="382" />
<glyph unicode="&#x2039;" horiz-adv-x="837" d="M121 561v8l349 413h246l-348 -410v-12l348 -412h-249z" />
<glyph unicode="&#x203a;" horiz-adv-x="837" d="M121 148l348 411v12l-348 411h249l346 -412v-8l-349 -414h-246z" />
<glyph unicode="&#x205f;" horiz-adv-x="478" />
<glyph unicode="&#x20ac;" d="M73 526v107h182q-4 37 -4 88q0 50 4 87h-182v107h198q55 254 247.5 391.5t469.5 137.5q123 0 196 -22v-213q-74 18 -192 18q-169 0 -289.5 -80.5t-167.5 -231.5h541v-107h-564q-5 -47 -5 -87q0 -41 5 -88h564v-107h-541q47 -151 167 -231.5t287 -80.5q136 0 198 17v-214 q-71 -18 -198 -18q-277 0 -469.5 137t-248.5 390h-198z" />
<glyph unicode="&#x2122;" horiz-adv-x="1833" d="M124 1288v155h608v-155h-212v-569h-183v569h-213zM822 719v724h212l191 -459h4l191 459h212v-724h-161v442h-5l-186 -442h-106l-186 442h-4v-442h-162z" />
<glyph unicode="&#x25fc;" horiz-adv-x="1060" d="M0 0v1060h1060v-1060h-1060z" />
<glyph unicode="&#xfb01;" horiz-adv-x="1154" d="M26 868v189h145v94q0 156 78.5 229.5t249.5 73.5q77 0 134 -11v-174q-42 6 -79 6q-138 0 -138 -131v-87h212v-189h-208v-868h-249v868h-145zM785 1355q0 56 40 95.5t96 39.5q58 0 97.5 -39.5t39.5 -95.5t-40 -95.5t-97 -39.5q-56 0 -96 39.5t-40 95.5zM798 0v1060h249 v-1060h-249z" />
<glyph unicode="&#xfb02;" horiz-adv-x="1157" d="M26 868v189h145v94q0 156 78.5 229.5t249.5 73.5q77 0 134 -11v-174q-42 6 -79 6q-138 0 -138 -131v-87h212v-189h-208v-868h-249v868h-145zM799 0v1443h249v-1443h-249z" />
</font>
</defs>
</svg>
