<?xml version="1.0" standalone="no"?>
<!DOCTYPE svg PUBLIC "-//W3C//DTD SVG 1.1//EN" "http://www.w3.org/Graphics/SVG/1.1/DTD/svg11.dtd" >
<svg xmlns="http://www.w3.org/2000/svg" xmlns:xlink="http://www.w3.org/1999/xlink" version="1.1">
<metadata></metadata>
<defs>
<font id="sf_pro_displaymedium" horiz-adv-x="1269" >
<font-face units-per-em="2048" ascent="1638" descent="-410" />
<missing-glyph horiz-adv-x="415" />
<glyph horiz-adv-x="0" />
<glyph unicode="&#xd;" horiz-adv-x="0" />
<glyph unicode=" "  horiz-adv-x="415" />
<glyph unicode="&#x09;" horiz-adv-x="415" />
<glyph unicode="&#xa0;" horiz-adv-x="415" />
<glyph unicode="!" horiz-adv-x="583" d="M160 114q0 55 38 92t93 37q56 0 94 -37t38 -92t-38 -92t-94 -37q-55 0 -93 37t-38 92zM180 1443h223l-16 -965h-191z" />
<glyph unicode="&#x22;" horiz-adv-x="851" d="M125 915v528h193v-528h-193zM533 915v528h192v-528h-192z" />
<glyph unicode="#" horiz-adv-x="1263" d="M0 395l33 169h233l66 331h-241l34 168h241l79 380h170l-76 -380h307l79 380h171l-77 -380h244l-32 -168h-247l-68 -331h254l-32 -169h-256l-79 -395h-172l80 395h-309l-80 -395h-170l79 395h-231zM429 556h320l71 346h-321z" />
<glyph unicode="$" d="M115 426h207q30 -196 255 -220v436l-41 10q-195 45 -293 136t-98 240q0 165 120 271t312 120v169h113v-169q191 -15 312 -122t127 -275h-208q-10 92 -71 147.5t-160 67.5v-417l48 -12q205 -48 306 -137.5t101 -244.5q0 -177 -127.5 -282.5t-327.5 -119.5v-168h-113v168 q-198 15 -327.5 121.5t-134.5 280.5zM357 1045q0 -71 52 -120t168 -78v390q-104 -13 -162 -67t-58 -125zM690 205q123 9 183 63t60 138q0 80 -53.5 128t-189.5 82v-411z" />
<glyph unicode="%" horiz-adv-x="1667" d="M45 1109q0 161 87.5 257t231.5 96t231 -96t87 -257q0 -160 -87 -256.5t-231 -96.5t-231.5 96.5t-87.5 256.5zM205 1109q0 -100 43.5 -158t115.5 -58t115.5 58t43.5 158t-43 157.5t-116 57.5q-72 0 -115.5 -57.5t-43.5 -157.5zM245 0l996 1443h181l-994 -1443h-183z M985 335q0 161 87.5 257t231.5 96t231 -96t87 -257q0 -160 -87.5 -256.5t-230.5 -96.5q-144 0 -231.5 96.5t-87.5 256.5zM1144 335q0 -100 44 -158t116 -58t115.5 58t43.5 158t-43.5 157.5t-115.5 57.5t-116 -57.5t-44 -157.5z" />
<glyph unicode="&#x26;" horiz-adv-x="1394" d="M77 382q0 125 68 221.5t209 172.5q9 5 23.5 12.5t23.5 12t12 5.5q-98 103 -138.5 179t-40.5 155q0 140 108.5 232.5t271.5 92.5q166 0 272 -91t106 -234q0 -110 -71.5 -198t-231.5 -173l328 -353q62 115 62 343v55h194v-61q0 -301 -120 -480l259 -273h-263l-125 136 q-88 -77 -207.5 -119t-248.5 -42q-220 0 -355.5 112.5t-135.5 294.5zM289 398q0 -112 83 -181t217 -69q90 0 175 33t137 88l-379 414q-18 -9 -45 -24q-100 -62 -144 -123t-44 -138zM433 1128q0 -56 33 -111t113 -135q118 61 168 117.5t50 129.5q0 78 -50.5 127t-131.5 49 q-79 0 -130.5 -50t-51.5 -127z" />
<glyph unicode="'" horiz-adv-x="443" d="M125 915v528h193v-528h-193z" />
<glyph unicode="(" horiz-adv-x="704" d="M187 567q0 263 71 478t218 398h190q-109 -127 -183 -378t-74 -497t74.5 -497.5t182.5 -378.5h-190q-289 359 -289 875z" />
<glyph unicode=")" horiz-adv-x="704" d="M38 -308q108 126 182.5 377.5t74.5 497.5t-74.5 497.5t-182.5 378.5h190q289 -359 289 -876q0 -515 -289 -875h-190z" />
<glyph unicode="*" horiz-adv-x="856" d="M83 966l219 127l-218 128l64 114l214 -130l-7 238h146l-7 -239l213 131l66 -114l-221 -129l221 -127l-67 -115l-212 131l7 -240h-147l8 240l-215 -131z" />
<glyph unicode="+" d="M139 475v195h397v417h197v-417h398v-195h-398v-417h-197v417h-397z" />
<glyph unicode="," horiz-adv-x="538" d="M88 -297l90 528h218l-136 -528h-172z" />
<glyph unicode="-" horiz-adv-x="888" d="M116 488v195h656v-195h-656z" />
<glyph unicode="." horiz-adv-x="538" d="M138 120q0 55 38 93t93 38t93 -38t38 -93t-38 -93t-93 -38t-93 38t-38 93z" />
<glyph unicode="/" horiz-adv-x="704" d="M0 -308l512 1751h192l-512 -1751h-192z" />
<glyph unicode="0" horiz-adv-x="1278" d="M87 723q0 344 147.5 545.5t405.5 201.5q257 0 404 -200.5t147 -545.5q0 -347 -146 -549t-405 -202t-406 201.5t-147 548.5zM314 723q0 -264 85 -413t241 -149q155 0 240 149t85 413q0 260 -85.5 409.5t-239.5 149.5t-240 -149.5t-86 -409.5z" />
<glyph unicode="1" horiz-adv-x="935" d="M95 961v212l380 270h221v-1443h-219v1221h-5z" />
<glyph unicode="2" horiz-adv-x="1186" d="M100 1018q0 196 142 324t360 128q209 0 341.5 -117.5t132.5 -290.5q0 -122 -69.5 -232t-266.5 -307l-328 -329v-5h687v-189h-987v154l509 513q142 145 188 220.5t46 160.5q0 102 -70 169.5t-183 67.5q-124 0 -207 -76t-83 -191h-212z" />
<glyph unicode="3" horiz-adv-x="1240" d="M86 392h215q8 -106 93.5 -169t221.5 -63q131 0 212.5 67t82.5 173q1 123 -82 190t-229 67h-175v174h169q123 0 200 65t77 167q0 104 -66 163.5t-191 59.5q-122 0 -200.5 -61t-86.5 -168h-210q13 188 149 300.5t348 112.5q217 0 346 -106t129 -270q0 -132 -83.5 -221 t-220.5 -118v-5q161 -14 257.5 -107.5t96.5 -242.5q0 -189 -147.5 -308t-375.5 -119q-230 0 -374.5 116t-155.5 303z" />
<glyph unicode="4" horiz-adv-x="1270" d="M76 287v195q93 174 232 391.5t381 569.5h324v-968h199v-188h-199v-287h-215v287h-722zM284 472h516v797h-4q-347 -497 -512 -791v-6z" />
<glyph unicode="5" horiz-adv-x="1228" d="M117 401h214q12 -107 95 -174t204 -67q137 0 223 86t86 221q0 134 -86 219.5t-221 85.5q-200 0 -293 -161h-196l71 832h860v-189h-679l-44 -457h5q49 73 134.5 112.5t192.5 39.5q207 0 341 -134.5t134 -341.5q0 -221 -148 -360.5t-382 -139.5q-216 0 -358.5 119.5 t-152.5 308.5z" />
<glyph unicode="6" horiz-adv-x="1259" d="M88 702q0 362 152 565.5t423 203.5q193 0 330.5 -104t169.5 -274h-225q-29 90 -101.5 140t-175.5 50q-171 0 -263.5 -149t-94.5 -420h4q45 103 151.5 168t248.5 65q206 0 340.5 -135t134.5 -340q0 -217 -149 -358.5t-378 -141.5q-91 0 -172 25t-154 81.5t-126 140 t-84 207.5t-31 276zM347 469q0 -129 88.5 -218.5t216.5 -89.5t217.5 88t89.5 215q0 131 -85.5 216t-218.5 85t-220.5 -84t-87.5 -212z" />
<glyph unicode="7" horiz-adv-x="1139" d="M72 1254v189h982v-194l-627 -1249h-235l641 1249v5h-761z" />
<glyph unicode="8" horiz-adv-x="1266" d="M87 390q0 137 88 238t232 132v5q-123 35 -195.5 121.5t-72.5 200.5q0 166 140 274.5t354 108.5q215 0 353.5 -108.5t138.5 -275.5q0 -113 -71.5 -199t-194.5 -122v-5q144 -32 232 -133t88 -237q0 -121 -69.5 -216t-194 -148t-282.5 -53q-240 0 -393 117t-153 300z M318 406q0 -110 88.5 -181.5t226.5 -71.5t226 71.5t88 181.5q0 112 -88 183t-226 71t-226.5 -71.5t-88.5 -182.5zM362 1066q0 -99 75.5 -162.5t195.5 -63.5q119 0 195 63.5t76 162.5q0 100 -76 163t-195 63q-120 0 -195.5 -63t-75.5 -163z" />
<glyph unicode="9" horiz-adv-x="1260" d="M77 971q0 217 149 358.5t378 141.5q87 0 166.5 -23.5t153.5 -78.5t128.5 -137t87 -208t32.5 -282q0 -362 -152 -565.5t-423 -203.5q-196 0 -334.5 102.5t-169.5 270.5h225q27 -91 101 -139t180 -48q174 0 264.5 150.5t92.5 421.5h-4q-44 -107 -151 -171t-245 -64 q-205 0 -342 134.5t-137 340.5zM299 979q0 -131 86.5 -216t218.5 -85q133 0 221 84t88 212q0 129 -88.5 217.5t-217.5 88.5t-218.5 -87.5t-89.5 -213.5z" />
<glyph unicode=":" horiz-adv-x="538" d="M138 120q0 55 38 93t93 38t93 -38t38 -93t-38 -93t-93 -38t-93 38t-38 93zM138 893q0 55 38 93t93 38t93 -38t38 -93t-38 -93t-93 -38t-93 38t-38 93z" />
<glyph unicode=";" horiz-adv-x="538" d="M88 -297l90 528h218l-136 -528h-172zM138 893q0 55 38 93t93 38t93 -38t38 -93t-38 -93t-93 -38t-93 38t-38 93z" />
<glyph unicode="&#x3c;" d="M139 477v189l992 433v-219l-742 -298v-9l742 -307v-220z" />
<glyph unicode="=" d="M155 254v185h959v-185h-959zM155 706v186h959v-186h-959z" />
<glyph unicode="&#x3e;" d="M139 46v218l742 298v10l-742 307v220l992 -431v-189z" />
<glyph unicode="?" horiz-adv-x="1035" d="M55 1056q7 177 125.5 288t328.5 111q196 0 319 -104.5t123 -266.5q0 -217 -210 -343q-96 -57 -131 -105.5t-35 -126.5v-61h-207l-1 80q-4 104 42.5 177t150.5 136q92 55 128 106t36 128q0 86 -62 141t-164 55q-103 0 -166 -58t-70 -157h-207zM342 114q0 55 38 92t93 37 q56 0 94 -37t38 -92t-38 -92t-94 -37q-55 0 -93 37t-38 92z" />
<glyph unicode="@" horiz-adv-x="1798" d="M92 606q0 246 105.5 436t295 294t432.5 104q232 0 414.5 -91.5t285.5 -260t103 -386.5q0 -241 -102.5 -384.5t-279.5 -143.5q-89 0 -153.5 45.5t-76.5 118.5h-10q-31 -76 -96 -116.5t-153 -40.5q-156 0 -252 117t-96 307q0 182 96 296.5t248 114.5q80 0 146 -38.5 t94 -102.5h11v121h169v-568q0 -51 27 -81t80 -30q85 0 138.5 101t53.5 279q0 272 -182 438.5t-476 166.5q-192 0 -344 -89t-237 -249.5t-85 -363.5q0 -216 91 -373.5t248 -236.5t361 -79q210 0 313 43v-138q-134 -44 -320 -44q-185 0 -341 56.5t-269 161.5t-176 263t-63 353 zM693 600q0 -122 52.5 -192.5t143.5 -70.5q95 0 151 71t56 192t-55.5 192t-150.5 71q-92 0 -144.5 -69.5t-52.5 -193.5z" />
<glyph unicode="A" horiz-adv-x="1336" d="M26 0l521 1443h242l521 -1443h-237l-132 390h-550l-132 -390h-233zM448 570h436l-215 633h-6z" />
<glyph unicode="B" horiz-adv-x="1264" d="M133 0v1443h576q192 0 308 -98.5t116 -261.5q0 -115 -74.5 -205.5t-182.5 -108.5v-8q148 -17 238 -113.5t90 -239.5q0 -191 -131 -299.5t-361 -108.5h-579zM357 183h309q151 0 230 61t79 178q0 236 -322 236h-296v-475zM357 829h251q145 0 223 58t78 165q0 100 -66 154 t-188 54h-298v-431z" />
<glyph unicode="C" horiz-adv-x="1424" d="M81 722q0 342 179 543.5t482 201.5q246 0 415 -138.5t197 -363.5h-222q-30 139 -136.5 222.5t-253.5 83.5q-197 0 -314.5 -149.5t-117.5 -399.5q0 -253 117 -401.5t316 -148.5q150 0 252.5 73t136.5 204h223q-41 -224 -202.5 -348.5t-410.5 -124.5q-304 0 -482.5 201 t-178.5 545z" />
<glyph unicode="D" horiz-adv-x="1406" d="M133 0v1443h509q322 0 502.5 -189t180.5 -530q0 -342 -180 -533t-503 -191h-509zM357 194h264q230 0 352.5 136t122.5 392q0 255 -123 391.5t-352 136.5h-264v-1056z" />
<glyph unicode="E" horiz-adv-x="1146" d="M133 0v1443h916v-193h-692v-422h655v-186h-655v-448h692v-194h-916z" />
<glyph unicode="F" horiz-adv-x="1096" d="M133 0v1443h901v-193h-677v-457h620v-189h-620v-604h-224z" />
<glyph unicode="G" horiz-adv-x="1462" d="M81 728q0 341 180.5 540t489.5 199q241 0 408.5 -131t205.5 -347h-230q-40 134 -141 208t-242 74q-207 0 -324.5 -143.5t-117.5 -397.5q0 -259 120 -408.5t326 -149.5q175 0 286 102.5t113 266.5v25h-373v181h594v-147q0 -293 -164.5 -458.5t-457.5 -165.5 q-310 0 -491.5 202.5t-181.5 549.5z" />
<glyph unicode="H" horiz-adv-x="1454" d="M133 0v1443h224v-610h741v610h224v-1443h-224v639h-741v-639h-224z" />
<glyph unicode="I" horiz-adv-x="490" d="M133 0v1443h224v-1443h-224z" />
<glyph unicode="J" horiz-adv-x="1060" d="M38 370h220q2 -90 61.5 -146t153.5 -56q110 0 168.5 64.5t58.5 188.5v1022h224v-1023q0 -214 -119 -333t-330 -119q-195 0 -316 111t-121 291z" />
<glyph unicode="K" horiz-adv-x="1293" d="M133 0v1443h224v-687h9l603 687h266l-572 -639l620 -804h-278l-500 650l-148 -169v-481h-224z" />
<glyph unicode="L" horiz-adv-x="1088" d="M133 0v1443h224v-1249h672v-194h-896z" />
<glyph unicode="M" horiz-adv-x="1726" d="M133 0v1443h259l467 -1150h8l466 1150h260v-1443h-205v1062h-7l-435 -1062h-166l-436 1062h-7v-1062h-204z" />
<glyph unicode="N" horiz-adv-x="1443" d="M133 0v1443h203l748 -1064h8v1064h218v-1443h-202l-748 1063h-9v-1063h-218z" />
<glyph unicode="O" horiz-adv-x="1513" d="M81 721q0 344 182 545t494 201q311 0 493.5 -201t182.5 -545t-182 -544.5t-494 -200.5t-494 200.5t-182 544.5zM310 721q0 -252 120.5 -400t326.5 -148q205 0 325.5 148t120.5 400q0 253 -120.5 401t-325.5 148q-206 0 -326.5 -148t-120.5 -401z" />
<glyph unicode="P" horiz-adv-x="1212" d="M133 0v1443h541q210 0 342.5 -132t132.5 -342q0 -211 -134.5 -343.5t-347.5 -132.5h-310v-493h-224zM357 681h257q146 0 226 75t80 212q0 136 -79.5 211t-225.5 75h-258v-573z" />
<glyph unicode="Q" horiz-adv-x="1513" d="M80 721q0 343 183 544.5t494 201.5t493.5 -201t182.5 -545q0 -203 -65.5 -360t-190.5 -252l193 -262h-230l-127 172q-114 -43 -256 -43q-313 0 -495 200.5t-182 544.5zM309 721q0 -252 121 -401.5t327 -149.5q67 0 130 19l-181 246h231l110 -149q76 70 117 181.5 t41 253.5q0 253 -121.5 402.5t-326.5 149.5q-206 0 -327 -149.5t-121 -402.5z" />
<glyph unicode="R" horiz-adv-x="1257" d="M133 0v1443h559q222 0 352 -119.5t130 -321.5q0 -147 -74.5 -257.5t-205.5 -154.5l323 -590h-258l-294 555h-308v-555h-224zM357 736h314q130 0 201 68t71 192q0 121 -74 190t-204 69h-308v-519z" />
<glyph unicode="S" horiz-adv-x="1243" d="M68 396h218q15 -107 109 -168t239 -61q137 0 225.5 63t88.5 160q0 85 -63 139t-206 85l-157 33q-215 45 -317.5 145t-102.5 258q0 185 146.5 301t377.5 116q229 0 373 -117.5t149 -307.5h-217q-10 108 -93 171t-215 63q-129 0 -211 -58.5t-82 -155.5q0 -81 62 -133.5 t199 -81.5l158 -33q225 -48 325.5 -142t100.5 -253q0 -204 -149 -323.5t-401 -119.5q-245 0 -396 113.5t-161 306.5z" />
<glyph unicode="T" horiz-adv-x="1205" d="M49 1250v193h1107v-193h-441v-1250h-224v1250h-442z" />
<glyph unicode="U" horiz-adv-x="1434" d="M133 507v936h224v-917q0 -158 95.5 -254.5t264.5 -96.5t265 96.5t96 254.5v917h223v-936q0 -237 -158 -384t-426 -147t-426 147t-158 384z" />
<glyph unicode="V" horiz-adv-x="1327" d="M26 1443h243l393 -1191h6l394 1191h239l-515 -1443h-245z" />
<glyph unicode="W" horiz-adv-x="1923" d="M44 1443h233l267 -1130h8l305 1130h208l306 -1130h8l267 1130h233l-390 -1443h-211l-312 1088h-10l-311 -1088h-212z" />
<glyph unicode="X" horiz-adv-x="1337" d="M44 0l479 723v7l-474 713h267l356 -558h8l360 558h253l-489 -721v-6l480 -716h-262l-359 550h-7l-364 -550h-248z" />
<glyph unicode="Y" horiz-adv-x="1293" d="M26 1443h250l368 -637h7l368 637h248l-509 -852v-591h-224v591z" />
<glyph unicode="Z" horiz-adv-x="1273" d="M95 0v153l790 1089v8h-766v193h1041v-153l-787 -1089v-7h806v-194h-1084z" />
<glyph unicode="[" horiz-adv-x="704" d="M205 -308v1751h477v-164h-269v-1423h269v-164h-477z" />
<glyph unicode="\" horiz-adv-x="704" d="M0 1443h194l510 -1751h-194z" />
<glyph unicode="]" horiz-adv-x="704" d="M22 -144h269v1423h-269v164h477v-1751h-477v164z" />
<glyph unicode="^" horiz-adv-x="856" d="M55 794l272 594h203l271 -594h-184l-184 422h-12l-186 -422h-180z" />
<glyph unicode="_" horiz-adv-x="838" d="M-51 -107h941v-160h-941v160z" />
<glyph unicode="`" horiz-adv-x="1024" d="M318 1505h217l172 -305h-158z" />
<glyph unicode="a" horiz-adv-x="1061" d="M65 299q0 138 102 219.5t289 91.5l288 17v81q0 88 -56 137.5t-155 49.5q-92 0 -149.5 -41t-72.5 -113h-204q9 146 126 238t308 92t304.5 -94t113.5 -252v-725h-207v173h-5q-45 -87 -136.5 -139t-195.5 -52q-155 0 -252.5 88t-97.5 229zM283 305q0 -69 52.5 -110.5 t139.5 -41.5q114 0 191.5 69.5t77.5 171.5v83l-259 -16q-97 -7 -149.5 -47.5t-52.5 -108.5z" />
<glyph unicode="b" horiz-adv-x="1167" d="M115 0v1443h216v-570h5q48 92 134.5 144t197.5 52q199 0 318.5 -147t119.5 -396q0 -250 -119 -397t-320 -147q-114 0 -201 52t-137 145h-4v-179h-210zM330 526q0 -163 77.5 -262t201.5 -99q127 0 201 97t74 264q0 166 -74 263.5t-201 97.5q-124 0 -201.5 -99.5 t-77.5 -261.5z" />
<glyph unicode="c" horiz-adv-x="1058" d="M60 526q0 250 135 397.5t360 147.5q196 0 318 -109.5t137 -271.5h-206q-17 89 -81.5 145t-165.5 56q-126 0 -201.5 -98.5t-75.5 -266.5q0 -171 75.5 -268t203.5 -97q99 0 162.5 51.5t82.5 143.5h208q-17 -169 -141.5 -272.5t-313.5 -103.5q-227 0 -362 146.5t-135 399.5z " />
<glyph unicode="d" horiz-adv-x="1165" d="M60 526q0 248 120.5 395.5t319.5 147.5q111 0 198 -51.5t132 -140.5h4v566h217v-1443h-210v179h-4q-47 -92 -134.5 -144.5t-200.5 -52.5q-200 0 -321 148t-121 396zM281 526q0 -167 75 -264t203 -97q125 0 201 98.5t76 262.5q0 163 -76 262t-201 99q-128 0 -203 -97.5 t-75 -263.5z" />
<glyph unicode="e" horiz-adv-x="1081" d="M60 521q0 248 132.5 399t354.5 151q218 0 346 -142.5t128 -382.5v-74h-743v-13q0 -138 77 -221t206 -83q91 0 156 42t87 112h205q-23 -145 -148 -237t-305 -92q-231 0 -363.5 145.5t-132.5 395.5zM279 623h526q-4 122 -75 198t-183 76t-186 -76.5t-82 -197.5z" />
<glyph unicode="f" horiz-adv-x="660" d="M25 881v169h145v103q0 154 75 227t235 73q65 0 121 -10v-160q-32 6 -79 6q-138 0 -138 -140v-99h213v-169h-210v-881h-217v881h-145z" />
<glyph unicode="g" horiz-adv-x="1157" d="M60 530q0 248 119.5 393.5t322.5 145.5q111 0 199 -52.5t136 -144.5h4v180h210v-1033q0 -188 -134.5 -301.5t-359.5 -113.5q-184 0 -311.5 88t-147.5 226h217q23 -66 90.5 -106t159.5 -40q125 0 197 65.5t72 174.5v173h-4q-45 -87 -133.5 -138t-199.5 -51 q-199 0 -318 144.5t-119 389.5zM281 529q0 -164 74.5 -259t199.5 -95q127 0 203.5 96t76.5 258t-76.5 260t-203.5 98q-125 0 -199.5 -97t-74.5 -261z" />
<glyph unicode="h" horiz-adv-x="1137" d="M115 0v1443h214v-567h5q44 93 129 143.5t204 50.5q172 0 270.5 -106t98.5 -286v-678h-217v636q0 118 -58.5 183t-171.5 65q-119 0 -188.5 -75.5t-69.5 -200.5v-608h-216z" />
<glyph unicode="i" horiz-adv-x="444" d="M97 1346q0 52 36.5 88t88.5 36t88 -36t36 -88q0 -51 -36 -87.5t-88 -36.5t-88.5 36.5t-36.5 87.5zM114 0v1052h216v-1052h-216z" />
<glyph unicode="j" horiz-adv-x="444" d="M-64 -194q2 0 15.5 -0.5t15.5 -0.5q80 0 113.5 33t33.5 113v1101h216v-1102q0 -161 -84.5 -238.5t-259.5 -77.5q-44 0 -50 2v170zM96 1346q0 52 36.5 88t88.5 36t88 -36t36 -88q0 -51 -36 -87.5t-88 -36.5t-88.5 36.5t-36.5 87.5z" />
<glyph unicode="k" horiz-adv-x="1033" d="M115 0v1443h216v-842h2l425 451h254l-436 -453l453 -599h-251l-357 467l-90 -89v-378h-216z" />
<glyph unicode="l" horiz-adv-x="446" d="M115 0v1443h216v-1443h-216z" />
<glyph unicode="m" horiz-adv-x="1689" d="M107 0v1052h206v-177h5q36 89 115 142t184 53q109 0 185.5 -54t108.5 -152h5q41 96 128.5 151t199.5 55q156 0 250 -95t94 -252v-723h-217v671q0 102 -52.5 158t-148.5 56t-156.5 -64t-60.5 -164v-657h-212v687q0 91 -54 144.5t-145 53.5q-96 0 -157.5 -66.5 t-61.5 -168.5v-650h-216z" />
<glyph unicode="n" horiz-adv-x="1115" d="M107 0v1052h206v-176h5q44 92 128 143t203 51q173 0 269 -103.5t96 -285.5v-681h-217v639q0 120 -56.5 182.5t-167.5 62.5q-114 0 -182 -74t-68 -197v-613h-216z" />
<glyph unicode="o" horiz-adv-x="1118" d="M60 526q0 252 136 398.5t363 146.5t363 -146.5t136 -398.5q0 -253 -136 -399.5t-363 -146.5t-363 146.5t-136 399.5zM280 526q0 -174 75.5 -271t203.5 -97q129 0 204 97t75 271q0 173 -75.5 270t-203.5 97t-203.5 -97t-75.5 -270z" />
<glyph unicode="p" horiz-adv-x="1157" d="M107 -348v1400h209v-181h4q47 92 135 145t200 53q201 0 322 -147t121 -396t-120 -396.5t-319 -147.5q-112 0 -198.5 51t-132.5 140h-5v-521h-216zM322 526q0 -164 75.5 -262.5t200.5 -98.5q128 0 203 97.5t75 263.5q0 165 -75 263t-203 98q-124 0 -200 -99t-76 -262z" />
<glyph unicode="q" horiz-adv-x="1157" d="M60 526q0 249 120 396t322 147q112 0 199.5 -53t134.5 -145h5v181h210v-1400h-217v525h-4q-46 -90 -134 -142.5t-199 -52.5q-198 0 -317.5 148t-119.5 396zM281 526q0 -167 73.5 -264t200.5 -97q125 0 202.5 99t77.5 262t-77.5 262t-202.5 99q-127 0 -200.5 -97 t-73.5 -264z" />
<glyph unicode="r" horiz-adv-x="672" d="M107 0v1052h206v-179h5q26 92 93 144t160 52q31 0 74 -8v-201q-29 12 -97 12q-104 0 -164.5 -65t-60.5 -177v-630h-216z" />
<glyph unicode="s" horiz-adv-x="989" d="M61 309h214q30 -164 227 -164q97 0 153.5 37.5t56.5 102.5q0 52 -35 83.5t-119 50.5l-171 40q-299 69 -299 295q0 141 112.5 229t293.5 88q182 0 294 -91.5t117 -238.5h-203q-9 77 -63.5 121.5t-144.5 44.5q-88 0 -141.5 -39t-53.5 -102q0 -100 162 -137l171 -39 q160 -37 228.5 -104t68.5 -182q0 -143 -120 -233.5t-307 -90.5q-195 0 -310.5 88.5t-130.5 240.5z" />
<glyph unicode="t" horiz-adv-x="657" d="M17 881v171h153v249h217v-249h200v-171h-200v-580q0 -68 31 -100t97 -32q48 0 71 5v-171q-40 -10 -120 -10q-159 0 -227.5 65.5t-68.5 218.5v604h-153z" />
<glyph unicode="u" horiz-adv-x="1115" d="M102 371v681h216v-639q0 -121 57 -183.5t168 -62.5q116 0 183 74t67 198v613h216v-1052h-207v178h-5q-91 -197 -326 -197q-172 0 -270.5 104.5t-98.5 285.5z" />
<glyph unicode="v" horiz-adv-x="1022" d="M17 1052h230l264 -841h4l264 841h226l-377 -1052h-232z" />
<glyph unicode="w" horiz-adv-x="1520" d="M25 1052h216l192 -828h4l219 828h208l220 -828h5l192 828h214l-288 -1052h-225l-221 788h-5l-219 -788h-223z" />
<glyph unicode="x" horiz-adv-x="1004" d="M29 0l347 525l-342 527h242l230 -381h4l227 381h238l-345 -520l341 -532h-238l-232 387h-5l-233 -387h-234z" />
<glyph unicode="y" horiz-adv-x="1038" d="M20 1052h234l266 -856h4l266 856h228l-394 -1107q-67 -190 -157.5 -263.5t-254.5 -73.5q-61 0 -88 5v175q16 -4 70 -4q75 0 118.5 34.5t68.5 115.5q0 1 9 33l10 32z" />
<glyph unicode="z" horiz-adv-x="986" d="M85 0v139l561 737v4h-557v172h805v-148l-547 -728v-4h553v-172h-815z" />
<glyph unicode="{" horiz-adv-x="704" d="M22 457v221q124 1 174 47.5t50 162.5v201q0 182 90.5 268t283.5 86h62v-167h-41q-102 0 -146 -49.5t-44 -164.5v-242q0 -215 -234 -239v-27q234 -24 234 -239v-242q0 -115 44 -165t146 -50h41v-166h-62q-193 0 -283.5 86.5t-90.5 269.5v199q0 116 -49.5 162.5 t-174.5 47.5z" />
<glyph unicode="|" horiz-adv-x="704" d="M256 -308v1751h192v-1751h-192z" />
<glyph unicode="}" horiz-adv-x="704" d="M22 -141h41q102 0 146 49.5t44 164.5v241q0 216 234 240v27q-234 24 -234 239v242q0 115 -44 164.5t-146 49.5h-41v167h62q193 0 283.5 -86.5t90.5 -269.5v-199q0 -116 49.5 -162.5t174.5 -47.5v-222q-125 0 -174.5 -46.5t-49.5 -162.5v-201q0 -182 -90.5 -268 t-283.5 -86h-62v167z" />
<glyph unicode="~" d="M120 408q-1 92 22.5 164t66 115.5t96 66t114.5 22.5q74 0 135 -32.5t144 -107.5q49 -44 80 -59.5t64 -15.5q119 0 128 178h179q1 -92 -22.5 -164t-65.5 -116t-95.5 -66.5t-114.5 -22.5q-74 0 -133 30.5t-147 109.5q-48 42 -79 59t-64 17q-58 0 -91 -45.5t-37 -132.5h-180 z" />
<glyph unicode="&#xa1;" horiz-adv-x="583" d="M160 995q0 55 38 92.5t93 37.5q56 0 94 -37.5t38 -92.5q0 -54 -38 -91.5t-94 -37.5q-55 0 -93 37.5t-38 91.5zM180 -335l16 965h191l16 -965h-223z" />
<glyph unicode="&#xa2;" d="M148 722q0 236 123 383.5t333 167.5v170h112v-169q184 -15 297 -124.5t128 -263.5h-206q-16 83 -72 138.5t-147 67.5v-740q89 10 145.5 61.5t74.5 138.5h206q-17 -161 -132.5 -265t-293.5 -117v-170h-112v171q-210 20 -333 166t-123 385zM366 722q0 -159 63 -252.5 t175 -114.5v734q-112 -21 -175 -115.5t-63 -251.5z" />
<glyph unicode="&#xa3;" d="M102 656v144h217q-26 117 -26 190q0 209 139 333t375 124q94 0 177.5 -15t126.5 -35v-184q-108 47 -277 47q-147 0 -232 -74t-85 -198q0 -84 26 -188h474v-144h-439q12 -65 12 -125q0 -118 -45 -205t-124 -122v-5h760v-185h-1076v178q130 19 199 111t69 219q0 51 -19 134 h-252z" />
<glyph unicode="&#xa4;" d="M126 270l162 163q-64 102 -64 220q0 119 64 221l-162 162l127 127l163 -162q100 65 220 65q119 0 220 -64l161 161l128 -127l-161 -162q64 -102 64 -221q0 -120 -65 -221l162 -162l-128 -127l-162 162q-98 -64 -219 -64q-119 0 -220 65l-163 -163zM383 653 q0 -103 74.5 -178t178.5 -75t178.5 74.5t74.5 178.5t-74.5 179t-178.5 75t-178.5 -75t-74.5 -179z" />
<glyph unicode="&#xa5;" d="M36 1417h244l359 -642h6l359 642h243l-439 -743h283v-113h-341v-159h341v-113h-341v-287h-218v287h-341v113h341v159h-341v113h283z" />
<glyph unicode="&#xa6;" horiz-adv-x="704" d="M256 -308v700h192v-700h-192zM256 743v700h192v-700h-192z" />
<glyph unicode="&#xa7;" horiz-adv-x="1219" d="M173 534q0 95 59.5 164.5t165.5 99.5v17q-219 89 -219 273q0 144 117.5 233t307.5 89q178 0 291.5 -82t128.5 -221h-208q-10 62 -68.5 99t-146.5 37q-93 0 -150 -41t-57 -107q0 -52 42 -87t138 -62l156 -45q165 -46 240.5 -115t75.5 -171q0 -101 -69.5 -179t-180.5 -102 v-17q247 -67 247 -261q0 -143 -120 -233t-311 -90q-182 0 -301 86t-128 224h211q10 -64 72 -103.5t153 -39.5q95 0 153.5 40.5t58.5 106.5q0 52 -43.5 87.5t-138.5 61.5l-159 46q-165 47 -241 116.5t-76 175.5zM385 575q0 -56 43 -97.5t120 -59.5l96 -25q81 3 136 53t55 121 q0 58 -42 98.5t-121 58.5l-95 25q-79 -3 -135.5 -54t-56.5 -120z" />
<glyph unicode="&#xa8;" horiz-adv-x="1024" d="M195 1346q0 50 35.5 85.5t86.5 35.5t86.5 -35.5t35.5 -85.5t-35.5 -85.5t-86.5 -35.5t-86.5 35.5t-35.5 85.5zM585 1346q0 50 36 85.5t86 35.5q51 0 86.5 -35.5t35.5 -85.5t-35.5 -85.5t-86.5 -35.5q-50 0 -86 35.5t-36 85.5z" />
<glyph unicode="&#xa9;" horiz-adv-x="1703" d="M60 635q0 221 105 403t286.5 285.5t399.5 103.5q220 0 401.5 -103.5t286 -285.5t104.5 -403t-104.5 -403t-286.5 -286t-401 -104q-218 0 -399.5 104t-286.5 286t-105 403zM209 635q0 -180 85.5 -328t232.5 -232t324 -84q133 0 252 49.5t204.5 135t135.5 205t50 254.5 t-50 255t-135.5 204.5t-204.5 134t-252 49.5q-177 0 -324 -83.5t-232.5 -231.5t-85.5 -328zM478 636q0 189 105.5 300.5t283.5 111.5q150 0 245.5 -79.5t112.5 -203.5h-156q-16 65 -68.5 105.5t-132.5 40.5q-104 0 -165.5 -73.5t-61.5 -201.5q0 -129 61.5 -203.5 t165.5 -74.5q79 0 132 36.5t69 104.5h156q-17 -125 -111.5 -201.5t-244.5 -76.5q-180 0 -285.5 111.5t-105.5 303.5z" />
<glyph unicode="&#xaa;" horiz-adv-x="675" d="M39 1009q0 84 64.5 132t184.5 56l170 9v42q0 45 -31.5 70t-87.5 25q-52 0 -85.5 -21.5t-41.5 -58.5h-144q5 91 79 147t198 56q121 0 194.5 -56.5t73.5 -150.5v-429h-151v96h-4q-27 -49 -82.5 -77.5t-119.5 -28.5q-94 0 -155.5 52.5t-61.5 136.5zM196 1017q0 -36 30 -56.5 t79 -20.5q64 0 108.5 34t44.5 85v46l-148 -8q-54 -4 -84 -25t-30 -55z" />
<glyph unicode="&#xab;" horiz-adv-x="1286" d="M127 561v8l349 415h228l-349 -412v-13l349 -412h-229zM581 561v8l350 415h228l-349 -412v-13l349 -412h-230z" />
<glyph unicode="&#xac;" d="M162 476v195h945v-613h-197v418h-748z" />
<glyph unicode="&#xad;" horiz-adv-x="888" d="M116 488v195h656v-195h-656z" />
<glyph unicode="&#xae;" horiz-adv-x="1166" d="M93 1064q0 203 142 343t348 140q136 0 248.5 -63.5t177.5 -174.5t65 -245q0 -202 -142.5 -342t-348.5 -140t-348 140t-142 342zM213 1064q0 -156 107.5 -264t262.5 -108q156 0 263 108t107 264q0 158 -106.5 265t-263.5 107q-156 0 -263 -107.5t-107 -264.5zM396 845v455 h228q72 0 117.5 -39.5t45.5 -101.5q0 -53 -27.5 -89.5t-75.5 -45.5l127 -179h-130l-106 164h-74v-164h-105zM501 1088h101q35 0 54 17t19 48q0 60 -70 60h-104v-125z" />
<glyph unicode="&#xaf;" horiz-adv-x="1024" d="M213 1272v135h598v-135h-598z" />
<glyph unicode="&#xb0;" horiz-adv-x="856" d="M101 1091q0 138 94 232t233 94q138 0 232.5 -94.5t94.5 -231.5t-94.5 -231.5t-232.5 -94.5t-232.5 94.5t-94.5 231.5zM271 1091q0 -67 46.5 -114t110.5 -47q66 0 111.5 46.5t45.5 114.5t-45.5 114.5t-111.5 46.5q-64 0 -110.5 -46.5t-46.5 -114.5z" />
<glyph unicode="&#xb1;" d="M121 58v180h1028v-180h-1028zM121 632v176h421v279h187v-279h420v-176h-420v-279h-187v279h-421z" />
<glyph unicode="&#xb2;" horiz-adv-x="655" d="M51 1322q0 107 77.5 173t201.5 66q120 0 194.5 -59.5t74.5 -151.5q0 -66 -36 -116.5t-136 -134.5l-155 -131v-4h338v-134h-550v119l266 230q69 60 92.5 92.5t23.5 66.5q0 40 -31.5 65.5t-80.5 25.5q-56 0 -92.5 -29.5t-36.5 -77.5h-150z" />
<glyph unicode="&#xb3;" horiz-adv-x="685" d="M45 1037h155q4 -39 41 -63t97 -24q58 0 93.5 25t36.5 66q0 46 -37 71t-105 25h-85v119h84q58 0 92.5 24.5t34.5 64.5q0 41 -30 63.5t-85 22.5t-89 -24.5t-38 -66.5h-148q5 101 80.5 161t194.5 60q121 0 194.5 -51.5t73.5 -139.5q0 -66 -43.5 -110t-112.5 -57v-3 q85 -8 134.5 -52.5t49.5 -116.5q0 -99 -81 -159t-214 -60q-127 0 -207.5 62t-85.5 163z" />
<glyph unicode="&#xb4;" horiz-adv-x="1024" d="M318 1200l172 305h217l-231 -305h-158z" />
<glyph unicode="&#xb5;" horiz-adv-x="1215" d="M107 -348v1400h215v-634q0 -122 56.5 -185.5t166.5 -63.5q120 0 187 72.5t67 197.5v613h215v-762q0 -68 20.5 -96.5t66.5 -28.5q34 0 56 9l1 -168q-40 -14 -107 -14q-96 0 -152.5 36t-81.5 115q-5 17 -8 34h-3q-44 -92 -114 -144t-158 -52q-69 0 -125.5 30.5t-82.5 80.5 h-3v-440h-216z" />
<glyph unicode="&#xb6;" horiz-adv-x="1219" d="M133 1049q0 171 122 282.5t306 111.5h194v-1676h-177v900h-18q-183 0 -305 109t-122 273zM909 -233v1676h177v-1676h-177z" />
<glyph unicode="&#xb7;" horiz-adv-x="538" d="M138 526q0 55 38 93t93 38t93 -38t38 -93t-38 -93t-93 -38t-93 38t-38 93z" />
<glyph unicode="&#xb8;" horiz-adv-x="1024" d="M363 -339q49 -11 110 -11q126 0 126 60q0 32 -31.5 46t-101.5 14h-67v82l78 157h133v-9l-60 -120q94 -2 149 -45.5t55 -118.5q0 -85 -68 -132t-176 -49q-96 -2 -147 14v112z" />
<glyph unicode="&#xb9;" horiz-adv-x="528" d="M49 1269v149l193 126h162v-714h-161v559h-3z" />
<glyph unicode="&#xba;" horiz-adv-x="705" d="M37 1142q0 150 85.5 237t229.5 87t230 -87t86 -237q0 -152 -85.5 -238.5t-230.5 -86.5q-144 0 -229.5 86.5t-85.5 238.5zM196 1141q0 -94 42 -146t114 -52q73 0 115 52t42 146t-42 147t-115 53q-72 0 -114 -53t-42 -147z" />
<glyph unicode="&#xbb;" horiz-adv-x="1286" d="M127 147l349 412v12l-349 413h230l347 -415v-8l-349 -414h-228zM581 147l350 412v12l-350 413h230l348 -415v-8l-349 -414h-229z" />
<glyph unicode="&#xbc;" horiz-adv-x="1474" d="M49 1169v149l193 126h162v-714h-161v559h-3zM128 0l996 1443h182l-995 -1443h-183zM819 124v142q89 164 298 448h228v-454h99v-136h-99v-124h-154v124h-372zM959 254h235v340h-2q-155 -193 -233 -336v-4z" />
<glyph unicode="&#xbd;" horiz-adv-x="1533" d="M49 1169v149l193 126h162v-714h-161v559h-3zM128 0l996 1443h182l-995 -1443h-183zM929 492q0 107 77.5 173t201.5 66q120 0 194.5 -59.5t74.5 -151.5q0 -66 -36 -116.5t-136 -134.5l-155 -131v-4h338v-134h-550v119l266 230q69 60 92.5 92.5t23.5 66.5q0 40 -31.5 65.5 t-80.5 25.5q-56 0 -92.5 -29.5t-36.5 -77.5h-150z" />
<glyph unicode="&#xbe;" horiz-adv-x="1631" d="M45 937h155q4 -39 41 -63t97 -24q58 0 93.5 25t36.5 66q0 46 -37 71t-105 25h-85v119h84q58 0 92.5 24.5t34.5 64.5q0 41 -30 63.5t-85 22.5t-89 -24.5t-38 -66.5h-148q5 101 80.5 161t194.5 60q121 0 194.5 -51.5t73.5 -139.5q0 -66 -43.5 -110t-112.5 -57v-3 q85 -8 134.5 -52.5t49.5 -116.5q0 -99 -81 -159t-214 -60q-127 0 -207.5 62t-85.5 163zM285 0l996 1443h182l-995 -1443h-183zM977 124v142q89 164 298 448h228v-454h99v-136h-99v-124h-154v124h-372zM1117 254h235v340h-2q-155 -193 -233 -336v-4z" />
<glyph unicode="&#xbf;" horiz-adv-x="1035" d="M83 22q0 216 211 342q96 57 130.5 105.5t34.5 125.5v61h207l1 -80q4 -104 -41.5 -177t-150.5 -136q-91 -55 -127.5 -106t-36.5 -126q0 -87 62 -142.5t164 -55.5q103 0 165.5 58t69.5 158h208q-7 -177 -125.5 -288t-327.5 -111q-198 0 -321 104.5t-123 267.5zM419 995 q0 55 38 92.5t94 37.5t94 -37.5t38 -92.5q0 -54 -38.5 -91.5t-93.5 -37.5t-93.5 37.5t-38.5 91.5z" />
<glyph unicode="&#xc0;" horiz-adv-x="1336" d="M26 0l521 1443h242l521 -1443h-237l-132 390h-550l-132 -390h-233zM341 1854h221l173 -296h-157zM448 570h436l-215 633h-6z" />
<glyph unicode="&#xc1;" horiz-adv-x="1336" d="M26 0l521 1443h242l521 -1443h-237l-132 390h-550l-132 -390h-233zM448 570h436l-215 633h-6zM601 1558l173 296h221l-237 -296h-157z" />
<glyph unicode="&#xc2;" horiz-adv-x="1336" d="M26 0l521 1443h242l521 -1443h-237l-132 390h-550l-132 -390h-233zM320 1552l265 302h166l265 -302h-183l-162 189h-6l-162 -189h-183zM448 570h436l-215 633h-6z" />
<glyph unicode="&#xc3;" horiz-adv-x="1336" d="M26 0l521 1443h242l521 -1443h-237l-132 390h-550l-132 -390h-233zM338 1586q0 123 56 192t152 69q48 0 87.5 -21t60.5 -46t46 -46t48 -21q78 0 78 126h132q-1 -122 -57 -191.5t-152 -69.5q-39 0 -72.5 14t-55.5 33.5t-41 39t-38 33.5t-38 14q-74 0 -74 -126h-132z M448 570h436l-215 633h-6z" />
<glyph unicode="&#xc4;" horiz-adv-x="1336" d="M26 0l521 1443h242l521 -1443h-237l-132 390h-550l-132 -390h-233zM351 1717q0 50 35.5 85.5t86.5 35.5t86.5 -35.5t35.5 -85.5t-35.5 -85.5t-86.5 -35.5t-86.5 35.5t-35.5 85.5zM448 570h436l-215 633h-6zM741 1717q0 50 36 85.5t86 35.5q51 0 86.5 -35.5t35.5 -85.5 t-35.5 -85.5t-86.5 -35.5q-50 0 -86 35.5t-36 85.5z" />
<glyph unicode="&#xc5;" horiz-adv-x="1336" d="M26 0l521 1443h242l521 -1443h-237l-132 390h-550l-132 -390h-233zM448 570h436l-215 633h-6zM472 1712q0 81 57.5 138t138.5 57t138.5 -57t57.5 -138t-57.5 -138t-138.5 -57t-138.5 57t-57.5 138zM569 1712q0 -41 29 -70t70 -29t70 29t29 70t-29 69.5t-70 28.5 t-70 -28.5t-29 -69.5z" />
<glyph unicode="&#xc6;" horiz-adv-x="1997" d="M13 0l661 1443h1189v-193h-685v-430h648v-186h-648v-441h685v-193h-900v428h-527l-196 -428h-227zM514 607h449v656h-151z" />
<glyph unicode="&#xc7;" horiz-adv-x="1424" d="M81 722q0 342 179 543.5t482 201.5q246 0 415 -138.5t197 -363.5h-222q-30 139 -136.5 222.5t-253.5 83.5q-197 0 -314.5 -149.5t-117.5 -399.5q0 -253 117 -401.5t316 -148.5q150 0 252.5 73t136.5 204h223q-37 -203 -175.5 -325.5t-352.5 -143.5l-50 -100 q94 -2 149 -45.5t55 -118.5q0 -85 -68 -132t-176 -49q-96 -2 -147 14v112q50 -11 110 -11q126 0 126 60q0 32 -31.5 46t-101.5 14h-67v82l62 126q-281 18 -444 217t-163 527z" />
<glyph unicode="&#xc8;" horiz-adv-x="1146" d="M133 0v1443h916v-193h-692v-422h655v-186h-655v-448h692v-194h-916zM264 1854h221l173 -296h-157z" />
<glyph unicode="&#xc9;" horiz-adv-x="1146" d="M133 0v1443h916v-193h-692v-422h655v-186h-655v-448h692v-194h-916zM524 1558l173 296h221l-237 -296h-157z" />
<glyph unicode="&#xca;" horiz-adv-x="1146" d="M133 0v1443h916v-193h-692v-422h655v-186h-655v-448h692v-194h-916zM243 1552l265 302h166l265 -302h-183l-162 189h-6l-162 -189h-183z" />
<glyph unicode="&#xcb;" horiz-adv-x="1146" d="M133 0v1443h916v-193h-692v-422h655v-186h-655v-448h692v-194h-916zM274 1717q0 50 35.5 85.5t86.5 35.5t86.5 -35.5t35.5 -85.5t-35.5 -85.5t-86.5 -35.5t-86.5 35.5t-35.5 85.5zM664 1717q0 50 36 85.5t86 35.5q51 0 86.5 -35.5t35.5 -85.5t-35.5 -85.5t-86.5 -35.5 q-50 0 -86 35.5t-36 85.5z" />
<glyph unicode="&#xcc;" horiz-adv-x="490" d="M-82 1854h221l173 -296h-157zM133 0v1443h224v-1443h-224z" />
<glyph unicode="&#xcd;" horiz-adv-x="490" d="M133 0v1443h224v-1443h-224zM178 1558l173 296h221l-237 -296h-157z" />
<glyph unicode="&#xce;" horiz-adv-x="490" d="M-103 1552l265 302h166l265 -302h-183l-162 189h-6l-162 -189h-183zM133 0v1443h224v-1443h-224z" />
<glyph unicode="&#xcf;" horiz-adv-x="490" d="M-72 1717q0 50 35.5 85.5t86.5 35.5t86.5 -35.5t35.5 -85.5t-35.5 -85.5t-86.5 -35.5t-86.5 35.5t-35.5 85.5zM133 0v1443h224v-1443h-224zM318 1717q0 50 36 85.5t86 35.5q51 0 86.5 -35.5t35.5 -85.5t-35.5 -85.5t-86.5 -35.5q-50 0 -86 35.5t-36 85.5z" />
<glyph unicode="&#xd0;" horiz-adv-x="1406" d="M5 648v184h128v611h509q322 0 502.5 -189t180.5 -530q0 -342 -180 -533t-503 -191h-509v648h-128zM357 194h264q230 0 352.5 136t122.5 392q0 255 -123 391.5t-352 136.5h-264v-418h304v-184h-304v-454z" />
<glyph unicode="&#xd1;" horiz-adv-x="1443" d="M133 0v1443h203l748 -1064h8v1064h218v-1443h-202l-748 1063h-9v-1063h-218zM392 1586q0 123 56 192t152 69q48 0 87.5 -21t60.5 -46t46 -46t48 -21q78 0 78 126h132q-1 -122 -57 -191.5t-152 -69.5q-39 0 -72.5 14t-55.5 33.5t-41 39t-38 33.5t-38 14q-74 0 -74 -126 h-132z" />
<glyph unicode="&#xd2;" horiz-adv-x="1513" d="M81 721q0 344 182 545t494 201q311 0 493.5 -201t182.5 -545t-182 -544.5t-494 -200.5t-494 200.5t-182 544.5zM310 721q0 -252 120.5 -400t326.5 -148q205 0 325.5 148t120.5 400q0 253 -120.5 401t-325.5 148q-206 0 -326.5 -148t-120.5 -401zM430 1854h221l173 -296 h-157z" />
<glyph unicode="&#xd3;" horiz-adv-x="1513" d="M81 721q0 344 182 545t494 201q311 0 493.5 -201t182.5 -545t-182 -544.5t-494 -200.5t-494 200.5t-182 544.5zM310 721q0 -252 120.5 -400t326.5 -148q205 0 325.5 148t120.5 400q0 253 -120.5 401t-325.5 148q-206 0 -326.5 -148t-120.5 -401zM690 1558l173 296h221 l-237 -296h-157z" />
<glyph unicode="&#xd4;" horiz-adv-x="1513" d="M81 721q0 344 182 545t494 201q311 0 493.5 -201t182.5 -545t-182 -544.5t-494 -200.5t-494 200.5t-182 544.5zM310 721q0 -252 120.5 -400t326.5 -148q205 0 325.5 148t120.5 400q0 253 -120.5 401t-325.5 148q-206 0 -326.5 -148t-120.5 -401zM409 1552l265 302h166 l265 -302h-183l-162 189h-6l-162 -189h-183z" />
<glyph unicode="&#xd5;" horiz-adv-x="1513" d="M81 721q0 344 182 545t494 201q311 0 493.5 -201t182.5 -545t-182 -544.5t-494 -200.5t-494 200.5t-182 544.5zM310 721q0 -252 120.5 -400t326.5 -148q205 0 325.5 148t120.5 400q0 253 -120.5 401t-325.5 148q-206 0 -326.5 -148t-120.5 -401zM427 1586q0 123 56 192 t152 69q48 0 87.5 -21t60.5 -46t46 -46t48 -21q78 0 78 126h132q-1 -122 -57 -191.5t-152 -69.5q-39 0 -72.5 14t-55.5 33.5t-41 39t-38 33.5t-38 14q-74 0 -74 -126h-132z" />
<glyph unicode="&#xd6;" horiz-adv-x="1513" d="M81 721q0 344 182 545t494 201q311 0 493.5 -201t182.5 -545t-182 -544.5t-494 -200.5t-494 200.5t-182 544.5zM310 721q0 -252 120.5 -400t326.5 -148q205 0 325.5 148t120.5 400q0 253 -120.5 401t-325.5 148q-206 0 -326.5 -148t-120.5 -401zM440 1717q0 50 35.5 85.5 t86.5 35.5t86.5 -35.5t35.5 -85.5t-35.5 -85.5t-86.5 -35.5t-86.5 35.5t-35.5 85.5zM830 1717q0 50 36 85.5t86 35.5q51 0 86.5 -35.5t35.5 -85.5t-35.5 -85.5t-86.5 -35.5q-50 0 -86 35.5t-36 85.5z" />
<glyph unicode="&#xd7;" d="M170 234l336 338l-336 339l128 127l337 -335l337 335l128 -127l-337 -339l337 -338l-128 -127l-337 335l-337 -335z" />
<glyph unicode="&#xd8;" horiz-adv-x="1513" d="M81 721q0 344 182 545t494 201q247 0 416 -130l119 150l110 -83l-129 -164q160 -197 160 -519q0 -344 -182 -544.5t-494 -200.5q-230 0 -393 112l-106 -134l-112 89l111 140q-176 201 -176 538zM300 721q0 -221 93 -367l653 823q-116 105 -289 105q-210 0 -333.5 -151 t-123.5 -410zM489 247q112 -86 268 -86q210 0 333 151t123 409q0 202 -78 344z" />
<glyph unicode="&#xd9;" horiz-adv-x="1434" d="M133 507v936h224v-917q0 -158 95.5 -254.5t264.5 -96.5t265 96.5t96 254.5v917h223v-936q0 -237 -158 -384t-426 -147t-426 147t-158 384zM390 1854h221l173 -296h-157z" />
<glyph unicode="&#xda;" horiz-adv-x="1434" d="M133 507v936h224v-917q0 -158 95.5 -254.5t264.5 -96.5t265 96.5t96 254.5v917h223v-936q0 -237 -158 -384t-426 -147t-426 147t-158 384zM650 1558l173 296h221l-237 -296h-157z" />
<glyph unicode="&#xdb;" horiz-adv-x="1434" d="M133 507v936h224v-917q0 -158 95.5 -254.5t264.5 -96.5t265 96.5t96 254.5v917h223v-936q0 -237 -158 -384t-426 -147t-426 147t-158 384zM369 1552l265 302h166l265 -302h-183l-162 189h-6l-162 -189h-183z" />
<glyph unicode="&#xdc;" horiz-adv-x="1434" d="M133 507v936h224v-917q0 -158 95.5 -254.5t264.5 -96.5t265 96.5t96 254.5v917h223v-936q0 -237 -158 -384t-426 -147t-426 147t-158 384zM400 1717q0 50 35.5 85.5t86.5 35.5t86.5 -35.5t35.5 -85.5t-35.5 -85.5t-86.5 -35.5t-86.5 35.5t-35.5 85.5zM790 1717 q0 50 36 85.5t86 35.5q51 0 86.5 -35.5t35.5 -85.5t-35.5 -85.5t-86.5 -35.5q-50 0 -86 35.5t-36 85.5z" />
<glyph unicode="&#xdd;" horiz-adv-x="1293" d="M26 1443h250l368 -637h7l368 637h248l-509 -852v-591h-224v591zM579 1558l173 296h221l-237 -296h-157z" />
<glyph unicode="&#xde;" horiz-adv-x="1267" d="M157 0v1443h224v-255h350q121 0 220 -50t160 -149t61 -231t-62 -231.5t-163 -150t-223 -50.5h-343v-326h-224zM381 514h287q125 0 200 62.5t75 181.5q0 118 -75 179.5t-200 61.5h-287v-485z" />
<glyph unicode="&#xdf;" horiz-adv-x="1246" d="M162 0v1067q0 176 119 280.5t320 104.5q191 0 312 -102t121 -262q0 -121 -59 -211t-158 -120v-7q151 -19 237.5 -117t86.5 -247q0 -182 -122.5 -291t-329.5 -109q-98 0 -154 14v180q51 -15 126 -15q121 0 192.5 63t71.5 169q0 112 -80 177t-222 65h-64v192h50 q100 0 157.5 62.5t57.5 170.5q0 92 -61 149.5t-159 57.5q-108 0 -167.5 -62t-59.5 -175v-1034h-215z" />
<glyph unicode="&#xe0;" horiz-adv-x="1061" d="M65 299q0 138 102 219.5t289 91.5l288 17v81q0 88 -56 137.5t-155 49.5q-92 0 -149.5 -41t-72.5 -113h-204q9 146 126 238t308 92t304.5 -94t113.5 -252v-725h-207v173h-5q-45 -87 -136.5 -139t-195.5 -52q-155 0 -252.5 88t-97.5 229zM219 1505h218l171 -305h-158z M283 305q0 -69 52.5 -110.5t139.5 -41.5q114 0 191.5 69.5t77.5 171.5v83l-259 -16q-97 -7 -149.5 -47.5t-52.5 -108.5z" />
<glyph unicode="&#xe1;" horiz-adv-x="1061" d="M65 299q0 138 102 219.5t289 91.5l288 17v81q0 88 -56 137.5t-155 49.5q-92 0 -149.5 -41t-72.5 -113h-204q9 146 126 238t308 92t304.5 -94t113.5 -252v-725h-207v173h-5q-45 -87 -136.5 -139t-195.5 -52q-155 0 -252.5 88t-97.5 229zM283 305q0 -69 52.5 -110.5 t139.5 -41.5q114 0 191.5 69.5t77.5 171.5v83l-259 -16q-97 -7 -149.5 -47.5t-52.5 -108.5zM452 1200l171 305h218l-231 -305h-158z" />
<glyph unicode="&#xe2;" horiz-adv-x="1061" d="M65 299q0 138 102 219.5t289 91.5l288 17v81q0 88 -56 137.5t-155 49.5q-92 0 -149.5 -41t-72.5 -113h-204q9 146 126 238t308 92t304.5 -94t113.5 -252v-725h-207v173h-5q-45 -87 -136.5 -139t-195.5 -52q-155 0 -252.5 88t-97.5 229zM197 1200l250 305h166l250 -305 h-180l-150 186h-6l-150 -186h-180zM283 305q0 -69 52.5 -110.5t139.5 -41.5q114 0 191.5 69.5t77.5 171.5v83l-259 -16q-97 -7 -149.5 -47.5t-52.5 -108.5z" />
<glyph unicode="&#xe3;" horiz-adv-x="1061" d="M65 299q0 138 102 219.5t289 91.5l288 17v81q0 88 -56 137.5t-155 49.5q-92 0 -149.5 -41t-72.5 -113h-204q9 146 126 238t308 92t304.5 -94t113.5 -252v-725h-207v173h-5q-45 -87 -136.5 -139t-195.5 -52q-155 0 -252.5 88t-97.5 229zM200 1215q0 123 56 192t152 69 q48 0 87.5 -21t60.5 -46t46 -46t48 -21q78 0 78 126h132q-1 -122 -57 -191.5t-152 -69.5q-39 0 -72.5 14t-55.5 33.5t-41 39t-38 33.5t-38 14q-74 0 -74 -126h-132zM283 305q0 -69 52.5 -110.5t139.5 -41.5q114 0 191.5 69.5t77.5 171.5v83l-259 -16q-97 -7 -149.5 -47.5 t-52.5 -108.5z" />
<glyph unicode="&#xe4;" horiz-adv-x="1061" d="M65 299q0 138 102 219.5t289 91.5l288 17v81q0 88 -56 137.5t-155 49.5q-92 0 -149.5 -41t-72.5 -113h-204q9 146 126 238t308 92t304.5 -94t113.5 -252v-725h-207v173h-5q-45 -87 -136.5 -139t-195.5 -52q-155 0 -252.5 88t-97.5 229zM213 1346q0 50 35.5 85.5 t86.5 35.5t86.5 -35.5t35.5 -85.5t-35.5 -85.5t-86.5 -35.5t-86.5 35.5t-35.5 85.5zM283 305q0 -69 52.5 -110.5t139.5 -41.5q114 0 191.5 69.5t77.5 171.5v83l-259 -16q-97 -7 -149.5 -47.5t-52.5 -108.5zM603 1346q0 50 36 85.5t86 35.5q51 0 86.5 -35.5t35.5 -85.5 t-35.5 -85.5t-86.5 -35.5q-50 0 -86 35.5t-36 85.5z" />
<glyph unicode="&#xe5;" horiz-adv-x="1061" d="M65 299q0 138 102 219.5t289 91.5l288 17v81q0 88 -56 137.5t-155 49.5q-92 0 -149.5 -41t-72.5 -113h-204q9 146 126 238t308 92t304.5 -94t113.5 -252v-725h-207v173h-5q-45 -87 -136.5 -139t-195.5 -52q-155 0 -252.5 88t-97.5 229zM283 305q0 -69 52.5 -110.5 t139.5 -41.5q114 0 191.5 69.5t77.5 171.5v83l-259 -16q-97 -7 -149.5 -47.5t-52.5 -108.5zM329 1346q0 82 59 140.5t142 58.5q82 0 141 -58.5t59 -140.5t-59 -140.5t-141 -58.5q-83 0 -142 58.5t-59 140.5zM430 1346q0 -41 29.5 -70.5t70.5 -29.5t70.5 29.5t29.5 70.5 t-29.5 70.5t-70.5 29.5t-70.5 -29.5t-29.5 -70.5z" />
<glyph unicode="&#xe6;" horiz-adv-x="1741" d="M61 298q0 139 103.5 218.5t297.5 89.5l281 15v68q0 89 -62.5 147.5t-160.5 58.5q-90 0 -148.5 -43t-66.5 -112h-203q8 146 120.5 238.5t291.5 92.5q129 0 223 -50t135 -139h8q110 189 353 189q204 0 326 -142.5t122 -382.5v-74h-729v-13q0 -136 76.5 -220t203.5 -84 q87 0 148 41.5t84 112.5h206q-23 -145 -145 -237t-296 -92q-129 0 -229 57.5t-152 158.5h-10q-61 -102 -160.5 -158t-229.5 -56q-178 0 -282.5 86.5t-104.5 229.5zM274 306q0 -68 53 -111t139 -43q116 0 196.5 71t80.5 171v77l-257 -15q-102 -6 -157 -45t-55 -105zM953 623 h512q-4 124 -71 199t-176 75q-111 0 -184 -76t-81 -198z" />
<glyph unicode="&#xe7;" horiz-adv-x="1058" d="M60 526q0 250 135 397.5t360 147.5q196 0 318 -109.5t137 -271.5h-206q-17 89 -81.5 145t-165.5 56q-126 0 -201.5 -98.5t-75.5 -266.5q0 -171 75.5 -268t203.5 -97q99 0 162.5 51.5t82.5 143.5h208q-15 -148 -115 -247.5t-256 -122.5l-53 -106q94 -2 149 -45.5 t55 -118.5q0 -85 -68 -132t-176 -49q-96 -2 -147 14v112q49 -11 110 -11q126 0 126 60q0 32 -31.5 46t-101.5 14h-67v82l65 130q-204 18 -323 162.5t-119 381.5z" />
<glyph unicode="&#xe8;" horiz-adv-x="1081" d="M60 521q0 248 132.5 399t354.5 151q218 0 346 -142.5t128 -382.5v-74h-743v-13q0 -138 77 -221t206 -83q91 0 156 42t87 112h205q-23 -145 -148 -237t-305 -92q-231 0 -363.5 145.5t-132.5 395.5zM236 1505h218l171 -305h-158zM279 623h526q-4 122 -75 198t-183 76 t-186 -76.5t-82 -197.5z" />
<glyph unicode="&#xe9;" horiz-adv-x="1081" d="M60 521q0 248 132.5 399t354.5 151q218 0 346 -142.5t128 -382.5v-74h-743v-13q0 -138 77 -221t206 -83q91 0 156 42t87 112h205q-23 -145 -148 -237t-305 -92q-231 0 -363.5 145.5t-132.5 395.5zM279 623h526q-4 122 -75 198t-183 76t-186 -76.5t-82 -197.5zM469 1200 l171 305h218l-231 -305h-158z" />
<glyph unicode="&#xea;" horiz-adv-x="1081" d="M60 521q0 248 132.5 399t354.5 151q218 0 346 -142.5t128 -382.5v-74h-743v-13q0 -138 77 -221t206 -83q91 0 156 42t87 112h205q-23 -145 -148 -237t-305 -92q-231 0 -363.5 145.5t-132.5 395.5zM214 1200l250 305h166l250 -305h-180l-150 186h-6l-150 -186h-180z M279 623h526q-4 122 -75 198t-183 76t-186 -76.5t-82 -197.5z" />
<glyph unicode="&#xeb;" horiz-adv-x="1081" d="M60 521q0 248 132.5 399t354.5 151q218 0 346 -142.5t128 -382.5v-74h-743v-13q0 -138 77 -221t206 -83q91 0 156 42t87 112h205q-23 -145 -148 -237t-305 -92q-231 0 -363.5 145.5t-132.5 395.5zM230 1346q0 50 35.5 85.5t86.5 35.5t86.5 -35.5t35.5 -85.5t-35.5 -85.5 t-86.5 -35.5t-86.5 35.5t-35.5 85.5zM279 623h526q-4 122 -75 198t-183 76t-186 -76.5t-82 -197.5zM620 1346q0 50 36 85.5t86 35.5q51 0 86.5 -35.5t35.5 -85.5t-35.5 -85.5t-86.5 -35.5q-50 0 -86 35.5t-36 85.5z" />
<glyph unicode="&#xec;" horiz-adv-x="444" d="M-89 1505h218l171 -305h-158zM114 0v1052h216v-1052h-216z" />
<glyph unicode="&#xed;" horiz-adv-x="444" d="M114 0v1052h216v-1052h-216zM144 1200l171 305h218l-231 -305h-158z" />
<glyph unicode="&#xee;" horiz-adv-x="444" d="M-111 1200l250 305h166l250 -305h-180l-150 186h-6l-150 -186h-180zM114 0v1052h216v-1052h-216z" />
<glyph unicode="&#xef;" horiz-adv-x="444" d="M-95 1346q0 50 35.5 85.5t86.5 35.5t86.5 -35.5t35.5 -85.5t-35.5 -85.5t-86.5 -35.5t-86.5 35.5t-35.5 85.5zM114 0v1052h216v-1052h-216zM295 1346q0 50 36 85.5t86 35.5q51 0 86.5 -35.5t35.5 -85.5t-35.5 -85.5t-86.5 -35.5q-50 0 -86 35.5t-36 85.5z" />
<glyph unicode="&#xf0;" horiz-adv-x="1148" d="M75 509q0 118 36.5 214.5t99 158.5t143.5 95.5t172 33.5q94 0 167 -42.5t114 -112.5h15q-23 82 -96.5 176t-184.5 177l-295 -165v142l178 100q-91 52 -183 86v140q192 -52 344 -136l279 156l2 -142l-163 -91q183 -135 270 -319.5t87 -401.5q0 -170 -53 -302.5 t-164.5 -213t-268.5 -80.5q-236 0 -367.5 143.5t-131.5 383.5zM296 511q0 -163 74 -255t206 -92q129 0 202.5 95.5t73.5 239.5q0 161 -75 253.5t-202 92.5q-124 0 -201.5 -88.5t-77.5 -245.5z" />
<glyph unicode="&#xf1;" horiz-adv-x="1115" d="M107 0v1052h206v-176h5q44 92 128 143t203 51q173 0 269 -103.5t96 -285.5v-681h-217v639q0 120 -56.5 182.5t-167.5 62.5q-114 0 -182 -74t-68 -197v-613h-216zM230 1215q0 123 56 192t152 69q48 0 87.5 -21t60.5 -46t46 -46t48 -21q78 0 78 126h132q-1 -122 -57 -191.5 t-152 -69.5q-39 0 -72.5 14t-55.5 33.5t-41 39t-38 33.5t-38 14q-74 0 -74 -126h-132z" />
<glyph unicode="&#xf2;" horiz-adv-x="1118" d="M60 526q0 252 136 398.5t363 146.5t363 -146.5t136 -398.5q0 -253 -136 -399.5t-363 -146.5t-363 146.5t-136 399.5zM248 1505h218l171 -305h-158zM280 526q0 -174 75.5 -271t203.5 -97q129 0 204 97t75 271q0 173 -75.5 270t-203.5 97t-203.5 -97t-75.5 -270z" />
<glyph unicode="&#xf3;" horiz-adv-x="1118" d="M60 526q0 252 136 398.5t363 146.5t363 -146.5t136 -398.5q0 -253 -136 -399.5t-363 -146.5t-363 146.5t-136 399.5zM280 526q0 -174 75.5 -271t203.5 -97q129 0 204 97t75 271q0 173 -75.5 270t-203.5 97t-203.5 -97t-75.5 -270zM481 1200l171 305h218l-231 -305h-158z " />
<glyph unicode="&#xf4;" horiz-adv-x="1118" d="M60 526q0 252 136 398.5t363 146.5t363 -146.5t136 -398.5q0 -253 -136 -399.5t-363 -146.5t-363 146.5t-136 399.5zM226 1200l250 305h166l250 -305h-180l-150 186h-6l-150 -186h-180zM280 526q0 -174 75.5 -271t203.5 -97q129 0 204 97t75 271q0 173 -75.5 270 t-203.5 97t-203.5 -97t-75.5 -270z" />
<glyph unicode="&#xf5;" horiz-adv-x="1118" d="M60 526q0 252 136 398.5t363 146.5t363 -146.5t136 -398.5q0 -253 -136 -399.5t-363 -146.5t-363 146.5t-136 399.5zM229 1215q0 123 56 192t152 69q48 0 87.5 -21t60.5 -46t46 -46t48 -21q78 0 78 126h132q-1 -122 -57 -191.5t-152 -69.5q-39 0 -72.5 14t-55.5 33.5 t-41 39t-38 33.5t-38 14q-74 0 -74 -126h-132zM280 526q0 -174 75.5 -271t203.5 -97q129 0 204 97t75 271q0 173 -75.5 270t-203.5 97t-203.5 -97t-75.5 -270z" />
<glyph unicode="&#xf6;" horiz-adv-x="1118" d="M60 526q0 252 136 398.5t363 146.5t363 -146.5t136 -398.5q0 -253 -136 -399.5t-363 -146.5t-363 146.5t-136 399.5zM242 1346q0 50 35.5 85.5t86.5 35.5t86.5 -35.5t35.5 -85.5t-35.5 -85.5t-86.5 -35.5t-86.5 35.5t-35.5 85.5zM280 526q0 -174 75.5 -271t203.5 -97 q129 0 204 97t75 271q0 173 -75.5 270t-203.5 97t-203.5 -97t-75.5 -270zM632 1346q0 50 36 85.5t86 35.5q51 0 86.5 -35.5t35.5 -85.5t-35.5 -85.5t-86.5 -35.5q-50 0 -86 35.5t-36 85.5z" />
<glyph unicode="&#xf7;" d="M139 482v180h992v-180h-992zM509 177q0 55 36 91t91 36q54 0 90.5 -36t36.5 -91q0 -56 -36 -91.5t-91 -35.5t-91 35.5t-36 91.5zM509 967q0 55 36 91t91 36q54 0 90.5 -36t36.5 -91q0 -56 -36 -91t-91 -35t-91 35t-36 91z" />
<glyph unicode="&#xf8;" horiz-adv-x="1118" d="M60 526q0 252 136 398.5t363 146.5q159 0 277 -75l69 94l95 -67l-75 -102q133 -147 133 -395q0 -253 -136 -399.5t-363 -146.5q-154 0 -271 71l-65 -89l-99 71l70 95q-134 148 -134 398zM273 526q0 -136 47 -228l405 548q-68 56 -166 56q-131 0 -208.5 -99.5 t-77.5 -276.5zM398 201q67 -52 161 -52q132 0 209 99.5t77 277.5q0 132 -45 224z" />
<glyph unicode="&#xf9;" horiz-adv-x="1115" d="M102 371v681h216v-639q0 -121 57 -183.5t168 -62.5q116 0 183 74t67 198v613h216v-1052h-207v178h-5q-91 -197 -326 -197q-172 0 -270.5 104.5t-98.5 285.5zM245 1505h218l171 -305h-158z" />
<glyph unicode="&#xfa;" horiz-adv-x="1115" d="M102 371v681h216v-639q0 -121 57 -183.5t168 -62.5q116 0 183 74t67 198v613h216v-1052h-207v178h-5q-91 -197 -326 -197q-172 0 -270.5 104.5t-98.5 285.5zM478 1200l171 305h218l-231 -305h-158z" />
<glyph unicode="&#xfb;" horiz-adv-x="1115" d="M102 371v681h216v-639q0 -121 57 -183.5t168 -62.5q116 0 183 74t67 198v613h216v-1052h-207v178h-5q-91 -197 -326 -197q-172 0 -270.5 104.5t-98.5 285.5zM223 1200l250 305h166l250 -305h-180l-150 186h-6l-150 -186h-180z" />
<glyph unicode="&#xfc;" horiz-adv-x="1115" d="M102 371v681h216v-639q0 -121 57 -183.5t168 -62.5q116 0 183 74t67 198v613h216v-1052h-207v178h-5q-91 -197 -326 -197q-172 0 -270.5 104.5t-98.5 285.5zM239 1346q0 50 35.5 85.5t86.5 35.5t86.5 -35.5t35.5 -85.5t-35.5 -85.5t-86.5 -35.5t-86.5 35.5t-35.5 85.5z M629 1346q0 50 36 85.5t86 35.5q51 0 86.5 -35.5t35.5 -85.5t-35.5 -85.5t-86.5 -35.5q-50 0 -86 35.5t-36 85.5z" />
<glyph unicode="&#xfd;" horiz-adv-x="1038" d="M20 1052h234l266 -856h4l266 856h228l-394 -1107q-67 -190 -157.5 -263.5t-254.5 -73.5q-61 0 -88 5v175q16 -4 70 -4q75 0 118.5 34.5t68.5 115.5q0 1 9 33l10 32zM445 1200l171 305h218l-231 -305h-158z" />
<glyph unicode="&#xfe;" horiz-adv-x="1166" d="M115 -342v1785h209v-566h16q47 90 134 141t195 51q200 0 317.5 -146t117.5 -397q0 -250 -117.5 -397t-316.5 -147q-113 0 -198.5 46.5t-125.5 130.5h-16v-501h-215zM326 526q0 -167 75.5 -264t203.5 -97q130 0 204 96t74 265t-74 265t-204 96q-128 0 -203.5 -97.5 t-75.5 -263.5z" />
<glyph unicode="&#xff;" horiz-adv-x="1038" d="M20 1052h234l266 -856h4l266 856h228l-394 -1107q-67 -190 -157.5 -263.5t-254.5 -73.5q-61 0 -88 5v175q16 -4 70 -4q75 0 118.5 34.5t68.5 115.5q0 1 9 33l10 32zM206 1346q0 50 35.5 85.5t86.5 35.5t86.5 -35.5t35.5 -85.5t-35.5 -85.5t-86.5 -35.5t-86.5 35.5 t-35.5 85.5zM596 1346q0 50 36 85.5t86 35.5q51 0 86.5 -35.5t35.5 -85.5t-35.5 -85.5t-86.5 -35.5q-50 0 -86 35.5t-36 85.5z" />
<glyph unicode="&#x152;" horiz-adv-x="2216" d="M82 721q0 342 181.5 545.5t484.5 203.5q160 0 285.5 -66.5t196.5 -189.5v229h889v-193h-676v-422h638v-186h-638v-448h676v-194h-889v231q-67 -121 -196 -189.5t-287 -68.5q-303 0 -484 203t-181 545zM312 721q0 -252 122 -400.5t330 -148.5t330 148.5t122 400.5 t-122.5 401t-329.5 149q-208 0 -330 -148.5t-122 -401.5z" />
<glyph unicode="&#x153;" horiz-adv-x="1855" d="M60 525q0 249 134 397.5t360 148.5q255 0 387 -208h10q54 96 154 152t226 56q212 0 338.5 -143.5t126.5 -381.5v-74h-739v-17q0 -134 78 -217t204 -83q89 0 154 41.5t86 108.5h206q-22 -140 -147.5 -232.5t-296.5 -92.5q-125 0 -230 54.5t-160 145.5h-10 q-134 -200 -386 -200q-226 0 -360.5 148t-134.5 397zM277 525q0 -170 74 -267t204 -97q131 0 204.5 96.5t73.5 267.5q0 172 -73.5 269t-204.5 97t-204.5 -97.5t-73.5 -268.5zM1057 623h521q-3 122 -73 198t-181 76t-185 -76.5t-82 -197.5z" />
<glyph unicode="&#x178;" horiz-adv-x="1293" d="M26 1443h250l368 -637h7l368 637h248l-509 -852v-591h-224v591zM329 1717q0 50 35.5 85.5t86.5 35.5t86.5 -35.5t35.5 -85.5t-35.5 -85.5t-86.5 -35.5t-86.5 35.5t-35.5 85.5zM719 1717q0 50 36 85.5t86 35.5q51 0 86.5 -35.5t35.5 -85.5t-35.5 -85.5t-86.5 -35.5 q-50 0 -86 35.5t-36 85.5z" />
<glyph unicode="&#x2c6;" horiz-adv-x="1024" d="M179 1200l250 305h166l250 -305h-180l-150 186h-6l-150 -186h-180z" />
<glyph unicode="&#x2dc;" horiz-adv-x="1024" d="M182 1215q0 123 56 192t152 69q48 0 87.5 -21t60.5 -46t46 -46t48 -21q78 0 78 126h132q-1 -122 -57 -191.5t-152 -69.5q-39 0 -72.5 14t-55.5 33.5t-41 39t-38 33.5t-38 14q-74 0 -74 -126h-132z" />
<glyph unicode="&#x2000;" horiz-adv-x="953" />
<glyph unicode="&#x2001;" horiz-adv-x="1907" />
<glyph unicode="&#x2002;" horiz-adv-x="953" />
<glyph unicode="&#x2003;" horiz-adv-x="1907" />
<glyph unicode="&#x2004;" horiz-adv-x="635" />
<glyph unicode="&#x2005;" horiz-adv-x="476" />
<glyph unicode="&#x2006;" horiz-adv-x="317" />
<glyph unicode="&#x2007;" horiz-adv-x="317" />
<glyph unicode="&#x2008;" horiz-adv-x="238" />
<glyph unicode="&#x2009;" horiz-adv-x="381" />
<glyph unicode="&#x200a;" horiz-adv-x="105" />
<glyph unicode="&#x2010;" horiz-adv-x="888" d="M116 488v195h656v-195h-656z" />
<glyph unicode="&#x2011;" horiz-adv-x="888" d="M116 488v195h656v-195h-656z" />
<glyph unicode="&#x2012;" horiz-adv-x="888" d="M116 488v195h656v-195h-656z" />
<glyph unicode="&#x2013;" horiz-adv-x="1024" d="M0 486v198h1024v-198h-1024z" />
<glyph unicode="&#x2014;" horiz-adv-x="2048" d="M0 486v198h2048v-198h-2048z" />
<glyph unicode="&#x2018;" horiz-adv-x="558" d="M124 915l139 528h171l-92 -528h-218z" />
<glyph unicode="&#x2019;" horiz-adv-x="558" d="M124 915l92 528h218l-139 -528h-171z" />
<glyph unicode="&#x201a;" horiz-adv-x="558" d="M129 -297l89 528h219l-136 -528h-172z" />
<glyph unicode="&#x201c;" horiz-adv-x="975" d="M128 915l140 528h171l-92 -528h-219zM539 915l136 528h172l-89 -528h-219z" />
<glyph unicode="&#x201d;" horiz-adv-x="975" d="M128 915l89 528h219l-136 -528h-172zM536 915l92 528h219l-140 -528h-171z" />
<glyph unicode="&#x201e;" horiz-adv-x="975" d="M128 -297l89 528h219l-136 -528h-172zM539 -297l89 528h219l-136 -528h-172z" />
<glyph unicode="&#x2022;" horiz-adv-x="856" d="M105 562q0 133 95 227.5t228 94.5t228 -94.5t95 -227.5t-95 -228t-228 -95t-228 95t-95 228z" />
<glyph unicode="&#x2026;" horiz-adv-x="1433" d="M138 120q0 55 38 93t93 38t93 -38t38 -93t-38 -93t-93 -38t-93 38t-38 93zM586 120q0 55 37.5 93t92.5 38t93 -38t38 -93t-38 -93t-93 -38t-92.5 38t-37.5 93zM1033 120q0 55 38 93t93 38t93 -38t38 -93t-38 -93t-93 -38t-93 38t-38 93z" />
<glyph unicode="&#x202f;" horiz-adv-x="381" />
<glyph unicode="&#x2039;" horiz-adv-x="831" d="M127 561v8l349 415h228l-349 -412v-13l349 -412h-229z" />
<glyph unicode="&#x203a;" horiz-adv-x="831" d="M127 147l349 412v12l-349 413h230l347 -415v-8l-349 -414h-228z" />
<glyph unicode="&#x205f;" horiz-adv-x="476" />
<glyph unicode="&#x20ac;" d="M65 523v113h189q-4 36 -4 85q0 50 4 87h-189v113h206q56 252 245 388t455 136q123 0 196 -23v-190q-77 18 -194 18q-173 0 -297.5 -84.5t-172.5 -244.5h540v-113h-563q-5 -47 -5 -87q0 -31 4 -85h564v-113h-541q48 -161 172 -246t298 -85q134 0 196 17v-191 q-72 -20 -196 -20q-267 0 -456 136t-245 389h-206z" />
<glyph unicode="&#x2122;" horiz-adv-x="1815" d="M135 1303v140h592v-140h-214v-573h-162v573h-216zM820 730v713h187l202 -478h4l201 478h187v-713h-143v454h-4l-194 -454h-99l-194 454h-4v-454h-143z" />
<glyph unicode="&#x25fc;" horiz-adv-x="1050" d="M0 0v1050h1050v-1050h-1050z" />
<glyph unicode="&#xfb01;" horiz-adv-x="1105" d="M25 881v169h145v103q0 154 75 227t235 73q65 0 121 -10v-160q-32 6 -79 6q-138 0 -138 -140v-99h213v-169h-210v-881h-217v881h-145zM757 1346q0 52 36.5 88t88.5 36t88 -36t36 -88q0 -51 -36 -87.5t-88 -36.5t-88.5 36.5t-36.5 87.5zM774 0v1052h216v-1052h-216z" />
<glyph unicode="&#xfb02;" horiz-adv-x="1106" d="M25 881v169h145v103q0 154 75 227t235 73q65 0 121 -10v-160q-32 6 -79 6q-138 0 -138 -140v-99h213v-169h-210v-881h-217v881h-145zM775 0v1443h216v-1443h-216z" />
</font>
</defs>
</svg>
