<?xml version="1.0" standalone="no"?>
<!DOCTYPE svg PUBLIC "-//W3C//DTD SVG 1.1//EN" "http://www.w3.org/Graphics/SVG/1.1/DTD/svg11.dtd" >
<svg xmlns="http://www.w3.org/2000/svg" xmlns:xlink="http://www.w3.org/1999/xlink" version="1.1">
<metadata></metadata>
<defs>
<font id="sf_pro_displayblack_italic" horiz-adv-x="1412" >
<font-face units-per-em="2048" ascent="1638" descent="-410" />
<missing-glyph horiz-adv-x="412" />
<glyph horiz-adv-x="0" />
<glyph unicode="&#xd;" horiz-adv-x="0" />
<glyph unicode=" "  horiz-adv-x="412" />
<glyph unicode="&#x09;" horiz-adv-x="412" />
<glyph unicode="&#xa0;" horiz-adv-x="412" />
<glyph unicode="!" horiz-adv-x="755" d="M81 160q0 83 62 141t151 58q87 0 149.5 -58t62.5 -141q0 -84 -62.5 -142t-149.5 -58q-89 0 -151 58t-62 142zM195 471l171 972h420l-243 -972h-348z" />
<glyph unicode="&#x22;" horiz-adv-x="1023" d="M140 826l131 617h340l-131 -617h-340zM660 826l131 617h340l-131 -617h-340z" />
<glyph unicode="#" horiz-adv-x="1377" d="M-8 357l90 287h217l57 177h-214l89 284h216l110 339h299l-109 -339h191l109 339h301l-109 -339h223l-88 -284h-227l-56 -177h221l-89 -287h-224l-115 -357h-301l116 357h-191l-116 -357h-299l115 357h-216zM561 610h244l81 244h-246z" />
<glyph unicode="$" d="M85 437h385q7 -47 46.5 -80.5t100.5 -44.5l52 244l-97 32q-176 58 -262.5 151t-86.5 233q0 210 158 338t412 128q21 0 63 -2l32 152h80l-34 -159q203 -29 314 -140t112 -288h-372q-2 48 -32.5 82.5t-84.5 47.5l-52 -245l103 -32q190 -60 271.5 -144t81.5 -232 q0 -218 -165 -345.5t-441 -127.5q-25 0 -37 1l-31 -146h-80l32 151q-225 23 -346 133t-122 293zM637 1025q0 -38 24 -65t83 -49l48 227q-73 -2 -114 -33t-41 -80zM696 306q78 4 120.5 35.5t42.5 81.5q0 36 -23 59t-92 49z" />
<glyph unicode="%" horiz-adv-x="2120" d="M185 1056q0 79 26.5 152t76.5 132t129.5 94t176.5 35q148 0 238.5 -79.5t90.5 -227.5q0 -80 -28 -154.5t-79 -133t-130.5 -93.5t-174.5 -35q-146 0 -236 80.5t-90 229.5zM363 0l1158 1443h310l-1158 -1443h-310zM479 1043q0 -38 13.5 -58.5t35.5 -20.5q41 0 71 67t30 135 q0 85 -51 85q-32 0 -56 -40t-33.5 -85.5t-9.5 -82.5zM1271 291q0 79 26.5 152t76.5 132t129.5 94t176.5 35q148 0 238.5 -79.5t90.5 -227.5q0 -80 -28 -154.5t-79 -133t-130.5 -93.5t-174.5 -35q-146 0 -236 80.5t-90 229.5zM1565 278q0 -38 13.5 -58.5t35.5 -20.5 q41 0 71 67t30 135q0 85 -51 85q-32 0 -56 -40t-33.5 -85.5t-9.5 -82.5z" />
<glyph unicode="&#x26;" horiz-adv-x="1526" d="M23 360q0 276 340 413l82 33q-116 163 -116 299q0 151 130.5 251t327.5 100q193 0 322 -91.5t129 -228.5q0 -264 -363 -419l145 -216q82 128 90 246l1 15h321l-2 -19q-28 -270 -241 -491l170 -252h-394l-40 60q-179 -88 -367 -88q-234 0 -384.5 109t-150.5 279zM389 396 q0 -68 58.5 -110.5t150.5 -42.5q90 0 180 41l-201 305q-21 -7 -37 -13q-151 -60 -151 -180zM660 1066q0 -62 78 -159q92 38 132 83.5t40 109.5q0 47 -31.5 76.5t-81.5 29.5q-57 0 -97 -41t-40 -99z" />
<glyph unicode="'" horiz-adv-x="502" d="M140 826l131 617h340l-131 -617h-340z" />
<glyph unicode="(" horiz-adv-x="810" d="M101 351q0 311 118 597t333 495h423q-99 -97 -180.5 -216t-145.5 -264.5t-99 -321.5t-33 -365q3 -378 84 -589h-371q-59 118 -94 300t-35 364z" />
<glyph unicode=")" horiz-adv-x="810" d="M-159 -313q99 97 180.5 216t145.5 264.5t99 321.5t33 365q-3 378 -84 589h371q59 -118 94 -300t35 -364q0 -311 -118 -597t-333 -495h-423z" />
<glyph unicode="*" horiz-adv-x="1020" d="M175 914l263 131l-202 125l126 165l184 -125l36 233h236l-66 -229l227 121l76 -165l-265 -134l201 -122l-124 -162l-185 125l-35 -235h-236l66 229l-226 -119z" />
<glyph unicode="+" d="M122 414l74 348h375l84 395h360l-84 -395h375l-74 -348h-375l-84 -395h-360l84 395h-375z" />
<glyph unicode="," horiz-adv-x="615" d="M-100 -344l184 617h370l-262 -617h-292z" />
<glyph unicode="-" horiz-adv-x="830" d="M63 422l74 348h650l-74 -348h-650z" />
<glyph unicode="." horiz-adv-x="618" d="M26 194q0 86 61 147t147 61t147 -61t61 -147t-61 -147t-147 -61t-147 61t-61 147z" />
<glyph unicode="/" horiz-adv-x="810" d="M-183 -313l783 1756h400l-783 -1756h-400z" />
<glyph unicode="0" horiz-adv-x="1452" d="M105 558q0 262 95.5 469.5t266.5 324t386 116.5q256 0 412 -159.5t156 -419.5q0 -157 -36 -298t-103.5 -253t-159.5 -193.5t-208.5 -125.5t-245.5 -44q-253 0 -408 160.5t-155 422.5zM533 568q0 -270 152 -270q79 0 150.5 80.5t114.5 215t43 284.5q0 267 -156 267 q-79 0 -149.5 -80t-112.5 -213.5t-42 -283.5z" />
<glyph unicode="1" horiz-adv-x="1066" d="M151 836l77 365l414 242h424l-307 -1443h-424l228 1071h-8z" />
<glyph unicode="2" horiz-adv-x="1312" d="M-12 0l64 291l581 425q160 117 214 177t54 127q0 57 -43 93t-110 36q-81 0 -136.5 -45.5t-71.5 -129.5h-382q14 214 189.5 354t430.5 140q233 0 384.5 -113t151.5 -293q0 -139 -83 -246t-324 -280l-289 -208l-1 -8h566l-68 -320h-1127z" />
<glyph unicode="3" horiz-adv-x="1367" d="M54 411q0 27 8 70h388q-14 -73 37.5 -128.5t152.5 -55.5q88 0 144 45.5t56 116.5q0 68 -49.5 108t-134.5 40h-156l60 281h168q102 0 159 34.5t57 96.5q0 59 -48 94.5t-128 35.5q-75 0 -128.5 -35t-73.5 -97h-381q43 209 208.5 330t409.5 121q238 0 389.5 -113t151.5 -290 q0 -128 -96 -220.5t-248 -112.5l-1 -8q117 -29 183 -107t66 -189q0 -130 -78 -233.5t-216 -161.5t-311 -58q-269 0 -429 119t-160 317z" />
<glyph unicode="4" horiz-adv-x="1423" d="M-1 214l72 367q245 338 700 862h605l-193 -905h172l-69 -324h-172l-45 -214h-400l45 214h-715zM424 522h368l134 630h-8q-273 -308 -493 -622z" />
<glyph unicode="5" horiz-adv-x="1368" d="M101 425q0 24 2 46h380q5 -79 61 -127.5t142 -48.5q89 0 153.5 60t64.5 150q0 87 -53 138.5t-142 51.5q-54 0 -105.5 -25t-81.5 -64h-377l249 837h1001l-71 -321h-666l-95 -286h8q115 129 321 129q173 0 286 -114.5t116 -294.5q3 -172 -80 -307t-229 -206.5t-327 -67.5 q-126 3 -232 40.5t-176.5 99.5t-109.5 142t-39 168z" />
<glyph unicode="6" horiz-adv-x="1435" d="M114 587q0 188 56 352t154 280t236 182.5t297 66.5q242 0 399.5 -125.5t157.5 -318.5h-403q-12 58 -57 90t-114 32q-112 0 -197.5 -104t-106.5 -266h8q59 81 149.5 124t202.5 43q188 0 308.5 -120.5t120.5 -307.5q0 -150 -79.5 -274t-218.5 -195t-307 -71 q-287 0 -446.5 161.5t-159.5 450.5zM525 468q0 -76 54 -126t136 -50q90 0 149 55.5t59 140.5q0 77 -54 127t-137 50q-90 0 -148.5 -55t-58.5 -142z" />
<glyph unicode="7" horiz-adv-x="1220" d="M19 0l817 1115v8h-664l68 320h1110l-68 -319l-803 -1124h-460z" />
<glyph unicode="8" horiz-adv-x="1430" d="M51 388q0 154 110 262.5t300 141.5l2 7q-97 31 -154 103.5t-57 164.5q0 173 167.5 287t422.5 114q156 0 285.5 -51t203.5 -139.5t74 -195.5q0 -137 -94 -232t-250 -115l-1 -9q119 -35 185.5 -120.5t66.5 -201.5q0 -124 -83 -221.5t-232 -152.5t-337 -55 q-269 0 -439 115.5t-170 297.5zM497 425q0 -70 50.5 -114t130.5 -44q88 0 146 51.5t58 128.5q0 70 -51 114.5t-132 44.5q-86 0 -144 -52t-58 -129zM652 1018q0 -61 44 -100.5t111 -39.5q73 0 127 48.5t54 114.5q0 61 -44.5 101.5t-111.5 40.5q-74 0 -127 -49t-53 -116z" />
<glyph unicode="9" horiz-adv-x="1435" d="M90 411h405q6 -51 55 -83t121 -32q123 0 212.5 104t100.5 261h-7q-108 -167 -356 -167q-190 0 -314 120.5t-124 308.5q0 111 42 210t118 174t192 118.5t255 42.5q280 -3 436 -171.5t156 -470.5q0 -193 -56 -354t-153 -269t-230 -168t-286 -60q-234 0 -393 126t-174 310z M588 948q0 -78 52.5 -127.5t135.5 -49.5q91 0 147.5 53t56.5 138q0 80 -52.5 131t-131.5 51q-90 0 -149 -55.5t-59 -140.5z" />
<glyph unicode=":" horiz-adv-x="618" d="M26 194q0 86 61 147t147 61t147 -61t61 -147t-61 -147t-147 -61t-147 61t-61 147zM158 816q0 86 61 147t147 61t147 -61t61 -147t-61 -147t-147 -61t-147 61t-61 147z" />
<glyph unicode=";" horiz-adv-x="615" d="M-100 -344l184 617h370l-262 -617h-292zM158 816q0 86 61 147t147 61t147 -61t61 -147t-61 -147t-147 -61t-147 61t-61 147z" />
<glyph unicode="&#x3c;" d="M121 408l76 359l1197 410l-88 -410l-704 -189l-2 -11l624 -188l-80 -380z" />
<glyph unicode="=" d="M67 153l69 328h1110l-69 -328h-1110zM182 695l69 328h1110l-69 -328h-1110z" />
<glyph unicode="&#x3e;" d="M34 -1l88 410l704 189l2 11l-624 188l80 380l1023 -409l-76 -359z" />
<glyph unicode="?" horiz-adv-x="1166" d="M156 1023q17 189 165 311t372 122q237 0 379.5 -105.5t142.5 -278.5q0 -128 -69 -231.5t-209 -164.5q-118 -51 -163.5 -90t-59.5 -103l-6 -28h-362l6 47q18 140 69 213.5t166 123.5q127 55 173.5 100t46.5 104q0 48 -36 76.5t-95 28.5q-53 0 -94.5 -34.5t-53.5 -90.5 h-372zM219 160q0 83 62 141t151 58q87 0 149.5 -58t62.5 -141q0 -84 -62.5 -142t-149.5 -58q-89 0 -151 58t-62 142z" />
<glyph unicode="@" horiz-adv-x="1851" d="M102 535q0 191 72 360.5t196.5 290.5t298 191.5t369.5 70.5q167 0 307.5 -50.5t238.5 -141t153 -220t55 -282.5q0 -171 -62 -309t-171.5 -216.5t-245.5 -78.5q-118 0 -191.5 42.5t-73.5 113.5q0 6 0.5 17.5t0.5 15.5l-20 -6q-44 -77 -99 -111.5t-129 -34.5 q-130 0 -208.5 97t-78.5 257q0 130 51.5 239.5t141 173t194.5 63.5q88 0 148.5 -42.5t77.5 -115.5l20 -3l25 127h256l-111 -520q-5 -22 -5 -44q0 -34 17.5 -53.5t47.5 -19.5q48 0 91.5 56t69.5 149t26 196q0 228 -148 368t-389 140q-195 0 -356 -93.5t-253.5 -257 t-92.5 -360.5q0 -270 179 -426.5t488 -155.5q61 0 91 7l-41 -194q-56 -7 -117 -7q-246 0 -432.5 95t-288.5 269t-102 403zM805 548q0 -65 29.5 -103t79.5 -38q63 0 105.5 67t42.5 166q0 66 -26.5 102.5t-74.5 36.5q-64 0 -110 -68.5t-46 -162.5z" />
<glyph unicode="A" horiz-adv-x="1494" d="M-107 0l794 1443h532l148 -1443h-435l-13 287h-438l-141 -287h-447zM628 586h278l-22 503h-9z" />
<glyph unicode="B" horiz-adv-x="1387" d="M-9 0l307 1443h669q207 0 318 -86t111 -221q0 -143 -94 -245t-246 -130l-1 -8q118 -27 193 -105.5t75 -187.5q0 -201 -153 -330.5t-389 -129.5h-790zM467 291h206q105 0 166.5 53t61.5 143q0 64 -46 100.5t-132 36.5h-186zM593 887h180q90 0 145.5 48.5t55.5 123.5 q0 55 -40 88t-115 33h-164z" />
<glyph unicode="C" horiz-adv-x="1540" d="M98 580q0 406 229 647t614 241q262 0 431.5 -153t169.5 -389q0 -37 -5 -64h-411q1 6 1 40q0 95 -66.5 160t-163.5 65q-159 0 -260.5 -146t-101.5 -375q0 -133 62 -209.5t170 -76.5q105 0 184 62.5t111 169.5h411q-25 -171 -125 -302t-259 -203t-352 -72 q-290 0 -464.5 165t-174.5 440z" />
<glyph unicode="D" horiz-adv-x="1492" d="M-9 0l307 1443h600q256 0 414.5 -147.5t158.5 -403.5q0 -258 -94 -460.5t-268 -317t-399 -114.5h-719zM491 336h158q172 0 279 135t107 367q0 122 -63.5 196t-174.5 74h-143z" />
<glyph unicode="E" horiz-adv-x="1208" d="M-9 0l307 1443h1017l-72 -336h-593l-49 -234h556l-65 -304h-556l-50 -233h594l-71 -336h-1018z" />
<glyph unicode="F" horiz-adv-x="1169" d="M-9 0l307 1443h1013l-72 -336h-571l-59 -278h516l-69 -318h-515l-108 -511h-442z" />
<glyph unicode="G" horiz-adv-x="1539" d="M99 596q0 188 60.5 350t167 277t259 180t329.5 65q135 0 253.5 -40t199 -106.5t127 -154t46.5 -181.5q0 -16 -2 -32h-406q-6 78 -69.5 129t-160.5 51q-107 0 -192.5 -67.5t-133 -186.5t-47.5 -266q0 -143 68.5 -224t195.5 -81q96 0 169 56.5t95 142.5h-233l60 282h632 l-26 -154q-54 -321 -247 -491t-500 -170q-290 0 -467.5 170t-177.5 451z" />
<glyph unicode="H" horiz-adv-x="1572" d="M-9 0l307 1443h434l-118 -551h488l118 551h434l-307 -1443h-434l120 562h-488l-120 -562h-434z" />
<glyph unicode="I" horiz-adv-x="640" d="M-9 0l307 1443h424l-307 -1443h-424z" />
<glyph unicode="J" horiz-adv-x="1260" d="M11 434q0 40 3 71h404v-21q0 -69 36 -109t101 -40q125 0 160 160l202 948h424l-212 -996q-49 -231 -196 -351.5t-381 -120.5q-247 0 -394 125t-147 334z" />
<glyph unicode="K" horiz-adv-x="1457" d="M-9 0l307 1443h424l-126 -590h8l561 590h480l-644 -675l322 -768h-464l-212 530l-154 -162l-78 -368h-424z" />
<glyph unicode="L" horiz-adv-x="1154" d="M-9 0l307 1443h424l-233 -1097h587l-74 -346h-1011z" />
<glyph unicode="M" horiz-adv-x="1850" d="M-8 0l306 1443h491l119 -905h8l487 905h529l-307 -1443h-375l195 908h-12l-502 -908h-244l-120 908h-8l-193 -908h-374z" />
<glyph unicode="N" horiz-adv-x="1509" d="M-9 0l307 1443h320l393 -792h8l167 792h405l-307 -1443h-320l-393 792h-8l-167 -792h-405z" />
<glyph unicode="O" horiz-adv-x="1586" d="M99 589q0 194 62.5 359.5t170.5 279t254.5 177t311.5 63.5q155 0 281 -47t209 -129.5t127.5 -194.5t44.5 -243q0 -195 -63.5 -361t-172 -278.5t-255.5 -176t-312 -63.5q-151 0 -276 46.5t-208 129t-128.5 195t-45.5 243.5zM529 615q0 -137 65.5 -219.5t175.5 -82.5 q146 0 253 151.5t107 364.5q0 138 -66 219.5t-176 81.5q-96 0 -178.5 -69t-131.5 -188t-49 -258z" />
<glyph unicode="P" horiz-adv-x="1357" d="M-7 0l305 1443h547q252 0 392 -122t140 -327q0 -276 -181 -438t-491 -162h-205l-84 -394h-423zM565 708h143q109 0 176.5 70.5t67.5 177.5q0 167 -187 167h-111z" />
<glyph unicode="Q" horiz-adv-x="1586" d="M99 589q0 194 62.5 359.5t170.5 279t254.5 177t311.5 63.5q155 0 281 -47t209 -129.5t127.5 -194.5t44.5 -243q0 -220 -80 -399.5t-231 -308.5l111 -269h-378l-47 118q-88 -20 -178 -20q-151 0 -276 46.5t-208 129t-128.5 195t-45.5 243.5zM529 615q0 -137 65.5 -219.5 t175.5 -82.5q12 0 40 4l-86 215h341q65 132 65 297q0 138 -66 219.5t-176 81.5q-96 0 -178.5 -69t-131.5 -188t-49 -258z" />
<glyph unicode="R" horiz-adv-x="1394" d="M-9 0l307 1443h649q223 0 350 -120.5t127 -310.5q0 -158 -89 -291.5t-250 -196.5l160 -524h-442l-136 484h-149l-103 -484h-424zM579 774h189q105 0 168 56.5t63 146.5q0 153 -181 153h-162z" />
<glyph unicode="S" horiz-adv-x="1384" d="M35 425h401q9 -59 73 -97.5t153 -38.5q92 0 146 33.5t54 87.5q0 42 -32.5 69t-130.5 57l-151 46q-369 112 -369 400q0 218 169.5 352t434.5 134q280 0 440 -121t161 -335h-387q-2 65 -58 104t-146 39q-82 0 -132.5 -33t-50.5 -85q0 -45 35.5 -76t120.5 -56l158 -46 q197 -57 284 -147t87 -244q0 -226 -176.5 -359.5t-464.5 -133.5q-292 0 -455 118.5t-164 331.5z" />
<glyph unicode="T" horiz-adv-x="1306" d="M158 1107l72 336h1226l-72 -336h-401l-235 -1107h-424l235 1107h-401z" />
<glyph unicode="U" horiz-adv-x="1501" d="M103 463q0 62 13 123l182 857h424l-181 -853q-9 -42 -9 -77q0 -84 58.5 -132.5t145.5 -48.5q186 0 232 214l189 897h424l-209 -991q-47 -222 -225 -349.5t-429 -127.5q-283 0 -449 134.5t-166 353.5z" />
<glyph unicode="V" horiz-adv-x="1445" d="M200 1443h473l19 -1016h8l444 1016h481l-745 -1443h-532z" />
<glyph unicode="W" horiz-adv-x="2014" d="M206 1443h436l-24 -899h8l406 899h328l34 -899h8l350 899h436l-678 -1443h-396l-46 821h-8l-387 -821h-401z" />
<glyph unicode="X" horiz-adv-x="1476" d="M-91 0l609 727l-304 716h454l169 -413h8l307 413h490l-614 -724l306 -719h-453l-173 420h-8l-313 -420h-478z" />
<glyph unicode="Y" horiz-adv-x="1430" d="M200 1443h439l133 -585h8l371 585h459l-702 -986l-97 -457h-424l97 457z" />
<glyph unicode="Z" horiz-adv-x="1281" d="M-45 0l57 266l772 833v8h-589l72 336h1108l-57 -265l-773 -834v-8h618l-71 -336h-1137z" />
<glyph unicode="[" horiz-adv-x="810" d="M-44 -313l374 1756h659l-63 -294h-266l-249 -1168h266l-62 -294h-659z" />
<glyph unicode="\" horiz-adv-x="810" d="M190 1443h385l51 -1756h-385z" />
<glyph unicode="]" horiz-adv-x="810" d="M-173 -313l63 294h266l249 1168h-266l62 294h659l-374 -1756h-659z" />
<glyph unicode="^" horiz-adv-x="1020" d="M84 691l443 701h329l140 -701h-274l-69 429h-18l-262 -429h-289z" />
<glyph unicode="_" horiz-adv-x="1024" d="M-262 -448l74 348h1124l-74 -348h-1124z" />
<glyph unicode="`" horiz-adv-x="1024" d="M500 1572h325l64 -327h-264z" />
<glyph unicode="a" horiz-adv-x="1182" d="M-3 283q0 172 135.5 273.5t371.5 106.5l241 5l13 64q4 23 4 31q0 38 -37 61.5t-97 23.5q-56 0 -95 -22.5t-54 -65.5h-357q33 172 177 272t357 100q220 0 356 -93t136 -244q0 -49 -9 -89l-150 -706h-385l28 130h-8q-41 -67 -122.5 -106.5t-183.5 -39.5q-138 0 -229.5 85 t-91.5 214zM378 342q0 -40 34.5 -65t90.5 -25q65 0 117 37.5t64 93.5l15 71l-171 -4q-68 -2 -109 -31.5t-41 -76.5z" />
<glyph unicode="b" horiz-adv-x="1324" d="M-27 0l308 1443h397l-108 -496h10q51 82 138.5 127.5t194.5 45.5q170 0 268 -112t98 -306q0 -202 -70 -366.5t-193.5 -258t-274.5 -93.5q-121 0 -210.5 57.5t-121.5 155.5h-8l-42 -197h-386zM478 481q0 -84 42 -134.5t112 -50.5q98 0 167.5 99t69.5 240q0 84 -42 134.5 t-112 50.5q-95 0 -166 -101.5t-71 -237.5z" />
<glyph unicode="c" horiz-adv-x="1200" d="M53 446q0 318 168 502t458 184q214 0 355.5 -117t141.5 -294q0 -48 -1 -54h-378q0 69 -37 109.5t-101 40.5q-94 0 -152.5 -98.5t-58.5 -255.5q0 -80 38 -128t101 -48q64 0 108.5 40.5t60.5 113.5h378q-25 -210 -180.5 -339.5t-384.5 -129.5q-235 0 -375.5 129t-140.5 345 z" />
<glyph unicode="d" horiz-adv-x="1323" d="M45 403q0 203 71.5 367t198 257t282.5 93q120 0 201.5 -50.5t109.5 -142.5h8l110 516h397l-308 -1443h-386l33 155h-8q-120 -171 -342 -171q-170 0 -268.5 112.5t-98.5 306.5zM455 471q0 -83 42.5 -134.5t111.5 -51.5q95 0 166 101.5t71 237.5q0 83 -42 134t-111 51 q-99 0 -168.5 -98.5t-69.5 -239.5z" />
<glyph unicode="e" horiz-adv-x="1234" d="M55 478q0 188 77.5 336.5t220.5 233t328 84.5q223 0 362.5 -130.5t139.5 -345.5q0 -110 -20 -190h-752q-3 -16 -3 -32q0 -79 51 -130.5t138 -51.5q65 0 112 30t61 78h368q-43 -176 -193 -281.5t-368 -105.5q-239 0 -380.5 134.5t-141.5 370.5zM447 682h374q3 7 3 32 q0 63 -45 103.5t-116 40.5q-77 0 -136.5 -48.5t-79.5 -127.5z" />
<glyph unicode="f" horiz-adv-x="828" d="M60 0l171 797h-167l62 289h162l29 139q31 146 135 213t287 67q139 0 237 -31l-55 -247q-37 13 -112 13q-46 0 -75.5 -20t-37.5 -55l-17 -79h212l-62 -289h-202l-170 -797h-397z" />
<glyph unicode="g" horiz-adv-x="1309" d="M-60 -55h383q9 -50 58 -78t128 -28q171 0 201 144l41 189h-20q-48 -71 -130 -109t-188 -38q-164 0 -265 110t-101 289q0 188 73.5 348.5t199.5 254t274 93.5q113 0 195 -54t110 -146h18l42 184h386l-243 -1143q-38 -179 -200 -278.5t-415 -99.5q-257 0 -401 95.5 t-146 266.5zM451 471q0 -83 42 -134t112 -51q95 0 166 101t71 237q0 84 -42 134.5t-112 50.5q-98 0 -167.5 -99t-69.5 -239z" />
<glyph unicode="h" horiz-adv-x="1302" d="M-27 0l307 1443h394l-109 -506h8q62 91 154 140t205 49q151 0 243.5 -84.5t92.5 -221.5q0 -63 -15 -135l-144 -685h-393l131 624q7 36 7 68q0 57 -42.5 94.5t-107.5 37.5q-71 0 -127 -49t-72 -127l-137 -648h-395z" />
<glyph unicode="i" horiz-adv-x="695" d="M42 0l235 1104h397l-235 -1104h-397zM344 1401q0 78 57 134.5t138 56.5t138 -56.5t57 -134.5t-57 -134.5t-138 -56.5t-138 56.5t-57 134.5z" />
<glyph unicode="j" horiz-adv-x="560" d="M-289 -387l61 277q28 -7 71 -7q48 0 78 23t38 64l241 1134h396l-250 -1173q-33 -155 -157.5 -245t-303.5 -90q-97 0 -174 17zM266 1401q0 78 57 134.5t138 56.5t138 -56.5t57 -134.5t-57 -134.5t-138 -56.5t-138 56.5t-57 134.5z" />
<glyph unicode="k" horiz-adv-x="1243" d="M-27 0l308 1443h395l-154 -725h8l353 386h452l-490 -486l291 -618h-428l-181 404l-92 -92l-66 -312h-396z" />
<glyph unicode="l" horiz-adv-x="576" d="M-27 0l307 1443h396l-307 -1443h-396z" />
<glyph unicode="m" horiz-adv-x="1886" d="M-35 0l235 1104h383l-38 -175h8q53 95 143.5 149t194.5 54q101 0 175 -52.5t102 -143.5h8q64 93 159 144.5t211 51.5q134 0 220 -87.5t86 -223.5q0 -63 -15 -135l-144 -686h-394l132 631q7 35 7 67q0 58 -32 92t-86 34q-61 0 -105 -44.5t-60 -123.5l-137 -656h-376 l132 631q7 35 7 67q0 58 -32 92t-86 34q-61 0 -104.5 -44.5t-60.5 -124.5l-139 -655h-394z" />
<glyph unicode="n" horiz-adv-x="1286" d="M-35 0l235 1104h383l-36 -167h8q58 93 155.5 144t209.5 51q150 0 241 -85.5t91 -226.5q0 -62 -15 -135l-144 -685h-393l131 624q7 38 7 68q0 58 -41.5 95t-105.5 37q-70 0 -124 -48.5t-70 -127.5l-138 -648h-394z" />
<glyph unicode="o" horiz-adv-x="1299" d="M53 473q0 190 84 340.5t234.5 234.5t341.5 84q239 0 386.5 -138.5t147.5 -362.5q0 -190 -84 -340.5t-234.5 -234.5t-341.5 -84q-239 0 -386.5 138.5t-147.5 362.5zM455 481q0 -92 41.5 -149t108.5 -57q100 0 168.5 100.5t68.5 247.5q0 93 -41 149.5t-108 56.5 q-103 0 -170.5 -99t-67.5 -249z" />
<glyph unicode="p" horiz-adv-x="1315" d="M-110 -353l310 1457h386l-33 -154h8q126 170 343 170q170 0 268 -112t98 -306q0 -204 -70.5 -368t-196 -257t-281.5 -93q-117 0 -197.5 55t-113.5 158h-7l-118 -550h-396zM469 481q0 -84 42 -134.5t112 -50.5q98 0 167.5 99t69.5 240q0 83 -42 134t-112 51 q-95 0 -166 -101.5t-71 -237.5z" />
<glyph unicode="q" horiz-adv-x="1323" d="M46 403q0 203 71.5 367.5t198 257t282.5 92.5q116 0 202.5 -51t126.5 -142h8l37 177h387l-310 -1457h-397l109 508h-6q-127 -171 -342 -171q-170 0 -268.5 112.5t-98.5 306.5zM456 471q0 -83 42.5 -134.5t111.5 -51.5q95 0 166 101.5t71 237.5q0 83 -42 134t-111 51 q-99 0 -168.5 -98.5t-69.5 -239.5z" />
<glyph unicode="r" horiz-adv-x="894" d="M-35 0l237 1104h387l-32 -160h8q39 80 109.5 128t157.5 48q88 0 152 -29l-75 -343q-87 41 -166 41q-100 0 -167.5 -56.5t-91.5 -168.5l-122 -564h-397z" />
<glyph unicode="s" horiz-adv-x="1157" d="M-1 358h374q3 -56 50 -90.5t122 -34.5q57 0 88.5 19t31.5 54q0 28 -28 48t-102 46l-100 34q-155 53 -229 132.5t-74 193.5q0 170 137.5 271t367.5 101q214 0 352 -103.5t144 -268.5h-354q-3 50 -43.5 81t-104.5 31q-57 0 -90.5 -21t-33.5 -57q0 -30 27.5 -49.5 t106.5 -46.5l124 -42q159 -54 225.5 -123.5t66.5 -180.5q0 -173 -142 -276.5t-380 -103.5q-241 0 -385 104t-151 282z" />
<glyph unicode="t" horiz-adv-x="873" d="M79 781l64 290h164l56 263h396l-56 -263h216l-62 -290h-215l-84 -393q-5 -17 -5 -44q0 -43 30 -61.5t98 -18.5q55 0 72 6l-60 -272q-53 -14 -162 -14q-186 0 -287 63t-101 185q0 62 12 122l89 427h-165z" />
<glyph unicode="u" horiz-adv-x="1287" d="M38 297q0 75 14 139l142 668h396l-129 -603q-5 -32 -5 -59q0 -70 39 -109t109 -39q71 0 120 47.5t67 132.5l134 630h398l-235 -1104h-385l38 180h-8q-50 -98 -142 -153t-207 -55q-158 0 -252 88t-94 237z" />
<glyph unicode="v" horiz-adv-x="1180" d="M126 1105h399l6 -767h8l329 767h422l-591 -1105h-464z" />
<glyph unicode="w" horiz-adv-x="1766" d="M134 1104h398l-42 -747h8l302 747h386l-12 -747h8l274 747h412l-508 -1104h-434l-3 713h-8l-299 -713h-438z" />
<glyph unicode="x" horiz-adv-x="1223" d="M-93 0l442 554l-201 550h426l88 -327h8l211 327h436l-442 -554l201 -550h-426l-88 327h-8l-211 -327h-436z" />
<glyph unicode="y" horiz-adv-x="1206" d="M-104 -405l64 305h106q172 0 172 97q0 18 -1 23l-111 1084h407l-1 -808h8l354 808h422l-568 -1086q-118 -226 -282 -324.5t-418 -98.5h-152z" />
<glyph unicode="z" horiz-adv-x="1105" d="M-59 0l44 208l596 584l2 8h-456l65 304h957l-52 -243l-549 -549l-1 -8h454l-65 -304h-995z" />
<glyph unicode="{" horiz-adv-x="810" d="M-24 391l73 347q108 0 163 44.5t80 159.5l22 99q50 224 169.5 313t359.5 89h147l-61 -284h-43q-86 0 -128.5 -41t-65.5 -148l-35 -159q-25 -111 -104 -168t-223 -69l-5 -20q229 -19 229 -194q0 -29 -9 -74l-27 -127q-12 -55 -12 -92q0 -57 29.5 -77t96.5 -20h43l-60 -283 h-147q-90 0 -158 18.5t-107.5 46.5t-64 68t-33 77.5t-8.5 79.5q0 51 15 121l20 90q12 53 12 87q0 56 -37 86t-131 30z" />
<glyph unicode="|" horiz-adv-x="810" d="M21 -313l374 1756h400l-374 -1756h-400z" />
<glyph unicode="}" horiz-adv-x="810" d="M-174 -313l61 284h43q86 0 128.5 41t65.5 148l35 159q25 111 104 168t223 69l5 20q-229 19 -229 194q0 29 9 74l27 127q12 55 12 92q0 57 -29.5 77t-96.5 20h-43l60 283h147q90 0 158 -18.5t107.5 -46.5t64 -68t33 -77.5t8.5 -79.5q0 -51 -15 -121l-20 -90 q-12 -53 -12 -87q0 -56 37 -86t131 -30l-73 -347q-108 0 -163 -44.5t-80 -159.5l-22 -99q-50 -224 -169.5 -313t-359.5 -89h-147z" />
<glyph unicode="~" d="M107 343q31 226 133 365t255 139q60 0 112 -19t88 -46t69 -54t70 -46t75 -19q95 0 123 168h291q-32 -231 -132.5 -367.5t-255.5 -136.5q-60 0 -112 19t-88 46t-69 54t-70 46t-75 19q-95 0 -123 -168h-291z" />
<glyph unicode="&#xa1;" horiz-adv-x="755" d="M-30 -340l243 972h348l-171 -972h-420zM250 943q0 84 62.5 142t149.5 58q89 0 151 -58t62 -142q0 -83 -62 -141t-151 -58q-87 0 -149.5 58t-62.5 141z" />
<glyph unicode="&#xa2;" d="M201 616q0 318 168 502t458 184h26l30 141h80l-32 -149q175 -28 284 -138.5t109 -264.5q0 -48 -1 -54h-378q0 107 -81 140l-111 -519q58 6 97.5 46t53.5 107h378q-25 -210 -180.5 -339.5t-384.5 -129.5q-21 0 -31 1l-30 -143h-80l32 150q-189 29 -298 153t-109 313z M596 633q0 -121 80 -163l110 516q-86 -12 -138 -108.5t-52 -244.5z" />
<glyph unicode="&#xa3;" d="M21 30l64 299q131 21 208 103t87 218h-243l38 180h202q-2 76 -2 102q0 110 41 203.5t120.5 166t208 113.5t292.5 41q105 0 204.5 -21t155.5 -45l-66 -296q-104 50 -268 50q-144 0 -218 -57.5t-74 -166.5q0 -22 2 -90h438l-38 -180h-397q-16 -183 -184 -280l-2 -12h638 l-70 -328h-1137z" />
<glyph unicode="&#xa4;" d="M62 281l195 161q-41 96 -41 200q0 143 74 264l-94 117l274 226l98 -122q78 25 158 25q157 0 286 -88l200 165l178 -226l-195 -161q41 -96 41 -200q0 -143 -74 -264l94 -117l-274 -226l-98 122q-78 -25 -158 -25q-157 0 -286 88l-200 -165zM521 642q0 -83 61 -145t144 -62 t144 62t61 145t-61 145t-144 62t-144 -62t-61 -145z" />
<glyph unicode="&#xa5;" d="M93 242l17 80h342l27 127l-8 29h-328l17 80h288l-241 836h426l122 -571h8l364 571h432l-594 -836h287l-17 -80h-327l-21 -29l-27 -127h342l-17 -80h-342l-50 -233h-408l50 233h-342z" />
<glyph unicode="&#xa6;" horiz-adv-x="810" d="M22 -313l147 697h400l-147 -697h-400zM246 746l149 697h400l-149 -697h-400z" />
<glyph unicode="&#xa7;" horiz-adv-x="1502" d="M109 57h371q2 -46 47.5 -77t109.5 -31q61 0 102 27.5t39 68.5q-2 61 -97 103l-220 99q-258 116 -264 300q-4 110 77 187t227 106l-1 19q-88 56 -126 110t-40 127q-6 161 143.5 263.5t388.5 102.5q230 0 377 -101t158 -274h-370q-2 52 -46.5 83t-111.5 31 q-61 0 -100.5 -27t-38.5 -67q1 -58 98 -104l207 -97q270 -127 276 -305q4 -107 -81 -187.5t-222 -101.5v-19q88 -57 125.5 -111t39.5 -125q5 -160 -143.5 -264t-384.5 -104q-150 0 -271 44.5t-193 128.5t-76 195zM585 613q1 -31 29.5 -61.5t78.5 -53.5l140 -68 q43 16 70.5 46.5t26.5 61.5q-2 30 -30 60.5t-77 54.5l-140 67q-43 -16 -70.5 -45.5t-27.5 -61.5z" />
<glyph unicode="&#xa8;" horiz-adv-x="1024" d="M281 1400q0 73 52 124.5t127 51.5t128.5 -52t53.5 -124t-53.5 -124t-128.5 -52t-127 51.5t-52 124.5zM744 1400q0 72 53 124t128 52t127.5 -52t52.5 -124t-52.5 -124t-127.5 -52t-128 52t-53 124z" />
<glyph unicode="&#xa9;" horiz-adv-x="1677" d="M81 664q0 158 64 304t170.5 252t253.5 169.5t306 63.5q163 0 307 -58.5t246.5 -160.5t161.5 -245t59 -305q0 -158 -64 -304t-170.5 -252t-253.5 -169.5t-306 -63.5q-163 0 -307 58.5t-246.5 160.5t-161.5 245t-59 305zM268 664q0 -255 167 -423.5t420 -168.5 q121 0 233 49.5t194 132t131 196t49 234.5q0 255 -167 423.5t-420 168.5q-121 0 -233 -49.5t-194 -132t-131 -196t-49 -234.5zM512 627q0 182 112.5 302.5t282.5 120.5q154 0 249 -93.5t77 -227.5h-242q4 59 -19 91t-69 32q-60 0 -102 -69.5t-42 -168.5q0 -122 95 -122 q33 0 55.5 16t41.5 53h251q-35 -129 -126.5 -198t-226.5 -69q-149 0 -243 92.5t-94 240.5z" />
<glyph unicode="&#xaa;" horiz-adv-x="771" d="M117 943q-1 107 87.5 171t241.5 67l150 1l8 39q2 11 2 17q-1 18 -24 29.5t-59 11.5q-72 0 -89 -43h-239q21 109 114.5 171t231.5 62q145 0 234.5 -58.5t90.5 -152.5q0 -32 -5 -54l-93 -436h-260l18 80h-6q-25 -41 -77 -65.5t-118 -24.5q-89 0 -148 53t-60 132zM374 984 q1 -21 22.5 -34t55.5 -13q39 0 69.5 19.5t36.5 47.5l8 38l-103 -1q-40 0 -65 -16t-24 -41z" />
<glyph unicode="&#xab;" horiz-adv-x="1428" d="M102 563l2 8l404 406h367l-433 -421l-1 -6l259 -394h-338zM636 563l2 8l404 406h367l-433 -421l-1 -6l259 -394h-338z" />
<glyph unicode="&#xac;" d="M136 414l74 348h1081l-158 -743h-360l84 395h-721z" />
<glyph unicode="&#xad;" horiz-adv-x="830" d="M63 422l74 348h650l-74 -348h-650z" />
<glyph unicode="&#xae;" horiz-adv-x="1194" d="M170 1075q0 113 41.5 213t112.5 171t171 112.5t213 41.5t213 -41.5t171 -112.5t112.5 -171t41.5 -213t-41.5 -213t-112.5 -171t-171 -112.5t-213 -41.5t-213 41.5t-171 112.5t-112.5 171t-41.5 213zM337 1075q0 -166 105 -273.5t266 -107.5t266 107.5t105 273.5 t-105 273.5t-266 107.5t-266 -107.5t-105 -273.5zM455 841l101 477h254q68 0 115 -45t47 -112q0 -54 -33.5 -97t-89.5 -61l71 -162h-167l-61 150h-54l-31 -150h-152zM662 1098h82q31 0 49.5 15t18.5 41q0 48 -56 48h-72z" />
<glyph unicode="&#xaf;" horiz-adv-x="1024" d="M315 1309l42 198h716l-41 -198h-717z" />
<glyph unicode="&#xb0;" horiz-adv-x="1020" d="M229 1046q0 164 110 272.5t277 108.5t277 -108.5t110 -272.5t-110.5 -273t-276.5 -109t-276.5 109t-110.5 273zM469 1046q0 -59 43 -103t104 -44t104 44t43 103q0 60 -43.5 103t-103.5 43t-103.5 -43t-43.5 -103z" />
<glyph unicode="&#xb1;" d="M53 19l69 325h1080l-69 -325h-1080zM188 652l62 295h360l45 210h360l-45 -210h360l-62 -295h-360l-45 -210h-360l45 210h-360z" />
<glyph unicode="&#xb2;" horiz-adv-x="770" d="M105 768l44 196l321 208q85 52 111 75.5t25 51.5q-1 19 -20.5 30.5t-48.5 11.5q-80 0 -95 -69h-255q5 122 111.5 203.5t260.5 81.5q141 0 232.5 -63.5t91.5 -165.5q1 -74 -44.5 -129t-179.5 -141l-131 -70l-1 -5h290l-46 -215h-666z" />
<glyph unicode="&#xb3;" horiz-adv-x="802" d="M140 989q0 19 7 57h260q-10 -23 12.5 -48.5t68.5 -25.5q38 0 62.5 15.5t22.5 36.5q-1 25 -24.5 39t-61.5 14h-83l40 187h91q49 0 73 9.5t23 28.5q-1 18 -24 29t-58 11q-70 0 -92 -47h-254q26 122 124.5 192t245.5 70q143 0 234 -61.5t91 -161.5q2 -67 -52.5 -116.5 t-141.5 -59.5l-1 -6q66 -15 104 -55.5t39 -97.5q1 -105 -99 -175t-256 -70q-159 0 -254 62.5t-97 172.5z" />
<glyph unicode="&#xb4;" horiz-adv-x="1024" d="M430 1245l203 327h325l-264 -327h-264z" />
<glyph unicode="&#xb5;" horiz-adv-x="1382" d="M-111 -353l310 1457h397l-123 -577q-9 -42 -9 -76q0 -72 37.5 -112t105.5 -40q73 0 123.5 50t69.5 141l131 614h398l-153 -716q-7 -41 -7 -51q0 -67 77 -67q32 0 59 10l-57 -267q-71 -23 -175 -23q-134 0 -204.5 53.5t-70.5 154.5v6h-9q-34 -100 -116.5 -162.5 t-180.5 -62.5q-78 0 -120 33h-8l-78 -365h-397z" />
<glyph unicode="&#xb6;" horiz-adv-x="1502" d="M208 974q0 200 159 334.5t426 134.5h302l-369 -1733h-300l191 896h-17q-174 0 -283 104.5t-109 263.5zM915 -290l369 1733h300l-369 -1733h-300z" />
<glyph unicode="&#xb7;" horiz-adv-x="618" d="M102 552q0 86 61 147t147 61t147 -61t61 -147t-61 -147t-147 -61t-147 61t-61 147z" />
<glyph unicode="&#xb8;" horiz-adv-x="1024" d="M121 -432l30 136q45 -13 89 -13q95 0 95 43q0 22 -25.5 34t-67.5 12h-34l26 123l105 126h171v-29l-86 -103q45 -12 80.5 -50.5t35.5 -105.5q0 -89 -71.5 -140.5t-202.5 -51.5q-78 0 -145 19z" />
<glyph unicode="&#xb9;" horiz-adv-x="652" d="M193 1184l50 238l226 121h286l-165 -775h-286l113 532h-5z" />
<glyph unicode="&#xba;" horiz-adv-x="845" d="M152 1061q-1 180 118.5 294t308.5 114q155 0 252.5 -86t98.5 -225q1 -181 -118 -294.5t-309 -113.5q-155 0 -252 86t-99 225zM423 1067q2 -50 27.5 -81.5t65.5 -31.5q61 0 102 57.5t39 140.5q-1 51 -26 82t-66 31q-63 0 -103.5 -56t-38.5 -142z" />
<glyph unicode="&#xbb;" horiz-adv-x="1428" d="M26 156l433 421l1 6l-259 394h338l260 -407l-2 -8l-404 -406h-367zM560 156l433 421l1 6l-259 394h338l260 -407l-2 -8l-404 -406h-367z" />
<glyph unicode="&#xbc;" horiz-adv-x="1904" d="M172 1084l50 238l226 121h286l-165 -775h-286l113 532h-5zM235 0l1158 1443h310l-1158 -1443h-310zM1007 92l51 250q118 163 363 433h404l-100 -465h91l-46 -218h-91l-19 -92h-269l19 92h-403zM1288 297h175l61 285h-6q-130 -140 -229 -279z" />
<glyph unicode="&#xbd;" horiz-adv-x="1949" d="M172 1084l50 238l226 121h286l-165 -775h-286l113 532h-5zM235 0l1158 1443h310l-1158 -1443h-310zM1121 0l44 196l321 208q85 52 111 75.5t25 51.5q-1 19 -20.5 30.5t-48.5 11.5q-80 0 -95 -69h-255q5 122 111.5 203.5t260.5 81.5q141 0 232.5 -63.5t91.5 -165.5 q1 -74 -44.5 -129t-179.5 -141l-131 -70l-1 -5h290l-46 -215h-666z" />
<glyph unicode="&#xbe;" horiz-adv-x="2054" d="M119 889q0 19 7 57h260q-10 -23 12.5 -48.5t68.5 -25.5q38 0 62.5 15.5t22.5 36.5q-1 25 -24.5 39t-61.5 14h-83l40 187h91q49 0 73 9.5t23 28.5q-1 18 -24 29t-58 11q-70 0 -92 -47h-254q26 122 124.5 192t245.5 70q143 0 234 -61.5t91 -161.5q2 -67 -52.5 -116.5 t-141.5 -59.5l-1 -6q66 -15 104 -55.5t39 -97.5q1 -105 -99 -175t-256 -70q-159 0 -254 62.5t-97 172.5zM385 0l1158 1443h310l-1158 -1443h-310zM1157 92l51 250q118 163 363 433h404l-100 -465h91l-46 -218h-91l-19 -92h-269l19 92h-403zM1438 297h175l61 285h-6 q-130 -140 -229 -279z" />
<glyph unicode="&#xbf;" horiz-adv-x="1166" d="M-48 31q0 128 69 231.5t209 164.5q118 51 163.5 90t59.5 103l6 28h362l-6 -47q-18 -140 -69 -213.5t-166 -123.5q-127 -55 -173.5 -100t-46.5 -104q0 -48 36 -76.5t95 -28.5q53 0 94.5 34.5t53.5 90.5h372q-17 -189 -165 -311t-372 -122q-237 0 -379.5 105.5 t-142.5 278.5zM523 943q0 84 62.5 142t149.5 58q89 0 151 -58t62 -142q0 -83 -62 -141t-151 -58q-87 0 -149.5 58t-62.5 141z" />
<glyph unicode="&#xc0;" horiz-adv-x="1494" d="M-107 0l794 1443h532l148 -1443h-435l-13 287h-438l-141 -287h-447zM628 586h278l-22 503h-9zM718 1876h324l62 -321h-264z" />
<glyph unicode="&#xc1;" horiz-adv-x="1494" d="M-107 0l794 1443h532l148 -1443h-435l-13 287h-438l-141 -287h-447zM628 586h278l-22 503h-9zM849 1555l199 321h324l-259 -321h-264z" />
<glyph unicode="&#xc2;" horiz-adv-x="1494" d="M-107 0l794 1443h532l148 -1443h-435l-13 287h-438l-141 -287h-447zM561 1536l327 336h314l183 -336h-276l-91 192h-8l-173 -192h-276zM628 586h278l-22 503h-9z" />
<glyph unicode="&#xc3;" horiz-adv-x="1494" d="M-107 0l794 1443h532l148 -1443h-435l-13 287h-438l-141 -287h-447zM590 1555q26 134 99 213.5t173 79.5q47 0 91.5 -20.5t72.5 -45t58.5 -45t52.5 -20.5q59 0 81 104h202q-26 -133 -99 -213t-172 -80q-46 0 -91 20.5t-73.5 45t-59.5 45t-52 20.5q-59 0 -81 -104h-202z M628 586h278l-22 503h-9z" />
<glyph unicode="&#xc4;" horiz-adv-x="1494" d="M-107 0l794 1443h532l148 -1443h-435l-13 287h-438l-141 -287h-447zM599 1715q0 73 52 124.5t127 51.5t128.5 -52t53.5 -124t-53.5 -124t-128.5 -52t-127 51.5t-52 124.5zM628 586h278l-22 503h-9zM1062 1715q0 72 53 124t128 52t127.5 -52t52.5 -124t-52.5 -124 t-127.5 -52t-128 52t-53 124z" />
<glyph unicode="&#xc5;" horiz-adv-x="1494" d="M-107 0l794 1443h532l148 -1443h-435l-13 287h-438l-141 -287h-447zM628 586h278l-22 503h-9zM783 1789q0 97 72.5 166.5t171.5 69.5t171 -69.5t72 -166.5t-72 -166t-171 -69t-171.5 69.5t-72.5 165.5zM939 1789q0 -34 26.5 -59t61.5 -25t61.5 25t26.5 59 q0 35 -26.5 60.5t-61.5 25.5t-61.5 -25.5t-26.5 -60.5z" />
<glyph unicode="&#xc6;" horiz-adv-x="2086" d="M-76 0l847 1443h1407l-72 -336h-643l-49 -234h606l-65 -304h-606l-50 -233h643l-71 -336h-1019l61 286h-403l-160 -286h-426zM677 586h300l115 543h-112z" />
<glyph unicode="&#xc7;" horiz-adv-x="1540" d="M98 580q0 406 229 647t614 241q262 0 431.5 -153t169.5 -389q0 -37 -5 -64h-411q1 6 1 40q0 95 -66.5 160t-163.5 65q-159 0 -260.5 -146t-101.5 -375q0 -133 62 -209.5t170 -76.5q105 0 184 62.5t111 169.5h411q-34 -234 -205.5 -388t-425.5 -183l-70 -84 q45 -12 80.5 -50.5t35.5 -105.5q0 -89 -71.5 -140.5t-202.5 -51.5q-78 0 -145 19l30 136q45 -13 89 -13q95 0 95 43q0 22 -25.5 34t-67.5 12h-34l26 123l64 77q-252 26 -400 187t-148 413z" />
<glyph unicode="&#xc8;" horiz-adv-x="1208" d="M-9 0l307 1443h1017l-72 -336h-593l-49 -234h556l-65 -304h-556l-50 -233h594l-71 -336h-1018zM545 1876h324l62 -321h-264z" />
<glyph unicode="&#xc9;" horiz-adv-x="1208" d="M-9 0l307 1443h1017l-72 -336h-593l-49 -234h556l-65 -304h-556l-50 -233h594l-71 -336h-1018zM676 1555l199 321h324l-259 -321h-264z" />
<glyph unicode="&#xca;" horiz-adv-x="1208" d="M-9 0l307 1443h1017l-72 -336h-593l-49 -234h556l-65 -304h-556l-50 -233h594l-71 -336h-1018zM388 1536l327 336h314l183 -336h-276l-91 192h-8l-173 -192h-276z" />
<glyph unicode="&#xcb;" horiz-adv-x="1208" d="M-9 0l307 1443h1017l-72 -336h-593l-49 -234h556l-65 -304h-556l-50 -233h594l-71 -336h-1018zM426 1715q0 73 52 124.5t127 51.5t128.5 -52t53.5 -124t-53.5 -124t-128.5 -52t-127 51.5t-52 124.5zM889 1715q0 72 53 124t128 52t127.5 -52t52.5 -124t-52.5 -124 t-127.5 -52t-128 52t-53 124z" />
<glyph unicode="&#xcc;" horiz-adv-x="640" d="M-9 0l307 1443h424l-307 -1443h-424zM275 1876h324l62 -321h-264z" />
<glyph unicode="&#xcd;" horiz-adv-x="640" d="M-9 0l307 1443h424l-307 -1443h-424zM406 1555l199 321h324l-259 -321h-264z" />
<glyph unicode="&#xce;" horiz-adv-x="640" d="M-9 0l307 1443h424l-307 -1443h-424zM118 1536l327 336h314l183 -336h-276l-91 192h-8l-173 -192h-276z" />
<glyph unicode="&#xcf;" horiz-adv-x="640" d="M-9 0l307 1443h424l-307 -1443h-424zM156 1715q0 73 52 124.5t127 51.5t128.5 -52t53.5 -124t-53.5 -124t-128.5 -52t-127 51.5t-52 124.5zM619 1715q0 72 53 124t128 52t127.5 -52t52.5 -124t-52.5 -124t-127.5 -52t-128 52t-53 124z" />
<glyph unicode="&#xd0;" horiz-adv-x="1492" d="M-9 0l124 581h-109l60 282h109l123 580h600q256 0 414.5 -147.5t158.5 -403.5q0 -258 -94 -460.5t-268 -317t-399 -114.5h-719zM491 336h158q172 0 279 135t107 367q0 122 -63.5 196t-174.5 74h-143l-52 -245h189l-60 -282h-188z" />
<glyph unicode="&#xd1;" horiz-adv-x="1509" d="M-9 0l307 1443h320l393 -792h8l167 792h405l-307 -1443h-320l-393 792h-8l-167 -792h-405zM536 1555q26 134 99 213.5t173 79.5q47 0 91.5 -20.5t72.5 -45t58.5 -45t52.5 -20.5q59 0 81 104h202q-26 -133 -99 -213t-172 -80q-46 0 -91 20.5t-73.5 45t-59.5 45t-52 20.5 q-59 0 -81 -104h-202z" />
<glyph unicode="&#xd2;" horiz-adv-x="1586" d="M99 589q0 194 62.5 359.5t170.5 279t254.5 177t311.5 63.5q155 0 281 -47t209 -129.5t127.5 -194.5t44.5 -243q0 -195 -63.5 -361t-172 -278.5t-255.5 -176t-312 -63.5q-151 0 -276 46.5t-208 129t-128.5 195t-45.5 243.5zM529 615q0 -137 65.5 -219.5t175.5 -82.5 q146 0 253 151.5t107 364.5q0 138 -66 219.5t-176 81.5q-96 0 -178.5 -69t-131.5 -188t-49 -258zM675 1876h324l62 -321h-264z" />
<glyph unicode="&#xd3;" horiz-adv-x="1586" d="M99 589q0 194 62.5 359.5t170.5 279t254.5 177t311.5 63.5q155 0 281 -47t209 -129.5t127.5 -194.5t44.5 -243q0 -195 -63.5 -361t-172 -278.5t-255.5 -176t-312 -63.5q-151 0 -276 46.5t-208 129t-128.5 195t-45.5 243.5zM529 615q0 -137 65.5 -219.5t175.5 -82.5 q146 0 253 151.5t107 364.5q0 138 -66 219.5t-176 81.5q-96 0 -178.5 -69t-131.5 -188t-49 -258zM806 1555l199 321h324l-259 -321h-264z" />
<glyph unicode="&#xd4;" horiz-adv-x="1586" d="M99 589q0 194 62.5 359.5t170.5 279t254.5 177t311.5 63.5q155 0 281 -47t209 -129.5t127.5 -194.5t44.5 -243q0 -195 -63.5 -361t-172 -278.5t-255.5 -176t-312 -63.5q-151 0 -276 46.5t-208 129t-128.5 195t-45.5 243.5zM518 1536l327 336h314l183 -336h-276l-91 192 h-8l-173 -192h-276zM529 615q0 -137 65.5 -219.5t175.5 -82.5q146 0 253 151.5t107 364.5q0 138 -66 219.5t-176 81.5q-96 0 -178.5 -69t-131.5 -188t-49 -258z" />
<glyph unicode="&#xd5;" horiz-adv-x="1586" d="M99 589q0 194 62.5 359.5t170.5 279t254.5 177t311.5 63.5q155 0 281 -47t209 -129.5t127.5 -194.5t44.5 -243q0 -195 -63.5 -361t-172 -278.5t-255.5 -176t-312 -63.5q-151 0 -276 46.5t-208 129t-128.5 195t-45.5 243.5zM529 615q0 -137 65.5 -219.5t175.5 -82.5 q146 0 253 151.5t107 364.5q0 138 -66 219.5t-176 81.5q-96 0 -178.5 -69t-131.5 -188t-49 -258zM547 1555q26 134 99 213.5t173 79.5q47 0 91.5 -20.5t72.5 -45t58.5 -45t52.5 -20.5q59 0 81 104h202q-26 -133 -99 -213t-172 -80q-46 0 -91 20.5t-73.5 45t-59.5 45 t-52 20.5q-59 0 -81 -104h-202z" />
<glyph unicode="&#xd6;" horiz-adv-x="1586" d="M99 589q0 194 62.5 359.5t170.5 279t254.5 177t311.5 63.5q155 0 281 -47t209 -129.5t127.5 -194.5t44.5 -243q0 -195 -63.5 -361t-172 -278.5t-255.5 -176t-312 -63.5q-151 0 -276 46.5t-208 129t-128.5 195t-45.5 243.5zM529 615q0 -137 65.5 -219.5t175.5 -82.5 q146 0 253 151.5t107 364.5q0 138 -66 219.5t-176 81.5q-96 0 -178.5 -69t-131.5 -188t-49 -258zM556 1715q0 73 52 124.5t127 51.5t128.5 -52t53.5 -124t-53.5 -124t-128.5 -52t-127 51.5t-52 124.5zM1019 1715q0 72 53 124t128 52t127.5 -52t52.5 -124t-52.5 -124 t-127.5 -52t-128 52t-53 124z" />
<glyph unicode="&#xd7;" d="M96 282l390 321l-238 316l268 221l239 -316l383 316l196 -246l-390 -321l239 -316l-268 -221l-239 316l-384 -316z" />
<glyph unicode="&#xd8;" horiz-adv-x="1586" d="M90 157l100 97q-91 147 -91 335q0 194 62.5 359.5t170.5 279t254.5 177t311.5 63.5q250 0 420 -119l99 96l153 -158l-100 -97q90 -146 90 -336q0 -195 -63.5 -361t-172 -278.5t-255.5 -176t-312 -63.5q-245 0 -416 120l-98 -96zM529 615q0 -21 1 -31l507 492 q-60 54 -149 54q-96 0 -178.5 -69t-131.5 -188t-49 -258zM622 367q60 -54 148 -54q146 0 253 151.5t107 364.5q0 20 -1 30z" />
<glyph unicode="&#xd9;" horiz-adv-x="1501" d="M103 463q0 62 13 123l182 857h424l-181 -853q-9 -42 -9 -77q0 -84 58.5 -132.5t145.5 -48.5q186 0 232 214l189 897h424l-209 -991q-47 -222 -225 -349.5t-429 -127.5q-283 0 -449 134.5t-166 353.5zM695 1876h324l62 -321h-264z" />
<glyph unicode="&#xda;" horiz-adv-x="1501" d="M103 463q0 62 13 123l182 857h424l-181 -853q-9 -42 -9 -77q0 -84 58.5 -132.5t145.5 -48.5q186 0 232 214l189 897h424l-209 -991q-47 -222 -225 -349.5t-429 -127.5q-283 0 -449 134.5t-166 353.5zM826 1555l199 321h324l-259 -321h-264z" />
<glyph unicode="&#xdb;" horiz-adv-x="1501" d="M103 463q0 62 13 123l182 857h424l-181 -853q-9 -42 -9 -77q0 -84 58.5 -132.5t145.5 -48.5q186 0 232 214l189 897h424l-209 -991q-47 -222 -225 -349.5t-429 -127.5q-283 0 -449 134.5t-166 353.5zM538 1536l327 336h314l183 -336h-276l-91 192h-8l-173 -192h-276z" />
<glyph unicode="&#xdc;" horiz-adv-x="1501" d="M103 463q0 62 13 123l182 857h424l-181 -853q-9 -42 -9 -77q0 -84 58.5 -132.5t145.5 -48.5q186 0 232 214l189 897h424l-209 -991q-47 -222 -225 -349.5t-429 -127.5q-283 0 -449 134.5t-166 353.5zM576 1715q0 73 52 124.5t127 51.5t128.5 -52t53.5 -124t-53.5 -124 t-128.5 -52t-127 51.5t-52 124.5zM1039 1715q0 72 53 124t128 52t127.5 -52t52.5 -124t-52.5 -124t-127.5 -52t-128 52t-53 124z" />
<glyph unicode="&#xdd;" horiz-adv-x="1430" d="M200 1443h439l133 -585h8l371 585h459l-702 -986l-97 -457h-424l97 457zM796 1555l199 321h324l-259 -321h-264z" />
<glyph unicode="&#xde;" horiz-adv-x="1418" d="M17 0l307 1443h426l-44 -204h209q204 0 338.5 -122.5t134.5 -308.5q0 -154 -77 -283.5t-217 -206.5t-314 -77h-289l-51 -241h-423zM557 558h179q104 0 168.5 56.5t64.5 148.5q0 76 -46.5 115.5t-136.5 39.5h-153z" />
<glyph unicode="&#xdf;" horiz-adv-x="1407" d="M-20 0l240 1101q37 167 193.5 267.5t381.5 100.5q251 0 407.5 -113.5t156.5 -295.5q0 -123 -77.5 -217.5t-195.5 -120.5l-4 -20q256 -67 256 -298q0 -195 -139 -307.5t-372 -112.5q-169 0 -296 45l67 301q65 -35 151 -35q83 0 131 37.5t48 102.5q0 120 -200 120h-79 l65 307h70q71 0 119 38.5t48 101.5q0 65 -45.5 105.5t-118.5 40.5q-74 0 -124.5 -49t-69.5 -141l-204 -958h-409z" />
<glyph unicode="&#xe0;" horiz-adv-x="1182" d="M-3 283q0 172 135.5 273.5t371.5 106.5l241 5l13 64q4 23 4 31q0 38 -37 61.5t-97 23.5q-56 0 -95 -22.5t-54 -65.5h-357q33 172 177 272t357 100q220 0 356 -93t136 -244q0 -49 -9 -89l-150 -706h-385l28 130h-8q-41 -67 -122.5 -106.5t-183.5 -39.5q-138 0 -229.5 85 t-91.5 214zM378 342q0 -40 34.5 -65t90.5 -25q65 0 117 37.5t64 93.5l15 71l-171 -4q-68 -2 -109 -31.5t-41 -76.5zM427 1572h325l64 -327h-264z" />
<glyph unicode="&#xe1;" horiz-adv-x="1182" d="M-3 283q0 172 135.5 273.5t371.5 106.5l241 5l13 64q4 23 4 31q0 38 -37 61.5t-97 23.5q-56 0 -95 -22.5t-54 -65.5h-357q33 172 177 272t357 100q220 0 356 -93t136 -244q0 -49 -9 -89l-150 -706h-385l28 130h-8q-41 -67 -122.5 -106.5t-183.5 -39.5q-138 0 -229.5 85 t-91.5 214zM378 342q0 -40 34.5 -65t90.5 -25q65 0 117 37.5t64 93.5l15 71l-171 -4q-68 -2 -109 -31.5t-41 -76.5zM550 1245l203 327h325l-264 -327h-264z" />
<glyph unicode="&#xe2;" horiz-adv-x="1182" d="M-3 283q0 172 135.5 273.5t371.5 106.5l241 5l13 64q4 23 4 31q0 38 -37 61.5t-97 23.5q-56 0 -95 -22.5t-54 -65.5h-357q33 172 177 272t357 100q220 0 356 -93t136 -244q0 -49 -9 -89l-150 -706h-385l28 130h-8q-41 -67 -122.5 -106.5t-183.5 -39.5q-138 0 -229.5 85 t-91.5 214zM310 1245l312 327h316l188 -327h-268l-91 171h-8l-163 -171h-286zM378 342q0 -40 34.5 -65t90.5 -25q65 0 117 37.5t64 93.5l15 71l-171 -4q-68 -2 -109 -31.5t-41 -76.5z" />
<glyph unicode="&#xe3;" horiz-adv-x="1182" d="M-3 283q0 172 135.5 273.5t371.5 106.5l241 5l13 64q4 23 4 31q0 38 -37 61.5t-97 23.5q-56 0 -95 -22.5t-54 -65.5h-357q33 172 177 272t357 100q220 0 356 -93t136 -244q0 -49 -9 -89l-150 -706h-385l28 130h-8q-41 -67 -122.5 -106.5t-183.5 -39.5q-138 0 -229.5 85 t-91.5 214zM295 1240q26 134 99 213.5t173 79.5q47 0 91.5 -20.5t72.5 -45t58.5 -45t52.5 -20.5q59 0 81 104h202q-26 -133 -99 -213t-172 -80q-46 0 -91 20.5t-73.5 45t-59.5 45t-52 20.5q-59 0 -81 -104h-202zM378 342q0 -40 34.5 -65t90.5 -25q65 0 117 37.5t64 93.5 l15 71l-171 -4q-68 -2 -109 -31.5t-41 -76.5z" />
<glyph unicode="&#xe4;" horiz-adv-x="1182" d="M-3 283q0 172 135.5 273.5t371.5 106.5l241 5l13 64q4 23 4 31q0 38 -37 61.5t-97 23.5q-56 0 -95 -22.5t-54 -65.5h-357q33 172 177 272t357 100q220 0 356 -93t136 -244q0 -49 -9 -89l-150 -706h-385l28 130h-8q-41 -67 -122.5 -106.5t-183.5 -39.5q-138 0 -229.5 85 t-91.5 214zM304 1400q0 73 52 124.5t127 51.5t128.5 -52t53.5 -124t-53.5 -124t-128.5 -52t-127 51.5t-52 124.5zM378 342q0 -40 34.5 -65t90.5 -25q65 0 117 37.5t64 93.5l15 71l-171 -4q-68 -2 -109 -31.5t-41 -76.5zM767 1400q0 72 53 124t128 52t127.5 -52t52.5 -124 t-52.5 -124t-127.5 -52t-128 52t-53 124z" />
<glyph unicode="&#xe5;" horiz-adv-x="1182" d="M-3 283q0 172 135.5 273.5t371.5 106.5l241 5l13 64q4 23 4 31q0 38 -37 61.5t-97 23.5q-56 0 -95 -22.5t-54 -65.5h-357q33 172 177 272t357 100q220 0 356 -93t136 -244q0 -49 -9 -89l-150 -706h-385l28 130h-8q-41 -67 -122.5 -106.5t-183.5 -39.5q-138 0 -229.5 85 t-91.5 214zM378 342q0 -40 34.5 -65t90.5 -25q65 0 117 37.5t64 93.5l15 71l-171 -4q-68 -2 -109 -31.5t-41 -76.5zM483 1450q0 97 72.5 166.5t171.5 69.5t171 -69.5t72 -166.5t-72 -166t-171 -69t-171.5 69.5t-72.5 165.5zM639 1450q0 -34 26.5 -59t61.5 -25t61.5 25 t26.5 59q0 35 -26.5 60.5t-61.5 25.5t-61.5 -25.5t-26.5 -60.5z" />
<glyph unicode="&#xe6;" horiz-adv-x="1881" d="M1 283q0 177 131.5 276t373.5 104l241 5l13 64q3 13 3 31q0 37 -36.5 61t-94.5 24q-120 0 -152 -88h-358q35 169 174.5 270.5t337.5 101.5q100 0 197.5 -37.5t144.5 -94.5h20q64 63 153 98t184 35q215 0 356.5 -135t141.5 -341q0 -98 -19 -191h-751v-12q0 -96 52.5 -152 t141.5 -56q64 0 106.5 29.5t57.5 84.5h367q-45 -179 -196.5 -283.5t-366.5 -104.5q-112 0 -222 51t-150 123h-19q-59 -78 -171 -126t-235 -48q-187 0 -306 87t-119 224zM382 334q0 -40 34.5 -64.5t90.5 -24.5q66 0 118 37t65 93l15 72l-173 -5q-68 -2 -109 -31t-41 -77z M1100 682h374q4 10 4 32q0 63 -45.5 103.5t-115.5 40.5q-78 0 -137.5 -48.5t-79.5 -127.5z" />
<glyph unicode="&#xe7;" horiz-adv-x="1200" d="M53 446q0 318 168 502t458 184q214 0 355.5 -117t141.5 -294q0 -48 -1 -54h-378q0 69 -37 109.5t-101 40.5q-94 0 -152.5 -98.5t-58.5 -255.5q0 -80 38 -128t101 -48q64 0 108.5 40.5t60.5 113.5h378q-22 -186 -148.5 -310.5t-318.5 -151.5l-68 -82q45 -12 80.5 -50.5 t35.5 -105.5q0 -89 -71.5 -140.5t-202.5 -51.5q-79 0 -145 19l30 136q46 -13 89 -13q95 0 95 43q0 22 -25.5 34t-67.5 12h-34l26 123l63 75q-194 26 -306.5 151t-112.5 317z" />
<glyph unicode="&#xe8;" horiz-adv-x="1234" d="M55 478q0 188 77.5 336.5t220.5 233t328 84.5q223 0 362.5 -130.5t139.5 -345.5q0 -110 -20 -190h-752q-3 -16 -3 -32q0 -79 51 -130.5t138 -51.5q65 0 112 30t61 78h368q-43 -176 -193 -281.5t-368 -105.5q-239 0 -380.5 134.5t-141.5 370.5zM447 682h374q3 7 3 32 q0 63 -45 103.5t-116 40.5q-77 0 -136.5 -48.5t-79.5 -127.5zM447 1572h325l64 -327h-264z" />
<glyph unicode="&#xe9;" horiz-adv-x="1234" d="M55 478q0 188 77.5 336.5t220.5 233t328 84.5q223 0 362.5 -130.5t139.5 -345.5q0 -110 -20 -190h-752q-3 -16 -3 -32q0 -79 51 -130.5t138 -51.5q65 0 112 30t61 78h368q-43 -176 -193 -281.5t-368 -105.5q-239 0 -380.5 134.5t-141.5 370.5zM447 682h374q3 7 3 32 q0 63 -45 103.5t-116 40.5q-77 0 -136.5 -48.5t-79.5 -127.5zM570 1245l203 327h325l-264 -327h-264z" />
<glyph unicode="&#xea;" horiz-adv-x="1234" d="M55 478q0 188 77.5 336.5t220.5 233t328 84.5q223 0 362.5 -130.5t139.5 -345.5q0 -110 -20 -190h-752q-3 -16 -3 -32q0 -79 51 -130.5t138 -51.5q65 0 112 30t61 78h368q-43 -176 -193 -281.5t-368 -105.5q-239 0 -380.5 134.5t-141.5 370.5zM330 1245l312 327h316 l188 -327h-268l-91 171h-8l-163 -171h-286zM447 682h374q3 7 3 32q0 63 -45 103.5t-116 40.5q-77 0 -136.5 -48.5t-79.5 -127.5z" />
<glyph unicode="&#xeb;" horiz-adv-x="1234" d="M55 478q0 188 77.5 336.5t220.5 233t328 84.5q223 0 362.5 -130.5t139.5 -345.5q0 -110 -20 -190h-752q-3 -16 -3 -32q0 -79 51 -130.5t138 -51.5q65 0 112 30t61 78h368q-43 -176 -193 -281.5t-368 -105.5q-239 0 -380.5 134.5t-141.5 370.5zM324 1400q0 73 52 124.5 t127 51.5t128.5 -52t53.5 -124t-53.5 -124t-128.5 -52t-127 51.5t-52 124.5zM447 682h374q3 7 3 32q0 63 -45 103.5t-116 40.5q-77 0 -136.5 -48.5t-79.5 -127.5zM787 1400q0 72 53 124t128 52t127.5 -52t52.5 -124t-52.5 -124t-127.5 -52t-128 52t-53 124z" />
<glyph unicode="&#xec;" horiz-adv-x="695" d="M42 0l235 1104h397l-235 -1104h-397zM250 1572h325l64 -327h-264z" />
<glyph unicode="&#xed;" horiz-adv-x="695" d="M42 0l235 1104h397l-235 -1104h-397zM373 1245l203 327h325l-264 -327h-264z" />
<glyph unicode="&#xee;" horiz-adv-x="695" d="M42 0l235 1104h397l-235 -1104h-397zM133 1245l312 327h316l188 -327h-268l-91 171h-8l-163 -171h-286z" />
<glyph unicode="&#xef;" horiz-adv-x="695" d="M42 0l235 1104h397l-235 -1104h-397zM127 1400q0 73 52 124.5t127 51.5t128.5 -52t53.5 -124t-53.5 -124t-128.5 -52t-127 51.5t-52 124.5zM590 1400q0 72 53 124t128 52t127.5 -52t52.5 -124t-52.5 -124t-127.5 -52t-128 52t-53 124z" />
<glyph unicode="&#xf0;" horiz-adv-x="1328" d="M52 486q0 144 71.5 267.5t195.5 195.5t271 72q113 0 193 -46t120 -116h17q-28 200 -121 322l-341 -107l36 164l181 57q-65 42 -144 68l44 202q234 -49 401 -175l251 79l-36 -164l-93 -29q190 -218 190 -518q0 -143 -44 -288q-68 -221 -227 -353.5t-392 -132.5 q-252 0 -412.5 141t-160.5 361zM457 462q0 -80 45 -128.5t119 -48.5q90 0 159 91t69 209q0 81 -45 129.5t-119 48.5q-88 0 -158 -92.5t-70 -208.5z" />
<glyph unicode="&#xf1;" horiz-adv-x="1286" d="M-35 0l235 1104h383l-36 -167h8q58 93 155.5 144t209.5 51q150 0 241 -85.5t91 -226.5q0 -62 -15 -135l-144 -685h-393l131 624q7 38 7 68q0 58 -41.5 95t-105.5 37q-70 0 -124 -48.5t-70 -127.5l-138 -648h-394zM330 1240q26 134 99 213.5t173 79.5q47 0 91.5 -20.5 t72.5 -45t58.5 -45t52.5 -20.5q59 0 81 104h202q-26 -133 -99 -213t-172 -80q-46 0 -91 20.5t-73.5 45t-59.5 45t-52 20.5q-59 0 -81 -104h-202z" />
<glyph unicode="&#xf2;" horiz-adv-x="1299" d="M53 473q0 190 84 340.5t234.5 234.5t341.5 84q239 0 386.5 -138.5t147.5 -362.5q0 -190 -84 -340.5t-234.5 -234.5t-341.5 -84q-239 0 -386.5 138.5t-147.5 362.5zM455 481q0 -92 41.5 -149t108.5 -57q100 0 168.5 100.5t68.5 247.5q0 93 -41 149.5t-108 56.5 q-103 0 -170.5 -99t-67.5 -249zM479 1572h325l64 -327h-264z" />
<glyph unicode="&#xf3;" horiz-adv-x="1299" d="M53 473q0 190 84 340.5t234.5 234.5t341.5 84q239 0 386.5 -138.5t147.5 -362.5q0 -190 -84 -340.5t-234.5 -234.5t-341.5 -84q-239 0 -386.5 138.5t-147.5 362.5zM455 481q0 -92 41.5 -149t108.5 -57q100 0 168.5 100.5t68.5 247.5q0 93 -41 149.5t-108 56.5 q-103 0 -170.5 -99t-67.5 -249zM602 1245l203 327h325l-264 -327h-264z" />
<glyph unicode="&#xf4;" horiz-adv-x="1299" d="M53 473q0 190 84 340.5t234.5 234.5t341.5 84q239 0 386.5 -138.5t147.5 -362.5q0 -190 -84 -340.5t-234.5 -234.5t-341.5 -84q-239 0 -386.5 138.5t-147.5 362.5zM362 1245l312 327h316l188 -327h-268l-91 171h-8l-163 -171h-286zM455 481q0 -92 41.5 -149t108.5 -57 q100 0 168.5 100.5t68.5 247.5q0 93 -41 149.5t-108 56.5q-103 0 -170.5 -99t-67.5 -249z" />
<glyph unicode="&#xf5;" horiz-adv-x="1299" d="M53 473q0 190 84 340.5t234.5 234.5t341.5 84q239 0 386.5 -138.5t147.5 -362.5q0 -190 -84 -340.5t-234.5 -234.5t-341.5 -84q-239 0 -386.5 138.5t-147.5 362.5zM347 1240q26 134 99 213.5t173 79.5q47 0 91.5 -20.5t72.5 -45t58.5 -45t52.5 -20.5q59 0 81 104h202 q-26 -133 -99 -213t-172 -80q-46 0 -91 20.5t-73.5 45t-59.5 45t-52 20.5q-59 0 -81 -104h-202zM455 481q0 -92 41.5 -149t108.5 -57q100 0 168.5 100.5t68.5 247.5q0 93 -41 149.5t-108 56.5q-103 0 -170.5 -99t-67.5 -249z" />
<glyph unicode="&#xf6;" horiz-adv-x="1299" d="M53 473q0 190 84 340.5t234.5 234.5t341.5 84q239 0 386.5 -138.5t147.5 -362.5q0 -190 -84 -340.5t-234.5 -234.5t-341.5 -84q-239 0 -386.5 138.5t-147.5 362.5zM356 1400q0 73 52 124.5t127 51.5t128.5 -52t53.5 -124t-53.5 -124t-128.5 -52t-127 51.5t-52 124.5z M455 481q0 -92 41.5 -149t108.5 -57q100 0 168.5 100.5t68.5 247.5q0 93 -41 149.5t-108 56.5q-103 0 -170.5 -99t-67.5 -249zM819 1400q0 72 53 124t128 52t127.5 -52t52.5 -124t-52.5 -124t-127.5 -52t-128 52t-53 124z" />
<glyph unicode="&#xf7;" d="M126 434l66 308h1110l-66 -308h-1110zM436 167q0 79 56 135.5t136 56.5t136 -56.5t56 -135.5t-56 -135.5t-136 -56.5t-136 56.5t-56 135.5zM609 1009q0 79 56.5 135.5t135.5 56.5t135.5 -56.5t56.5 -135.5t-56.5 -135.5t-135.5 -56.5t-135.5 56.5t-56.5 135.5z" />
<glyph unicode="&#xf8;" horiz-adv-x="1299" d="M42 77l100 100q-89 126 -89 296q0 190 84 340.5t234.5 234.5t341.5 84q175 0 306 -78l106 106l133 -133l-100 -100q89 -126 89 -296q0 -190 -84 -340.5t-234.5 -234.5t-341.5 -84q-175 0 -306 78l-106 -106zM439 474l347 347q-37 32 -89 32q-112 0 -185 -107.5 t-73 -271.5zM513 282q37 -31 88 -31q109 0 182.5 108t74.5 268z" />
<glyph unicode="&#xf9;" horiz-adv-x="1287" d="M38 297q0 75 14 139l142 668h396l-129 -603q-5 -32 -5 -59q0 -70 39 -109t109 -39q71 0 120 47.5t67 132.5l134 630h398l-235 -1104h-385l38 180h-8q-50 -98 -142 -153t-207 -55q-158 0 -252 88t-94 237zM532 1572h325l64 -327h-264z" />
<glyph unicode="&#xfa;" horiz-adv-x="1287" d="M38 297q0 75 14 139l142 668h396l-129 -603q-5 -32 -5 -59q0 -70 39 -109t109 -39q71 0 120 47.5t67 132.5l134 630h398l-235 -1104h-385l38 180h-8q-50 -98 -142 -153t-207 -55q-158 0 -252 88t-94 237zM655 1245l203 327h325l-264 -327h-264z" />
<glyph unicode="&#xfb;" horiz-adv-x="1287" d="M38 297q0 75 14 139l142 668h396l-129 -603q-5 -32 -5 -59q0 -70 39 -109t109 -39q71 0 120 47.5t67 132.5l134 630h398l-235 -1104h-385l38 180h-8q-50 -98 -142 -153t-207 -55q-158 0 -252 88t-94 237zM415 1245l312 327h316l188 -327h-268l-91 171h-8l-163 -171h-286z " />
<glyph unicode="&#xfc;" horiz-adv-x="1287" d="M38 297q0 75 14 139l142 668h396l-129 -603q-5 -32 -5 -59q0 -70 39 -109t109 -39q71 0 120 47.5t67 132.5l134 630h398l-235 -1104h-385l38 180h-8q-50 -98 -142 -153t-207 -55q-158 0 -252 88t-94 237zM409 1400q0 73 52 124.5t127 51.5t128.5 -52t53.5 -124 t-53.5 -124t-128.5 -52t-127 51.5t-52 124.5zM872 1400q0 72 53 124t128 52t127.5 -52t52.5 -124t-52.5 -124t-127.5 -52t-128 52t-53 124z" />
<glyph unicode="&#xfd;" horiz-adv-x="1206" d="M-104 -405l64 305h106q172 0 172 97q0 18 -1 23l-111 1084h407l-1 -808h8l354 808h422l-568 -1086q-118 -226 -282 -324.5t-418 -98.5h-152zM611 1246l203 327h325l-264 -327h-264z" />
<glyph unicode="&#xfe;" horiz-adv-x="1315" d="M-102 -325l376 1768h396l-105 -495h19q56 83 139.5 127.5t182.5 44.5q168 0 267 -113t99 -305q0 -204 -71 -368t-196.5 -257t-280.5 -93q-113 0 -192.5 56.5t-106.5 156.5h-19l-112 -522h-396zM471 481q0 -84 42 -134.5t112 -50.5q98 0 168 99.5t70 239.5q0 83 -42 134 t-112 51q-95 0 -166.5 -101.5t-71.5 -237.5z" />
<glyph unicode="&#xff;" horiz-adv-x="1206" d="M-104 -405l64 305h106q172 0 172 97q0 18 -1 23l-111 1084h407l-1 -808h8l354 808h422l-568 -1086q-118 -226 -282 -324.5t-418 -98.5h-152zM365 1401q0 73 52 124.5t127 51.5t128.5 -52t53.5 -124t-53.5 -124t-128.5 -52t-127 51.5t-52 124.5zM828 1401q0 72 53 124 t128 52t127.5 -52t52.5 -124t-52.5 -124t-127.5 -52t-128 52t-53 124z" />
<glyph unicode="&#x152;" horiz-adv-x="2233" d="M109 592q0 249 103.5 449.5t287 313.5t411.5 113q149 0 260.5 -66.5t175.5 -192.5h8l51 234h906l-72 -336h-593l-49 -234h556l-65 -304h-556l-50 -233h594l-71 -336h-907l36 180h-8q-66 -94 -187.5 -149.5t-262.5 -55.5q-253 0 -410.5 171t-157.5 446zM539 615 q0 -137 65.5 -219.5t175.5 -82.5q97 0 180 69.5t131.5 188.5t48.5 258q0 137 -66 219t-176 82q-96 0 -179 -69.5t-131.5 -188.5t-48.5 -257z" />
<glyph unicode="&#x153;" horiz-adv-x="1999" d="M51 473q0 185 85.5 336t235.5 237t334 86q108 0 202 -41t155 -114h20q63 69 158 112.5t200 43.5q224 0 367 -133t143 -343q0 -75 -21 -191h-749v-12q0 -96 52 -152t139 -56q136 0 167 114h366q-44 -179 -195.5 -283t-367.5 -104q-102 0 -212.5 47.5t-147.5 108.5h-19 q-135 -156 -378 -156t-388.5 136t-145.5 364zM461 472q0 -97 35.5 -149.5t100.5 -52.5q95 0 164 107t69 253q0 98 -35 152t-98 54q-95 0 -165.5 -109t-70.5 -255zM1218 682h374q3 15 3 32q0 63 -45 103.5t-116 40.5q-77 0 -136.5 -48.5t-79.5 -127.5z" />
<glyph unicode="&#x178;" horiz-adv-x="1430" d="M200 1443h439l133 -585h8l371 585h459l-702 -986l-97 -457h-424l97 457zM546 1715q0 73 52 124.5t127 51.5t128.5 -52t53.5 -124t-53.5 -124t-128.5 -52t-127 51.5t-52 124.5zM1009 1715q0 72 53 124t128 52t127.5 -52t52.5 -124t-52.5 -124t-127.5 -52t-128 52t-53 124z " />
<glyph unicode="&#x2c6;" horiz-adv-x="1024" d="M252 1245l312 327h316l188 -327h-268l-91 171h-8l-163 -171h-286z" />
<glyph unicode="&#x2dc;" horiz-adv-x="1024" d="M272 1242q26 134 99 213.5t173 79.5q47 0 91.5 -20.5t72.5 -45t58.5 -45t52.5 -20.5q59 0 81 104h202q-26 -133 -99 -213t-172 -80q-46 0 -91 20.5t-73.5 45t-59.5 45t-52 20.5q-59 0 -81 -104h-202z" />
<glyph unicode="&#x2000;" horiz-adv-x="1012" />
<glyph unicode="&#x2001;" horiz-adv-x="2025" />
<glyph unicode="&#x2002;" horiz-adv-x="1012" />
<glyph unicode="&#x2003;" horiz-adv-x="2025" />
<glyph unicode="&#x2004;" horiz-adv-x="675" />
<glyph unicode="&#x2005;" horiz-adv-x="506" />
<glyph unicode="&#x2006;" horiz-adv-x="337" />
<glyph unicode="&#x2007;" horiz-adv-x="337" />
<glyph unicode="&#x2008;" horiz-adv-x="253" />
<glyph unicode="&#x2009;" horiz-adv-x="405" />
<glyph unicode="&#x200a;" horiz-adv-x="112" />
<glyph unicode="&#x2010;" horiz-adv-x="830" d="M63 422l74 348h650l-74 -348h-650z" />
<glyph unicode="&#x2011;" horiz-adv-x="830" d="M63 422l74 348h650l-74 -348h-650z" />
<glyph unicode="&#x2012;" horiz-adv-x="830" d="M63 422l74 348h650l-74 -348h-650z" />
<glyph unicode="&#x2013;" horiz-adv-x="1024" d="M-27 422l74 348h1024l-74 -348h-1024z" />
<glyph unicode="&#x2014;" horiz-adv-x="2048" d="M-27 422l74 348h2048l-74 -348h-2048z" />
<glyph unicode="&#x2018;" horiz-adv-x="649" d="M162 826l282 617h292l-204 -617h-370z" />
<glyph unicode="&#x2019;" horiz-adv-x="649" d="M162 826l204 617h370l-282 -617h-292z" />
<glyph unicode="&#x201a;" horiz-adv-x="648" d="M-55 -344l184 617h370l-262 -617h-292z" />
<glyph unicode="&#x201c;" horiz-adv-x="1198" d="M189 826l282 617h292l-204 -617h-370zM704 826l262 617h292l-184 -617h-370z" />
<glyph unicode="&#x201d;" horiz-adv-x="1198" d="M189 826l184 617h370l-262 -617h-292zM684 826l204 617h370l-282 -617h-292z" />
<glyph unicode="&#x201e;" horiz-adv-x="1198" d="M-60 -344l184 617h370l-262 -617h-292zM455 -344l184 617h370l-262 -617h-292z" />
<glyph unicode="&#x2022;" horiz-adv-x="1020" d="M106 573q0 167 121 288t288 121t288 -121t121 -288t-121 -288t-288 -121t-288 121t-121 288z" />
<glyph unicode="&#x2026;" horiz-adv-x="1674" d="M26 194q0 86 61 147t147 61t147 -61t61 -147t-61 -147t-147 -61t-147 61t-61 147zM554 194q0 86 61 147t147 61t147 -61t61 -147t-61 -147t-147 -61t-147 61t-61 147zM1082 194q0 86 61 147t147 61t147 -61t61 -147t-61 -147t-147 -61t-147 61t-61 147z" />
<glyph unicode="&#x202f;" horiz-adv-x="405" />
<glyph unicode="&#x2039;" horiz-adv-x="894" d="M102 563l2 8l404 406h367l-433 -421l-1 -6l259 -394h-338z" />
<glyph unicode="&#x203a;" horiz-adv-x="894" d="M26 156l433 421l1 6l-259 394h338l260 -407l-2 -8l-404 -406h-367z" />
<glyph unicode="&#x205f;" horiz-adv-x="506" />
<glyph unicode="&#x20ac;" d="M111 541l17 80h145v7q0 94 16 177h-122l17 80h124q74 254 281 406t506 152q114 0 215.5 -20t146.5 -41l-70 -320q-107 48 -250 48q-144 0 -245.5 -60t-153.5 -165h572l-17 -80h-585q-19 -67 -19 -147q0 -25 1 -37h564l-17 -80h-532q67 -216 403 -216q100 0 141 17 l-71 -326q-72 -16 -144 -16q-327 0 -526.5 143.5t-229.5 397.5h-167z" />
<glyph unicode="&#x2122;" horiz-adv-x="1920" d="M199 1215l49 228h714l-49 -228h-214l-117 -547h-285l116 547h-214zM879 668l164 775h334l45 -402h5l204 402h357l-165 -775h-251l93 429h-8l-228 -432h-155l-48 432h-5l-92 -429h-250z" />
<glyph unicode="&#x25fc;" horiz-adv-x="1105" d="M0 0v1105h1105v-1105h-1105z" />
<glyph unicode="&#xfb01;" horiz-adv-x="1523" d="M60 0l171 797h-167l62 289h162l29 139q31 146 135 213t287 67q139 0 237 -31l-55 -247q-37 13 -112 13q-46 0 -75.5 -20t-37.5 -55l-17 -79h212l-62 -289h-202l-170 -797h-397zM870 0l235 1104h397l-235 -1104h-397zM1172 1401q0 78 57 134.5t138 56.5t138 -56.5 t57 -134.5t-57 -134.5t-138 -56.5t-138 56.5t-57 134.5z" />
<glyph unicode="&#xfb02;" horiz-adv-x="1404" d="M60 0l171 797h-167l62 289h162l29 139q31 146 135 213t287 67q139 0 237 -31l-55 -247q-37 13 -112 13q-46 0 -75.5 -20t-37.5 -55l-17 -79h212l-62 -289h-202l-170 -797h-397zM801 0l307 1443h396l-307 -1443h-396z" />
</font>
</defs>
</svg>
