<?xml version="1.0" standalone="no"?>
<!DOCTYPE svg PUBLIC "-//W3C//DTD SVG 1.1//EN" "http://www.w3.org/Graphics/SVG/1.1/DTD/svg11.dtd" >
<svg xmlns="http://www.w3.org/2000/svg" xmlns:xlink="http://www.w3.org/1999/xlink" version="1.1">
<metadata></metadata>
<defs>
<font id="sf_pro_textheavy_italic" horiz-adv-x="1461" >
<font-face units-per-em="2048" ascent="1638" descent="-410" />
<missing-glyph horiz-adv-x="502" />
<glyph horiz-adv-x="0" />
<glyph unicode="&#xd;" horiz-adv-x="0" />
<glyph unicode=" "  horiz-adv-x="502" />
<glyph unicode="&#x09;" horiz-adv-x="502" />
<glyph unicode="&#xa0;" horiz-adv-x="502" />
<glyph unicode="!" horiz-adv-x="777" d="M97 140q0 84 54.5 137t149.5 53q93 0 148.5 -51t55.5 -124q0 -84 -55 -137t-149 -53q-93 0 -148.5 50.5t-55.5 124.5zM217 473l175 970h383l-238 -970h-320z" />
<glyph unicode="&#x22;" horiz-adv-x="1079" d="M190 802l136 641h297l-136 -641h-297zM697 802l137 641h297l-136 -641h-298z" />
<glyph unicode="#" horiz-adv-x="1394" d="M17 368l80 253h222l71 221h-222l80 251h223l115 351h262l-114 -351h223l114 351h264l-114 -351h229l-78 -251h-233l-71 -221h231l-79 -253h-233l-119 -368h-264l120 368h-223l-120 -368h-262l119 368h-221zM552 594h264l91 274h-266z" />
<glyph unicode="$" d="M130 439h334q8 -56 50.5 -97t110.5 -57l64 301l-69 22q-174 56 -259 147.5t-85 229.5q0 202 151 325t394 123q32 0 48 -1l33 156h104l-35 -167q186 -31 289.5 -139t104.5 -276h-324q-2 55 -34.5 94.5t-92.5 56.5l-62 -293l75 -24q185 -58 267 -142.5t82 -227.5 q0 -207 -156.5 -333.5t-420.5 -126.5h-28l-32 -151h-105l34 159q-206 26 -321 136t-117 285zM633 1029q0 -45 28 -76t94 -57l58 272q-85 -4 -132.5 -43t-47.5 -96zM728 277q88 4 138.5 42t50.5 100q0 47 -27.5 76.5t-103.5 57.5z" />
<glyph unicode="%" horiz-adv-x="2065" d="M184 1064q0 78 26.5 150t75 129t124.5 91t168 34q143 0 230 -80t87 -225q0 -79 -28 -152t-77.5 -130t-125.5 -91t-166 -34q-141 0 -227.5 81.5t-86.5 226.5zM397 0l1071 1443h268l-1070 -1443h-269zM443 1055q0 -48 19.5 -74.5t50.5 -26.5q50 0 86 68t36 143 q0 53 -19.5 79t-52.5 26q-37 0 -65.5 -38t-41.5 -86t-13 -91zM1241 291q0 78 26.5 150t75 129t124.5 91t168 34q143 0 230 -80t87 -225q0 -107 -46.5 -198.5t-138.5 -150t-211 -58.5q-141 0 -228 81t-87 227zM1500 281q0 -48 19.5 -74t51.5 -26q51 0 86.5 67.5t35.5 143.5 q0 52 -20 78.5t-52 26.5q-37 0 -66 -38.5t-42 -86.5t-13 -91z" />
<glyph unicode="&#x26;" horiz-adv-x="1560" d="M55 364q0 280 348 417l77 31q-116 166 -116 297q0 150 127.5 251t317.5 101q182 0 304 -89.5t122 -223.5q0 -269 -370 -418l179 -266q92 133 101 274l2 24h285l-3 -29q-27 -276 -234 -491l163 -242h-352l-45 68q-181 -96 -382 -96q-227 0 -375.5 111t-148.5 281zM377 394 q0 -79 65 -129t169 -50q118 0 218 55l-229 348q-7 -2 -23.5 -8t-18.5 -7q-88 -34 -134.5 -87.5t-46.5 -121.5zM658 1078q0 -69 84 -176q202 76 202 215q0 54 -36 86.5t-93 32.5q-65 0 -111 -46t-46 -112z" />
<glyph unicode="'" horiz-adv-x="571" d="M190 802l136 641h297l-136 -641h-297z" />
<glyph unicode="(" horiz-adv-x="929" d="M226 385q0 322 126 623.5t342 521.5h369q-103 -106 -188 -232.5t-151.5 -278t-103 -330.5t-35.5 -368q3 -397 86 -633h-320q-57 122 -91 314.5t-34 382.5z" />
<glyph unicode=")" horiz-adv-x="929" d="M-111 -312q139 144 243 319t170 408.5t64 482.5q-1 392 -86 632h320q57 -121 91 -313.5t34 -382.5q0 -323 -126 -624t-342 -522h-368z" />
<glyph unicode="*" horiz-adv-x="1016" d="M183 975l299 75l-260 121l158 190l189 -209l10 291h236l-118 -301l266 171l79 -210l-299 -76l258 -119l-158 -191l-188 204l-12 -286h-235l114 295l-260 -165z" />
<glyph unicode="+" d="M166 431l65 305h381l86 401h313l-86 -401h382l-65 -305h-381l-86 -401h-313l86 401h-382z" />
<glyph unicode="," horiz-adv-x="767" d="M-56 -400l234 646h335l-325 -646h-244z" />
<glyph unicode="-" horiz-adv-x="1006" d="M146 425l68 316h657l-67 -316h-658z" />
<glyph unicode="." horiz-adv-x="767" d="M91 150q0 86 55 142t147 56q91 0 146.5 -53.5t55.5 -129.5q0 -86 -55 -142t-147 -56q-91 0 -146.5 53.5t-55.5 129.5z" />
<glyph unicode="/" horiz-adv-x="857" d="M-181 -312l897 1842h344l-897 -1842h-344z" />
<glyph unicode="0" horiz-adv-x="1460" d="M137 538q0 271 93 487t257 336.5t368 120.5q252 0 397.5 -154t145.5 -421q0 -203 -55 -379t-150.5 -300.5t-229.5 -195.5t-287 -71q-250 0 -394.5 154.5t-144.5 422.5zM506 514q0 -127 46.5 -198t129.5 -71q89 0 169.5 95t129 254.5t48.5 336.5q0 126 -47 196t-131 70 q-89 0 -169 -94.5t-128 -253t-48 -335.5z" />
<glyph unicode="1" horiz-adv-x="1101" d="M188 866l70 327l420 250h367l-307 -1443h-367l234 1100h-19z" />
<glyph unicode="2" horiz-adv-x="1360" d="M35 0l56 257l526 410q210 163 275.5 234.5t65.5 145.5q0 69 -52 112.5t-135 43.5q-31 0 -61.5 -9t-64 -30t-59.5 -62t-38 -98h-334q15 208 182 343t409 135q222 0 367 -114.5t145 -290.5q0 -73 -21.5 -132.5t-80 -128t-139 -137t-220.5 -175.5l-259 -202l-4 -19h592 l-60 -283h-1090z" />
<glyph unicode="3" horiz-adv-x="1409" d="M93 392q0 28 6 71h342v-1q-14 -89 49.5 -150t171.5 -61q101 0 165 56.5t64 145.5q0 72 -57 117t-147 45h-160l53 254h183q109 0 172 48.5t63 132.5q0 71 -55 114t-145 43q-79 0 -136.5 -40.5t-80.5 -110.5h-333q41 196 197.5 311t383.5 115q226 0 371.5 -109.5 t145.5 -279.5q0 -137 -99.5 -241t-245.5 -118l-3 -20q123 -28 188.5 -106t65.5 -196q0 -128 -76 -231.5t-211.5 -161.5t-303.5 -58q-255 0 -411.5 119t-156.5 312z" />
<glyph unicode="4" horiz-adv-x="1463" d="M45 234l62 321q241 328 728 888h527l-197 -923h180l-61 -286h-179l-50 -234h-347l50 234h-713zM422 507h403l144 674h-19q-267 -311 -525 -656z" />
<glyph unicode="5" horiz-adv-x="1411" d="M132 402q0 17 2 41h332v-1q4 -88 68.5 -142.5t164.5 -54.5q108 0 180.5 75.5t72.5 186.5q0 98 -59 156t-155 58q-59 0 -117 -28t-92 -71h-330l241 821h953l-62 -286h-662l-99 -312h18q113 119 297 119q175 0 292 -119.5t117 -299.5q0 -255 -172 -419.5t-443 -164.5 q-156 0 -281 57t-195.5 158t-70.5 226z" />
<glyph unicode="6" horiz-adv-x="1459" d="M151 562q0 147 32.5 284.5t96.5 252.5t151.5 201t204 134t247.5 48q229 0 378.5 -124.5t151.5 -315.5h-352q-11 72 -63.5 114t-131.5 42q-125 0 -220 -117t-124 -308l19 -1q61 85 151.5 130.5t198.5 45.5q188 0 309 -121t121 -310q0 -154 -78.5 -282t-215 -201 t-301.5 -73q-271 0 -423 159t-152 442zM506 449q0 -90 61.5 -149t157.5 -59q104 0 174.5 71t70.5 176q0 90 -60.5 148.5t-153.5 58.5q-106 0 -178 -71t-72 -175z" />
<glyph unicode="7" horiz-adv-x="1277" d="M70 0l841 1141l5 20h-685l60 282h1066l-60 -283l-829 -1160h-398z" />
<glyph unicode="8" horiz-adv-x="1472" d="M91 373q0 156 111.5 268.5t295.5 141.5l4 19q-93 34 -149 107.5t-56 160.5q0 117 73 211.5t203 147.5t292 53q148 0 271 -50.5t193.5 -138.5t70.5 -195q0 -136 -92.5 -233.5t-243.5 -120.5l-4 -19q117 -40 184 -125.5t67 -194.5q0 -194 -178 -319t-454 -125 q-259 0 -423.5 115.5t-164.5 296.5zM476 405q0 -82 60.5 -133t158.5 -51q105 0 174.5 61t69.5 153q0 82 -61.5 134.5t-158.5 52.5q-104 0 -173.5 -62t-69.5 -155zM645 1031q0 -71 51.5 -117t131.5 -46q87 0 148.5 58t61.5 138q0 71 -52.5 117.5t-131.5 46.5 q-87 0 -148 -57.5t-61 -139.5z" />
<glyph unicode="9" horiz-adv-x="1457" d="M114 385h353q7 -64 62 -102.5t140 -38.5q132 0 229 117.5t119 304.5h-19q-127 -176 -347 -176q-191 0 -316.5 123t-125.5 310q0 158 77.5 286t214.5 200.5t307 72.5q269 0 419 -160.5t150 -446.5q0 -144 -33.5 -280t-97.5 -250.5t-151 -200.5t-202 -134.5t-242 -48.5 q-224 0 -376.5 120.5t-160.5 303.5zM562 950q0 -91 59.5 -149t152.5 -58q105 0 176 70.5t71 175.5q0 91 -59.5 149t-154.5 58q-104 0 -174.5 -70.5t-70.5 -175.5z" />
<glyph unicode=":" horiz-adv-x="767" d="M91 150q0 86 55 142t147 56q91 0 146.5 -53.5t55.5 -129.5q0 -86 -55 -142t-147 -56q-91 0 -146.5 53.5t-55.5 129.5zM235 826q0 86 55 142t147 56q91 0 146 -53.5t55 -129.5q0 -86 -54.5 -142t-146.5 -56q-91 0 -146.5 53.5t-55.5 129.5z" />
<glyph unicode=";" horiz-adv-x="767" d="M-56 -400l234 646h335l-325 -646h-244zM235 826q0 86 55 142t147 56q91 0 146 -53.5t55 -129.5q0 -86 -54.5 -142t-146.5 -56q-91 0 -146.5 53.5t-55.5 129.5z" />
<glyph unicode="&#x3c;" d="M166 428l66 311l1164 416l-77 -359l-733 -220l-2 -11l639 -222l-70 -331z" />
<glyph unicode="=" d="M118 182l61 287h1066l-60 -287h-1067zM228 698l60 287h1067l-61 -287h-1066z" />
<glyph unicode="&#x3e;" d="M77 12l77 359l733 220l2 11l-639 222l70 331l988 -416l-66 -311z" />
<glyph unicode="?" horiz-adv-x="1189" d="M188 1039q21 185 162.5 301t357.5 116q224 0 360 -103.5t136 -267.5q0 -128 -72 -232.5t-209 -164.5q-115 -50 -160.5 -91t-59.5 -109l-8 -35h-318l8 55q20 135 73.5 207t169.5 123q123 55 171 104.5t48 115.5q0 56 -42 91t-113 35q-64 0 -113.5 -39.5t-65.5 -105.5h-325 zM269 139q0 84 58.5 139.5t150.5 55.5q89 0 148.5 -48t59.5 -124q0 -82 -58 -138.5t-150 -56.5q-93 0 -151 47.5t-58 124.5z" />
<glyph unicode="@" horiz-adv-x="1908" d="M146 522q0 194 72 365.5t195.5 294t297.5 193.5t370 71q219 0 390.5 -86.5t266.5 -242.5t95 -355q0 -174 -62 -315t-171 -221.5t-243 -80.5q-113 0 -183.5 43.5t-70.5 115.5q0 6 0.5 15.5t0.5 13.5l-19 -4q-82 -144 -232 -144q-133 0 -213 95t-80 253q0 133 52.5 244.5 t143 175.5t197.5 64q88 0 150.5 -43t79.5 -116l19 -2l25 126h233l-116 -540q-5 -20 -5 -40q0 -37 20 -57.5t55 -20.5q54 0 103.5 60.5t79.5 160.5t30 210q0 228 -155 370.5t-403 142.5q-149 0 -282.5 -57t-229.5 -154.5t-152 -234t-56 -288.5q0 -272 182.5 -431.5 t493.5 -158.5q81 0 120 11l-38 -178q-65 -11 -145 -11q-181 0 -333 55t-258.5 153.5t-165.5 239t-59 308.5zM821 542q0 -72 34 -114t93 -42q74 0 125.5 74.5t51.5 183.5q0 74 -33 116t-90 42q-75 0 -128 -76.5t-53 -183.5z" />
<glyph unicode="A" horiz-adv-x="1564" d="M-46 0l807 1443h445l167 -1443h-383l-22 317h-473l-162 -317h-379zM624 581h333l-39 536h-20z" />
<glyph unicode="B" horiz-adv-x="1459" d="M52 0l307 1443h636q186 0 301.5 -85.5t115.5 -223.5q0 -144 -95.5 -249t-238.5 -120l-1 -19q121 -22 192 -100.5t71 -189.5q0 -200 -153 -328t-391 -128h-744zM476 267h245q112 0 183 60t71 156q0 74 -53 115.5t-149 41.5h-218zM603 863h209q102 0 167.5 54.5t65.5 138.5 q0 65 -46.5 101t-131.5 36h-193z" />
<glyph unicode="C" horiz-adv-x="1569" d="M134 574q0 263 103.5 470.5t288 322.5t418.5 115q167 0 305 -68t217 -186.5t79 -261.5q0 -30 -4 -58h-352q1 3 1 19q-3 110 -77 178.5t-191 68.5q-116 0 -211 -75t-149.5 -208t-54.5 -296q0 -151 73.5 -239t199.5 -88q112 0 200.5 62.5t122.5 165.5h356 q-44 -242 -237.5 -388.5t-469.5 -146.5q-282 0 -450 167t-168 446z" />
<glyph unicode="D" horiz-adv-x="1561" d="M52 0l307 1443h569q264 0 417.5 -151t153.5 -419q0 -251 -95.5 -450t-268.5 -311t-394 -112h-689zM485 294h211q188 0 307 146.5t119 389.5q0 147 -77 233t-213 86h-166z" />
<glyph unicode="E" horiz-adv-x="1302" d="M52 0l307 1443h988l-63 -295h-621l-61 -288h584l-57 -270h-584l-63 -295h621l-62 -295h-989z" />
<glyph unicode="F" horiz-adv-x="1269" d="M52 0l307 1443h981l-63 -295h-614l-70 -329h558l-60 -281h-558l-114 -538h-367z" />
<glyph unicode="G" horiz-adv-x="1588" d="M136 579q0 263 102 469t285.5 320t417.5 114q162 0 300.5 -63.5t220 -174t83.5 -240.5q0 -25 -1 -33h-353q-3 87 -80 144t-192 57q-177 0 -293.5 -161.5t-116.5 -410.5q0 -151 76 -240t206 -89q125 0 212.5 63.5t108.5 169.5l2 13h-259l54 253h613l-35 -180 q-58 -306 -244.5 -467.5t-481.5 -161.5q-283 0 -454 169t-171 449z" />
<glyph unicode="H" horiz-adv-x="1649" d="M52 0l307 1443h367l-120 -566h574l120 566h368l-307 -1443h-369l124 582h-574l-124 -582h-366z" />
<glyph unicode="I" horiz-adv-x="707" d="M52 0l307 1443h367l-307 -1443h-367z" />
<glyph unicode="J" horiz-adv-x="1295" d="M43 400q0 22 3 43h351v-13q1 -70 43 -112t114 -42q144 0 185 186l209 981h366l-218 -1027q-47 -221 -187 -338t-362 -117q-229 0 -367 121q-137 119 -137 312v6z" />
<glyph unicode="K" horiz-adv-x="1509" d="M52 0l307 1443h366l-130 -609h20l600 609h422l-653 -660l347 -783h-409l-246 570l-173 -172l-84 -398h-367z" />
<glyph unicode="L" horiz-adv-x="1247" d="M52 0l307 1443h367l-243 -1140h613l-64 -303h-980z" />
<glyph unicode="M" horiz-adv-x="1924" d="M52 0l307 1443h425l158 -885h19l537 885h445l-307 -1443h-339l193 911h-18l-492 -803h-227l-149 803h-18l-194 -911h-340z" />
<glyph unicode="N" horiz-adv-x="1600" d="M52 0l307 1443h260l449 -842h19l180 842h352l-307 -1443h-256l-456 834h-19l-177 -834h-352z" />
<glyph unicode="O" horiz-adv-x="1638" d="M135 581q0 196 61.5 365t167.5 286t252.5 183.5t313.5 66.5q149 0 271.5 -47.5t203 -130.5t124.5 -196.5t44 -245.5q0 -158 -39 -299t-111.5 -250t-170 -188.5t-219 -121.5t-254.5 -42q-147 0 -268.5 47.5t-203.5 130.5t-127 196.5t-45 245.5zM509 606 q0 -152 76.5 -243.5t204.5 -91.5q170 0 290 163.5t120 401.5q0 152 -77 242.5t-204 90.5q-111 0 -205.5 -74.5t-149.5 -204t-55 -284.5z" />
<glyph unicode="P" horiz-adv-x="1402" d="M53 0l306 1443h538q234 0 369 -118.5t135 -316.5q0 -269 -176.5 -427t-472.5 -158h-242l-90 -423h-367zM568 700h183q126 0 203.5 76.5t77.5 198.5q0 92 -54.5 139t-156.5 47h-155z" />
<glyph unicode="Q" horiz-adv-x="1638" d="M135 581q0 196 61.5 365t167.5 286t252.5 183.5t313.5 66.5q149 0 271.5 -47t203 -130.5t124.5 -197t44 -245.5q0 -237 -85.5 -428t-238.5 -311l111 -255h-338l-52 117q-92 -24 -191 -24q-147 0 -268.5 47.5t-203.5 130.5t-127 196.5t-45 245.5zM504 604 q0 -154 78 -246.5t207 -92.5q34 0 63 7l-102 235h316l23 -44q115 148 115 374q0 155 -77.5 247t-206.5 92q-113 0 -208.5 -75.5t-151.5 -207.5t-56 -289z" />
<glyph unicode="R" horiz-adv-x="1459" d="M52 0l307 1443h609q202 0 332.5 -118.5t130.5 -300.5q0 -158 -92 -291t-249 -191l194 -542h-394l-164 505h-199l-108 -505h-367zM581 764h219q118 0 190 64t72 165q0 84 -51.5 128.5t-145.5 44.5h-197z" />
<glyph unicode="S" horiz-adv-x="1407" d="M66 416h350q10 -78 84 -127.5t176 -49.5q108 0 175.5 45t67.5 117q0 54 -43 89t-149 67l-156 47q-167 50 -257 154t-90 250q0 205 170 339.5t429 134.5q254 0 411.5 -127.5t159.5 -331.5h-339q-7 79 -75.5 130.5t-169.5 51.5q-92 0 -155 -44t-63 -110q0 -55 41.5 -94.5 t132.5 -66.5l158 -46q187 -55 273 -149t86 -244q0 -222 -173.5 -356t-458.5 -134q-261 0 -421 122.5t-164 332.5z" />
<glyph unicode="T" horiz-adv-x="1380" d="M217 1148l63 295h1198l-63 -295h-415l-244 -1148h-367l243 1148h-415z" />
<glyph unicode="U" horiz-adv-x="1585" d="M163 440v8q0 53 13 117l186 878h368l-185 -872q-10 -47 -10 -91q1 -96 66.5 -151.5t171.5 -55.5q108 0 180 64t97 185l195 921h368l-211 -1002q-48 -226 -218 -353t-423 -127q-273 0 -435.5 133t-162.5 346z" />
<glyph unicode="V" horiz-adv-x="1528" d="M262 1443h401l56 -1060h19l492 1060h414l-759 -1443h-464z" />
<glyph unicode="W" horiz-adv-x="2112" d="M275 1443h375l-6 -957h18l435 957h288l41 -957h18l394 957h377l-682 -1443h-351l-55 884h-18l-422 -884h-341z" />
<glyph unicode="X" horiz-adv-x="1549" d="M-30 0l613 741l-302 702h411l191 -462h19l342 462h407l-627 -735l317 -708h-407l-195 446h-19l-352 -446h-398z" />
<glyph unicode="Y" horiz-adv-x="1507" d="M262 1443h383l159 -591h19l405 591h395l-699 -953l-104 -490h-367l105 496z" />
<glyph unicode="Z" horiz-adv-x="1399" d="M13 0l50 233l845 896l1 19h-642l63 295h1105l-49 -233l-845 -896v-19h672l-62 -295h-1138z" />
<glyph unicode="[" horiz-adv-x="929" d="M58 -312l392 1842h613l-55 -256h-273l-283 -1329h273l-54 -257h-613z" />
<glyph unicode="\" horiz-adv-x="857" d="M250 1530h328l52 -1842h-328z" />
<glyph unicode="]" horiz-adv-x="929" d="M-111 -312l55 257h273l283 1329h-274l55 256h613l-392 -1842h-613z" />
<glyph unicode="^" horiz-adv-x="1016" d="M84 707l440 664h313l158 -664h-274l-85 405h-19l-256 -405h-277z" />
<glyph unicode="_" horiz-adv-x="960" d="M-195 -373l56 266h956l-56 -266h-956z" />
<glyph unicode="`" horiz-adv-x="1024" d="M517 1619h314l52 -359h-236z" />
<glyph unicode="a" horiz-adv-x="1241" d="M36 286q0 171 134 271.5t370 107.5l258 7l14 67q4 24 4 35q0 48 -42.5 76.5t-113.5 28.5q-126 0 -167 -83h-324q35 157 174.5 250t341.5 93q214 0 346 -92t132 -242q0 -47 -9 -90l-153 -715h-343l28 134h-19q-43 -69 -126 -110t-178 -41q-140 0 -233.5 86.5t-93.5 216.5z M379 337q0 -48 40 -78t103 -30q78 0 139 45.5t76 113.5l18 83l-197 -6q-83 -3 -131 -37.5t-48 -90.5z" />
<glyph unicode="b" horiz-adv-x="1383" d="M21 0l326 1530h354l-123 -575l21 3q111 172 329 172q168 0 271 -114t103 -309q0 -154 -42.5 -289.5t-116 -230.5t-174.5 -149.5t-215 -54.5q-119 0 -210 60t-117 157h-19l-42 -200h-345zM484 477q0 -101 50.5 -156t129.5 -55q113 0 192.5 110t79.5 271q0 100 -50 154.5 t-128 54.5q-113 0 -193.5 -113t-80.5 -266z" />
<glyph unicode="c" horiz-adv-x="1247" d="M86 443q0 198 77 356t221.5 249t331.5 91q108 0 198.5 -33.5t149 -88.5t91.5 -122.5t36 -139.5q1 -13 1 -42h-329q-1 73 -48 113t-121 40q-116 0 -187.5 -114.5t-71.5 -287.5q0 -108 50.5 -162.5t124.5 -54.5q73 0 125 39t74 113h331q-27 -182 -173 -303.5t-376 -121.5 q-233 0 -369 127t-136 342z" />
<glyph unicode="d" horiz-adv-x="1383" d="M81 411q0 154 43.5 288.5t118 228.5t178 148t220.5 54q120 0 200.5 -56t107.5 -145h20l127 601h355l-326 -1530h-344l33 155h-19q-125 -172 -337 -172q-169 0 -273 114.5t-104 313.5zM448 471q0 -101 51 -157.5t129 -56.5q112 0 192.5 113t80.5 266q0 101 -51 156 t-130 55q-113 0 -192.5 -108t-79.5 -268z" />
<glyph unicode="e" horiz-adv-x="1290" d="M89 456q0 305 171 494t445 189q216 0 355.5 -131.5t139.5 -341.5q0 -85 -20 -187h-766v-21q0 -110 58.5 -169.5t153.5 -59.5q70 0 119 28t70 77h332q-41 -165 -186.5 -262.5t-356.5 -97.5q-234 0 -374.5 129.5t-140.5 352.5zM450 681h423q4 12 4 36q0 74 -50 122t-131 48 q-88 0 -155 -56.5t-91 -149.5z" />
<glyph unicode="f" horiz-adv-x="886" d="M105 835l56 263h176l28 133q31 152 133 221.5t284 69.5q133 0 220 -26l-50 -228q-38 11 -118 11q-109 0 -129 -96l-18 -85h227l-56 -263h-218l-178 -835h-355l178 835h-180z" />
<glyph unicode="g" horiz-adv-x="1369" d="M-20 -74h346q3 -49 57.5 -79t146.5 -30q194 0 230 166l42 193h-19q-104 -152 -324 -152q-167 0 -271.5 113t-104.5 297q0 143 43.5 272.5t117.5 222t176 147t215 54.5q114 0 200 -56.5t115 -150.5h19l42 190h345l-247 -1154q-38 -178 -196 -278t-404 -100q-241 0 -388 97 q-141 92 -141 236v12zM445 478q0 -98 49 -156t131 -58q111 0 190.5 109.5t79.5 262.5q0 96 -49.5 153.5t-132.5 57.5q-113 0 -190.5 -106t-77.5 -263z" />
<glyph unicode="h" horiz-adv-x="1346" d="M21 0l324 1519h353l-124 -574h19q117 189 338 189q154 0 243 -87.5t89 -226.5q0 -59 -14 -134l-144 -686h-353l133 631q9 45 9 76q0 70 -44.5 111t-116.5 41q-83 0 -141.5 -55t-77.5 -145l-140 -659h-353z" />
<glyph unicode="i" horiz-adv-x="643" d="M26 0l237 1113h354l-237 -1113h-354zM321 1446q0 77 55.5 131t132.5 54q78 0 133 -54t55 -131t-55 -130.5t-133 -53.5q-77 0 -132.5 53.5t-55.5 130.5z" />
<glyph unicode="j" horiz-adv-x="643" d="M-231 -363l57 255q24 -7 68 -7q108 0 130 103l239 1125h354l-247 -1161q-34 -164 -146.5 -247t-288.5 -83q-87 0 -166 15zM321 1446q0 77 55.5 131t132.5 54q78 0 133 -54t55 -131t-55 -130.5t-133 -53.5q-77 0 -132.5 53.5t-55.5 130.5z" />
<glyph unicode="k" horiz-adv-x="1275" d="M21 0l326 1530h353l-173 -818h20l396 401h399l-510 -489l310 -624h-385l-210 434l-100 -94l-71 -340h-355z" />
<glyph unicode="l" horiz-adv-x="634" d="M21 0l326 1530h355l-326 -1530h-355z" />
<glyph unicode="m" horiz-adv-x="1951" d="M14 0l237 1113h344l-42 -188h20q55 95 139.5 150t183.5 55q110 0 183.5 -57.5t99.5 -144.5h19q132 202 360 202q136 0 223 -90t87 -225q0 -62 -15 -134l-143 -681h-353l132 631q9 44 9 76q0 63 -37.5 103t-98.5 40q-68 0 -120.5 -52t-71.5 -142l-138 -656h-338l132 631 q9 44 9 76q0 63 -37.5 103t-98.5 40q-68 0 -120.5 -52t-71.5 -140l-140 -658h-353z" />
<glyph unicode="n" horiz-adv-x="1331" d="M14 0l239 1113h343l-39 -181h19q56 93 143.5 145.5t200.5 52.5q150 0 239 -90t89 -232q0 -62 -15 -134l-143 -674h-353l132 619q9 37 9 76q0 68 -41.5 111.5t-114.5 43.5q-81 0 -138.5 -56.5t-76.5 -146.5l-140 -647h-353z" />
<glyph unicode="o" horiz-adv-x="1344" d="M89 471q0 188 84.5 341t233.5 240t331 87q235 0 376 -136t141 -362q0 -141 -49.5 -264.5t-135 -212t-205.5 -139.5t-256 -51q-235 0 -377.5 136t-142.5 361zM456 474q0 -107 44.5 -167.5t122.5 -60.5q108 0 186 115t78 273q0 111 -43 173t-121 62q-111 0 -189 -115.5 t-78 -279.5z" />
<glyph unicode="p" horiz-adv-x="1376" d="M-63 -368l315 1481h345l-33 -155h19q125 172 338 172q169 0 272 -114t103 -309q0 -206 -73 -372t-200 -259t-283 -93q-119 0 -200 59.5t-108 157.5h-19l-122 -568h-354zM477 477q0 -100 51 -155.5t129 -55.5q113 0 192.5 110t79.5 271q0 100 -50 154.5t-128 54.5 q-112 0 -193 -113t-81 -266z" />
<glyph unicode="q" horiz-adv-x="1381" d="M81 410q0 154 43.5 288t118 228.5t177.5 149t220 54.5q124 0 210.5 -57t113.5 -144h19l39 184h345l-315 -1481h-354l111 523h-17q-124 -172 -337 -172q-168 0 -271 115t-103 312zM447 470q0 -102 50 -157.5t128 -55.5q113 0 193.5 113t80.5 266q0 101 -50.5 156 t-129.5 55q-113 0 -192.5 -109t-79.5 -268z" />
<glyph unicode="r" horiz-adv-x="969" d="M12 0l238 1113h345l-32 -157h19q41 82 111 128t156 46q89 0 149 -27l-69 -308q-83 36 -184 36q-200 0 -250 -234l-128 -597h-355z" />
<glyph unicode="s" horiz-adv-x="1201" d="M38 329h336q8 -51 57.5 -83.5t121.5 -32.5q73 0 115 26t42 71q0 30 -22.5 50.5t-79.5 40.5l-176 62q-135 47 -200 122t-65 183q0 168 133 269.5t352 101.5q215 0 346.5 -93.5t136.5 -248.5h-318q-8 46 -52.5 74t-111.5 28q-65 0 -106.5 -26.5t-41.5 -69.5q0 -31 24.5 -53 t81.5 -42l197 -69q133 -46 193.5 -115t60.5 -174q0 -170 -138.5 -273t-367.5 -103q-230 0 -372.5 98t-145.5 257z" />
<glyph unicode="t" horiz-adv-x="900" d="M109 835l58 263h173l58 270h355l-59 -270h231l-58 -263h-228l-94 -441q-6 -38 -6 -51q0 -90 115 -90q43 0 93 6l-53 -247q-53 -14 -184 -14q-157 0 -249.5 64.5t-92.5 176.5q0 44 11 96l105 500h-175z" />
<glyph unicode="u" horiz-adv-x="1332" d="M86 300q0 54 15 141l141 672h355l-131 -615q-7 -35 -7 -73q0 -161 155 -161q82 0 136.5 54.5t75.5 151.5l137 643h354l-235 -1113h-344l37 175h-19q-112 -201 -325 -201q-155 0 -250 88t-95 238z" />
<glyph unicode="v" horiz-adv-x="1222" d="M161 1113h358l29 -789h20l354 789h377l-605 -1113h-410z" />
<glyph unicode="w" horiz-adv-x="1814" d="M176 1113h350l-18 -761h19l326 761h340l8 -763h19l301 763h354l-524 -1113h-385l-16 732h-19l-327 -732h-374z" />
<glyph unicode="x" horiz-adv-x="1252" d="M-57 0l452 554l-217 559h387l102 -342h19l234 342h390l-458 -559l223 -554h-374l-115 334h-19l-245 -334h-379z" />
<glyph unicode="y" horiz-adv-x="1258" d="M-59 -404l57 268q12 -3 70 -3q176 0 215 99l12 33l-127 1120h363l30 -809h19l370 809h377l-600 -1123q-114 -215 -263 -306t-382 -91q-129 0 -141 3z" />
<glyph unicode="z" horiz-adv-x="1190" d="M-6 0l40 189l649 639l1 19h-499l58 266h936l-47 -217l-596 -611l-1 -19h481l-57 -266h-965z" />
<glyph unicode="{" horiz-adv-x="929" d="M85 454l66 311q112 0 168.5 45.5t79.5 160.5l36 176q43 211 159.5 297t343.5 86h124l-54 -250h-43q-91 0 -136 -43.5t-68 -153.5l-42 -191q-27 -121 -113.5 -210t-214.5 -100l-5 -19q118 -13 167.5 -62.5t49.5 -127.5q0 -29 -9 -78l-34 -160q-12 -60 -12 -91 q0 -58 31 -82.5t101 -24.5h44l-53 -249h-124q-96 0 -166.5 22.5t-109.5 63t-57 89t-18 106.5q0 45 14 117l36 163q12 55 12 87q0 60 -39 89t-134 29z" />
<glyph unicode="|" horiz-adv-x="857" d="M79 -312l392 1842h329l-392 -1842h-329z" />
<glyph unicode="}" horiz-adv-x="929" d="M-110 -312l53 251h43q91 0 136 43.5t69 153.5l41 191q27 121 113.5 210t215.5 100l4 19q-217 24 -217 190q0 33 10 78l33 160q12 53 12 91q0 58 -31 82.5t-101 24.5h-43l52 248h124q96 0 166.5 -22.5t109.5 -63t57 -88.5t18 -106q0 -45 -14 -117l-36 -164 q-12 -53 -12 -87q0 -60 39 -88.5t134 -28.5l-65 -311q-112 0 -168.5 -45.5t-80.5 -160.5l-36 -176q-43 -211 -160 -297.5t-343 -86.5h-123z" />
<glyph unicode="~" d="M146 361q20 133 68 236t128.5 166t182.5 63q59 0 110.5 -20t87.5 -48t68.5 -56t69.5 -48t75 -20q100 0 134 171h258q-31 -209 -128 -337t-250 -128q-60 0 -111 20t-87.5 48t-69 56t-69 48t-74.5 20q-102 0 -134 -171h-259z" />
<glyph unicode="&#xa1;" horiz-adv-x="778" d="M6 -314l238 970h320l-175 -970h-383zM277 975q0 84 54.5 136.5t149.5 52.5q93 0 148 -50.5t55 -124.5q0 -84 -54.5 -136.5t-148.5 -52.5t-149 50.5t-55 124.5z" />
<glyph unicode="&#xa2;" d="M244 626q0 305 164 487.5t441 182.5h12l31 147h105l-33 -157q164 -31 263 -138t99 -251q0 -37 -1 -43h-329q-2 114 -92 153l-121 -572q62 8 105.5 50.5t60.5 111.5h329q-28 -196 -177 -318.5t-362 -122.5h-16l-33 -156h-105l35 166q-176 32 -276 154.5t-100 305.5z M588 640q0 -68 24.5 -117.5t68.5 -72.5l120 567q-96 -16 -154.5 -119t-58.5 -258z" />
<glyph unicode="&#xa3;" d="M56 25l56 265q145 22 225.5 115.5t85.5 245.5h-250l36 171h210q-2 60 -2 83q0 119 41 218.5t119.5 173.5t202.5 115t282 41q102 0 197 -20t147 -44l-58 -262q-106 51 -269 51q-158 0 -237 -71t-79 -201q0 -20 2 -84h445l-36 -171h-406q-12 -227 -203 -329l-2 -10h673 l-61 -287h-1119z" />
<glyph unicode="&#xa4;" d="M105 294l188 155q-42 93 -42 196q0 142 77 260l-112 139l239 196l113 -142q79 29 165 29q155 0 280 -90l191 158l157 -198l-188 -155q42 -93 42 -197q0 -141 -76 -260l110 -138l-238 -196l-113 141q-78 -29 -165 -29q-155 0 -280 90l-192 -158zM514 645q0 -89 65 -154.5 t154 -65.5t154 65.5t65 154.5t-65 155t-154 66t-154 -66t-65 -155z" />
<glyph unicode="&#xa5;" d="M145 244l24 112h340l29 134h-341l24 113h282l-250 798h370l154 -587h7l401 587h379l-586 -798h280l-24 -113h-339l-3 -4l-27 -130h341l-24 -112h-341l-50 -237h-356l50 237h-340z" />
<glyph unicode="&#xa6;" horiz-adv-x="857" d="M79 -312l153 722h330l-154 -722h-329zM315 799l156 731h329l-155 -731h-330z" />
<glyph unicode="&#xa7;" horiz-adv-x="1458" d="M112 60h340q4 -49 50.5 -82.5t114.5 -33.5q66 0 110 31.5t43 78.5q-2 69 -100 112l-207 92q-254 111 -258 299q-3 110 76.5 188t220.5 105l1 20q-88 57 -125 111.5t-39 128.5q-4 159 138 259.5t368 100.5q219 0 357.5 -97t151.5 -264h-338q-4 53 -50.5 86t-115.5 33 q-64 0 -106 -30t-41 -77q0 -66 102 -113l194 -90q265 -120 268 -302q4 -107 -78 -189t-216 -104v-18q85 -55 121.5 -110t38.5 -129q4 -159 -139.5 -261.5t-368.5 -102.5q-218 0 -362.5 98t-150.5 260zM559 617q3 -73 112 -123l130 -63q52 17 83.5 51.5t30.5 74.5 q0 35 -27.5 67.5t-79.5 55.5l-131 62q-51 -14 -84.5 -49t-33.5 -76z" />
<glyph unicode="&#xa8;" horiz-adv-x="1024" d="M273 1442q0 72 51.5 121.5t123.5 49.5t123 -49.5t51 -121.5t-51 -121.5t-123 -49.5t-123.5 49.5t-51.5 121.5zM779 1442q0 72 51 121.5t123 49.5q73 0 124 -49.5t51 -121.5t-51 -121.5t-124 -49.5q-72 0 -123 49.5t-51 121.5z" />
<glyph unicode="&#xa9;" horiz-adv-x="1743" d="M112 632q0 165 65 316t174.5 260t261 173.5t317.5 64.5q161 0 302.5 -57.5t242.5 -157t159.5 -239t58.5 -298.5q0 -166 -65 -317t-174 -260t-261 -173.5t-318 -64.5q-213 0 -388 98.5t-275 271t-100 383.5zM289 636q0 -124 45 -233.5t123 -187t187.5 -122.5t234.5 -45 q171 0 318 87t233.5 235t86.5 320q0 167 -76.5 301.5t-211.5 210.5t-303 76q-128 0 -245.5 -51.5t-203.5 -138t-137 -205t-51 -247.5zM544 612q0 190 114.5 315t287.5 125q149 0 242 -88.5t81 -218.5h-216q1 60 -29 94t-83 34q-74 0 -125.5 -77.5t-51.5 -189.5 q0 -73 31.5 -112t89.5 -39q83 0 122 83h224q-33 -125 -125.5 -193.5t-227.5 -68.5q-149 0 -241.5 93t-92.5 243z" />
<glyph unicode="&#xaa;" horiz-adv-x="884" d="M138 893q-2 115 93 183t263 72l182 4l9 44q3 18 3 21q-2 28 -32.5 45t-81.5 17q-88 0 -115 -50h-232q23 108 122.5 172t242.5 64q153 0 248 -62.5t96 -163.5q1 -28 -5 -60l-102 -477h-247l19 89h-14q-29 -45 -87.5 -72t-126.5 -27q-100 0 -167 57t-68 144zM384 931 q1 -28 30 -46t74 -18q55 0 96.5 26.5t50.5 66.5l11 51l-139 -3q-58 -2 -91 -22.5t-32 -54.5z" />
<glyph unicode="&#xab;" horiz-adv-x="1492" d="M137 563l2 8l413 408h332l-438 -424l-1 -8l256 -394h-303zM681 563l2 8l412 408h332l-437 -424l-2 -8l257 -394h-303z" />
<glyph unicode="&#xac;" d="M183 432l64 304h1042l-150 -706h-313l86 402h-729z" />
<glyph unicode="&#xad;" horiz-adv-x="1006" d="M146 425l68 316h657l-67 -316h-658z" />
<glyph unicode="&#xae;" horiz-adv-x="1260" d="M183 967q0 144 71 265.5t194 191.5t269 70q235 0 385 -148t150 -379q0 -108 -42 -205t-113.5 -167.5t-170.5 -112t-209 -41.5q-234 0 -384 147.5t-150 378.5zM332 967q0 -172 106.5 -279t278.5 -107q161 0 273.5 112.5t112.5 273.5q0 173 -106.5 279.5t-279.5 106.5 q-160 0 -272.5 -113t-112.5 -273zM462 734l102 482h249q68 0 114 -44t46 -107q0 -58 -35 -101.5t-93 -59.5l77 -170h-154l-68 157h-66l-33 -157h-139zM656 993h92q37 0 57.5 16.5t20.5 45.5q0 51 -61 51h-85z" />
<glyph unicode="&#xaf;" horiz-adv-x="1024" d="M297 1339l42 198h763l-42 -198h-763z" />
<glyph unicode="&#xb0;" horiz-adv-x="1016" d="M210 1012q0 177 118.5 298.5t293.5 121.5q174 0 281.5 -102.5t107.5 -263.5q0 -177 -118.5 -298.5t-292.5 -121.5t-282 102.5t-108 263.5zM455 1023q0 -58 37 -101.5t108 -43.5q74 0 120 51.5t46 125.5q0 58 -37 102t-107 44q-75 0 -121 -52t-46 -126z" />
<glyph unicode="&#xb1;" d="M86 30l61 284h1065l-61 -284h-1065zM218 646l54 261h378l49 230h310l-49 -230h378l-55 -261h-378l-49 -230h-310l49 230h-377z" />
<glyph unicode="&#xb2;" horiz-adv-x="912" d="M132 702l40 185l330 223q138 97 182 140.5t43 87.5q-1 36 -34 58t-84 22q-110 0 -134 -111h-239q8 134 121 222.5t277 88.5q151 0 250 -73t100 -186q0 -48 -14 -86t-53 -80.5t-92.5 -84t-146.5 -105.5l-146 -87l-2 -12h378l-43 -202h-733z" />
<glyph unicode="&#xb3;" horiz-adv-x="944" d="M166 953q0 19 6 53h244h1q-10 -50 29.5 -85t106.5 -35q60 0 97.5 28.5t35.5 71.5q-2 38 -36 61.5t-89 23.5h-107l39 179h118q70 0 106.5 22.5t34.5 65.5q-1 38 -35.5 61t-90.5 23q-103 0 -130 -77h-238q26 126 131 199.5t259 73.5t252.5 -69.5t100.5 -178.5 q2 -83 -64.5 -147.5t-160.5 -70.5l-2 -12q81 -18 125.5 -66.5t45.5 -123.5q2 -118 -109.5 -195.5t-281.5 -77.5q-175 0 -281 75t-107 201z" />
<glyph unicode="&#xb4;" horiz-adv-x="1024" d="M441 1260l205 359h314l-283 -359h-236z" />
<glyph unicode="&#xb5;" horiz-adv-x="1411" d="M-72 -368l313 1481h355l-126 -593q-11 -50 -11 -90q0 -165 151 -165q83 0 141 59.5t80 162.5l134 626h353l-157 -741q-6 -25 -6 -54q0 -35 19 -51t62 -16q32 0 58 6l-54 -252q-55 -15 -158 -15q-126 0 -193.5 51t-67.5 154v6h-19q-18 -41 -37 -73.5t-52.5 -71 t-83.5 -60.5t-112 -22q-47 0 -82 18t-48 45h-19l-86 -405h-354z" />
<glyph unicode="&#xb6;" horiz-adv-x="1458" d="M180 923q0 146 75.5 265.5t205.5 187t286 67.5h284l-365 -1716h-267l175 819h-18q-167 0 -271.5 106.5t-104.5 270.5zM845 -273l366 1716h267l-366 -1716h-267z" />
<glyph unicode="&#xb7;" horiz-adv-x="767" d="M176 549q0 86 55 142t147 56q91 0 146.5 -53.5t55.5 -129.5q0 -86 -55 -142t-147 -56q-91 0 -146.5 53.5t-55.5 129.5z" />
<glyph unicode="&#xb8;" horiz-adv-x="1024" d="M100 -471l32 143q52 -14 96 -14q45 0 78 12.5t33 40.5q0 51 -108 51h-52l26 120l115 148h184v-30l-94 -120q54 -9 97.5 -52.5t43.5 -116.5q0 -95 -80 -149t-214 -54q-87 0 -157 21z" />
<glyph unicode="&#xb9;" horiz-adv-x="751" d="M225 1214l49 230l272 149h263l-189 -891h-263l138 651h-13z" />
<glyph unicode="&#xba;" horiz-adv-x="957" d="M173 1021q-3 189 128 316.5t329 127.5q168 0 269.5 -92t102.5 -246q3 -190 -127 -316.5t-327 -126.5q-168 0 -271 92t-104 245zM436 1021q2 -68 34 -105t88 -37q76 0 129.5 73.5t51.5 174.5q-2 68 -33.5 106t-86.5 38q-79 0 -132.5 -74t-50.5 -176z" />
<glyph unicode="&#xbb;" horiz-adv-x="1492" d="M69 153l437 424l2 8l-256 394h303l260 -409l-2 -8l-412 -409h-332zM612 153l438 424l2 8l-257 394h303l261 -409l-2 -8l-413 -409h-332z" />
<glyph unicode="&#xbc;" horiz-adv-x="2269" d="M193 1064l49 230l272 149h263l-189 -891h-263l138 651h-13zM467 0l1070 1443h269l-1071 -1443h-268zM1270 130l45 232q82 108 180 219.5t280 309.5h377l-119 -557h116l-43 -204h-116l-27 -130h-249l27 130h-471zM1537 324h252l82 383h-13q-12 -13 -56 -60.5t-61 -66.5 t-53.5 -61t-71.5 -85t-77 -97z" />
<glyph unicode="&#xbd;" horiz-adv-x="2323" d="M193 1064l49 230l272 149h263l-189 -891h-263l138 651h-13zM467 0l1070 1443h269l-1071 -1443h-268zM1395 0l40 185l330 223q138 97 182 140.5t43 87.5q-1 36 -34 58t-84 22q-110 0 -134 -111h-239q8 134 121 222.5t277 88.5q151 0 250 -73t100 -186q0 -48 -14 -86 t-53 -80.5t-92.5 -84t-146.5 -105.5l-146 -87l-2 -12h378l-43 -202h-733z" />
<glyph unicode="&#xbe;" horiz-adv-x="2461" d="M134 803q0 19 6 53h244h1q-10 -50 29.5 -85t106.5 -35q60 0 97.5 28.5t35.5 71.5q-2 38 -36 61.5t-89 23.5h-107l39 179h118q70 0 106.5 22.5t34.5 65.5q-1 38 -35.5 61t-90.5 23q-103 0 -130 -77h-238q26 126 130.5 199.5t259.5 73.5q154 0 252.5 -69.5t100.5 -178.5 q2 -83 -64.5 -147.5t-160.5 -70.5l-2 -12q81 -18 125.5 -66.5t45.5 -123.5q2 -118 -109.5 -195.5t-281.5 -77.5q-175 0 -281 75t-107 201zM660 0l1070 1443h269l-1071 -1443h-268zM1462 130l45 232q82 108 180 219.5t280 309.5h377l-119 -557h116l-43 -204h-116l-27 -130 h-249l27 130h-471zM1729 324h252l82 383h-13q-12 -13 -56 -60.5t-61 -66.5t-53.5 -61t-71.5 -85t-77 -97z" />
<glyph unicode="&#xbf;" horiz-adv-x="1189" d="M-11 45q0 127 72 231.5t209 164.5q115 51 161 92t60 108l7 36h319l-9 -56q-20 -135 -73.5 -207t-169.5 -123q-123 -54 -171 -104t-48 -116q0 -55 42 -90t113 -35q64 0 113.5 39.5t65.5 105.5h325q-21 -185 -162.5 -301t-357.5 -116q-224 0 -360 103t-136 268zM507 969 q0 82 58 138.5t150 56.5q93 0 151 -47.5t58 -124.5q0 -84 -58.5 -139.5t-150.5 -55.5q-89 0 -148.5 48t-59.5 124z" />
<glyph unicode="&#xc0;" horiz-adv-x="1564" d="M-46 0l807 1443h445l167 -1443h-383l-22 317h-473l-162 -317h-379zM624 581h333l-39 536h-20zM787 1932h312l56 -335h-237z" />
<glyph unicode="&#xc1;" horiz-adv-x="1564" d="M-46 0l807 1443h445l167 -1443h-383l-22 317h-473l-162 -317h-379zM624 581h333l-39 536h-20zM878 1597l198 335h313l-274 -335h-237z" />
<glyph unicode="&#xc2;" horiz-adv-x="1564" d="M-46 0l807 1443h445l167 -1443h-383l-22 317h-473l-162 -317h-379zM579 1596l336 349h338l188 -349h-284l-84 195h-19l-168 -195h-307zM624 581h333l-39 536h-20z" />
<glyph unicode="&#xc3;" horiz-adv-x="1564" d="M-46 0l807 1443h445l167 -1443h-383l-22 317h-473l-162 -317h-379zM616 1608q26 141 100.5 225t180.5 84q52 0 99.5 -23t75 -50t59 -50t56.5 -23q61 0 89 117h201q-26 -140 -100.5 -224.5t-180.5 -84.5q-52 0 -99 23t-75 50t-59.5 50t-56.5 23q-62 0 -89 -117h-201z M624 581h333l-39 536h-20z" />
<glyph unicode="&#xc4;" horiz-adv-x="1564" d="M-46 0l807 1443h445l167 -1443h-383l-22 317h-473l-162 -317h-379zM624 581h333l-39 536h-20zM624 1759q0 72 51 122t123 50t123 -50t51 -122q0 -71 -51 -120.5t-123 -49.5t-123 49.5t-51 120.5zM1129 1759q0 72 51.5 122t123.5 50t123 -50t51 -122q0 -71 -51 -120.5 t-123 -49.5t-123.5 49.5t-51.5 120.5z" />
<glyph unicode="&#xc5;" horiz-adv-x="1564" d="M-46 0l807 1443h445l167 -1443h-383l-22 317h-473l-162 -317h-379zM624 581h333l-39 536h-20zM833 1740q0 89 64 150.5t153 61.5t153.5 -61.5t64.5 -150.5t-64 -150t-154 -61q-89 0 -153 61t-64 150zM965 1740q0 -36 24.5 -59.5t60.5 -23.5t61 23.5t25 59.5t-25 60 t-61 24t-60.5 -24t-24.5 -60z" />
<glyph unicode="&#xc6;" horiz-adv-x="2108" d="M-45 0l873 1443h1337l-63 -295h-647l-61 -290h610l-58 -270h-610l-62 -293h646l-62 -295h-976l69 327h-432l-195 -327h-369zM671 592h337l122 575h-120z" />
<glyph unicode="&#xc7;" horiz-adv-x="1569" d="M134 574q0 263 103.5 470.5t288 322.5t418.5 115q167 0 305 -68t217 -186.5t79 -261.5q0 -30 -4 -58h-352q1 3 1 19q-3 110 -77 178.5t-191 68.5q-116 0 -211 -75t-149.5 -208t-54.5 -296q0 -151 73.5 -239t199.5 -88q112 0 200.5 62.5t122.5 165.5h356 q-40 -220 -206 -362.5t-407 -167.5l-67 -86q54 -9 97.5 -52.5t43.5 -116.5q0 -95 -80 -149t-214 -54q-87 0 -157 21l32 143q53 -14 96 -14q45 0 78 12.5t33 40.5q0 51 -108 51h-52l26 120l67 86q-235 33 -371 194.5t-136 411.5z" />
<glyph unicode="&#xc8;" horiz-adv-x="1302" d="M52 0l307 1443h988l-63 -295h-621l-61 -288h584l-57 -270h-584l-63 -295h621l-62 -295h-989zM657 1932h312l56 -335h-237z" />
<glyph unicode="&#xc9;" horiz-adv-x="1302" d="M52 0l307 1443h988l-63 -295h-621l-61 -288h584l-57 -270h-584l-63 -295h621l-62 -295h-989zM748 1597l198 335h313l-274 -335h-237z" />
<glyph unicode="&#xca;" horiz-adv-x="1302" d="M52 0l307 1443h988l-63 -295h-621l-61 -288h584l-57 -270h-584l-63 -295h621l-62 -295h-989zM449 1596l336 349h338l188 -349h-284l-84 195h-19l-168 -195h-307z" />
<glyph unicode="&#xcb;" horiz-adv-x="1302" d="M52 0l307 1443h988l-63 -295h-621l-61 -288h584l-57 -270h-584l-63 -295h621l-62 -295h-989zM494 1759q0 72 51 122t123 50t123 -50t51 -122q0 -71 -51 -120.5t-123 -49.5t-123 49.5t-51 120.5zM999 1759q0 72 51.5 122t123.5 50t123 -50t51 -122q0 -71 -51 -120.5 t-123 -49.5t-123.5 49.5t-51.5 120.5z" />
<glyph unicode="&#xcc;" horiz-adv-x="707" d="M52 0l307 1443h367l-307 -1443h-367zM346 1932h312l56 -335h-237z" />
<glyph unicode="&#xcd;" horiz-adv-x="707" d="M52 0l307 1443h367l-307 -1443h-367zM437 1597l198 335h313l-274 -335h-237z" />
<glyph unicode="&#xce;" horiz-adv-x="707" d="M52 0l307 1443h367l-307 -1443h-367zM139 1596l336 349h338l188 -349h-284l-84 195h-19l-168 -195h-307z" />
<glyph unicode="&#xcf;" horiz-adv-x="707" d="M52 0l307 1443h367l-307 -1443h-367zM183 1759q0 72 51 122t123 50t123 -50t51 -122q0 -71 -51 -120.5t-123 -49.5t-123 49.5t-51 120.5zM688 1759q0 72 51.5 122t123.5 50t123 -50t51 -122q0 -71 -51 -120.5t-123 -49.5t-123.5 49.5t-51.5 120.5z" />
<glyph unicode="&#xd0;" horiz-adv-x="1561" d="M52 0l128 600h-106l54 254h106l125 589h569q264 0 417.5 -151t153.5 -419q0 -251 -95.5 -450t-268.5 -311t-394 -112h-689zM485 294h211q188 0 307 146.5t119 389.5q0 147 -77 233t-213 86h-166l-62 -295h232l-54 -254h-232z" />
<glyph unicode="&#xd1;" horiz-adv-x="1600" d="M52 0l307 1443h260l449 -842h19l180 842h352l-307 -1443h-256l-456 834h-19l-177 -834h-352zM589 1608q26 141 100.5 225t180.5 84q52 0 99.5 -23t75 -50t59 -50t56.5 -23q61 0 89 117h201q-26 -140 -100.5 -224.5t-180.5 -84.5q-52 0 -99 23t-75 50t-59.5 50t-56.5 23 q-62 0 -89 -117h-201z" />
<glyph unicode="&#xd2;" horiz-adv-x="1638" d="M135 581q0 196 61.5 365t167.5 286t252.5 183.5t313.5 66.5q149 0 271.5 -47.5t203 -130.5t124.5 -196.5t44 -245.5q0 -158 -39 -299t-111.5 -250t-170 -188.5t-219 -121.5t-254.5 -42q-147 0 -268.5 47.5t-203.5 130.5t-127 196.5t-45 245.5zM509 606 q0 -152 76.5 -243.5t204.5 -91.5q170 0 290 163.5t120 401.5q0 152 -77 242.5t-204 90.5q-111 0 -205.5 -74.5t-149.5 -204t-55 -284.5zM738 1932h312l56 -335h-237z" />
<glyph unicode="&#xd3;" horiz-adv-x="1638" d="M135 581q0 196 61.5 365t167.5 286t252.5 183.5t313.5 66.5q149 0 271.5 -47.5t203 -130.5t124.5 -196.5t44 -245.5q0 -158 -39 -299t-111.5 -250t-170 -188.5t-219 -121.5t-254.5 -42q-147 0 -268.5 47.5t-203.5 130.5t-127 196.5t-45 245.5zM509 606 q0 -152 76.5 -243.5t204.5 -91.5q170 0 290 163.5t120 401.5q0 152 -77 242.5t-204 90.5q-111 0 -205.5 -74.5t-149.5 -204t-55 -284.5zM829 1597l198 335h313l-274 -335h-237z" />
<glyph unicode="&#xd4;" horiz-adv-x="1638" d="M135 581q0 196 61.5 365t167.5 286t252.5 183.5t313.5 66.5q149 0 271.5 -47.5t203 -130.5t124.5 -196.5t44 -245.5q0 -158 -39 -299t-111.5 -250t-170 -188.5t-219 -121.5t-254.5 -42q-147 0 -268.5 47.5t-203.5 130.5t-127 196.5t-45 245.5zM509 606 q0 -152 76.5 -243.5t204.5 -91.5q170 0 290 163.5t120 401.5q0 152 -77 242.5t-204 90.5q-111 0 -205.5 -74.5t-149.5 -204t-55 -284.5zM530 1596l336 349h338l188 -349h-284l-84 195h-19l-168 -195h-307z" />
<glyph unicode="&#xd5;" horiz-adv-x="1638" d="M135 581q0 196 61.5 365t167.5 286t252.5 183.5t313.5 66.5q149 0 271.5 -47.5t203 -130.5t124.5 -196.5t44 -245.5q0 -158 -39 -299t-111.5 -250t-170 -188.5t-219 -121.5t-254.5 -42q-147 0 -268.5 47.5t-203.5 130.5t-127 196.5t-45 245.5zM509 606 q0 -152 76.5 -243.5t204.5 -91.5q170 0 290 163.5t120 401.5q0 152 -77 242.5t-204 90.5q-111 0 -205.5 -74.5t-149.5 -204t-55 -284.5zM567 1608q26 141 100.5 225t180.5 84q52 0 99.5 -23t75 -50t59 -50t56.5 -23q61 0 89 117h201q-26 -140 -100.5 -224.5t-180.5 -84.5 q-52 0 -99 23t-75 50t-59.5 50t-56.5 23q-62 0 -89 -117h-201z" />
<glyph unicode="&#xd6;" horiz-adv-x="1638" d="M135 581q0 196 61.5 365t167.5 286t252.5 183.5t313.5 66.5q149 0 271.5 -47.5t203 -130.5t124.5 -196.5t44 -245.5q0 -158 -39 -299t-111.5 -250t-170 -188.5t-219 -121.5t-254.5 -42q-147 0 -268.5 47.5t-203.5 130.5t-127 196.5t-45 245.5zM509 606 q0 -152 76.5 -243.5t204.5 -91.5q170 0 290 163.5t120 401.5q0 152 -77 242.5t-204 90.5q-111 0 -205.5 -74.5t-149.5 -204t-55 -284.5zM575 1759q0 72 51 122t123 50t123 -50t51 -122q0 -71 -51 -120.5t-123 -49.5t-123 49.5t-51 120.5zM1080 1759q0 72 51.5 122t123.5 50 t123 -50t51 -122q0 -71 -51 -120.5t-123 -49.5t-123.5 49.5t-51.5 120.5z" />
<glyph unicode="&#xd7;" d="M141 271l397 326l-244 322l233 192l245 -322l390 322l171 -215l-396 -326l245 -321l-234 -193l-244 322l-392 -322z" />
<glyph unicode="&#xd8;" horiz-adv-x="1614" d="M126 153l97 93q-88 148 -88 335q0 196 61.5 365t167.5 286t252.5 183.5t313.5 66.5q262 0 432 -140l92 88l136 -145l-99 -95q82 -143 82 -328q0 -158 -39 -299t-111.5 -250t-170 -188.5t-219 -121.5t-254.5 -42q-254 0 -425 136l-91 -88zM497 602q0 -48 7 -86l613 590 q-76 79 -196 79q-115 0 -212.5 -77t-154.5 -211.5t-57 -294.5zM596 329q76 -73 191 -73t212.5 76.5t154.5 211.5t57 296q0 37 -5 75z" />
<glyph unicode="&#xd9;" horiz-adv-x="1585" d="M163 440q-1 56 13 125l186 878h368l-185 -872q-10 -47 -10 -91q1 -96 66.5 -151.5t171.5 -55.5q108 0 180 64t97 185l195 921h368l-211 -1002q-48 -226 -218 -353t-423 -127q-273 0 -435.5 133t-162.5 346zM787 1932h312l56 -335h-237z" />
<glyph unicode="&#xda;" horiz-adv-x="1585" d="M163 440q-1 56 13 125l186 878h368l-185 -872q-10 -47 -10 -91q1 -96 66.5 -151.5t171.5 -55.5q108 0 180 64t97 185l195 921h368l-211 -1002q-48 -226 -218 -353t-423 -127q-273 0 -435.5 133t-162.5 346zM878 1597l198 335h313l-274 -335h-237z" />
<glyph unicode="&#xdb;" horiz-adv-x="1585" d="M163 440q-1 56 13 125l186 878h368l-185 -872q-10 -47 -10 -91q1 -96 66.5 -151.5t171.5 -55.5q108 0 180 64t97 185l195 921h368l-211 -1002q-48 -226 -218 -353t-423 -127q-273 0 -435.5 133t-162.5 346zM580 1596l336 349h338l188 -349h-284l-84 195h-19l-168 -195 h-307z" />
<glyph unicode="&#xdc;" horiz-adv-x="1585" d="M163 440q-1 56 13 125l186 878h368l-185 -872q-10 -47 -10 -91q1 -96 66.5 -151.5t171.5 -55.5q108 0 180 64t97 185l195 921h368l-211 -1002q-48 -226 -218 -353t-423 -127q-273 0 -435.5 133t-162.5 346zM624 1759q0 72 51 122t123 50t123 -50t51 -122 q0 -71 -51 -120.5t-123 -49.5t-123 49.5t-51 120.5zM1129 1759q0 72 51.5 122t123.5 50t123 -50t51 -122q0 -71 -51 -120.5t-123 -49.5t-123.5 49.5t-51.5 120.5z" />
<glyph unicode="&#xdd;" horiz-adv-x="1507" d="M262 1443h383l159 -591h19l405 591h395l-699 -953l-104 -490h-367l105 496zM833 1597l198 335h313l-274 -335h-237z" />
<glyph unicode="&#xde;" horiz-adv-x="1436" d="M53 0l307 1443h368l-47 -219h238q196 0 324 -117t128 -296q0 -151 -75 -275t-212 -197t-308 -73h-301l-56 -266h-366zM533 546h207q121 0 194 62t73 165q0 81 -51.5 124.5t-149.5 43.5h-189z" />
<glyph unicode="&#xdf;" horiz-adv-x="1441" d="M34 0l238 1094q36 167 184 266t362 99q232 0 378.5 -108.5t146.5 -281.5q0 -127 -81 -221.5t-206 -117.5l-4 -20q130 -28 200.5 -105t70.5 -195q0 -195 -140 -310.5t-370 -115.5q-160 0 -275 42l59 266q70 -35 159 -35q95 0 154 48.5t59 127.5q0 71 -59.5 108.5 t-164.5 37.5h-78l59 275h72q81 0 136.5 46t55.5 118q0 71 -50 115t-130 44q-83 0 -138.5 -52.5t-76.5 -151.5l-207 -973h-354z" />
<glyph unicode="&#xe0;" horiz-adv-x="1241" d="M36 286q0 171 134 271.5t370 107.5l258 7l14 67q4 24 4 35q0 48 -42.5 76.5t-113.5 28.5q-126 0 -167 -83h-324q35 157 174.5 250t341.5 93q214 0 346 -92t132 -242q0 -47 -9 -90l-153 -715h-343l28 134h-19q-43 -69 -126 -110t-178 -41q-140 0 -233.5 86.5t-93.5 216.5z M379 337q0 -48 40 -78t103 -30q78 0 139 45.5t76 113.5l18 83l-197 -6q-83 -3 -131 -37.5t-48 -90.5zM481 1618h314l52 -359h-236z" />
<glyph unicode="&#xe1;" horiz-adv-x="1241" d="M36 286q0 171 134 271.5t370 107.5l258 7l14 67q4 24 4 35q0 48 -42.5 76.5t-113.5 28.5q-126 0 -167 -83h-324q35 157 174.5 250t341.5 93q214 0 346 -92t132 -242q0 -47 -9 -90l-153 -715h-343l28 134h-19q-43 -69 -126 -110t-178 -41q-140 0 -233.5 86.5t-93.5 216.5z M379 337q0 -48 40 -78t103 -30q78 0 139 45.5t76 113.5l18 83l-197 -6q-83 -3 -131 -37.5t-48 -90.5zM603 1259l204 359h314l-282 -359h-236z" />
<glyph unicode="&#xe2;" horiz-adv-x="1241" d="M36 286q0 171 134 271.5t370 107.5l258 7l14 67q4 24 4 35q0 48 -42.5 76.5t-113.5 28.5q-126 0 -167 -83h-324q35 157 174.5 250t341.5 93q214 0 346 -92t132 -242q0 -47 -9 -90l-153 -715h-343l28 134h-19q-43 -69 -126 -110t-178 -41q-140 0 -233.5 86.5t-93.5 216.5z M303 1260l329 359h338l194 -359h-284l-88 202h-19l-172 -202h-298zM379 337q0 -48 40 -78t103 -30q78 0 139 45.5t76 113.5l18 83l-197 -6q-83 -3 -131 -37.5t-48 -90.5z" />
<glyph unicode="&#xe3;" horiz-adv-x="1241" d="M36 286q0 171 134 271.5t370 107.5l258 7l14 67q4 24 4 35q0 48 -42.5 76.5t-113.5 28.5q-126 0 -167 -83h-324q35 157 174.5 250t341.5 93q214 0 346 -92t132 -242q0 -47 -9 -90l-153 -715h-343l28 134h-19q-43 -69 -126 -110t-178 -41q-140 0 -233.5 86.5t-93.5 216.5z M328 1291q27 142 101.5 225.5t180.5 83.5q52 0 99 -23t75 -50t59 -50t56 -23q61 0 89 117h202q-26 -141 -101 -225t-181 -84q-52 0 -99 23t-75 50t-59 50t-56 23q-63 0 -89 -117h-202zM379 337q0 -48 40 -78t103 -30q78 0 139 45.5t76 113.5l18 83l-197 -6 q-83 -3 -131 -37.5t-48 -90.5z" />
<glyph unicode="&#xe4;" horiz-adv-x="1241" d="M36 286q0 171 134 271.5t370 107.5l258 7l14 67q4 24 4 35q0 48 -42.5 76.5t-113.5 28.5q-126 0 -167 -83h-324q35 157 174.5 250t341.5 93q214 0 346 -92t132 -242q0 -47 -9 -90l-153 -715h-343l28 134h-19q-43 -69 -126 -110t-178 -41q-140 0 -233.5 86.5t-93.5 216.5z M336 1442q0 72 51 121.5t123 49.5q73 0 123.5 -49.5t50.5 -121.5t-50.5 -121.5t-123.5 -49.5q-72 0 -123 49.5t-51 121.5zM379 337q0 -48 40 -78t103 -30q78 0 139 45.5t76 113.5l18 83l-197 -6q-83 -3 -131 -37.5t-48 -90.5zM842 1442q0 72 51 121.5t123 49.5 q73 0 123.5 -49.5t50.5 -121.5t-50.5 -121.5t-123.5 -49.5q-72 0 -123 49.5t-51 121.5z" />
<glyph unicode="&#xe5;" horiz-adv-x="1241" d="M36 286q0 171 134 271.5t370 107.5l258 7l14 67q4 24 4 35q0 48 -42.5 76.5t-113.5 28.5q-126 0 -167 -83h-324q35 157 174.5 250t341.5 93q214 0 346 -92t132 -242q0 -47 -9 -90l-153 -715h-343l28 134h-19q-43 -69 -126 -110t-178 -41q-140 0 -233.5 86.5t-93.5 216.5z M379 337q0 -48 40 -78t103 -30q78 0 139 45.5t76 113.5l18 83l-197 -6q-83 -3 -131 -37.5t-48 -90.5zM523 1494q0 104 74.5 173.5t177.5 69.5q104 0 178 -69t74 -174t-74 -174t-178 -69q-103 0 -177.5 69.5t-74.5 173.5zM676 1494q0 -41 29.5 -69t69.5 -28t69.5 28t29.5 69 t-29.5 69t-69.5 28t-69.5 -28t-29.5 -69z" />
<glyph unicode="&#xe6;" horiz-adv-x="1956" d="M38 292q0 178 131.5 277t374.5 106l257 7l13 57q5 17 5 35q0 48 -43 76.5t-114 28.5q-126 0 -167 -83h-324q36 162 172 252.5t335 90.5q113 0 202 -42t130 -109h19q68 73 160.5 112t198.5 39q204 0 341 -133t137 -340q0 -85 -20 -187h-764v-21q0 -110 58.5 -169.5 t153.5 -59.5q70 0 118.5 28t68.5 77h332q-41 -164 -186.5 -262t-352.5 -98q-122 0 -232.5 53t-155.5 134h-19q-58 -81 -169.5 -134t-245.5 -53q-179 0 -296.5 91.5t-117.5 226.5zM381 335q0 -49 40.5 -82t102.5 -33q77 0 138.5 49t76.5 119l18 83l-197 -6q-83 -3 -131 -37.5 t-48 -92.5zM1118 681h423q4 12 4 36q0 74 -50 122t-131 48q-88 0 -155 -56.5t-91 -149.5z" />
<glyph unicode="&#xe7;" horiz-adv-x="1247" d="M86 443q0 198 77 356t221.5 249t331.5 91q108 0 198.5 -33.5t149 -88.5t91.5 -122.5t36 -139.5q1 -13 1 -42h-329q-1 73 -48 113t-121 40q-116 0 -187.5 -114.5t-71.5 -287.5q0 -108 50.5 -162.5t124.5 -54.5q73 0 125 39t74 113h331q-24 -166 -149 -283.5t-323 -137.5 l-77 -98q54 -9 97.5 -52.5t43.5 -116.5q0 -95 -80 -149t-214 -54q-87 0 -157 21l32 143q53 -14 96 -14q45 0 78 12.5t33 40.5q0 51 -108 51h-52l26 120l80 103q-178 32 -279 153.5t-101 304.5z" />
<glyph unicode="&#xe8;" horiz-adv-x="1290" d="M89 456q0 305 171 494t445 189q216 0 355.5 -131.5t139.5 -341.5q0 -85 -20 -187h-766v-21q0 -110 58.5 -169.5t153.5 -59.5q70 0 119 28t70 77h332q-41 -165 -186.5 -262.5t-356.5 -97.5q-234 0 -374.5 129.5t-140.5 352.5zM450 681h423q4 12 4 36q0 74 -50 122t-131 48 q-88 0 -155 -56.5t-91 -149.5zM490 1618h314l52 -359h-236z" />
<glyph unicode="&#xe9;" horiz-adv-x="1290" d="M89 456q0 305 171 494t445 189q216 0 355.5 -131.5t139.5 -341.5q0 -85 -20 -187h-766v-21q0 -110 58.5 -169.5t153.5 -59.5q70 0 119 28t70 77h332q-41 -165 -186.5 -262.5t-356.5 -97.5q-234 0 -374.5 129.5t-140.5 352.5zM450 681h423q4 12 4 36q0 74 -50 122t-131 48 q-88 0 -155 -56.5t-91 -149.5zM612 1259l204 359h314l-282 -359h-236z" />
<glyph unicode="&#xea;" horiz-adv-x="1290" d="M89 456q0 305 171 494t445 189q216 0 355.5 -131.5t139.5 -341.5q0 -85 -20 -187h-766v-21q0 -110 58.5 -169.5t153.5 -59.5q70 0 119 28t70 77h332q-41 -165 -186.5 -262.5t-356.5 -97.5q-234 0 -374.5 129.5t-140.5 352.5zM312 1260l329 359h338l194 -359h-284l-88 202 h-19l-172 -202h-298zM450 681h423q4 12 4 36q0 74 -50 122t-131 48q-88 0 -155 -56.5t-91 -149.5z" />
<glyph unicode="&#xeb;" horiz-adv-x="1290" d="M89 456q0 305 171 494t445 189q216 0 355.5 -131.5t139.5 -341.5q0 -85 -20 -187h-766v-21q0 -110 58.5 -169.5t153.5 -59.5q70 0 119 28t70 77h332q-41 -165 -186.5 -262.5t-356.5 -97.5q-234 0 -374.5 129.5t-140.5 352.5zM345 1442q0 72 51 121.5t123 49.5 q73 0 123.5 -49.5t50.5 -121.5t-50.5 -121.5t-123.5 -49.5q-72 0 -123 49.5t-51 121.5zM450 681h423q4 12 4 36q0 74 -50 122t-131 48q-88 0 -155 -56.5t-91 -149.5zM851 1442q0 72 51 121.5t123 49.5q73 0 123.5 -49.5t50.5 -121.5t-50.5 -121.5t-123.5 -49.5 q-72 0 -123 49.5t-51 121.5z" />
<glyph unicode="&#xec;" horiz-adv-x="643" d="M26 0l237 1113h354l-237 -1113h-354zM227 1618h314l52 -359h-236z" />
<glyph unicode="&#xed;" horiz-adv-x="643" d="M26 0l237 1113h354l-237 -1113h-354zM349 1259l204 359h314l-282 -359h-236z" />
<glyph unicode="&#xee;" horiz-adv-x="643" d="M26 0l237 1113h354l-237 -1113h-354zM49 1260l329 359h338l194 -359h-284l-88 202h-19l-172 -202h-298z" />
<glyph unicode="&#xef;" horiz-adv-x="643" d="M26 0l237 1113h354l-237 -1113h-354zM82 1442q0 72 51 121.5t123 49.5q73 0 123.5 -49.5t50.5 -121.5t-50.5 -121.5t-123.5 -49.5q-72 0 -123 49.5t-51 121.5zM588 1442q0 72 51 121.5t123 49.5q73 0 123.5 -49.5t50.5 -121.5t-50.5 -121.5t-123.5 -49.5q-72 0 -123 49.5 t-51 121.5z" />
<glyph unicode="&#xf0;" horiz-adv-x="1361" d="M83 473q0 148 70.5 276t194.5 205t270 77q120 0 208 -48.5t128 -122.5h16q-23 205 -128 335l-342 -108l34 158l188 59q-69 45 -152 73l40 183q223 -51 380 -172l260 82l-34 -157l-111 -35q179 -212 179 -517q0 -152 -40 -290q-66 -222 -226.5 -356t-392.5 -134 q-239 0 -390.5 137t-151.5 355zM443 455q0 -96 52 -151.5t136 -55.5q107 0 187.5 103.5t80.5 238.5q0 93 -53.5 149.5t-140.5 56.5q-105 0 -183.5 -105t-78.5 -236z" />
<glyph unicode="&#xf1;" horiz-adv-x="1331" d="M14 0l239 1113h343l-39 -181h19q56 93 143.5 145.5t200.5 52.5q150 0 239 -90t89 -232q0 -62 -15 -134l-143 -674h-353l132 619q9 37 9 76q0 68 -41.5 111.5t-114.5 43.5q-81 0 -138.5 -56.5t-76.5 -146.5l-140 -647h-353zM437 1299q27 142 101.5 225.5t180.5 83.5 q52 0 99 -23t75 -50t59 -50t56 -23q61 0 89 117h202q-26 -141 -101 -225t-181 -84q-52 0 -99 23t-75 50t-59 50t-56 23q-63 0 -89 -117h-202z" />
<glyph unicode="&#xf2;" horiz-adv-x="1344" d="M89 471q0 188 84.5 341t233.5 240t331 87q235 0 376 -136t141 -362q0 -141 -49.5 -264.5t-135 -212t-205.5 -139.5t-256 -51q-235 0 -377.5 136t-142.5 361zM456 474q0 -107 44.5 -167.5t122.5 -60.5q108 0 186 115t78 273q0 111 -43 173t-121 62q-111 0 -189 -115.5 t-78 -279.5zM522 1618h314l52 -359h-236z" />
<glyph unicode="&#xf3;" horiz-adv-x="1344" d="M89 471q0 188 84.5 341t233.5 240t331 87q235 0 376 -136t141 -362q0 -141 -49.5 -264.5t-135 -212t-205.5 -139.5t-256 -51q-235 0 -377.5 136t-142.5 361zM456 474q0 -107 44.5 -167.5t122.5 -60.5q108 0 186 115t78 273q0 111 -43 173t-121 62q-111 0 -189 -115.5 t-78 -279.5zM644 1259l204 359h314l-282 -359h-236z" />
<glyph unicode="&#xf4;" horiz-adv-x="1344" d="M89 471q0 188 84.5 341t233.5 240t331 87q235 0 376 -136t141 -362q0 -141 -49.5 -264.5t-135 -212t-205.5 -139.5t-256 -51q-235 0 -377.5 136t-142.5 361zM344 1260l329 359h338l194 -359h-284l-88 202h-19l-172 -202h-298zM456 474q0 -107 44.5 -167.5t122.5 -60.5 q108 0 186 115t78 273q0 111 -43 173t-121 62q-111 0 -189 -115.5t-78 -279.5z" />
<glyph unicode="&#xf5;" horiz-adv-x="1344" d="M89 471q0 188 84.5 341t233.5 240t331 87q235 0 376 -136t141 -362q0 -141 -49.5 -264.5t-135 -212t-205.5 -139.5t-256 -51q-235 0 -377.5 136t-142.5 361zM369 1291q27 142 101.5 225.5t180.5 83.5q52 0 99 -23t75 -50t59 -50t56 -23q61 0 89 117h202 q-26 -141 -101 -225t-181 -84q-52 0 -99 23t-75 50t-59 50t-56 23q-63 0 -89 -117h-202zM456 474q0 -107 44.5 -167.5t122.5 -60.5q108 0 186 115t78 273q0 111 -43 173t-121 62q-111 0 -189 -115.5t-78 -279.5z" />
<glyph unicode="&#xf6;" horiz-adv-x="1344" d="M89 471q0 188 84.5 341t233.5 240t331 87q235 0 376 -136t141 -362q0 -141 -49.5 -264.5t-135 -212t-205.5 -139.5t-256 -51q-235 0 -377.5 136t-142.5 361zM377 1442q0 72 51 121.5t123 49.5q73 0 123.5 -49.5t50.5 -121.5t-50.5 -121.5t-123.5 -49.5q-72 0 -123 49.5 t-51 121.5zM456 474q0 -107 44.5 -167.5t122.5 -60.5q108 0 186 115t78 273q0 111 -43 173t-121 62q-111 0 -189 -115.5t-78 -279.5zM883 1442q0 72 51 121.5t123 49.5q73 0 123.5 -49.5t50.5 -121.5t-50.5 -121.5t-123.5 -49.5q-72 0 -123 49.5t-51 121.5z" />
<glyph unicode="&#xf7;" d="M169 448l58 271h1076l-58 -271h-1076zM454 173q0 81 50 132.5t137 51.5q85 0 136 -49.5t51 -120.5q0 -81 -50 -132t-137 -51q-86 0 -136.5 49t-50.5 120zM626 984q0 81 50.5 132.5t137.5 51.5q85 0 135.5 -49.5t50.5 -120.5q0 -81 -50 -132t-136 -51t-137 49t-51 120z " />
<glyph unicode="&#xf8;" horiz-adv-x="1344" d="M89 471q0 188 84.5 341t233.5 240t331 87q159 0 276 -64l97 119l97 -57l-103 -126q150 -136 150 -370q0 -141 -49.5 -264.5t-135 -212t-205.5 -139.5t-256 -51q-169 0 -292 72l-109 -133l-90 61l112 137q-141 136 -141 360zM456 474q0 -44 7 -76l356 437q-40 34 -96 34 q-111 0 -189 -115.5t-78 -279.5zM515 289q43 -43 108 -43q108 0 186 115t78 273q0 53 -11 97z" />
<glyph unicode="&#xf9;" horiz-adv-x="1332" d="M86 300q0 54 15 141l141 672h355l-131 -615q-7 -35 -7 -73q0 -161 155 -161q82 0 136.5 54.5t75.5 151.5l137 643h354l-235 -1113h-344l37 175h-19q-112 -201 -325 -201q-155 0 -250 88t-95 238zM573 1618h314l52 -359h-236z" />
<glyph unicode="&#xfa;" horiz-adv-x="1332" d="M86 300q0 54 15 141l141 672h355l-131 -615q-7 -35 -7 -73q0 -161 155 -161q82 0 136.5 54.5t75.5 151.5l137 643h354l-235 -1113h-344l37 175h-19q-112 -201 -325 -201q-155 0 -250 88t-95 238zM695 1259l204 359h314l-282 -359h-236z" />
<glyph unicode="&#xfb;" horiz-adv-x="1332" d="M86 300q0 54 15 141l141 672h355l-131 -615q-7 -35 -7 -73q0 -161 155 -161q82 0 136.5 54.5t75.5 151.5l137 643h354l-235 -1113h-344l37 175h-19q-112 -201 -325 -201q-155 0 -250 88t-95 238zM395 1260l329 359h338l194 -359h-284l-88 202h-19l-172 -202h-298z" />
<glyph unicode="&#xfc;" horiz-adv-x="1332" d="M86 300q0 54 15 141l141 672h355l-131 -615q-7 -35 -7 -73q0 -161 155 -161q82 0 136.5 54.5t75.5 151.5l137 643h354l-235 -1113h-344l37 175h-19q-112 -201 -325 -201q-155 0 -250 88t-95 238zM428 1442q0 72 51 121.5t123 49.5q73 0 123.5 -49.5t50.5 -121.5 t-50.5 -121.5t-123.5 -49.5q-72 0 -123 49.5t-51 121.5zM934 1442q0 72 51 121.5t123 49.5q73 0 123.5 -49.5t50.5 -121.5t-50.5 -121.5t-123.5 -49.5q-72 0 -123 49.5t-51 121.5z" />
<glyph unicode="&#xfd;" horiz-adv-x="1258" d="M-59 -404l57 268q12 -3 70 -3q176 0 215 99l12 33l-127 1120h363l30 -809h19l370 809h377l-600 -1123q-114 -215 -263 -306t-382 -91q-129 0 -141 3zM652 1259l204 359h314l-282 -359h-236z" />
<glyph unicode="&#xfe;" horiz-adv-x="1378" d="M-56 -339l394 1847h353l-117 -550h20q54 80 138 126.5t190 46.5q167 0 271 -114.5t104 -309.5q0 -206 -73 -372t-200 -259t-283 -93q-118 0 -199.5 59.5t-108.5 157.5h-19l-116 -539h-354zM478 477q0 -100 51 -155.5t129 -55.5q113 0 192.5 110t79.5 271q0 100 -50 154.5 t-128 54.5q-112 0 -193 -113t-81 -266z" />
<glyph unicode="&#xff;" horiz-adv-x="1258" d="M-59 -404l57 268q12 -3 70 -3q176 0 215 99l12 33l-127 1120h363l30 -809h19l370 809h377l-600 -1123q-114 -215 -263 -306t-382 -91q-129 0 -141 3zM385 1442q0 72 51 121.5t123 49.5q73 0 123.5 -49.5t50.5 -121.5t-50.5 -121.5t-123.5 -49.5q-72 0 -123 49.5 t-51 121.5zM891 1442q0 72 51 121.5t123 49.5q73 0 123.5 -49.5t50.5 -121.5t-50.5 -121.5t-123.5 -49.5q-72 0 -123 49.5t-51 121.5z" />
<glyph unicode="&#x152;" horiz-adv-x="2305" d="M142 581q0 193 60 360.5t165 286t252.5 186.5t317.5 68q149 0 267.5 -58t183.5 -161l19 1l38 179h904l-63 -295h-621l-61 -288h584l-58 -270h-583l-64 -295h622l-62 -295h-905l19 87h-14q-51 -55 -150.5 -90.5t-206.5 -35.5q-287 0 -465.5 172t-178.5 448zM511 604 q0 -154 77.5 -246.5t207.5 -92.5q114 0 209.5 76.5t150.5 209t55 289.5q0 153 -77.5 245.5t-206.5 92.5q-113 0 -209 -76.5t-151.5 -209t-55.5 -288.5z" />
<glyph unicode="&#x153;" horiz-adv-x="2078" d="M89 469q0 189 84 342.5t231.5 240.5t329.5 87q114 0 210 -46t154 -128h19q150 174 376 174q218 0 356.5 -132.5t138.5 -340.5q0 -83 -20 -187h-765q-1 -6 -1 -21q0 -106 57 -167.5t155 -61.5q70 0 119.5 27.5t69.5 77.5h332q-40 -166 -187 -263t-356 -97 q-114 0 -212.5 46t-159.5 128h-19q-143 -174 -393 -174q-236 0 -377.5 135t-141.5 360zM456 472q0 -106 44.5 -167t122.5 -61q108 0 186 115.5t78 274.5q0 111 -43 173t-121 62q-111 0 -189 -116t-78 -281zM1239 681h423q3 18 3 36q0 75 -50.5 122.5t-130.5 47.5 q-87 0 -154 -56t-91 -150z" />
<glyph unicode="&#x178;" horiz-adv-x="1507" d="M262 1443h383l159 -591h19l405 591h395l-699 -953l-104 -490h-367l105 496zM579 1759q0 72 51 122t123 50t123 -50t51 -122q0 -71 -51 -120.5t-123 -49.5t-123 49.5t-51 120.5zM1084 1759q0 72 51.5 122t123.5 50t123 -50t51 -122q0 -71 -51 -120.5t-123 -49.5 t-123.5 49.5t-51.5 120.5z" />
<glyph unicode="&#x2c6;" horiz-adv-x="1024" d="M231 1260l329 359h338l195 -359h-285l-87 202h-19l-172 -202h-299z" />
<glyph unicode="&#x2dc;" horiz-adv-x="1024" d="M267 1291q27 142 101.5 225.5t180.5 83.5q52 0 99.5 -23t75 -50t58.5 -50t56 -23q62 0 90 117h201q-26 -141 -100.5 -225t-180.5 -84q-52 0 -99 23t-75 50t-59.5 50t-56.5 23q-61 0 -89 -117h-202z" />
<glyph unicode="&#x2000;" horiz-adv-x="976" />
<glyph unicode="&#x2001;" horiz-adv-x="1952" />
<glyph unicode="&#x2002;" horiz-adv-x="976" />
<glyph unicode="&#x2003;" horiz-adv-x="1952" />
<glyph unicode="&#x2004;" horiz-adv-x="650" />
<glyph unicode="&#x2005;" horiz-adv-x="488" />
<glyph unicode="&#x2006;" horiz-adv-x="325" />
<glyph unicode="&#x2007;" horiz-adv-x="325" />
<glyph unicode="&#x2008;" horiz-adv-x="244" />
<glyph unicode="&#x2009;" horiz-adv-x="390" />
<glyph unicode="&#x200a;" horiz-adv-x="108" />
<glyph unicode="&#x2010;" horiz-adv-x="1006" d="M146 425l68 316h657l-67 -316h-658z" />
<glyph unicode="&#x2011;" horiz-adv-x="1006" d="M146 425l68 316h657l-67 -316h-658z" />
<glyph unicode="&#x2012;" horiz-adv-x="1006" d="M146 425l68 316h657l-67 -316h-658z" />
<glyph unicode="&#x2013;" horiz-adv-x="1078" d="M-28 425l68 316h1078l-68 -316h-1078z" />
<glyph unicode="&#x2014;" horiz-adv-x="2048" d="M-28 425l68 316h2048l-68 -316h-2048z" />
<glyph unicode="&#x2018;" horiz-adv-x="675" d="M161 804l338 639h244l-245 -639h-337z" />
<glyph unicode="&#x2019;" horiz-adv-x="675" d="M161 804l246 639h336l-338 -639h-244z" />
<glyph unicode="&#x201a;" horiz-adv-x="675" d="M-70 -400l234 646h335l-325 -646h-244z" />
<glyph unicode="&#x201c;" horiz-adv-x="1191" d="M157 795l331 648h260l-255 -648h-336zM669 795l318 648h260l-243 -648h-335z" />
<glyph unicode="&#x201d;" horiz-adv-x="1191" d="M185 795l242 648h336l-319 -648h-259zM684 795l255 648h335l-330 -648h-260z" />
<glyph unicode="&#x201e;" horiz-adv-x="1191" d="M-69 -400l234 646h335l-325 -646h-244zM430 -400l247 646h335l-338 -646h-244z" />
<glyph unicode="&#x2022;" horiz-adv-x="1016" d="M129 577q0 158 113 271.5t271 113.5t271 -113.5t113 -271.5t-113 -271t-271 -113t-271 113t-113 271z" />
<glyph unicode="&#x2026;" horiz-adv-x="2121" d="M91 150q0 86 55 142t147 56q91 0 146.5 -53.5t55.5 -129.5q0 -86 -55 -142t-147 -56q-91 0 -146.5 53.5t-55.5 129.5zM768 150q0 86 55 142t147 56q91 0 146.5 -53.5t55.5 -129.5q0 -86 -55 -142t-147 -56q-91 0 -146.5 53.5t-55.5 129.5zM1445 150q0 86 55 142t147 56 q91 0 146.5 -53.5t55.5 -129.5q0 -86 -55 -142t-147 -56q-91 0 -146.5 53.5t-55.5 129.5z" />
<glyph unicode="&#x202f;" horiz-adv-x="390" />
<glyph unicode="&#x2039;" horiz-adv-x="948" d="M137 563l2 8l413 408h332l-438 -424l-1 -8l256 -394h-303z" />
<glyph unicode="&#x203a;" horiz-adv-x="948" d="M69 153l437 424l2 8l-256 394h303l260 -409l-2 -8l-412 -409h-332z" />
<glyph unicode="&#x205f;" horiz-adv-x="488" />
<glyph unicode="&#x20ac;" d="M138 524l23 113h155q0 79 14 157h-135l24 113h138q77 247 280.5 391.5t495.5 144.5q105 0 199.5 -18t138.5 -38l-62 -283q-99 46 -246 46q-154 0 -263.5 -64t-165.5 -179h568l-24 -113h-584q-15 -66 -15 -141v-16h566l-24 -113h-523q38 -115 148.5 -177.5t290.5 -62.5 q78 0 115 13l-63 -287q-71 -13 -119 -13q-312 0 -511 141.5t-235 385.5h-186z" />
<glyph unicode="&#x2122;" horiz-adv-x="2112" d="M159 1231l46 212h801l-46 -212h-268l-144 -679h-264l144 679h-269zM983 552l190 891h306l94 -474h13l296 474h320l-189 -891h-244l110 520h-12l-272 -428h-156l-89 428h-13l-110 -520h-244z" />
<glyph unicode="&#x25fc;" horiz-adv-x="1115" d="M0 0v1115h1115v-1115h-1115z" />
<glyph unicode="&#xfb01;" horiz-adv-x="1529" d="M105 835l56 263h176l28 133q31 152 133 221.5t284 69.5q133 0 220 -26l-50 -228q-38 11 -118 11q-109 0 -129 -96l-18 -85h227l-56 -263h-218l-178 -835h-355l178 835h-180zM912 0l237 1113h354l-237 -1113h-354zM1207 1446q0 77 55.5 131t132.5 54q78 0 133 -54t55 -131 t-55 -130.5t-133 -53.5q-77 0 -132.5 53.5t-55.5 130.5z" />
<glyph unicode="&#xfb02;" horiz-adv-x="1520" d="M105 835l56 263h176l28 133q31 152 133 221.5t284 69.5q133 0 220 -26l-50 -228q-38 11 -118 11q-109 0 -129 -96l-18 -85h227l-56 -263h-218l-178 -835h-355l178 835h-180zM907 0l326 1530h355l-326 -1530h-355z" />
</font>
</defs>
</svg>
