<?xml version="1.0" standalone="no"?>
<!DOCTYPE svg PUBLIC "-//W3C//DTD SVG 1.1//EN" "http://www.w3.org/Graphics/SVG/1.1/DTD/svg11.dtd" >
<svg xmlns="http://www.w3.org/2000/svg" xmlns:xlink="http://www.w3.org/1999/xlink" version="1.1">
<metadata></metadata>
<defs>
<font id="sf_pro_displaybold" horiz-adv-x="1325" >
<font-face units-per-em="2048" ascent="1638" descent="-410" />
<missing-glyph horiz-adv-x="405" />
<glyph horiz-adv-x="0" />
<glyph unicode="&#xd;" horiz-adv-x="0" />
<glyph unicode=" "  horiz-adv-x="405" />
<glyph unicode="&#x09;" horiz-adv-x="405" />
<glyph unicode="&#xa0;" horiz-adv-x="405" />
<glyph unicode="!" horiz-adv-x="648" d="M161 132q0 66 47.5 111.5t115.5 45.5t115.5 -45.5t47.5 -111.5t-47.5 -111.5t-115.5 -45.5t-115.5 45.5t-47.5 111.5zM174 1443h300l-24 -968h-252z" />
<glyph unicode="&#x22;" horiz-adv-x="929" d="M108 880v563h250v-563h-250zM571 880v563h250v-563h-250z" />
<glyph unicode="#" horiz-adv-x="1308" d="M0 380l41 216h227l54 270h-230l41 214h232l74 364h220l-72 -364h262l74 364h222l-73 -364h236l-41 -214h-239l-54 -270h241l-41 -216h-243l-76 -380h-222l77 380h-263l-77 -380h-220l75 380h-225zM471 577h291l63 307h-292z" />
<glyph unicode="$" d="M113 430h267q28 -169 232 -188v364l-74 17q-202 46 -303.5 140t-101.5 252q0 178 133 289.5t346 122.5v161h100v-162q212 -14 340 -124t135 -289h-266q-10 82 -65 129.5t-144 58.5v-353l78 -17q212 -48 314.5 -139.5t102.5 -251.5q0 -185 -136.5 -297t-358.5 -125v-161 h-100v160q-219 11 -356.5 120t-142.5 293zM413 1041q0 -61 47.5 -101.5t151.5 -68.5v331q-95 -9 -147 -53.5t-52 -107.5zM712 242q107 9 161.5 52.5t54.5 114.5q0 68 -47.5 106.5t-168.5 67.5v-341z" />
<glyph unicode="%" horiz-adv-x="1791" d="M45 1089q0 175 94 275.5t251 100.5t250.5 -100.5t93.5 -274.5q0 -173 -93.5 -275.5t-250.5 -102.5t-251 102t-94 275zM256 1089q0 -102 36 -155t98 -53q61 0 97 53t36 155q0 103 -35.5 154.5t-97.5 51.5t-98 -51.5t-36 -154.5zM298 0l979 1443h216l-978 -1443h-217z M1057 357q0 174 94 275t251 101t250.5 -100.5t93.5 -275.5q0 -173 -93.5 -275.5t-250.5 -102.5t-251 102t-94 276zM1268 357q0 -102 36 -155t98 -53q61 0 97 53t36 155t-35.5 154t-97.5 52t-98 -51.5t-36 -154.5z" />
<glyph unicode="&#x26;" horiz-adv-x="1437" d="M68 378q0 123 64.5 215.5t202.5 168.5q6 3 22 11.5t28.5 15.5t14.5 8q-98 101 -138.5 176t-40.5 154q0 145 116.5 240t292.5 95q177 0 289.5 -92.5t112.5 -237.5q0 -111 -71 -202t-221 -173l274 -296q52 92 52 273v76h243v-93q0 -267 -122 -436l269 -281h-327l-111 120 q-80 -69 -198 -107.5t-249 -38.5q-229 0 -366 110t-137 294zM341 401q0 -97 72 -156t188 -59q78 0 150 27t114 73l-331 358q-12 -6 -40 -21q-82 -52 -117.5 -103.5t-35.5 -118.5zM471 1112q0 -50 30 -98.5t104 -120.5q98 51 141 102.5t43 116.5q0 69 -44 112.5t-114 43.5 t-115 -44t-45 -112z" />
<glyph unicode="'" horiz-adv-x="466" d="M108 880v563h250v-563h-250z" />
<glyph unicode="(" horiz-adv-x="782" d="M182 567q0 265 72.5 480t224.5 396h268q-112 -131 -188 -379.5t-76 -495.5t76 -496.5t188 -381.5h-268q-153 183 -225 398t-72 479z" />
<glyph unicode=")" horiz-adv-x="782" d="M35 -310q112 131 188 380t76 496q0 246 -76 495.5t-188 381.5h269q152 -183 224 -397.5t72 -478.5q0 -266 -72 -480.5t-224 -396.5h-269z" />
<glyph unicode="*" horiz-adv-x="920" d="M91 948l222 125l-222 126l77 138l213 -128l-11 234h181l-11 -235l212 129l78 -138l-223 -127l223 -125l-79 -137l-211 128l11 -235h-182l12 235l-213 -128z" />
<glyph unicode="+" d="M144 451v255h388v409h261v-409h389v-255h-389v-408h-261v408h-388z" />
<glyph unicode="," horiz-adv-x="569" d="M91 -316l75 564h278l-134 -564h-219z" />
<glyph unicode="-" horiz-adv-x="905" d="M124 459v255h657v-255h-657z" />
<glyph unicode="." horiz-adv-x="569" d="M124 149q0 67 47 114t114 47t114 -47t47 -114t-47 -114t-114 -47t-114 47t-47 114z" />
<glyph unicode="/" horiz-adv-x="782" d="M0 -310l513 1753h269l-512 -1753h-270z" />
<glyph unicode="0" horiz-adv-x="1343" d="M83 724q0 349 158 550.5t431 201.5t430.5 -201t157.5 -550q0 -350 -157 -553.5t-431 -203.5t-431.5 202.5t-157.5 553.5zM390 724q0 -247 74 -380.5t208 -133.5t207.5 133.5t73.5 380.5q0 245 -73.5 377.5t-207.5 132.5q-133 0 -207.5 -133t-74.5 -377z" />
<glyph unicode="1" horiz-adv-x="983" d="M89 916v268l373 259h300v-1443h-299v1166h-6z" />
<glyph unicode="2" horiz-adv-x="1235" d="M85 1004q0 208 149 339.5t384 131.5q229 0 371 -119t142 -301q0 -127 -69 -231t-262 -288l-303 -290v-6h654v-240h-1049v207l511 484q135 130 179.5 199.5t44.5 145.5q0 88 -61 146t-158 58q-109 0 -181 -66.5t-72 -169.5h-280z" />
<glyph unicode="3" horiz-adv-x="1290" d="M77 409h288q8 -89 81.5 -143.5t191.5 -54.5q113 0 184 57.5t71 148.5q1 104 -72 161t-205 57h-165v215h161q113 0 181 55.5t68 144.5q0 90 -59 141.5t-166 51.5t-175 -54t-75 -147h-277q11 197 155.5 315t371.5 118q229 0 370 -104.5t141 -277.5q0 -133 -84 -222 t-217 -116v-6q162 -15 258 -106.5t96 -238.5q0 -196 -155 -316t-407 -120q-244 0 -397.5 121t-163.5 320z" />
<glyph unicode="4" horiz-adv-x="1326" d="M72 265v252q95 180 226.5 391t352.5 535h426v-937h190v-241h-190v-265h-287v265h-718zM335 498h461v729h-6q-302 -435 -455 -721v-8z" />
<glyph unicode="5" horiz-adv-x="1280" d="M115 414h279q13 -93 85.5 -150t177.5 -57q119 0 194 74t75 192q0 116 -75 190t-193 74q-86 0 -152 -37.5t-103 -103.5h-263l66 847h921v-240h-681l-35 -406h6q45 73 130.5 114.5t194.5 41.5q206 0 339 -133.5t133 -339.5q0 -229 -155 -370.5t-403 -141.5 q-232 0 -383.5 125t-157.5 321z" />
<glyph unicode="6" horiz-adv-x="1317" d="M82 710q0 358 161 562t442 204q210 0 358 -111.5t178 -290.5h-298q-26 78 -88 120.5t-151 42.5q-154 0 -234 -138t-79 -381h6q43 104 147 168t246 64q208 0 339 -132.5t131 -337.5q0 -224 -157 -368t-399 -144q-131 0 -240 46.5t-190 137t-126.5 233t-45.5 325.5z M416 473q0 -112 76.5 -188.5t187.5 -76.5t188 75t78 184q0 114 -74.5 187t-188.5 73q-115 0 -191 -72t-76 -182z" />
<glyph unicode="7" horiz-adv-x="1172" d="M64 1203v240h1032v-243l-602 -1200h-317l621 1197v6h-734z" />
<glyph unicode="8" horiz-adv-x="1336" d="M83 391q0 140 93.5 239.5t243.5 128.5v6q-129 31 -207 118t-78 204q0 169 149.5 278.5t383.5 109.5t383 -109.5t149 -279.5q0 -115 -77.5 -202t-205.5 -119v-6q150 -30 243 -129.5t93 -239.5q0 -187 -163.5 -304.5t-421.5 -117.5q-259 0 -422 118t-163 305zM398 413 q0 -99 75.5 -162t194.5 -63t194 63t75 162q0 98 -75 160.5t-194 62.5t-194.5 -63t-75.5 -160zM434 1056q0 -88 65.5 -144t168.5 -56q102 0 168 56t66 144q0 89 -66 145t-168 56q-103 0 -168.5 -56t-65.5 -145z" />
<glyph unicode="9" horiz-adv-x="1321" d="M79 964q0 224 157 368t399 144q98 0 185 -26t164 -84t133 -143t88 -210t32 -279q0 -358 -160.5 -562t-441.5 -204q-212 0 -361 110.5t-178 286.5h298q24 -77 87 -117.5t155 -40.5q106 0 177.5 66t103.5 181t31 273h-6q-40 -107 -142 -170.5t-242 -63.5 q-204 0 -341.5 131.5t-137.5 339.5zM373 976q0 -113 74.5 -186t188.5 -73q115 0 191.5 72t76.5 182q0 111 -77 187.5t-188 76.5q-112 0 -189 -75t-77 -184z" />
<glyph unicode=":" horiz-adv-x="569" d="M124 149q0 67 47 114t114 47t114 -47t47 -114t-47 -114t-114 -47t-114 47t-47 114zM124 863q0 67 47 114t114 47t114 -47t47 -114t-47 -114t-114 -47t-114 47t-47 114z" />
<glyph unicode=";" horiz-adv-x="569" d="M91 -316l75 564h278l-134 -564h-219zM124 863q0 67 47 114t114 47t114 -47t47 -114t-47 -114t-114 -47t-114 47t-47 114z" />
<glyph unicode="&#x3c;" d="M144 450v256l1038 424v-286l-712 -255v-10l712 -261v-290z" />
<glyph unicode="=" d="M154 215v241h1018v-241h-1018zM154 702v241h1018v-241h-1018z" />
<glyph unicode="&#x3e;" d="M144 28v285l711 256v10l-711 260v291l1038 -423v-255z" />
<glyph unicode="?" horiz-adv-x="1093" d="M54 1038q4 189 132 303.5t354 114.5q213 0 344 -107.5t131 -279.5q0 -111 -53 -193.5t-161 -145.5q-100 -58 -135 -104t-35 -120v-53h-265l-2 58q-10 116 32.5 191t147.5 137q97 58 132.5 104t35.5 117q0 72 -52.5 118t-137.5 46q-86 0 -139 -50.5t-58 -135.5h-271z M339 132q0 66 47.5 111.5t115.5 45.5t116 -45.5t48 -111.5t-48 -111.5t-116 -45.5t-115.5 45.5t-47.5 111.5z" />
<glyph unicode="@" horiz-adv-x="1810" d="M80 615q0 245 107 435t299.5 294.5t439.5 104.5q235 0 418.5 -92.5t286 -262t102.5 -388.5q0 -237 -105.5 -377.5t-287.5 -140.5q-94 0 -159.5 42.5t-81.5 114.5h-14q-63 -154 -241 -154q-156 0 -251.5 116.5t-95.5 306.5q0 182 93.5 295.5t243.5 113.5q81 0 144.5 -38 t92.5 -104h14v120h203v-535q0 -53 24.5 -83t70.5 -30q75 0 120.5 90.5t45.5 247.5q0 272 -172.5 435.5t-457.5 163.5q-289 0 -472 -189.5t-183 -490.5q0 -311 189.5 -489t503.5 -178q178 0 273 35v-160q-125 -37 -288 -37q-189 0 -348 58t-273 164.5t-177.5 263.5t-63.5 348 zM724 608q0 -109 44.5 -171t123.5 -62q81 0 128 62.5t47 170.5t-47 170.5t-127 62.5q-79 0 -124 -61.5t-45 -171.5z" />
<glyph unicode="A" horiz-adv-x="1413" d="M28 0l501 1443h355l502 -1443h-321l-110 350h-507l-110 -350h-310zM513 576h377l-185 591h-7z" />
<glyph unicode="B" horiz-adv-x="1310" d="M120 0v1443h628q203 0 322 -97t119 -263q0 -118 -77.5 -207t-193.5 -106v-8q148 -11 244 -109t96 -240q0 -191 -134 -302t-365 -111h-639zM422 225h260q131 0 199.5 54.5t68.5 157.5q0 101 -70.5 154t-204.5 53h-253v-419zM422 843h217q121 0 187 50.5t66 142.5 q0 87 -58 134.5t-164 47.5h-248v-375z" />
<glyph unicode="C" horiz-adv-x="1459" d="M75 722q0 347 184 546.5t499 199.5q172 0 312.5 -68t225.5 -192t96 -283h-294q-21 133 -114.5 213t-225.5 80q-171 0 -273 -134t-102 -361q0 -231 101 -364.5t275 -133.5q134 0 225 74t115 202h294q-25 -241 -197 -383.5t-438 -142.5q-316 0 -499.5 199.5t-183.5 547.5z " />
<glyph unicode="D" horiz-adv-x="1434" d="M120 0v1443h551q326 0 507 -187t181 -529q0 -343 -181.5 -535t-506.5 -192h-551zM422 250h213q203 0 309.5 121.5t106.5 354.5q0 226 -108 347t-308 121h-213v-944z" />
<glyph unicode="E" horiz-adv-x="1174" d="M120 0v1443h956v-249h-654v-348h617v-232h-617v-364h654v-250h-956z" />
<glyph unicode="F" horiz-adv-x="1123" d="M120 0v1443h945v-249h-643v-387h587v-239h-587v-568h-302z" />
<glyph unicode="G" horiz-adv-x="1489" d="M75 726q0 346 184.5 544t503.5 198q252 0 427 -136t207 -355h-303q-33 113 -120.5 177t-209.5 64q-179 0 -280 -129t-101 -359q0 -234 105.5 -369t286.5 -135q148 0 241.5 83t98.5 217l1 23h-314v220h608v-163q0 -295 -169.5 -463t-470.5 -168q-324 0 -509.5 200 t-185.5 551z" />
<glyph unicode="H" horiz-adv-x="1494" d="M120 0v1443h302v-586h650v586h302v-1443h-302v608h-650v-608h-302z" />
<glyph unicode="I" horiz-adv-x="542" d="M120 0v1443h302v-1443h-302z" />
<glyph unicode="J" horiz-adv-x="1143" d="M31 425h293q2 -88 54.5 -141t137.5 -53q95 0 144.5 57t49.5 166v989h302v-991q0 -229 -130 -355.5t-363 -126.5q-221 0 -354.5 124t-133.5 331z" />
<glyph unicode="K" horiz-adv-x="1353" d="M120 0v1443h302v-658h9l542 658h336l-534 -640l571 -803h-361l-428 603l-135 -162v-441h-302z" />
<glyph unicode="L" horiz-adv-x="1112" d="M120 0v1443h302v-1193h631v-250h-933z" />
<glyph unicode="M" horiz-adv-x="1768" d="M120 0v1443h350l410 -1036h8l410 1036h350v-1443h-269v974h-8l-392 -974h-190l-392 974h-8v-974h-269z" />
<glyph unicode="N" horiz-adv-x="1463" d="M120 0v1443h252l674 -940h8v940h289v-1443h-250l-675 945h-9v-945h-289z" />
<glyph unicode="O" horiz-adv-x="1541" d="M75 721q0 345 187.5 546t508.5 201t508.5 -201t187.5 -546q0 -344 -188 -545t-508 -201q-321 0 -508.5 201t-187.5 545zM383 721q0 -226 105 -359.5t283 -133.5q177 0 282 133.5t105 359.5q0 227 -105 361t-282 134t-282.5 -134t-105.5 -361z" />
<glyph unicode="P" horiz-adv-x="1265" d="M120 0v1443h587q223 0 361.5 -136t138.5 -358q0 -221 -143 -357.5t-372 -136.5h-270v-455h-302zM422 691h204q130 0 202 67t72 190t-71.5 189.5t-201.5 66.5h-205v-513z" />
<glyph unicode="Q" horiz-adv-x="1541" d="M74 722q0 342 188.5 544t507.5 202q320 0 508 -200.5t188 -545.5q0 -403 -244 -596l196 -262h-281l-113 152q-115 -41 -254 -41q-322 0 -509 201.5t-187 545.5zM379 722q0 -228 106 -364.5t285 -136.5q48 0 89 12l-180 242h281l86 -117q117 129 117 364q0 227 -107 363.5 t-286 136.5t-285 -136t-106 -364z" />
<glyph unicode="R" horiz-adv-x="1311" d="M120 0v1443h591q247 0 384.5 -122.5t137.5 -337.5q0 -141 -69.5 -251.5t-192.5 -158.5l304 -573h-342l-269 528h-242v-528h-302zM422 747h260q114 0 177.5 61t63.5 169q0 105 -66 167.5t-178 62.5h-257v-460z" />
<glyph unicode="S" horiz-adv-x="1293" d="M65 412h285q14 -90 97.5 -141.5t207.5 -51.5q120 0 195.5 52t75.5 132q0 72 -57 115t-192 71l-152 30q-429 85 -429 410q0 130 70.5 230.5t196 154.5t284.5 54q251 0 400.5 -120.5t153.5 -320.5h-285q-7 91 -80.5 144t-188.5 53q-112 0 -180.5 -48.5t-68.5 -127.5 q0 -67 57 -110t183 -68l153 -31q229 -46 333.5 -142.5t104.5 -260.5q0 -212 -156 -336.5t-426 -124.5q-260 0 -417.5 117t-164.5 320z" />
<glyph unicode="T" horiz-adv-x="1232" d="M48 1194v249h1137v-249h-418v-1194h-302v1194h-417z" />
<glyph unicode="U" horiz-adv-x="1449" d="M120 510v933h302v-903q0 -141 79.5 -223.5t223.5 -82.5q143 0 222.5 82.5t79.5 223.5v903h302v-933q0 -240 -164.5 -387.5t-439.5 -147.5q-276 0 -440.5 147.5t-164.5 387.5z" />
<glyph unicode="V" horiz-adv-x="1389" d="M28 1443h338l330 -1132h7l330 1132h329l-485 -1443h-364z" />
<glyph unicode="W" horiz-adv-x="1977" d="M43 1443h313l227 -1045h8l270 1045h255l270 -1045h8l228 1045h313l-383 -1443h-285l-274 986h-9l-274 -986h-285z" />
<glyph unicode="X" horiz-adv-x="1404" d="M43 0l458 723v8l-455 712h355l306 -520h8l309 520h337l-472 -718v-7l466 -718h-344l-316 505h-8l-318 -505h-326z" />
<glyph unicode="Y" horiz-adv-x="1362" d="M28 1443h329l323 -616h7l324 616h324l-503 -904v-539h-302v539z" />
<glyph unicode="Z" horiz-adv-x="1292" d="M89 0v197l733 989v8h-716v249h1077v-196l-730 -990v-7h750v-250h-1114z" />
<glyph unicode="[" horiz-adv-x="782" d="M203 -310v1753h554v-215h-273v-1324h273v-214h-554z" />
<glyph unicode="\" horiz-adv-x="782" d="M0 1443h275l507 -1753h-274z" />
<glyph unicode="]" horiz-adv-x="782" d="M25 -95h274v1324h-274v214h554v-1753h-554v215z" />
<glyph unicode="^" horiz-adv-x="920" d="M55 754l280 636h253l278 -636h-225l-175 425h-14l-180 -425h-217z" />
<glyph unicode="_" horiz-adv-x="857" d="M-46 -107h949v-218h-949v218z" />
<glyph unicode="`" horiz-adv-x="1024" d="M301 1531h264l160 -313h-199z" />
<glyph unicode="a" horiz-adv-x="1121" d="M54 308q0 146 108 229t309 95l270 16v71q0 74 -48.5 116t-131.5 42q-80 0 -130.5 -36t-61.5 -97h-267q8 158 135 254.5t337 96.5q206 0 330 -98t124 -260v-737h-282v164h-6q-44 -84 -134 -132.5t-193 -48.5q-155 0 -257 91t-102 234zM344 324q0 -60 45 -95t120 -35 q97 0 164.5 56.5t67.5 142.5v78l-226 -14q-82 -6 -126.5 -41t-44.5 -92z" />
<glyph unicode="b" horiz-adv-x="1223" d="M102 0v1443h292v-557h6q45 96 131 149.5t200 53.5q203 0 319.5 -147t116.5 -406q0 -258 -116 -405.5t-319 -147.5q-116 0 -203.5 53t-132.5 148h-6v-184h-288zM393 536q0 -145 65.5 -231.5t172.5 -86.5q110 0 173.5 85.5t63.5 232.5q0 146 -64 232.5t-173 86.5 q-106 0 -172 -88t-66 -231z" />
<glyph unicode="c" horiz-adv-x="1116" d="M56 537q0 257 142.5 407.5t383.5 150.5q214 0 345.5 -118t141.5 -304h-271q-13 87 -68.5 140t-143.5 53q-109 0 -171.5 -87.5t-62.5 -241.5q0 -157 62.5 -244t172.5 -87q87 0 142 49.5t69 137.5h272q-11 -190 -143 -303t-343 -113q-244 0 -386 149.5t-142 410.5z" />
<glyph unicode="d" horiz-adv-x="1220" d="M56 538q0 255 118.5 403t320.5 148q114 0 200.5 -55t126.5 -146h6v555h292v-1443h-288v184h-5q-40 -91 -129 -146t-205 -55q-201 0 -319 149t-118 406zM355 536q0 -148 63.5 -233t173.5 -85q109 0 173.5 85.5t64.5 232.5q0 146 -64.5 232.5t-173.5 86.5 q-110 0 -173.5 -86t-63.5 -233z" />
<glyph unicode="e" horiz-adv-x="1137" d="M56 531q0 257 140 410.5t377 153.5q233 0 371 -146t138 -391v-89h-739v-18q0 -115 67.5 -186.5t178.5 -71.5q80 0 138 36.5t78 98.5h268q-24 -158 -157.5 -254.5t-331.5 -96.5q-247 0 -387.5 148t-140.5 406zM346 648h455q-5 103 -66.5 167t-158.5 64q-95 0 -158.5 -65 t-71.5 -166z" />
<glyph unicode="f" horiz-adv-x="729" d="M27 852v215h146v81q0 160 82.5 234t270.5 74q86 0 149 -13v-193q-32 6 -79 6q-138 0 -138 -118v-71h213v-215h-206v-852h-292v852h-146z" />
<glyph unicode="g" horiz-adv-x="1215" d="M56 540q0 255 118 402t322 147q114 0 201 -55t130 -149h5v187h288v-1057q0 -191 -146.5 -305t-388.5 -114q-209 0 -343.5 91.5t-152.5 236.5h286q17 -56 76.5 -90.5t141.5 -34.5q111 0 173 56.5t62 151.5v188h-6q-38 -87 -127 -139.5t-204 -52.5q-198 0 -316.5 144 t-118.5 393zM355 538q0 -146 63 -228t172 -82q110 0 174.5 82.5t64.5 227.5t-65 231t-174 86q-108 0 -171.5 -85.5t-63.5 -231.5z" />
<glyph unicode="h" horiz-adv-x="1197" d="M102 0v1443h287v-562h6q43 102 129.5 156.5t207.5 54.5q177 0 275.5 -107.5t98.5 -294.5v-690h-292v628q0 105 -51.5 163.5t-149.5 58.5q-102 0 -160.5 -65.5t-58.5 -172.5v-612h-292z" />
<glyph unicode="i" horiz-adv-x="491" d="M93 1367q0 62 44 106t108 44t108 -44t44 -106t-44.5 -106t-107.5 -44t-107.5 44t-44.5 106zM100 0v1072h292v-1072h-292z" />
<glyph unicode="j" horiz-adv-x="491" d="M-72 -162q14 -2 37 -2q73 0 104 28.5t31 93.5v1114h292v-1122q0 -163 -98 -247t-286 -84q-54 0 -80 4v215zM92 1367q0 62 44 106t108 44t108 -44t44 -106t-44.5 -106t-107.5 -44t-107.5 44t-44.5 106z" />
<glyph unicode="k" horiz-adv-x="1102" d="M102 0v1443h292v-801h4l364 430h331l-409 -460l429 -612h-336l-307 436l-76 -82v-354h-292z" />
<glyph unicode="l" horiz-adv-x="496" d="M102 0v1443h292v-1443h-292z" />
<glyph unicode="m" horiz-adv-x="1768" d="M95 0v1072h282v-194h6q34 98 116 156t190 58q116 0 194 -57.5t105 -162.5h6q36 101 125.5 160.5t207.5 59.5q158 0 254.5 -99t96.5 -261v-732h-292v659q0 93 -45 142.5t-130 49.5q-83 0 -133.5 -55t-50.5 -145v-651h-281v668q0 86 -46 134.5t-127 48.5q-83 0 -134.5 -57 t-51.5 -147v-647h-292z" />
<glyph unicode="n" horiz-adv-x="1180" d="M95 0v1072h282v-191h6q44 102 128.5 156.5t206.5 54.5q178 0 275 -106t97 -295v-691h-292v630q0 106 -50 163t-147 57t-155.5 -65t-58.5 -170v-615h-292z" />
<glyph unicode="o" horiz-adv-x="1173" d="M56 537q0 259 144.5 408.5t386.5 149.5q243 0 387 -149.5t144 -408.5q0 -263 -143 -411.5t-388 -148.5t-388 149t-143 411zM352 536q0 -160 63 -248t172 -88q108 0 171 88t63 248q0 158 -63 247t-171 89t-171.5 -89t-63.5 -247z" />
<glyph unicode="p" horiz-adv-x="1215" d="M95 -350v1422h288v-187h6q44 96 130.5 150t201.5 54q204 0 321.5 -147t117.5 -406q0 -258 -116 -405.5t-318 -147.5q-115 0 -202.5 52.5t-130.5 144.5h-6v-530h-292zM386 536q0 -145 64.5 -231.5t172.5 -86.5q109 0 173.5 86t64.5 232t-64.5 232.5t-173.5 86.5 q-107 0 -172 -87.5t-65 -231.5z" />
<glyph unicode="q" horiz-adv-x="1215" d="M56 538q0 255 118.5 403t321.5 148q115 0 201.5 -55t128.5 -149h6v187h288v-1422h-292v533h-6q-38 -90 -127 -145t-204 -55q-201 0 -318 149t-117 406zM355 536q0 -148 63 -233t172 -85t174 86t65 232t-65.5 232.5t-173.5 86.5q-109 0 -172 -85.5t-63 -233.5z" />
<glyph unicode="r" horiz-adv-x="745" d="M95 0v1072h282v-193h6q28 102 94 156t161 54q46 0 83 -11v-257q-41 17 -106 17q-108 0 -168 -63t-60 -176v-599h-292z" />
<glyph unicode="s" horiz-adv-x="1054" d="M50 326h285q28 -144 201 -144q82 0 130 31t48 84q0 43 -32 69t-110 44l-183 38q-312 66 -312 309q0 153 122.5 245.5t326.5 92.5t325 -96t126 -255h-269q-7 67 -55 106.5t-127 39.5q-76 0 -122 -32t-46 -85q0 -42 34.5 -70t113.5 -45l183 -39q167 -35 241.5 -104.5 t74.5 -187.5q0 -157 -130.5 -253.5t-338.5 -96.5q-218 0 -344.5 94t-141.5 255z" />
<glyph unicode="t" horiz-adv-x="728" d="M22 852v220h151v247h292v-247h198v-220h-198v-513q0 -121 126 -121q41 0 71 5v-215q-51 -12 -139 -12q-189 0 -269.5 68t-80.5 225v563h-151z" />
<glyph unicode="u" horiz-adv-x="1180" d="M90 381v691h292v-630q0 -107 51.5 -163t148.5 -56t154 64t57 171v614h292v-1072h-282v193h-6q-84 -213 -321 -213q-176 0 -281 107.5t-105 293.5z" />
<glyph unicode="v" horiz-adv-x="1081" d="M6 1072h313l223 -814h6l222 814h305l-368 -1072h-330z" />
<glyph unicode="w" horiz-adv-x="1618" d="M19 1072h294l162 -795h6l190 795h280l191 -795h6l163 795h288l-284 -1072h-311l-194 758h-6l-193 -758h-307z" />
<glyph unicode="x" horiz-adv-x="1081" d="M22 0l336 534l-334 538h329l193 -362h6l190 362h318l-335 -530l332 -542h-317l-204 372h-6l-201 -372h-307z" />
<glyph unicode="y" horiz-adv-x="1113" d="M12 1072h320l228 -838h6l227 838h308l-369 -1096q-68 -205 -180.5 -289t-318.5 -84q-96 0 -111 3v225q10 -2 74 -2q80 0 122 28t57 91q0 1 5.5 25t4.5 26z" />
<glyph unicode="z" horiz-adv-x="1035" d="M75 0v166l534 677v6h-526v223h865v-185l-502 -658v-5h514v-224h-885z" />
<glyph unicode="{" horiz-adv-x="782" d="M25 428v278q128 1 182 47.5t54 156.5v160q0 196 100 284.5t322 88.5h74v-212h-44q-95 0 -134.5 -44.5t-39.5 -150.5v-204q0 -108 -67 -171.5t-195 -77.5v-32q128 -14 195 -77.5t67 -171.5v-205q0 -106 39.5 -150.5t134.5 -44.5h44v-212h-74q-222 0 -322 90t-100 288v156 q0 110 -54 156.5t-182 47.5z" />
<glyph unicode="|" horiz-adv-x="782" d="M255 -310v1753h273v-1753h-273z" />
<glyph unicode="}" horiz-adv-x="782" d="M25 -98h44q95 0 134.5 44.5t39.5 150.5v204q0 108 67 171.5t195 77.5v32q-128 14 -195 77.5t-67 171.5v206q0 106 -39.5 150t-134.5 44h-44v212h74q222 0 322.5 -89.5t100.5 -287.5v-157q0 -110 53.5 -156t181.5 -48v-278q-128 -1 -181.5 -47t-53.5 -157v-160 q0 -196 -100 -284.5t-323 -88.5h-74v212z" />
<glyph unicode="~" d="M132 384q-8 200 80.5 311t233.5 111q72 0 134 -32t140 -103q47 -41 76.5 -56.5t60.5 -15.5q108 0 114 176h223q8 -199 -80.5 -310t-232.5 -111q-73 0 -133.5 30t-142.5 104q-45 40 -75 56t-61 16q-108 0 -114 -176h-223z" />
<glyph unicode="&#xa1;" horiz-adv-x="648" d="M161 989q0 67 47.5 112t115.5 45t115.5 -45t47.5 -112q0 -65 -47.5 -110.5t-115.5 -45.5t-115.5 45.5t-47.5 110.5zM174 -324l24 969h252l24 -969h-300z" />
<glyph unicode="&#xa2;" d="M149 723q0 246 131.5 395.5t358.5 165.5v159h100v-159q200 -13 321.5 -130.5t131.5 -294.5h-269q-12 80 -59 131.5t-125 63.5v-664q77 10 124 59t61 130h269q-11 -182 -133.5 -294.5t-320.5 -125.5v-159h-100v160q-227 16 -358.5 165t-131.5 398zM440 723 q0 -293 199 -331v660q-96 -18 -147.5 -101.5t-51.5 -227.5z" />
<glyph unicode="&#xa3;" d="M110 654v158h212q-28 118 -28 192q0 202 146 324.5t398 122.5q97 0 185 -15.5t130 -36.5v-230q-107 46 -269 46q-140 0 -217.5 -65.5t-77.5 -176.5q0 -69 24 -161h459v-158h-423q6 -38 6 -81q0 -104 -38.5 -185t-110.5 -119v-8h712v-241h-1100v226q121 18 186 103.5 t65 210.5q0 41 -10 94h-249z" />
<glyph unicode="&#xa4;" d="M124 275l150 150q-60 104 -60 224t60 224l-150 150l166 166l149 -149q106 60 225 60q120 0 224 -60l149 149l166 -166l-149 -149q60 -104 60 -225t-60 -225l149 -149l-166 -166l-150 150q-103 -60 -223 -60t-224 60l-150 -150zM430 649q0 -96 69 -165.5t165 -69.5 t165 69.5t69 165.5t-69 166t-165 70t-165 -70t-69 -166z" />
<glyph unicode="&#xa5;" d="M34 1408h318l314 -614h7l313 614h314l-430 -779h284v-100h-339l-2 -3v-155h341v-100h-341v-266h-292v266h-342v100h342v155l-2 3h-340v100h285z" />
<glyph unicode="&#xa6;" horiz-adv-x="782" d="M255 -310v700h273v-700h-273zM255 743v700h273v-700h-273z" />
<glyph unicode="&#xa7;" horiz-adv-x="1323" d="M183 536q0 94 61 165t168 102v18q-114 49 -166 114.5t-52 159.5q0 152 128.5 245t339.5 93q197 0 322.5 -89t136.5 -237h-272q-8 54 -60 87.5t-128 33.5q-80 0 -129.5 -36t-49.5 -95q0 -44 35.5 -73.5t117.5 -54.5l184 -57q169 -52 245 -123t76 -174q0 -98 -67 -174 t-176 -104v-18q122 -43 178.5 -107t56.5 -161q0 -151 -130 -244t-342 -93q-199 0 -328 91.5t-136 239.5h274q7 -56 61.5 -91.5t132.5 -35.5q81 0 131.5 36t50.5 94q0 44 -36.5 75t-118.5 55l-189 58q-168 50 -243.5 121.5t-75.5 178.5zM458 591q0 -47 39.5 -84.5 t109.5 -56.5l118 -37q61 8 102 49.5t41 93.5q0 49 -39 85.5t-110 55.5l-117 37q-60 -8 -102 -50t-42 -93z" />
<glyph unicode="&#xa8;" horiz-adv-x="1024" d="M158 1367q0 59 42 101t102 42q61 0 103.5 -42t42.5 -101t-42.5 -100.5t-103.5 -41.5q-60 0 -102 41.5t-42 100.5zM577 1367q0 59 42 101t103 42q60 0 102 -42t42 -101t-42 -100.5t-102 -41.5q-61 0 -103 41.5t-42 100.5z" />
<glyph unicode="&#xa9;" horiz-adv-x="1697" d="M60 650q0 163 62 309.5t167.5 251.5t251.5 166.5t308 61.5q216 0 397 -104t286 -285.5t105 -399.5q0 -163 -62 -309t-167 -251.5t-251 -167t-308 -61.5t-308 62t-251.5 167t-167.5 251.5t-62 308.5zM224 650q0 -173 83.5 -316.5t227 -226t314.5 -82.5t314.5 82.5 t226.5 226t83 316.5q0 130 -49 246.5t-132.5 199.5t-199 131.5t-243.5 48.5q-171 0 -314.5 -82t-227 -226.5t-83.5 -317.5zM482 652q0 183 103 290t278 107q149 0 243.5 -80t109.5 -209h-188q-12 58 -54.5 93.5t-107.5 35.5q-84 0 -133 -63t-49 -174q0 -113 48.5 -176.5 t133.5 -63.5q65 0 107.5 32t54.5 90h188q-14 -129 -107.5 -205.5t-243.5 -76.5q-177 0 -280 107t-103 293z" />
<glyph unicode="&#xaa;" horiz-adv-x="721" d="M33 993q0 90 69 140.5t199 58.5l164 9v37q0 38 -28 59.5t-76 21.5q-47 0 -76.5 -19.5t-35.5 -50.5h-184q5 100 86.5 159.5t218.5 59.5q132 0 213 -60t81 -158v-444h-198v93h-4q-27 -48 -83 -75.5t-120 -27.5q-96 0 -161 55t-65 142zM235 1007q0 -31 26 -48.5t69 -17.5 q56 0 95.5 27.5t39.5 70.5v44l-132 -7q-47 -4 -72.5 -22t-25.5 -47z" />
<glyph unicode="&#xab;" horiz-adv-x="1327" d="M113 562v8l348 411h271l-346 -409v-10l346 -411h-275zM595 562v8l348 411h271l-346 -409v-10l346 -411h-275z" />
<glyph unicode="&#xac;" d="M163 452v255h999v-664h-261v409h-738z" />
<glyph unicode="&#xad;" horiz-adv-x="905" d="M124 459v255h657v-255h-657z" />
<glyph unicode="&#xae;" horiz-adv-x="1178" d="M80 1069q0 213 147 358.5t362 145.5q141 0 258 -66t184 -182t67 -256t-67 -256t-184 -182t-258 -66q-215 0 -362 145.5t-147 358.5zM219 1069q0 -160 106 -268t264 -108t264.5 108t106.5 268t-106.5 267.5t-264.5 107.5t-264 -107.5t-106 -267.5zM390 844v463h242 q77 0 124.5 -41t47.5 -107q0 -52 -26.5 -89.5t-71.5 -49.5l122 -176h-148l-101 158h-66v-158h-123zM513 1092h91q33 0 51.5 15.5t18.5 43.5q0 58 -68 58h-93v-117z" />
<glyph unicode="&#xaf;" horiz-adv-x="1024" d="M193 1287v159h639v-159h-639z" />
<glyph unicode="&#xb0;" horiz-adv-x="920" d="M102 1072q0 150 102.5 251.5t255.5 101.5q152 0 255.5 -101.5t103.5 -251.5q0 -151 -103.5 -252.5t-255.5 -101.5q-153 0 -255.5 101.5t-102.5 252.5zM309 1072q0 -64 44.5 -109t106.5 -45q63 0 107 45t44 109t-44 108.5t-107 44.5q-62 0 -106.5 -44.5t-44.5 -108.5z" />
<glyph unicode="&#xb1;" d="M139 43v237h1048v-237h-1048zM139 640v222h397v253h254v-253h397v-222h-397v-252h-254v252h-397z" />
<glyph unicode="&#xb2;" horiz-adv-x="704" d="M45 1308q0 116 84 186.5t220 70.5q137 0 219 -62t82 -163q0 -71 -37 -120t-138 -130l-147 -114v-4h331v-166h-602v150l275 223q69 54 92 84.5t23 61.5q0 34 -27.5 55.5t-70.5 21.5q-48 0 -79.5 -25.5t-31.5 -68.5h-193z" />
<glyph unicode="&#xb3;" horiz-adv-x="736" d="M41 1029h201q4 -32 36 -52.5t84 -20.5q50 0 81 21t31 56q0 38 -33.5 58.5t-95.5 20.5h-81v144h81q55 0 86 20t31 55t-27 54t-74 19q-48 0 -78 -21t-33 -57h-191q5 109 87.5 174t214.5 65t214 -53t82 -149q0 -69 -45 -113.5t-114 -57.5v-4q89 -9 139.5 -54t50.5 -118 q0 -106 -88 -168.5t-238 -62.5q-139 0 -227.5 66.5t-93.5 177.5z" />
<glyph unicode="&#xb4;" horiz-adv-x="1024" d="M301 1218l160 313h264l-226 -313h-198z" />
<glyph unicode="&#xb5;" horiz-adv-x="1284" d="M95 -350v1422h290v-624q0 -225 199 -225q102 0 159.5 64t57.5 171v614h289v-742q0 -66 19 -93.5t64 -27.5q38 0 56 10l5 -210q-59 -18 -143 -18q-105 0 -167 37t-96 121q-2 6 -5.5 17t-5.5 15h-5q-35 -94 -100.5 -147.5t-150.5 -53.5q-55 0 -101 22t-68 57h-5v-409h-292z " />
<glyph unicode="&#xb6;" horiz-adv-x="1323" d="M120 1040q0 175 126 289t323 114h242v-1698h-225v898h-18q-192 0 -320 114t-128 283zM978 -255v1698h225v-1698h-225z" />
<glyph unicode="&#xb7;" horiz-adv-x="569" d="M124 536q0 68 47 114.5t114 46.5t114 -47t47 -114t-47 -114t-114 -47t-114 47t-47 114z" />
<glyph unicode="&#xb8;" horiz-adv-x="1024" d="M357 -322q42 -12 106 -12q114 0 114 51q0 30 -28 42.5t-92 12.5h-63v99l72 141h151v-12l-54 -108q85 -2 136 -46t51 -120q0 -89 -67.5 -137t-183.5 -49q-97 -2 -142 14v124z" />
<glyph unicode="&#xb9;" horiz-adv-x="572" d="M47 1237v183l196 124h211v-738h-211v550h-4z" />
<glyph unicode="&#xba;" horiz-adv-x="750" d="M35 1130q0 157 92 247.5t248 90.5t248 -90t92 -248q0 -161 -91 -250t-249 -89t-249 89.5t-91 249.5zM241 1129q0 -88 36 -136t98 -48t97.5 48t35.5 136q0 87 -35.5 136.5t-97.5 49.5q-61 0 -97.5 -49.5t-36.5 -136.5z" />
<glyph unicode="&#xbb;" horiz-adv-x="1327" d="M113 151l346 409v10l-346 411h275l344 -411v-8l-348 -411h-271zM595 151l346 409v10l-346 411h275l344 -411v-8l-348 -411h-271z" />
<glyph unicode="&#xbc;" horiz-adv-x="1578" d="M47 1137v183l196 124h211v-738h-211v550h-4zM172 0l979 1443h216l-978 -1443h-217zM870 116v177q94 176 289 445h292v-453h97v-169h-97v-116h-199v116h-382zM1044 276h213v316h-4q-130 -161 -209 -310v-6z" />
<glyph unicode="&#xbd;" horiz-adv-x="1640" d="M47 1137v183l196 124h211v-738h-211v550h-4zM172 0l979 1443h216l-978 -1443h-217zM981 502q0 116 84 186.5t220 70.5q137 0 219 -62t82 -163q0 -71 -37 -120t-138 -130l-147 -114v-4h331v-166h-602v150l275 223q69 54 92 84.5t23 61.5q0 34 -27.5 55.5t-70.5 21.5 q-48 0 -79.5 -25.5t-31.5 -68.5h-193z" />
<glyph unicode="&#xbe;" horiz-adv-x="1742" d="M41 929h201q4 -32 36 -52.5t84 -20.5q50 0 81 21t31 56q0 38 -33.5 58.5t-95.5 20.5h-81v144h81q55 0 86 20t31 55t-27 54t-74 19q-48 0 -78 -21t-33 -57h-191q5 109 87.5 174t214.5 65t214 -53t82 -149q0 -69 -45 -113.5t-114 -57.5v-4q89 -9 139.5 -54t50.5 -118 q0 -106 -88 -168.5t-238 -62.5q-139 0 -227.5 66.5t-93.5 177.5zM336 0l979 1443h216l-978 -1443h-217zM1034 116v177q94 176 289 445h292v-453h97v-169h-97v-116h-199v116h-382zM1208 276h213v316h-4q-130 -161 -209 -310v-6z" />
<glyph unicode="&#xbf;" horiz-adv-x="1093" d="M79 50q0 110 53.5 192t160.5 146q100 59 135 105t35 119v53h264l2 -58q10 -116 -32 -191t-148 -137q-97 -58 -132.5 -104t-35.5 -116q0 -73 53 -119t138 -46t138 50.5t58 135.5h272q-4 -189 -132 -303.5t-353 -114.5q-214 0 -345 107.5t-131 280.5zM421 989 q0 66 47.5 111.5t116.5 45.5q68 0 115.5 -45.5t47.5 -111.5q0 -65 -47.5 -110.5t-115.5 -45.5t-116 45.5t-48 110.5z" />
<glyph unicode="&#xc0;" horiz-adv-x="1413" d="M28 0l501 1443h355l502 -1443h-321l-110 350h-507l-110 -350h-310zM374 1863h266l160 -306h-199zM513 576h377l-185 591h-7z" />
<glyph unicode="&#xc1;" horiz-adv-x="1413" d="M28 0l501 1443h355l502 -1443h-321l-110 350h-507l-110 -350h-310zM513 576h377l-185 591h-7zM614 1557l160 306h266l-227 -306h-199z" />
<glyph unicode="&#xc2;" horiz-adv-x="1413" d="M28 0l501 1443h355l502 -1443h-321l-110 350h-507l-110 -350h-310zM338 1553l257 310h224l257 -310h-219l-146 185h-8l-146 -185h-219zM513 576h377l-185 591h-7z" />
<glyph unicode="&#xc3;" horiz-adv-x="1413" d="M28 0l501 1443h355l502 -1443h-321l-110 350h-507l-110 -350h-310zM351 1576q0 134 61.5 207.5t161.5 73.5q41 0 75.5 -13t57.5 -32t42.5 -38t39.5 -32t39 -13q78 0 78 120h157q-1 -133 -63 -207.5t-162 -74.5q-49 0 -91 20t-64.5 44t-49 44t-49.5 20q-76 0 -76 -119 h-157zM513 576h377l-185 591h-7z" />
<glyph unicode="&#xc4;" horiz-adv-x="1413" d="M28 0l501 1443h355l502 -1443h-321l-110 350h-507l-110 -350h-310zM353 1716q0 60 41.5 101.5t102.5 41.5t103 -42t42 -101t-42 -100.5t-103 -41.5q-60 0 -102 41.5t-42 100.5zM513 576h377l-185 591h-7zM772 1716q0 59 42 101t103 42t102.5 -41.5t41.5 -101.5 q0 -59 -42 -100.5t-102 -41.5q-61 0 -103 41.5t-42 100.5z" />
<glyph unicode="&#xc5;" horiz-adv-x="1413" d="M28 0l501 1443h355l502 -1443h-321l-110 350h-507l-110 -350h-310zM501 1720q0 84 60.5 143t145.5 59t145.5 -59t60.5 -143t-60.5 -143t-145.5 -59t-145.5 59t-60.5 143zM513 576h377l-185 591h-7zM615 1720q0 -38 27 -64t65 -26t65 26t27 64t-27 64t-65 26t-65 -26 t-27 -64z" />
<glyph unicode="&#xc6;" horiz-adv-x="2039" d="M28 0l613 1443h1270v-249h-669v-353h632v-232h-632v-360h669v-249h-945v373h-479l-158 -373h-301zM575 599h391v612h-136z" />
<glyph unicode="&#xc7;" horiz-adv-x="1459" d="M75 722q0 347 184 546.5t499 199.5q172 0 312.5 -68t225.5 -192t96 -283h-294q-21 133 -114.5 213t-225.5 80q-171 0 -273 -134t-102 -361q0 -231 101 -364.5t275 -133.5q134 0 225 74t115 202h294q-23 -221 -171 -360t-381 -162l-43 -87q85 -2 136 -46t51 -120 q0 -89 -67.5 -137t-184.5 -49q-96 -2 -141 14v124q42 -12 106 -12q114 0 114 51q0 30 -28 42.5t-93 12.5h-63v99l55 107q-283 24 -445.5 221t-162.5 523z" />
<glyph unicode="&#xc8;" horiz-adv-x="1174" d="M120 0v1443h956v-249h-654v-348h617v-232h-617v-364h654v-250h-956zM265 1863h266l160 -306h-199z" />
<glyph unicode="&#xc9;" horiz-adv-x="1174" d="M120 0v1443h956v-249h-654v-348h617v-232h-617v-364h654v-250h-956zM505 1557l160 306h266l-227 -306h-199z" />
<glyph unicode="&#xca;" horiz-adv-x="1174" d="M120 0v1443h956v-249h-654v-348h617v-232h-617v-364h654v-250h-956zM229 1553l257 310h224l257 -310h-219l-146 185h-8l-146 -185h-219z" />
<glyph unicode="&#xcb;" horiz-adv-x="1174" d="M120 0v1443h956v-249h-654v-348h617v-232h-617v-364h654v-250h-956zM244 1716q0 60 42 101.5t102 41.5q61 0 103 -42t42 -101t-42 -100.5t-103 -41.5q-60 0 -102 41.5t-42 100.5zM663 1716q0 59 42 101t103 42q60 0 102 -41.5t42 -101.5q0 -59 -42 -100.5t-102 -41.5 q-61 0 -103 41.5t-42 100.5z" />
<glyph unicode="&#xcc;" horiz-adv-x="542" d="M-62 1863h266l160 -306h-199zM120 0v1443h302v-1443h-302z" />
<glyph unicode="&#xcd;" horiz-adv-x="542" d="M120 0v1443h302v-1443h-302zM178 1557l160 306h266l-227 -306h-199z" />
<glyph unicode="&#xce;" horiz-adv-x="542" d="M-98 1553l257 310h224l257 -310h-219l-146 185h-8l-146 -185h-219zM120 0v1443h302v-1443h-302z" />
<glyph unicode="&#xcf;" horiz-adv-x="542" d="M-83 1716q0 60 41.5 101.5t102.5 41.5t103 -42t42 -101t-42 -100.5t-103 -41.5q-60 0 -102 41.5t-42 100.5zM120 0v1443h302v-1443h-302zM336 1716q0 59 42 101t103 42t102.5 -41.5t41.5 -101.5q0 -59 -42 -100.5t-102 -41.5q-61 0 -103 41.5t-42 100.5z" />
<glyph unicode="&#xd0;" horiz-adv-x="1434" d="M3 622v222h117v599h551q326 0 507 -187t181 -529q0 -343 -181.5 -535t-506.5 -192h-551v622h-117zM422 250h213q203 0 309.5 121.5t106.5 354.5q0 226 -108 347t-308 121h-213v-350h263v-222h-263v-372z" />
<glyph unicode="&#xd1;" horiz-adv-x="1463" d="M120 0v1443h252l674 -940h8v940h289v-1443h-250l-675 945h-9v-945h-289zM376 1576q0 134 61.5 207.5t161.5 73.5q41 0 75.5 -13t57.5 -32t42.5 -38t39.5 -32t39 -13q78 0 78 120h157q-1 -133 -63 -207.5t-162 -74.5q-49 0 -91 20t-64.5 44t-49 44t-49.5 20 q-76 0 -76 -119h-157z" />
<glyph unicode="&#xd2;" horiz-adv-x="1541" d="M75 721q0 345 187.5 546t508.5 201t508.5 -201t187.5 -546q0 -344 -188 -545t-508 -201q-321 0 -508.5 201t-187.5 545zM383 721q0 -226 105 -359.5t283 -133.5q177 0 282 133.5t105 359.5q0 227 -105 361t-282 134t-282.5 -134t-105.5 -361zM438 1863h266l160 -306h-199 z" />
<glyph unicode="&#xd3;" horiz-adv-x="1541" d="M75 721q0 345 187.5 546t508.5 201t508.5 -201t187.5 -546q0 -344 -188 -545t-508 -201q-321 0 -508.5 201t-187.5 545zM383 721q0 -226 105 -359.5t283 -133.5q177 0 282 133.5t105 359.5q0 227 -105 361t-282 134t-282.5 -134t-105.5 -361zM678 1557l160 306h266 l-227 -306h-199z" />
<glyph unicode="&#xd4;" horiz-adv-x="1541" d="M75 721q0 345 187.5 546t508.5 201t508.5 -201t187.5 -546q0 -344 -188 -545t-508 -201q-321 0 -508.5 201t-187.5 545zM383 721q0 -226 105 -359.5t283 -133.5q177 0 282 133.5t105 359.5q0 227 -105 361t-282 134t-282.5 -134t-105.5 -361zM402 1553l257 310h224 l257 -310h-219l-146 185h-8l-146 -185h-219z" />
<glyph unicode="&#xd5;" horiz-adv-x="1541" d="M75 721q0 345 187.5 546t508.5 201t508.5 -201t187.5 -546q0 -344 -188 -545t-508 -201q-321 0 -508.5 201t-187.5 545zM383 721q0 -226 105 -359.5t283 -133.5q177 0 282 133.5t105 359.5q0 227 -105 361t-282 134t-282.5 -134t-105.5 -361zM415 1576q0 134 61.5 207.5 t161.5 73.5q41 0 75.5 -13t57.5 -32t42.5 -38t39.5 -32t39 -13q78 0 78 120h157q-1 -133 -63 -207.5t-162 -74.5q-49 0 -91 20t-64.5 44t-49 44t-49.5 20q-76 0 -76 -119h-157z" />
<glyph unicode="&#xd6;" horiz-adv-x="1541" d="M75 721q0 345 187.5 546t508.5 201t508.5 -201t187.5 -546q0 -344 -188 -545t-508 -201q-321 0 -508.5 201t-187.5 545zM383 721q0 -226 105 -359.5t283 -133.5q177 0 282 133.5t105 359.5q0 227 -105 361t-282 134t-282.5 -134t-105.5 -361zM417 1716q0 60 41.5 101.5 t102.5 41.5t103 -42t42 -101t-42 -100.5t-103 -41.5q-60 0 -102 41.5t-42 100.5zM836 1716q0 59 42 101t103 42t102.5 -41.5t41.5 -101.5q0 -59 -42 -100.5t-102 -41.5q-61 0 -103 41.5t-42 100.5z" />
<glyph unicode="&#xd7;" d="M164 249l329 330l-329 329l170 170l329 -324l329 324l170 -170l-328 -329l328 -330l-170 -170l-329 324l-329 -324z" />
<glyph unicode="&#xd8;" horiz-adv-x="1541" d="M75 721q0 345 187.5 546t508.5 201q247 0 418 -122l117 140l131 -108l-124 -150q154 -198 154 -507q0 -344 -188 -545t-508 -201q-237 0 -404 112l-109 -131l-132 112l113 135q-164 198 -164 518zM374 721q0 -165 57 -287l585 704q-99 90 -245 90q-182 0 -289.5 -137 t-107.5 -370zM538 294q96 -78 233 -78q182 0 289.5 136.5t107.5 368.5q0 153 -50 272z" />
<glyph unicode="&#xd9;" horiz-adv-x="1449" d="M120 510v933h302v-903q0 -141 79.5 -223.5t223.5 -82.5q143 0 222.5 82.5t79.5 223.5v903h302v-933q0 -240 -164.5 -387.5t-439.5 -147.5q-276 0 -440.5 147.5t-164.5 387.5zM392 1863h266l160 -306h-199z" />
<glyph unicode="&#xda;" horiz-adv-x="1449" d="M120 510v933h302v-903q0 -141 79.5 -223.5t223.5 -82.5q143 0 222.5 82.5t79.5 223.5v903h302v-933q0 -240 -164.5 -387.5t-439.5 -147.5q-276 0 -440.5 147.5t-164.5 387.5zM632 1557l160 306h266l-227 -306h-199z" />
<glyph unicode="&#xdb;" horiz-adv-x="1449" d="M120 510v933h302v-903q0 -141 79.5 -223.5t223.5 -82.5q143 0 222.5 82.5t79.5 223.5v903h302v-933q0 -240 -164.5 -387.5t-439.5 -147.5q-276 0 -440.5 147.5t-164.5 387.5zM356 1553l257 310h224l257 -310h-219l-146 185h-8l-146 -185h-219z" />
<glyph unicode="&#xdc;" horiz-adv-x="1449" d="M120 510v933h302v-903q0 -141 79.5 -223.5t223.5 -82.5q143 0 222.5 82.5t79.5 223.5v903h302v-933q0 -240 -164.5 -387.5t-439.5 -147.5q-276 0 -440.5 147.5t-164.5 387.5zM371 1716q0 60 41.5 101.5t102.5 41.5t103 -42t42 -101t-42 -100.5t-103 -41.5 q-60 0 -102 41.5t-42 100.5zM790 1716q0 59 42 101t103 42t102.5 -41.5t41.5 -101.5q0 -59 -42 -100.5t-102 -41.5q-61 0 -103 41.5t-42 100.5z" />
<glyph unicode="&#xdd;" horiz-adv-x="1362" d="M28 1443h329l323 -616h7l324 616h324l-503 -904v-539h-302v539zM588 1557l160 306h266l-227 -306h-199z" />
<glyph unicode="&#xde;" horiz-adv-x="1330" d="M151 0v1443h304v-235h307q209 0 342 -123.5t133 -333.5q0 -139 -64.5 -244t-175 -159t-250.5 -54h-294v-294h-302zM453 531h226q117 0 184 56t67 163t-66.5 162.5t-183.5 55.5h-227v-437z" />
<glyph unicode="&#xdf;" horiz-adv-x="1330" d="M142 0v1062q0 180 132.5 285.5t359.5 105.5q215 0 350 -102t135 -265q0 -118 -57.5 -205.5t-153.5 -115.5v-12q148 -13 236.5 -114t88.5 -252q0 -185 -127 -293.5t-346 -108.5q-114 0 -178 16v232q50 -17 125 -17q107 0 168.5 52.5t61.5 141.5q0 92 -70 146t-192 54h-71 v236h49q85 0 134.5 52t49.5 139q0 83 -54 132.5t-144 49.5q-100 0 -153 -55.5t-53 -160.5v-1003h-291z" />
<glyph unicode="&#xe0;" horiz-adv-x="1121" d="M54 308q0 146 108 229t309 95l270 16v71q0 74 -48.5 116t-131.5 42q-80 0 -130.5 -36t-61.5 -97h-267q8 158 135 254.5t337 96.5q206 0 330 -98t124 -260v-737h-282v164h-6q-44 -84 -134 -132.5t-193 -48.5q-155 0 -257 91t-102 234zM241 1531h264l161 -313h-199z M344 324q0 -60 45 -95t120 -35q97 0 164.5 56.5t67.5 142.5v78l-226 -14q-82 -6 -126.5 -41t-44.5 -92z" />
<glyph unicode="&#xe1;" horiz-adv-x="1121" d="M54 308q0 146 108 229t309 95l270 16v71q0 74 -48.5 116t-131.5 42q-80 0 -130.5 -36t-61.5 -97h-267q8 158 135 254.5t337 96.5q206 0 330 -98t124 -260v-737h-282v164h-6q-44 -84 -134 -132.5t-193 -48.5q-155 0 -257 91t-102 234zM344 324q0 -60 45 -95t120 -35 q97 0 164.5 56.5t67.5 142.5v78l-226 -14q-82 -6 -126.5 -41t-44.5 -92zM466 1218l161 313h264l-226 -313h-199z" />
<glyph unicode="&#xe2;" horiz-adv-x="1121" d="M54 308q0 146 108 229t309 95l270 16v71q0 74 -48.5 116t-131.5 42q-80 0 -130.5 -36t-61.5 -97h-267q8 158 135 254.5t337 96.5q206 0 330 -98t124 -260v-737h-282v164h-6q-44 -84 -134 -132.5t-193 -48.5q-155 0 -257 91t-102 234zM202 1218l252 313h224l252 -313h-221 l-139 180h-8l-139 -180h-221zM344 324q0 -60 45 -95t120 -35q97 0 164.5 56.5t67.5 142.5v78l-226 -14q-82 -6 -126.5 -41t-44.5 -92z" />
<glyph unicode="&#xe3;" horiz-adv-x="1121" d="M54 308q0 146 108 229t309 95l270 16v71q0 74 -48.5 116t-131.5 42q-80 0 -130.5 -36t-61.5 -97h-267q8 158 135 254.5t337 96.5q206 0 330 -98t124 -260v-737h-282v164h-6q-44 -84 -134 -132.5t-193 -48.5q-155 0 -257 91t-102 234zM210 1227q0 134 61.5 207.5 t161.5 73.5q41 0 75.5 -13t57.5 -32t42.5 -38t39.5 -32t39 -13q78 0 78 120h157q-1 -133 -63 -207.5t-162 -74.5q-49 0 -91 20t-64.5 44t-49 44t-49.5 20q-76 0 -76 -119h-157zM344 324q0 -60 45 -95t120 -35q97 0 164.5 56.5t67.5 142.5v78l-226 -14q-82 -6 -126.5 -41 t-44.5 -92z" />
<glyph unicode="&#xe4;" horiz-adv-x="1121" d="M54 308q0 146 108 229t309 95l270 16v71q0 74 -48.5 116t-131.5 42q-80 0 -130.5 -36t-61.5 -97h-267q8 158 135 254.5t337 96.5q206 0 330 -98t124 -260v-737h-282v164h-6q-44 -84 -134 -132.5t-193 -48.5q-155 0 -257 91t-102 234zM212 1367q0 59 42 101t102 42 q61 0 103 -42t42 -101t-42 -100.5t-103 -41.5q-60 0 -102 41.5t-42 100.5zM344 324q0 -60 45 -95t120 -35q97 0 164.5 56.5t67.5 142.5v78l-226 -14q-82 -6 -126.5 -41t-44.5 -92zM631 1367q0 59 42 101t103 42q60 0 102 -42t42 -101t-42 -100.5t-102 -41.5q-61 0 -103 41.5 t-42 100.5z" />
<glyph unicode="&#xe5;" horiz-adv-x="1121" d="M54 308q0 146 108 229t309 95l270 16v71q0 74 -48.5 116t-131.5 42q-80 0 -130.5 -36t-61.5 -97h-267q8 158 135 254.5t337 96.5q206 0 330 -98t124 -260v-737h-282v164h-6q-44 -84 -134 -132.5t-193 -48.5q-155 0 -257 91t-102 234zM344 324q0 -60 45 -95t120 -35 q97 0 164.5 56.5t67.5 142.5v78l-226 -14q-82 -6 -126.5 -41t-44.5 -92zM348 1387q0 88 64.5 150.5t153.5 62.5t153 -62.5t64 -150.5t-64 -150.5t-153 -62.5t-153.5 62.5t-64.5 150.5zM470 1387q0 -39 28.5 -66.5t67.5 -27.5t67.5 27.5t28.5 66.5t-28.5 66.5t-67.5 27.5 t-67.5 -27.5t-28.5 -66.5z" />
<glyph unicode="&#xe6;" horiz-adv-x="1798" d="M51 308q0 145 109 228t315 94l266 15v59q0 74 -54.5 123.5t-137.5 49.5q-79 0 -131.5 -37.5t-59.5 -96.5h-263q8 157 130.5 254.5t316.5 97.5q126 0 219.5 -43t137.5 -118h8q114 161 353 161q218 0 350 -145t132 -392v-88h-730v-19q0 -114 67.5 -186t176.5 -72 q77 0 133 36.5t77 98.5h268q-24 -158 -156 -254.5t-326 -96.5q-133 0 -237.5 54.5t-155.5 149.5h-9q-57 -94 -157 -146t-233 -52q-188 0 -298.5 89.5t-110.5 235.5zM330 323q0 -58 48.5 -95.5t122.5 -37.5q99 0 169.5 60t70.5 143v75l-231 -15q-85 -6 -132.5 -40t-47.5 -90z M1015 648h446q-4 105 -63 168t-154 63t-158 -64.5t-71 -166.5z" />
<glyph unicode="&#xe7;" horiz-adv-x="1116" d="M56 537q0 257 142.5 407.5t383.5 150.5q214 0 345.5 -118t141.5 -304h-271q-13 87 -68.5 140t-143.5 53q-109 0 -171.5 -87.5t-62.5 -241.5q0 -157 62.5 -244t172.5 -87q87 0 142 49.5t69 137.5h272q-10 -171 -119 -280.5t-287 -130.5l-45 -90q85 -2 136 -46t51 -120 q0 -89 -67.5 -137t-184.5 -49q-96 -2 -141 14v124q42 -12 106 -12q114 0 114 51q0 30 -28 42.5t-93 12.5h-63v99l56 110q-209 24 -329 170.5t-120 385.5z" />
<glyph unicode="&#xe8;" horiz-adv-x="1137" d="M56 531q0 257 140 410.5t377 153.5q233 0 371 -146t138 -391v-89h-739v-18q0 -115 67.5 -186.5t178.5 -71.5q80 0 138 36.5t78 98.5h268q-24 -158 -157.5 -254.5t-331.5 -96.5q-247 0 -387.5 148t-140.5 406zM248 1531h264l161 -313h-199zM346 648h455q-5 103 -66.5 167 t-158.5 64q-95 0 -158.5 -65t-71.5 -166z" />
<glyph unicode="&#xe9;" horiz-adv-x="1137" d="M56 531q0 257 140 410.5t377 153.5q233 0 371 -146t138 -391v-89h-739v-18q0 -115 67.5 -186.5t178.5 -71.5q80 0 138 36.5t78 98.5h268q-24 -158 -157.5 -254.5t-331.5 -96.5q-247 0 -387.5 148t-140.5 406zM346 648h455q-5 103 -66.5 167t-158.5 64q-95 0 -158.5 -65 t-71.5 -166zM473 1218l161 313h264l-226 -313h-199z" />
<glyph unicode="&#xea;" horiz-adv-x="1137" d="M56 531q0 257 140 410.5t377 153.5q233 0 371 -146t138 -391v-89h-739v-18q0 -115 67.5 -186.5t178.5 -71.5q80 0 138 36.5t78 98.5h268q-24 -158 -157.5 -254.5t-331.5 -96.5q-247 0 -387.5 148t-140.5 406zM209 1218l252 313h224l252 -313h-221l-139 180h-8l-139 -180 h-221zM346 648h455q-5 103 -66.5 167t-158.5 64q-95 0 -158.5 -65t-71.5 -166z" />
<glyph unicode="&#xeb;" horiz-adv-x="1137" d="M56 531q0 257 140 410.5t377 153.5q233 0 371 -146t138 -391v-89h-739v-18q0 -115 67.5 -186.5t178.5 -71.5q80 0 138 36.5t78 98.5h268q-24 -158 -157.5 -254.5t-331.5 -96.5q-247 0 -387.5 148t-140.5 406zM219 1367q0 59 41.5 101t102.5 42t103 -42t42 -101 t-42 -100.5t-103 -41.5q-60 0 -102 41.5t-42 100.5zM346 648h455q-5 103 -66.5 167t-158.5 64q-95 0 -158.5 -65t-71.5 -166zM638 1367q0 59 42 101t103 42t102.5 -42t41.5 -101t-42 -100.5t-102 -41.5q-61 0 -103 41.5t-42 100.5z" />
<glyph unicode="&#xec;" horiz-adv-x="491" d="M-79 1531h264l161 -313h-199zM100 0v1072h292v-1072h-292z" />
<glyph unicode="&#xed;" horiz-adv-x="491" d="M100 0v1072h292v-1072h-292zM146 1218l161 313h264l-226 -313h-199z" />
<glyph unicode="&#xee;" horiz-adv-x="491" d="M-118 1218l252 313h224l252 -313h-221l-139 180h-8l-139 -180h-221zM100 0v1072h292v-1072h-292z" />
<glyph unicode="&#xef;" horiz-adv-x="491" d="M-108 1367q0 59 42 101t102 42q61 0 103 -42t42 -101t-42 -100.5t-103 -41.5q-60 0 -102 41.5t-42 100.5zM100 0v1072h292v-1072h-292zM311 1367q0 59 42 101t103 42q60 0 102 -42t42 -101t-42 -100.5t-102 -41.5q-61 0 -103 41.5t-42 100.5z" />
<glyph unicode="&#xf0;" horiz-adv-x="1203" d="M64 510q0 118 38 213.5t101.5 155t143 91.5t166.5 32q86 0 156 -35.5t112 -95.5h16q-22 73 -88 157.5t-165 160.5l-304 -165v152l178 97q-83 48 -181 83v165q216 -44 387 -136l275 150l1 -152l-147 -80q183 -136 274.5 -324.5t91.5 -397.5q0 -125 -33.5 -232.5t-98 -190 t-166 -129.5t-228.5 -47q-169 0 -290.5 70.5t-180 188t-58.5 269.5zM362 514q0 -139 63 -219.5t175 -80.5q110 0 172.5 83t62.5 211q0 138 -63.5 218.5t-172.5 80.5q-107 0 -172 -79.5t-65 -213.5z" />
<glyph unicode="&#xf1;" horiz-adv-x="1180" d="M95 0v1072h282v-191h6q44 102 128.5 156.5t206.5 54.5q178 0 275 -106t97 -295v-691h-292v630q0 106 -50 163t-147 57t-155.5 -65t-58.5 -170v-615h-292zM237 1227q0 134 61.5 207.5t161.5 73.5q41 0 75.5 -13t57.5 -32t42.5 -38t39.5 -32t39 -13q78 0 78 120h157 q-1 -133 -63 -207.5t-162 -74.5q-49 0 -91 20t-64.5 44t-49 44t-49.5 20q-76 0 -76 -119h-157z" />
<glyph unicode="&#xf2;" horiz-adv-x="1173" d="M56 537q0 259 144.5 408.5t386.5 149.5q243 0 387 -149.5t144 -408.5q0 -263 -143 -411.5t-388 -148.5t-388 149t-143 411zM262 1531h264l161 -313h-199zM352 536q0 -160 63 -248t172 -88q108 0 171 88t63 248q0 158 -63 247t-171 89t-171.5 -89t-63.5 -247z" />
<glyph unicode="&#xf3;" horiz-adv-x="1173" d="M56 537q0 259 144.5 408.5t386.5 149.5q243 0 387 -149.5t144 -408.5q0 -263 -143 -411.5t-388 -148.5t-388 149t-143 411zM352 536q0 -160 63 -248t172 -88q108 0 171 88t63 248q0 158 -63 247t-171 89t-171.5 -89t-63.5 -247zM487 1218l161 313h264l-226 -313h-199z " />
<glyph unicode="&#xf4;" horiz-adv-x="1173" d="M56 537q0 259 144.5 408.5t386.5 149.5q243 0 387 -149.5t144 -408.5q0 -263 -143 -411.5t-388 -148.5t-388 149t-143 411zM223 1218l252 313h224l252 -313h-221l-139 180h-8l-139 -180h-221zM352 536q0 -160 63 -248t172 -88q108 0 171 88t63 248q0 158 -63 247t-171 89 t-171.5 -89t-63.5 -247z" />
<glyph unicode="&#xf5;" horiz-adv-x="1173" d="M56 537q0 259 144.5 408.5t386.5 149.5q243 0 387 -149.5t144 -408.5q0 -263 -143 -411.5t-388 -148.5t-388 149t-143 411zM231 1227q0 134 61.5 207.5t161.5 73.5q41 0 75.5 -13t57.5 -32t42.5 -38t39.5 -32t39 -13q78 0 78 120h157q-1 -133 -63 -207.5t-162 -74.5 q-49 0 -91 20t-64.5 44t-49 44t-49.5 20q-76 0 -76 -119h-157zM352 536q0 -160 63 -248t172 -88q108 0 171 88t63 248q0 158 -63 247t-171 89t-171.5 -89t-63.5 -247z" />
<glyph unicode="&#xf6;" horiz-adv-x="1173" d="M56 537q0 259 144.5 408.5t386.5 149.5q243 0 387 -149.5t144 -408.5q0 -263 -143 -411.5t-388 -148.5t-388 149t-143 411zM233 1367q0 59 41.5 101t102.5 42t103 -42t42 -101t-42 -100.5t-103 -41.5q-60 0 -102 41.5t-42 100.5zM352 536q0 -160 63 -248t172 -88 q108 0 171 88t63 248q0 158 -63 247t-171 89t-171.5 -89t-63.5 -247zM652 1367q0 59 42 101t103 42t102.5 -42t41.5 -101t-42 -100.5t-102 -41.5q-61 0 -103 41.5t-42 100.5z" />
<glyph unicode="&#xf7;" d="M144 464v230h1038v-230h-1038zM511 173q0 67 44 110t109 43t109 -43t44 -110t-44 -109.5t-109 -42.5t-109 42.5t-44 109.5zM511 984q0 67 44 109.5t109 42.5t109 -42.5t44 -109.5t-44 -109.5t-109 -42.5t-109 42.5t-44 109.5z" />
<glyph unicode="&#xf8;" horiz-adv-x="1173" d="M56 537q0 259 144.5 408.5t386.5 149.5q186 0 316 -89l85 101l94 -76l-89 -107q125 -148 125 -387q0 -263 -143 -411.5t-388 -148.5q-183 0 -311 85l-84 -101l-97 79l87 104q-126 148 -126 393zM344 536q0 -98 24 -170l376 450q-62 68 -157 68q-111 0 -177 -92.5 t-66 -255.5zM433 251q62 -62 154 -62q112 0 177 91.5t65 255.5q0 92 -22 164z" />
<glyph unicode="&#xf9;" horiz-adv-x="1180" d="M90 381v691h292v-630q0 -107 51.5 -163t148.5 -56t154 64t57 171v614h292v-1072h-282v193h-6q-84 -213 -321 -213q-176 0 -281 107.5t-105 293.5zM263 1531h264l161 -313h-199z" />
<glyph unicode="&#xfa;" horiz-adv-x="1180" d="M90 381v691h292v-630q0 -107 51.5 -163t148.5 -56t154 64t57 171v614h292v-1072h-282v193h-6q-84 -213 -321 -213q-176 0 -281 107.5t-105 293.5zM488 1218l161 313h264l-226 -313h-199z" />
<glyph unicode="&#xfb;" horiz-adv-x="1180" d="M90 381v691h292v-630q0 -107 51.5 -163t148.5 -56t154 64t57 171v614h292v-1072h-282v193h-6q-84 -213 -321 -213q-176 0 -281 107.5t-105 293.5zM224 1218l252 313h224l252 -313h-221l-139 180h-8l-139 -180h-221z" />
<glyph unicode="&#xfc;" horiz-adv-x="1180" d="M90 381v691h292v-630q0 -107 51.5 -163t148.5 -56t154 64t57 171v614h292v-1072h-282v193h-6q-84 -213 -321 -213q-176 0 -281 107.5t-105 293.5zM234 1367q0 59 42 101t102 42q61 0 103 -42t42 -101t-42 -100.5t-103 -41.5q-60 0 -102 41.5t-42 100.5zM653 1367 q0 59 42 101t103 42q60 0 102 -42t42 -101t-42 -100.5t-102 -41.5q-61 0 -103 41.5t-42 100.5z" />
<glyph unicode="&#xfd;" horiz-adv-x="1113" d="M12 1072h320l228 -838h6l227 838h308l-369 -1096q-68 -205 -180.5 -289t-318.5 -84q-96 0 -111 3v225q10 -2 74 -2q80 0 122 28t57 91q0 1 5.5 25t4.5 26zM463 1218l161 313h264l-226 -313h-199z" />
<glyph unicode="&#xfe;" horiz-adv-x="1224" d="M102 -336v1779h288v-547h17q44 91 129 142t195 51q204 0 319.5 -146.5t115.5 -406.5q0 -259 -115 -406t-317 -147q-115 0 -199.5 47.5t-123.5 133.5h-18v-500h-291zM390 536q1 -148 65 -233t174 -85q112 0 175 84.5t63 233.5t-63 234t-175 85q-110 0 -174 -85.5 t-65 -233.5z" />
<glyph unicode="&#xff;" horiz-adv-x="1113" d="M12 1072h320l228 -838h6l227 838h308l-369 -1096q-68 -205 -180.5 -289t-318.5 -84q-96 0 -111 3v225q10 -2 74 -2q80 0 122 28t57 91q0 1 5.5 25t4.5 26zM209 1367q0 59 41.5 101t102.5 42t103 -42t42 -101t-42 -100.5t-103 -41.5q-60 0 -102 41.5t-42 100.5zM628 1367 q0 59 42 101t103 42t102.5 -42t41.5 -101t-42 -100.5t-102 -41.5q-61 0 -103 41.5t-42 100.5z" />
<glyph unicode="&#x152;" horiz-adv-x="2216" d="M80 721q0 224 82.5 395.5t231.5 265t341 93.5q159 0 282 -71t186 -200v239h916v-249h-644v-348h606v-232h-606v-364h644v-250h-916v236q-54 -121 -183.5 -194.5t-288.5 -73.5q-143 0 -264 54.5t-206 152.5t-133 238.5t-48 307.5zM388 721q0 -226 106 -361t285 -135 t285 135t106 361q0 227 -106.5 362.5t-284.5 135.5t-284.5 -135.5t-106.5 -362.5z" />
<glyph unicode="&#x153;" horiz-adv-x="1893" d="M56 534q0 255 141.5 408t376.5 153q257 0 386 -194h14q53 89 153.5 141.5t223.5 52.5q220 0 353.5 -147.5t133.5 -389.5v-89h-727v-27q0 -110 68 -179.5t177 -69.5q77 0 132.5 34.5t72.5 90.5h269q-23 -148 -153.5 -244.5t-312.5 -96.5q-128 0 -232.5 51.5t-157.5 138.5 h-14q-129 -190 -383 -190q-238 0 -379.5 151.5t-141.5 405.5zM344 535q0 -155 62 -242t171 -87t170.5 87t61.5 242t-61.5 243t-170.5 88t-171 -88t-62 -243zM1111 648h443q-4 104 -63.5 167.5t-153.5 63.5q-95 0 -158 -64.5t-68 -166.5z" />
<glyph unicode="&#x178;" horiz-adv-x="1362" d="M28 1443h329l323 -616h7l324 616h324l-503 -904v-539h-302v539zM327 1716q0 60 41.5 101.5t102.5 41.5t103 -42t42 -101t-42 -100.5t-103 -41.5q-60 0 -102 41.5t-42 100.5zM746 1716q0 59 42 101t103 42t102.5 -41.5t41.5 -101.5q0 -59 -42 -100.5t-102 -41.5 q-61 0 -103 41.5t-42 100.5z" />
<glyph unicode="&#x2c6;" horiz-adv-x="1024" d="M148 1218l252 313h224l252 -313h-221l-139 180h-7l-140 -180h-221z" />
<glyph unicode="&#x2dc;" horiz-adv-x="1024" d="M157 1227q0 135 61 208t161 73q41 0 75.5 -13t57.5 -32t42.5 -38t39.5 -32t39 -13q78 0 78 120h157q-1 -133 -63 -207.5t-162 -74.5q-49 0 -90.5 20t-64 44t-49.5 44t-50 20q-75 0 -75 -119h-157z" />
<glyph unicode="&#x2000;" horiz-adv-x="961" />
<glyph unicode="&#x2001;" horiz-adv-x="1922" />
<glyph unicode="&#x2002;" horiz-adv-x="961" />
<glyph unicode="&#x2003;" horiz-adv-x="1922" />
<glyph unicode="&#x2004;" horiz-adv-x="640" />
<glyph unicode="&#x2005;" horiz-adv-x="480" />
<glyph unicode="&#x2006;" horiz-adv-x="320" />
<glyph unicode="&#x2007;" horiz-adv-x="320" />
<glyph unicode="&#x2008;" horiz-adv-x="240" />
<glyph unicode="&#x2009;" horiz-adv-x="384" />
<glyph unicode="&#x200a;" horiz-adv-x="106" />
<glyph unicode="&#x2010;" horiz-adv-x="905" d="M124 459v255h657v-255h-657z" />
<glyph unicode="&#x2011;" horiz-adv-x="905" d="M124 459v255h657v-255h-657z" />
<glyph unicode="&#x2012;" horiz-adv-x="905" d="M124 459v255h657v-255h-657z" />
<glyph unicode="&#x2013;" horiz-adv-x="1024" d="M0 454v262h1024v-262h-1024z" />
<glyph unicode="&#x2014;" horiz-adv-x="2048" d="M0 454v262h2048v-262h-2048z" />
<glyph unicode="&#x2018;" horiz-adv-x="594" d="M116 880l144 563h218l-85 -563h-277z" />
<glyph unicode="&#x2019;" horiz-adv-x="594" d="M116 880l85 563h277l-144 -563h-218z" />
<glyph unicode="&#x201a;" horiz-adv-x="593" d="M132 -316l75 564h277l-134 -564h-218z" />
<glyph unicode="&#x201c;" horiz-adv-x="1062" d="M129 880l144 563h219l-85 -563h-278zM581 880l134 563h218l-75 -563h-277z" />
<glyph unicode="&#x201d;" horiz-adv-x="1062" d="M129 880l75 563h278l-134 -563h-219zM571 880l85 563h277l-144 -563h-218z" />
<glyph unicode="&#x201e;" horiz-adv-x="1062" d="M129 -316l75 564h278l-134 -564h-219zM581 -316l75 564h277l-134 -564h-218z" />
<glyph unicode="&#x2022;" horiz-adv-x="920" d="M104 566q0 146 105 251.5t251 105.5t251.5 -105.5t105.5 -251.5t-105.5 -251t-251.5 -105t-251 105t-105 251z" />
<glyph unicode="&#x2026;" horiz-adv-x="1527" d="M124 149q0 67 47 114t114 47t114 -47t47 -114t-47 -114t-114 -47t-114 47t-47 114zM603 149q0 67 46.5 114t114.5 47q67 0 114 -47t47 -114t-47 -114t-114 -47t-114 47t-47 114zM1082 149q0 67 47 114t114 47t114 -47t47 -114t-47 -114t-114 -47t-114 47t-47 114z" />
<glyph unicode="&#x202f;" horiz-adv-x="384" />
<glyph unicode="&#x2039;" horiz-adv-x="845" d="M113 562v8l348 411h271l-346 -409v-10l346 -411h-275z" />
<glyph unicode="&#x203a;" horiz-adv-x="845" d="M113 151l346 409v10l-346 411h275l344 -411v-8l-348 -411h-271z" />
<glyph unicode="&#x205f;" horiz-adv-x="480" />
<glyph unicode="&#x20ac;" d="M84 530v100h174q-4 40 -4 92q0 48 4 85h-174v100h188q53 256 249.5 396.5t489.5 140.5q120 0 197 -23v-241q-80 18 -191 18q-163 0 -279 -75.5t-162 -215.5h544v-100h-567q-5 -45 -5 -85q0 -48 6 -92h566v-100h-542q47 -137 161 -211t273 -74q142 0 200 16v-244 q-78 -18 -200 -18q-292 0 -487.5 139t-250.5 392h-190z" />
<glyph unicode="&#x2122;" horiz-adv-x="1856" d="M110 1269v174h629v-174h-209v-563h-210v563h-210zM826 706v737h244l177 -434h4l178 434h243v-737h-184v424h-5l-176 -424h-116l-176 424h-4v-424h-185z" />
<glyph unicode="&#x25fc;" horiz-adv-x="1070" d="M0 0v1070h1070v-1070h-1070z" />
<glyph unicode="&#xfb01;" horiz-adv-x="1220" d="M27 852v215h146v81q0 160 82.5 234t270.5 74q86 0 149 -13v-193q-32 6 -79 6q-138 0 -138 -118v-71h213v-215h-206v-852h-292v852h-146zM822 1367q0 62 44 106t108 44t108 -44t44 -106t-44.5 -106t-107.5 -44t-107.5 44t-44.5 106zM829 0v1072h292v-1072h-292z" />
<glyph unicode="&#xfb02;" horiz-adv-x="1225" d="M27 852v215h146v81q0 160 82.5 234t270.5 74q86 0 149 -13v-193q-32 6 -79 6q-138 0 -138 -118v-71h213v-215h-206v-852h-292v852h-146zM831 0v1443h292v-1443h-292z" />
</font>
</defs>
</svg>
