<?xml version="1.0" standalone="no"?>
<!DOCTYPE svg PUBLIC "-//W3C//DTD SVG 1.1//EN" "http://www.w3.org/Graphics/SVG/1.1/DTD/svg11.dtd" >
<svg xmlns="http://www.w3.org/2000/svg" xmlns:xlink="http://www.w3.org/1999/xlink" version="1.1">
<metadata></metadata>
<defs>
<font id="sf_pro_displaylight" horiz-adv-x="1218" >
<font-face units-per-em="2048" ascent="1638" descent="-410" />
<missing-glyph horiz-adv-x="419" />
<glyph horiz-adv-x="0" />
<glyph unicode="&#xd;" horiz-adv-x="0" />
<glyph unicode=" "  horiz-adv-x="419" />
<glyph unicode="&#x09;" horiz-adv-x="419" />
<glyph unicode="&#xa0;" horiz-adv-x="419" />
<glyph unicode="!" horiz-adv-x="531" d="M172 84q0 40 27 67t66 27q40 0 67 -27t27 -67q0 -39 -27 -66t-67 -27q-39 0 -66 27t-27 66zM196 1443h138l-8 -987h-121z" />
<glyph unicode="&#x22;" horiz-adv-x="703" d="M123 955v488h123v-488h-123zM457 955v488h123v-488h-123z" />
<glyph unicode="#" horiz-adv-x="1236" d="M3 419l22 111h251l78 395h-259l22 110h260l85 410h111l-84 -410h364l86 410h111l-85 -410h267l-21 -110h-268l-81 -395h277l-21 -111h-278l-86 -419h-112l86 419h-365l-86 -419h-111l86 419h-249zM385 528h367l80 398h-367z" />
<glyph unicode="$" d="M105 415h133q12 -115 94.5 -189.5t227.5 -86.5v543l-31 7q-194 47 -290.5 134.5t-96.5 227.5q0 156 117.5 257.5t300.5 114.5v167h95v-167q181 -12 301.5 -115.5t126.5 -260.5h-132q-9 109 -90 177.5t-206 79.5v-515l46 -11q202 -48 301.5 -136t99.5 -237 q0 -169 -126 -271.5t-321 -114.5v-175h-95v176q-192 13 -320.5 120t-134.5 275zM275 1059q0 -89 65.5 -149.5t208.5 -95.5l11 -3v493q-130 -12 -207.5 -81.5t-77.5 -163.5zM655 138q153 9 233.5 79.5t80.5 178.5q0 98 -65.5 159t-223.5 98l-25 6v-521z" />
<glyph unicode="%" horiz-adv-x="1526" d="M44 1119q0 154 78 246.5t207 92.5t206.5 -92.5t77.5 -246.5q0 -152 -77.5 -244.5t-206.5 -92.5t-207 92.5t-78 244.5zM145 1119q0 -111 50 -178t134 -67q83 0 133 67t50 178q0 112 -50 178.5t-133 66.5t-133.5 -66.5t-50.5 -178.5zM211 0l980 1443h124l-979 -1443h-125z M913 324q0 153 78 245.5t207 92.5t206.5 -92.5t77.5 -245.5t-77.5 -245.5t-206.5 -92.5t-207 92.5t-78 245.5zM1014 324q0 -111 50 -178t134 -67q83 0 133 67t50 178t-50 178t-133 67t-133.5 -67t-50.5 -178z" />
<glyph unicode="&#x26;" horiz-adv-x="1372" d="M79 376q0 242 279 391q9 4 27 13.5t32 17t17 8.5q-109 112 -152.5 189.5t-43.5 157.5q0 133 102.5 222.5t253.5 89.5q152 0 252 -88t100 -224q0 -108 -76 -196.5t-250 -178.5l397 -425q93 158 93 401v58h127v-59q0 -291 -131 -491l250 -262h-172l-159 168 q-92 -90 -217.5 -140.5t-257.5 -50.5q-208 0 -339.5 111.5t-131.5 287.5zM214 384q0 -128 96.5 -209.5t250.5 -81.5q106 0 211 44.5t171 117.5l-434 468q-40 -18 -72 -39q-117 -67 -170 -139.5t-53 -160.5zM368 1146q0 -63 38.5 -126t138.5 -164q145 72 209 141t64 151 q0 90 -63.5 149t-160.5 59q-96 0 -161 -60.5t-65 -149.5z" />
<glyph unicode="'" horiz-adv-x="369" d="M123 955v488h123v-488h-123z" />
<glyph unicode="(" horiz-adv-x="626" d="M191 569q0 521 277 874h115q-113 -137 -185 -383.5t-72 -490.5t72 -489.5t185 -383.5h-115q-277 353 -277 873z" />
<glyph unicode=")" horiz-adv-x="626" d="M43 -304q112 138 184.5 384t72.5 490q0 243 -72.5 489t-184.5 384h115q277 -353 277 -873q0 -521 -277 -874h-115z" />
<glyph unicode="*" horiz-adv-x="789" d="M93 1005l212 126l-210 127l44 79l210 -128l-3 234h97l-3 -235l209 129l46 -79l-213 -127l214 -127l-47 -80l-209 130l3 -236h-98l4 236l-211 -130z" />
<glyph unicode="+" d="M138 510v124h409v434h124v-434h409v-124h-409v-434h-124v434h-409z" />
<glyph unicode="," horiz-adv-x="509" d="M102 -276l96 482h141l-126 -482h-111z" />
<glyph unicode="-" horiz-adv-x="874" d="M109 521v124h656v-124h-656z" />
<glyph unicode="." horiz-adv-x="509" d="M161 84q0 40 27.5 67t66.5 27t66 -27t27 -67q0 -39 -27 -66t-66 -27t-66.5 27t-27.5 66z" />
<glyph unicode="/" horiz-adv-x="626" d="M0 -304l510 1747h116l-510 -1747h-116z" />
<glyph unicode="0" horiz-adv-x="1222" d="M88 722q0 342 140 543t383 201q244 0 383 -200.5t139 -542.5q0 -344 -139 -545t-383 -201q-245 0 -384 200.5t-139 544.5zM226 723q0 -290 102 -458t283 -168t283 168t102 457q0 287 -102.5 455t-282.5 168q-179 0 -282 -169t-103 -453z" />
<glyph unicode="1" horiz-adv-x="863" d="M94 1037v139q18 11 192 132t197 135h134v-1443h-132v1297h-4q-14 -9 -189 -127.5t-198 -132.5z" />
<glyph unicode="2" horiz-adv-x="1152" d="M115 1038q1 185 134.5 306.5t333.5 121.5q192 0 317.5 -115.5t125.5 -282.5q0 -117 -68 -229t-260 -310l-386 -403v-4h751v-122h-941v96l510 536q155 162 206.5 248t51.5 181q0 121 -86 203t-221 82q-143 0 -239 -87.5t-97 -220.5h-132z" />
<glyph unicode="3" horiz-adv-x="1183" d="M90 374h132q6 -123 108.5 -200t258.5 -77t255 82.5t100 211.5q1 141 -98 219.5t-273 78.5h-174v117h168q144 0 235 77t91 197q0 119 -82.5 192.5t-226.5 73.5q-138 0 -231 -73.5t-101 -194.5h-132q13 174 141 281t323 107q202 0 324.5 -105.5t122.5 -263.5 q0 -132 -83.5 -223t-224.5 -119v-4q163 -13 261.5 -108.5t98.5 -247.5q0 -182 -141 -300t-353 -118q-215 0 -353.5 111.5t-145.5 285.5z" />
<glyph unicode="4" horiz-adv-x="1213" d="M75 326v125q222 373 665 994h200v-998h215v-121h-215v-326h-133v326h-732zM213 447h594v878h-2q-364 -504 -592 -874v-4z" />
<glyph unicode="5" horiz-adv-x="1186" d="M121 376h134q14 -121 113 -199.5t239 -78.5q161 0 264.5 102.5t103.5 261.5q0 157 -102.5 260t-259.5 103q-111 0 -200 -49t-143 -142h-123l78 809h800v-122h-687l-57 -544h3q54 79 147 122.5t204 43.5q206 0 341.5 -135.5t135.5 -342.5q0 -214 -143 -351t-364 -137 q-130 0 -237.5 51t-172.5 142t-74 206z" />
<glyph unicode="6" horiz-adv-x="1206" d="M91 691q0 363 145.5 569t402.5 206q180 0 307.5 -98t157.5 -261h-138q-29 110 -117 174t-211 64q-198 0 -306.5 -176.5t-108.5 -497.5h3q42 120 158 197t267 77q206 0 342.5 -136t136.5 -341q0 -212 -142 -351.5t-359 -139.5q-65 0 -126.5 15t-123.5 47.5t-113 89 t-90.5 132.5t-62 186.5t-22.5 243.5zM262 474q0 -158 105.5 -266.5t260.5 -108.5q152 0 257.5 106t105.5 259q0 155 -102.5 257.5t-259.5 102.5q-154 0 -260.5 -101.5t-106.5 -248.5z" />
<glyph unicode="7" horiz-adv-x="1105" d="M79 1321v122h940v-128l-661 -1315h-145l669 1317v4h-803z" />
<glyph unicode="8" horiz-adv-x="1211" d="M91 392q0 136 89 238t233 133v3q-124 34 -197 120.5t-73 202.5q0 164 130.5 270.5t331.5 106.5t331 -106.5t130 -270.5q0 -114 -72.5 -201t-196.5 -122v-3q144 -31 233 -133t89 -238q0 -182 -143.5 -298.5t-370.5 -116.5q-226 0 -370 117t-144 298zM230 400 q0 -132 104.5 -217.5t270.5 -85.5t270.5 85.5t104.5 217.5q0 130 -104.5 213t-270.5 83q-165 0 -270 -83t-105 -213zM279 1078q0 -114 91.5 -187t234.5 -73t234.5 73t91.5 187q0 117 -90.5 193t-235.5 76q-144 0 -235 -76t-91 -193z" />
<glyph unicode="9" horiz-adv-x="1206" d="M76 972q0 214 142 354t359 140q54 0 106 -10t106 -34.5t101 -61.5t89 -94t72 -129.5t47 -170.5t17 -214q0 -363 -145 -569t-402 -206q-184 0 -312 98t-157 258h138q28 -110 116 -173t216 -63q189 0 302 169.5t112 507.5h-3q-41 -122 -159 -199t-266 -77 q-206 0 -342.5 135.5t-136.5 338.5zM214 976q0 -152 103 -254.5t260 -102.5q155 0 261.5 102t106.5 248q0 157 -106 265.5t-261 108.5q-154 0 -259 -106t-105 -261z" />
<glyph unicode=":" horiz-adv-x="509" d="M161 84q0 40 27.5 67t66.5 27t66 -27t27 -67q0 -39 -27 -66t-66 -27t-66.5 27t-27.5 66zM161 930q0 40 27.5 67t66.5 27t66 -27t27 -67q0 -39 -27 -66t-66 -27t-66.5 27t-27.5 66z" />
<glyph unicode=";" horiz-adv-x="509" d="M102 -276l96 482h141l-126 -482h-111zM161 930q0 40 27.5 67t66.5 27t66 -27t27 -67q0 -39 -27 -66t-66 -27t-66.5 27t-27.5 66z" />
<glyph unicode="&#x3c;" d="M138 513v117l942 450v-138l-783 -362v-8l783 -368v-140z" />
<glyph unicode="=" d="M152 298v118h914v-118h-914zM152 728v118h914v-118h-914z" />
<glyph unicode="&#x3e;" d="M138 64v139l783 361v8l-783 369v139l942 -449v-116z" />
<glyph unicode="?" horiz-adv-x="972" d="M58 1079q9 164 120.5 270.5t298.5 106.5q179 0 294.5 -102t115.5 -256q0 -108 -52.5 -190.5t-158.5 -150.5q-98 -63 -133 -115.5t-35 -136.5v-75h-133v94q-1 98 45 168t152 139q95 63 134.5 122t39.5 139q0 107 -77 176t-197 69t-197 -70t-87 -188h-130zM350 84 q0 40 27 67t66 27q40 0 67 -27t27 -67q0 -39 -27 -66t-67 -27q-39 0 -66 27t-27 66z" />
<glyph unicode="@" horiz-adv-x="1770" d="M87 604q0 182 61 336.5t169 263t261 169.5t332 61q231 0 413.5 -93t284.5 -263t102 -388q0 -240 -94 -381t-258 -141q-90 0 -153.5 50.5t-74.5 133.5h-7q-34 -86 -101.5 -131.5t-160.5 -45.5q-155 0 -250.5 116.5t-95.5 305.5q0 184 96.5 300t249.5 116q87 0 156.5 -44 t97.5 -117h7v141h116v-572q0 -70 36 -110.5t103 -40.5q102 0 163 112t61 310q0 286 -195 464.5t-505 178.5q-201 0 -362 -94t-251.5 -262t-90.5 -379q0 -225 94 -392.5t257 -254t373 -86.5q221 0 332 44v-99q-127 -44 -333 -44q-243 0 -430.5 98.5t-295 289.5t-107.5 448z M639 594q0 -141 64.5 -225.5t173.5 -84.5q111 0 177 86t66 229q0 141 -65 224t-177 83q-109 0 -174 -85t-65 -227z" />
<glyph unicode="A" horiz-adv-x="1262" d="M23 0l540 1443h136l539 -1443h-144l-160 442h-606l-160 -442h-145zM369 560h524l-259 714h-6z" />
<glyph unicode="B" horiz-adv-x="1205" d="M135 0v1443h519q186 0 301 -98t115 -258q0 -120 -74.5 -212t-189.5 -113v-7q152 -18 245.5 -114.5t93.5 -244.5q0 -185 -130 -290.5t-358 -105.5h-522zM271 121h367q176 0 271.5 73.5t95.5 208.5t-99.5 208t-285.5 73h-349v-563zM271 802h314q164 0 255.5 71t91.5 199 q0 118 -81.5 184t-225.5 66h-354v-520z" />
<glyph unicode="C" horiz-adv-x="1371" d="M77 725q0 339 174.5 540t468.5 201q151 0 277.5 -61t207.5 -171t100 -249h-137q-30 156 -155 255t-293 99q-230 0 -366.5 -166.5t-136.5 -447.5q0 -285 136.5 -453t367.5 -168q173 0 294 87t153 236h137q-38 -211 -194 -330.5t-391 -119.5q-295 0 -469 202.5t-174 545.5z " />
<glyph unicode="D" horiz-adv-x="1364" d="M135 0v1443h468q324 0 504 -189.5t180 -531.5q0 -343 -179.5 -532.5t-504.5 -189.5h-468zM272 124h323q266 0 409.5 155t143.5 442q0 288 -143.5 443t-409.5 155h-323v-1195z" />
<glyph unicode="E" horiz-adv-x="1104" d="M135 0v1443h871v-124h-735v-519h698v-122h-698v-554h735v-124h-871z" />
<glyph unicode="F" horiz-adv-x="1061" d="M135 0v1443h856v-124h-720v-542h662v-122h-662v-655h-136z" />
<glyph unicode="G" horiz-adv-x="1409" d="M77 730q0 335 176.5 535.5t471.5 200.5q227 0 388 -125t202 -332h-142q-44 154 -163.5 242t-284.5 88q-235 0 -371.5 -163.5t-136.5 -445.5q0 -286 138 -456t370 -170q209 0 336 123t127 327v51h-448v120h584v-139q0 -286 -159 -447.5t-440 -161.5q-293 0 -470.5 206 t-177.5 547z" />
<glyph unicode="H" horiz-adv-x="1387" d="M135 0v1443h136v-642h844v642h137v-1443h-137v677h-844v-677h-136z" />
<glyph unicode="I" horiz-adv-x="406" d="M135 0v1443h136v-1443h-136z" />
<glyph unicode="J" horiz-adv-x="987" d="M42 331h135q5 -104 77.5 -169t184.5 -65q132 0 204.5 78t72.5 222v1046h136v-1048q0 -199 -109.5 -312t-303.5 -113q-173 0 -284.5 101t-112.5 260z" />
<glyph unicode="K" horiz-adv-x="1209" d="M135 0v1443h136v-748h8l686 748h173l-593 -638l652 -805h-175l-573 708l-178 -193v-515h-136z" />
<glyph unicode="L" horiz-adv-x="1052" d="M135 0v1443h136v-1319h723v-124h-859z" />
<glyph unicode="M" horiz-adv-x="1660" d="M135 0v1443h157l535 -1269h6l534 1269h158v-1443h-128v1184h-6l-502 -1184h-119l-501 1184h-6v-1184h-128z" />
<glyph unicode="N" horiz-adv-x="1393" d="M135 0v1443h135l846 -1205h7v1205h135v-1443h-132l-849 1206h-7v-1206h-135z" />
<glyph unicode="O" horiz-adv-x="1465" d="M77 721q0 343 177 544t478 201q302 0 479 -201t177 -544t-177 -543.5t-479 -200.5t-478.5 200.5t-176.5 543.5zM217 721q0 -284 139 -450.5t376 -166.5t376.5 167t139.5 450q0 284 -139.5 451t-376.5 167t-376 -167t-139 -451z" />
<glyph unicode="P" horiz-adv-x="1150" d="M135 0v1443h491q207 0 335 -124t128 -325t-129 -325.5t-335 -124.5h-354v-544h-136zM271 666h323q166 0 260.5 87t94.5 241t-94 240.5t-261 86.5h-323v-655z" />
<glyph unicode="Q" horiz-adv-x="1465" d="M77 721q0 343 177 544t478 201q302 0 479 -201t177 -544q0 -213 -71.5 -375.5t-204.5 -256.5l188 -258h-154l-145 198q-122 -52 -269 -52q-302 0 -478.5 200.5t-176.5 543.5zM217 721q0 -283 139.5 -450t375.5 -167q102 0 190 34l-187 257h154l143 -196 q104 77 159.5 211.5t55.5 310.5q0 284 -139 451t-376 167t-376 -167t-139 -451z" />
<glyph unicode="R" horiz-adv-x="1193" d="M135 0v1443h509q211 0 336.5 -114.5t125.5 -307.5q0 -153 -82 -262t-227 -146l350 -613h-160l-332 591h-22h-362v-591h-136zM271 712h362q158 0 245 80t87 225q0 143 -89.5 223.5t-247.5 80.5h-357v-609z" />
<glyph unicode="S" horiz-adv-x="1181" d="M64 385h137q13 -129 123.5 -206.5t280.5 -77.5q163 0 267.5 78t104.5 201q0 103 -73.5 167t-238.5 102l-157 35q-213 47 -310 141t-97 245q0 174 139.5 285t353.5 111q211 0 350.5 -112.5t145.5 -286.5h-137q-11 124 -110 199.5t-252 75.5q-150 0 -250 -73t-100 -193 q0 -99 72 -162.5t231 -99.5l157 -36q222 -50 319 -139.5t97 -240.5q0 -192 -142 -306.5t-377 -114.5q-230 0 -376.5 112t-157.5 296z" />
<glyph unicode="T" horiz-adv-x="1165" d="M38 1319v124h1090v-124h-477v-1319h-137v1319h-476z" />
<glyph unicode="U" horiz-adv-x="1386" d="M135 504v939h136v-931q0 -184 113 -296t309 -112t309 112t113 296v931h137v-939q0 -236 -151 -381.5t-408 -145.5t-407.5 145.5t-150.5 381.5z" />
<glyph unicode="V" horiz-adv-x="1262" d="M23 1443h145l460 -1273h6l461 1273h144l-540 -1443h-136z" />
<glyph unicode="W" horiz-adv-x="1854" d="M44 1443h142l318 -1233h6l349 1233h136l348 -1233h7l317 1233h143l-398 -1443h-126l-355 1209h-8l-355 -1209h-127z" />
<glyph unicode="X" horiz-adv-x="1263" d="M43 0l502 722v5l-497 716h164l421 -613h5l425 613h156l-506 -722v-4l499 -717h-164l-420 610h-5l-424 -610h-156z" />
<glyph unicode="Y" horiz-adv-x="1219" d="M24 1443h156l427 -685h5l427 685h156l-517 -819v-624h-137v624z" />
<glyph unicode="Z" horiz-adv-x="1224" d="M87 0v99l866 1214v6h-838v124h1011v-100l-864 -1213v-6h876v-124h-1051z" />
<glyph unicode="[" horiz-adv-x="626" d="M204 -304v1747h399v-106h-271v-1536h271v-105h-399z" />
<glyph unicode="\" horiz-adv-x="626" d="M0 1443h116l510 -1747h-116z" />
<glyph unicode="]" horiz-adv-x="626" d="M23 -199h270v1537h-270v105h399v-1747h-399v105z" />
<glyph unicode="^" horiz-adv-x="789" d="M72 865l257 530h131l257 -530h-125l-194 410h-8l-195 -410h-123z" />
<glyph unicode="_" horiz-adv-x="819" d="M-58 -122h935v-100h-935v100z" />
<glyph unicode="`" horiz-adv-x="1024" d="M346 1500h147l186 -301h-107z" />
<glyph unicode="a" horiz-adv-x="1014" d="M77 288q0 134 96.5 212t276.5 90l324 20v90q0 113 -68 176.5t-189 63.5q-114 0 -185.5 -53t-88.5 -148h-128q11 142 120.5 230t284.5 88q178 0 282 -93t104 -252v-712h-126v198h-3q-43 -97 -141 -156t-214 -59q-154 0 -249.5 84.5t-95.5 220.5zM211 288q0 -85 66 -138 t172 -53q137 0 231 85t94 209v115l-308 -21q-123 -8 -189 -59.5t-66 -137.5z" />
<glyph unicode="b" horiz-adv-x="1117" d="M123 0v1443h133v-620h3q45 108 140 171t216 63q196 0 317.5 -147.5t121.5 -389.5t-121.5 -389.5t-318.5 -147.5q-123 0 -218.5 63.5t-142.5 173.5h-3v-220h-127zM255 520q0 -187 93.5 -303.5t240.5 -116.5q150 0 239.5 114.5t89.5 305.5t-89.5 305.5t-239.5 114.5 q-147 0 -240.5 -117t-93.5 -303z" />
<glyph unicode="c" horiz-adv-x="1012" d="M62 520q0 245 128.5 391t341.5 146q177 0 292.5 -100t135.5 -246h-130q-22 101 -100.5 165t-196.5 64q-153 0 -244.5 -114t-91.5 -306q0 -194 92 -307t245 -113q116 0 194.5 60t101.5 162h131q-22 -150 -139.5 -244.5t-288.5 -94.5q-214 0 -342.5 144.5t-128.5 392.5z " />
<glyph unicode="d" horiz-adv-x="1119" d="M62 520q0 242 122.5 389.5t319.5 147.5q123 0 218.5 -63.5t137.5 -167.5h3v617h133v-1443h-126v220h-3q-45 -107 -141 -172t-219 -65q-198 0 -321.5 148t-123.5 389zM198 520q0 -190 91 -305t241 -115q149 0 241.5 116t92.5 304t-92.5 304t-241.5 116q-150 0 -241 -115 t-91 -305z" />
<glyph unicode="e" horiz-adv-x="1040" d="M62 517q0 243 127 391.5t338 148.5q206 0 328 -140t122 -373v-56h-779v-8q0 -176 92 -278.5t248 -102.5q115 0 194 54t101 142h131q-24 -137 -141.5 -224.5t-287.5 -87.5q-219 0 -346 143.5t-127 390.5zM199 593h642q-2 155 -89 251.5t-227 96.5q-139 0 -228.5 -96.5 t-97.5 -251.5z" />
<glyph unicode="f" horiz-adv-x="581" d="M22 930v110h145v132q0 274 266 274q52 0 96 -8v-109q-37 7 -77 7q-153 0 -153 -167v-129h224v-110h-223v-930h-133v930h-145z" />
<glyph unicode="g" horiz-adv-x="1107" d="M62 523q0 242 121 388t321 146q122 0 217.5 -64.5t142.5 -172.5h3v220h126v-1023q0 -182 -123.5 -292t-331.5 -110q-168 0 -286.5 82t-140.5 207h137q26 -78 105.5 -126.5t190.5 -48.5q145 0 230.5 77.5t85.5 205.5v209h-3q-43 -103 -138.5 -167t-217.5 -64 q-198 0 -318.5 146t-120.5 387zM198 522q0 -188 90 -301.5t237 -113.5q150 0 242.5 114.5t92.5 301.5t-92.5 302t-242.5 115q-147 0 -237 -114.5t-90 -303.5z" />
<glyph unicode="h" horiz-adv-x="1082" d="M123 0v1443h133v-595h3q40 97 130 153t213 56q170 0 271 -105t101 -280v-672h-133v650q0 136 -73 212.5t-204 76.5q-140 0 -224 -90t-84 -237v-612h-133z" />
<glyph unicode="i" horiz-adv-x="378" d="M100 1344q0 37 26 62.5t63 25.5t63 -25.5t26 -62.5t-26 -62.5t-63 -25.5t-63 25.5t-26 62.5zM123 0v1040h132v-1040h-132z" />
<glyph unicode="j" horiz-adv-x="378" d="M-76 -242h27q93 0 132.5 40t39.5 134v1108h132v-1106q0 -149 -72.5 -219t-226.5 -70q-31 0 -32 1v112zM99 1344q0 37 26 62.5t63 25.5t63 -25.5t26 -62.5t-26 -62.5t-63 -25.5t-63 25.5t-26 62.5z" />
<glyph unicode="k" horiz-adv-x="957" d="M123 0v1443h133v-895l514 492h164l-467 -449l476 -591h-155l-416 510l-116 -107v-403h-133z" />
<glyph unicode="l" horiz-adv-x="378" d="M123 0v1443h132v-1443h-132z" />
<glyph unicode="m" horiz-adv-x="1621" d="M114 0v1040h125v-192h3q35 95 114 152t189 57q112 0 191.5 -59.5t109.5 -159.5h3q38 98 125.5 158.5t202.5 60.5q152 0 244 -94.5t92 -251.5v-711h-132v681q0 121 -64 189.5t-177 68.5q-115 0 -187.5 -79.5t-72.5 -204.5v-655h-133v693q0 111 -65.5 178.5t-172.5 67.5 q-115 0 -189 -84t-74 -216v-639h-132z" />
<glyph unicode="n" horiz-adv-x="1062" d="M114 0v1040h125v-192h3q41 97 130.5 153t212.5 56q171 0 269.5 -103t98.5 -280v-674h-132v653q0 136 -71.5 211t-202.5 75q-135 0 -218 -89t-83 -234v-616h-132z" />
<glyph unicode="o" horiz-adv-x="1072" d="M62 520q0 246 130.5 391.5t343.5 145.5q214 0 344 -145.5t130 -391.5t-130 -391.5t-344 -145.5t-344 145.5t-130 391.5zM197 520q0 -196 92 -308t247 -112t247.5 112t92.5 308t-92.5 308t-247.5 112t-247 -112t-92 -308z" />
<glyph unicode="p" horiz-adv-x="1107" d="M114 -344v1384h125v-220h4q44 106 139 171.5t219 65.5q198 0 320.5 -147.5t122.5 -389.5t-121.5 -389.5t-318.5 -147.5q-123 0 -217.5 63.5t-136.5 167.5h-4v-558h-132zM246 520q0 -188 92 -304t240 -116q151 0 241 114.5t90 305.5q0 190 -90.5 305t-240.5 115 q-148 0 -240 -116.5t-92 -303.5z" />
<glyph unicode="q" horiz-adv-x="1110" d="M62 520q0 242 122 389.5t321 147.5q125 0 220.5 -64.5t140.5 -172.5h4v220h126v-1384h-133v561h-3q-44 -106 -139.5 -170t-217.5 -64q-198 0 -319.5 147.5t-121.5 389.5zM198 520q0 -191 90 -305.5t239 -114.5q148 0 242 116.5t94 303.5t-94 303.5t-242 116.5 q-149 0 -239 -114.5t-90 -305.5z" />
<glyph unicode="r" horiz-adv-x="615" d="M114 0v1040h125v-185h3q29 95 98 148.5t165 53.5q38 0 82 -11v-130q-32 15 -99 15q-110 0 -176 -78t-66 -205v-648h-132z" />
<glyph unicode="s" horiz-adv-x="927" d="M63 298h132q15 -98 87.5 -152t189.5 -54t188 50t71 132q0 68 -43.5 108.5t-147.5 65.5l-156 37q-149 35 -220 102t-71 175q0 129 103.5 212t266.5 83q165 0 269 -87.5t113 -230.5h-127q-13 98 -80 153.5t-175 55.5q-106 0 -172.5 -50.5t-66.5 -128.5q0 -64 47 -105 t150 -66l157 -37q155 -37 220.5 -101.5t65.5 -175.5q0 -132 -110.5 -216.5t-281.5 -84.5q-175 0 -285 86t-124 229z" />
<glyph unicode="t" horiz-adv-x="582" d="M16 930v110h155v260h132v-260h205v-110h-205v-668q0 -80 33 -116.5t105 -36.5q56 0 72 4v-113q-28 -6 -98 -6q-131 0 -187.5 60.5t-56.5 201.5v674h-155z" />
<glyph unicode="u" horiz-adv-x="1062" d="M108 364v676h133v-653q0 -138 70.5 -212t201.5 -74q136 0 219.5 88t83.5 234v617h132v-1040h-125v193h-3q-42 -97 -132.5 -153.5t-212.5 -56.5q-169 0 -268 102.5t-99 278.5z" />
<glyph unicode="v" horiz-adv-x="946" d="M16 1040h140l316 -901h3l317 901h138l-386 -1040h-141z" />
<glyph unicode="w" horiz-adv-x="1430" d="M19 1040h134l233 -892h3l259 892h134l259 -892h3l233 892h133l-295 -1040h-140l-259 863h-3l-258 -863h-140z" />
<glyph unicode="x" horiz-adv-x="921" d="M23 0l365 523l-361 517h150l285 -417h3l284 417h149l-363 -512l360 -528h-149l-285 427h-3l-287 -427h-148z" />
<glyph unicode="y" horiz-adv-x="951" d="M17 1040h142l316 -908h3l316 908h140l-409 -1103q-68 -183 -138 -248t-198 -65q-36 0 -66 6v113q24 -6 62 -6q72 0 115.5 40t78.5 138l27 78z" />
<glyph unicode="z" horiz-adv-x="932" d="M80 0v98l619 829v3h-619v110h771v-100l-619 -827v-3h621v-110h-773z" />
<glyph unicode="{" horiz-adv-x="626" d="M23 501v157q122 0 170 48t48 170v240q0 170 76.5 248.5t241.5 78.5h44v-109h-33q-108 0 -155.5 -53t-47.5 -179v-279q0 -108 -53.5 -164.5t-165.5 -67.5v-22q112 -11 165.5 -67.5t53.5 -164.5v-297q0 -126 48 -180.5t155 -54.5h33v-109h-44q-164 0 -241 79.5t-77 249.5 v259q0 121 -48 169t-170 48z" />
<glyph unicode="|" horiz-adv-x="626" d="M256 -304v1747h114v-1747h-114z" />
<glyph unicode="}" horiz-adv-x="626" d="M23 -195h33q108 0 155.5 53t47.5 179v278q0 109 53 165.5t166 67.5v22q-113 11 -166 67t-53 165v296q0 126 -48 181t-155 55h-33v109h44q164 0 241 -79.5t77 -249.5v-259q0 -122 48 -169.5t170 -47.5v-157q-122 0 -170 -48t-48 -171v-240q0 -169 -76.5 -247.5 t-241.5 -78.5h-44v109z" />
<glyph unicode="~" d="M123 426q0 155 77 237t190 82q68 0 124.5 -30.5t139.5 -107.5q57 -51 94 -69.5t75 -18.5q67 0 107.5 53.5t45.5 147.5h119q0 -154 -79.5 -238.5t-191.5 -84.5q-71 0 -126.5 29.5t-143.5 107.5q-56 50 -91.5 69t-72.5 19q-65 0 -104 -51.5t-43 -144.5h-120z" />
<glyph unicode="&#xa1;" horiz-adv-x="531" d="M172 1021q0 40 27 66.5t66 26.5q40 0 67 -26.5t27 -66.5t-27 -67t-67 -27q-39 0 -66 27t-27 67zM196 -340l9 986h121l8 -986h-138z" />
<glyph unicode="&#xa2;" d="M146 722q0 234 119.5 380.5t322.5 164.5v176h95v-176q170 -12 280 -113t130 -242h-130q-21 98 -94 162.5t-186 75.5v-856q111 10 185 70.5t95 159.5h131q-21 -145 -133.5 -240.5t-277.5 -107.5v-176h-95v177q-203 18 -322.5 163t-119.5 382zM280 722q0 -186 82.5 -297.5 t225.5 -129.5v854q-143 -18 -225.5 -131t-82.5 -296z" />
<glyph unicode="&#xa3;" d="M87 10v117q140 22 216 121t76 230q0 70 -31 190h-246v106h218q-34 136 -34 222q0 206 130 327t357 121q92 0 170.5 -16t123.5 -38v-121q-116 54 -283 54q-169 0 -263.5 -87t-94.5 -231q0 -96 36 -231h501v-106h-473q24 -98 24 -185q0 -128 -58 -226t-146 -125v-4h831 v-118h-1054z" />
<glyph unicode="&#xa4;" d="M131 259l169 169q-75 102 -75 228t75 228l-169 168l82 82l168 -168q101 76 229 76q127 0 229 -75l166 167l83 -82l-167 -168q75 -102 75 -228q0 -128 -76 -229l168 -168l-83 -82l-167 168q-102 -75 -228 -75t-228 75l-169 -168zM325 656q0 -118 83.5 -202t201.5 -84 t202 84t84 202t-84 202t-202 84t-201.5 -84t-83.5 -202z" />
<glyph unicode="&#xa5;" d="M37 1421h155l415 -684h5l415 684h155l-456 -730h304v-95h-353v-172h353v-95h-353v-326h-134v326h-344v95h344v172h-344v95h295z" />
<glyph unicode="&#xa6;" horiz-adv-x="626" d="M256 -304v697h114v-697h-114zM256 743v700h114v-700h-114z" />
<glyph unicode="&#xa7;" horiz-adv-x="1080" d="M140 549q0 98 62.5 168.5t174.5 97.5v11q-226 80 -226 268q0 133 106.5 217t275.5 84q161 0 265.5 -75.5t120.5 -203.5h-131q-12 75 -82.5 120.5t-175.5 45.5q-109 0 -178 -50.5t-69 -129.5q0 -68 51.5 -112t164.5 -72l127 -34q162 -41 238 -109.5t76 -172.5t-71 -181 t-187 -99v-12q250 -60 250 -257q0 -133 -108.5 -218t-278.5 -85q-164 0 -274 80t-120 207h134q12 -78 85.5 -126t181.5 -48q110 0 180 51t70 131q0 66 -52 110t-165 73l-128 33q-164 43 -240.5 112.5t-76.5 175.5zM275 573q0 -145 207 -193l79 -17q105 1 174.5 60.5 t69.5 148.5q0 147 -205 193l-80 18q-104 -1 -174.5 -61t-70.5 -149z" />
<glyph unicode="&#xa8;" horiz-adv-x="1024" d="M253 1344q0 37 26 62.5t62 25.5q37 0 63 -25.5t26 -62.5t-26 -62.5t-63 -25.5q-36 0 -62 25.5t-26 62.5zM594 1344q0 37 26 62.5t63 25.5t62.5 -25.5t25.5 -62.5t-25.5 -62.5t-62.5 -25.5t-63 25.5t-26 62.5z" />
<glyph unicode="&#xa9;" horiz-adv-x="1717" d="M76 626q0 165 61 311t165 249.5t249 163.5t308 60t308 -60t249.5 -163.5t165 -249.5t60.5 -311q0 -164 -60.5 -310t-165 -250t-249.5 -164t-308 -60t-308 60.5t-249 164t-165 249.5t-61 310zM185 626q0 -142 52.5 -268t142.5 -215t214.5 -140.5t264.5 -51.5t264.5 51.5 t214.5 140.5t142 215t52 268q0 191 -89 346t-243 242t-341 87q-140 0 -264.5 -51.5t-214.5 -140t-142.5 -214.5t-52.5 -269zM473 630q0 194 108.5 308.5t286.5 114.5q146 0 241.5 -78.5t115.5 -194.5h-108q-21 77 -86 126t-163 49q-128 0 -206 -87.5t-78 -237.5 q0 -153 78 -242t206 -89q99 0 164 45.5t84 123.5h109q-20 -119 -114.5 -192.5t-242.5 -73.5q-178 0 -286.5 115.5t-108.5 312.5z" />
<glyph unicode="&#xaa;" horiz-adv-x="619" d="M45 1025q0 77 58.5 122t168.5 52l184 11v46q0 56 -37.5 88t-103.5 32q-62 0 -101.5 -26.5t-49.5 -74.5h-95q7 84 73.5 135t175.5 51t173 -53.5t64 -142.5v-406h-96v105h-3q-25 -52 -82 -83t-124 -31q-91 0 -148 48.5t-57 126.5zM146 1028q0 -42 36.5 -68.5t93.5 -26.5 q75 0 127.5 42t52.5 104v59l-171 -11q-67 -5 -103 -30.5t-36 -68.5z" />
<glyph unicode="&#xab;" horiz-adv-x="1209" d="M143 563v6l358 414h157l-357 -411v-12l357 -411h-157zM551 563v6l359 414h157l-358 -411v-12l358 -411h-157z" />
<glyph unicode="&#xac;" d="M163 511v123h892v-558h-124v435h-768z" />
<glyph unicode="&#xad;" horiz-adv-x="874" d="M109 521v124h656v-124h-656z" />
<glyph unicode="&#xae;" horiz-adv-x="1132" d="M109 1068q0 188 133 319t324 131t324 -130.5t133 -319.5t-133 -320t-324 -131t-324 131t-133 320zM197 1068q0 -154 107.5 -261.5t261.5 -107.5q155 0 262 107t107 262t-107 262t-262 107q-154 0 -261.5 -107.5t-107.5 -261.5zM394 854v449h202q68 0 111 -38.5t43 -98.5 q0 -53 -28 -87.5t-79 -44.5l129 -180h-94l-115 170h-93v-170h-76zM470 1085h110q42 0 65 20.5t23 57.5q0 74 -87 74h-111v-152z" />
<glyph unicode="&#xaf;" horiz-adv-x="1024" d="M243 1290v95h538v-95h-538z" />
<glyph unicode="&#xb0;" horiz-adv-x="789" d="M109 1130q0 119 83 202t203 83q119 0 202 -83t83 -202q0 -118 -83 -201.5t-202 -83.5q-120 0 -203 83t-83 202zM224 1130q0 -72 50.5 -122.5t120.5 -50.5q71 0 120.5 50t49.5 123t-49.5 124t-120.5 51q-70 0 -120.5 -51t-50.5 -124z" />
<glyph unicode="&#xb1;" d="M129 76v114h961v-114h-961zM129 642v115h423v311h115v-311h423v-115h-423v-319h-115v319h-423z" />
<glyph unicode="&#xb2;" horiz-adv-x="601" d="M57 1342q1 95 70.5 155.5t176.5 60.5q105 0 171.5 -56t66.5 -140q0 -59 -34 -109.5t-130 -138.5l-176 -161v-3h355v-91h-494v78l254 237q73 68 97.5 104.5t24.5 75.5q0 49 -38 81.5t-97 32.5q-64 0 -106 -35.5t-43 -90.5h-98z" />
<glyph unicode="&#xb3;" horiz-adv-x="620" d="M45 1046h100q3 -48 48 -78t115 -30q68 0 111.5 32t44.5 83q0 56 -44.5 87t-122.5 31h-83v82h81q66 0 106.5 30.5t40.5 79.5q0 48 -36 76.5t-101 28.5q-62 0 -102.5 -29t-44.5 -79h-97q5 89 72.5 143.5t171.5 54.5q107 0 172.5 -50t65.5 -130q0 -63 -41.5 -105.5 t-110.5 -55.5v-3q81 -7 129.5 -51t48.5 -114q0 -91 -73 -147.5t-188 -56.5q-114 0 -186.5 56t-76.5 145z" />
<glyph unicode="&#xb4;" horiz-adv-x="1024" d="M346 1199l186 301h147l-227 -301h-106z" />
<glyph unicode="&#xb5;" horiz-adv-x="1168" d="M114 -344v1384h132v-646q0 -140 70 -216t199 -76q139 0 221 88.5t82 234.5v615h132v-800q0 -71 23.5 -102.5t74.5 -31.5q36 0 58 9l2 -112q-34 -12 -84 -12q-86 0 -134 38.5t-63 121.5q-1 5 -2.5 23.5t-1.5 19.5h-2q-44 -98 -125.5 -154.5t-184.5 -56.5q-93 0 -164.5 43 t-98.5 114h-2v-484h-132z" />
<glyph unicode="&#xb6;" horiz-adv-x="1080" d="M135 1068q0 165 114 270t290 105h133v-1638h-116l-1 899h-17q-174 0 -288.5 103.5t-114.5 260.5zM829 -195v1638h116v-1638h-116z" />
<glyph unicode="&#xb7;" horiz-adv-x="509" d="M161 520q0 39 27.5 66.5t66.5 27.5t66 -27.5t27 -66.5t-27 -66.5t-66 -27.5t-66.5 27.5t-27.5 66.5z" />
<glyph unicode="&#xb8;" horiz-adv-x="1024" d="M359 -366q45 -13 115 -13q60 0 103 22.5t43 62.5q0 79 -148 79h-62v59l76 163h97v-7l-62 -131q98 -2 154.5 -44t56.5 -116q0 -80 -66 -126.5t-167 -48.5q-92 -2 -140 15v85z" />
<glyph unicode="&#xb9;" horiz-adv-x="464" d="M47 1319v102q8 4 95.5 61.5t94.5 61.5h104v-685h-103v579h-2q-6 -3 -94 -59t-95 -60z" />
<glyph unicode="&#xba;" horiz-adv-x="650" d="M37 1155q0 141 78.5 223.5t209.5 82.5q130 0 209 -82.5t79 -223.5q0 -142 -78.5 -224.5t-209.5 -82.5t-209.5 82.5t-78.5 224.5zM139 1155q0 -103 50.5 -161.5t135.5 -58.5t135 58.5t50 161.5t-50 161.5t-135 58.5t-135.5 -58.5t-50.5 -161.5z" />
<glyph unicode="&#xbb;" horiz-adv-x="1209" d="M143 149l357 411v12l-357 411h157l358 -414v-6l-358 -414h-157zM551 149l357 411v12l-357 411h157l359 -414v-6l-359 -414h-157z" />
<glyph unicode="&#xbc;" horiz-adv-x="1339" d="M47 1219v102q8 4 95.5 61.5t94.5 61.5h104v-685h-103v579h-2q-6 -3 -94 -59t-95 -60zM91 0l980 1443h124l-979 -1443h-125zM747 139v95q101 170 312 451h149v-455h102v-91h-102v-139h-100v139h-361zM841 227h268v374h-1q-171 -215 -267 -371v-3z" />
<glyph unicode="&#xbd;" horiz-adv-x="1398" d="M47 1219v102q8 4 95.5 61.5t94.5 61.5h104v-685h-103v579h-2q-6 -3 -94 -59t-95 -60zM91 0l980 1443h124l-979 -1443h-125zM854 483q1 95 70.5 155.5t176.5 60.5q105 0 171.5 -56t66.5 -140q0 -59 -34 -109.5t-130 -138.5l-176 -161v-3h355v-91h-494v78l254 237 q73 68 97.5 104.5t24.5 75.5q0 49 -38 81.5t-97 32.5q-64 0 -106 -35.5t-43 -90.5h-98z" />
<glyph unicode="&#xbe;" horiz-adv-x="1495" d="M45 946h100q3 -48 48 -78t115 -30q68 0 111.5 32t44.5 83q0 56 -44.5 87t-122.5 31h-83v82h81q66 0 106.5 30.5t40.5 79.5q0 48 -36 76.5t-101 28.5q-62 0 -102.5 -29t-44.5 -79h-97q5 89 72.5 143.5t171.5 54.5q107 0 172.5 -50t65.5 -130q0 -63 -41.5 -105.5 t-110.5 -55.5v-3q81 -7 129.5 -51t48.5 -114q0 -90 -73 -147t-188 -57q-114 0 -186.5 56t-76.5 145zM247 0l980 1443h124l-979 -1443h-125zM903 139v95q101 170 312 451h149v-455h102v-91h-102v-139h-100v139h-361zM997 227h268v374h-1q-171 -215 -267 -371v-3z" />
<glyph unicode="&#xbf;" horiz-adv-x="972" d="M85 0q0 107 52.5 189.5t157.5 151.5q98 63 133 115t35 136v75h133v-94q1 -98 -44.5 -167.5t-152.5 -139.5q-94 -62 -133.5 -121t-39.5 -138q0 -108 76.5 -177.5t197.5 -69.5q120 0 197 70t87 189h130q-9 -165 -120.5 -271.5t-298.5 -106.5q-180 0 -295 102t-115 257z M425 1021q0 40 27 66.5t67 26.5t66.5 -26.5t26.5 -66.5t-26.5 -67t-66.5 -27t-67 27t-27 67z" />
<glyph unicode="&#xc0;" horiz-adv-x="1262" d="M23 0l540 1443h136l539 -1443h-144l-160 442h-606l-160 -442h-145zM340 1846h151l184 -289h-107zM369 560h524l-259 714h-6z" />
<glyph unicode="&#xc1;" horiz-adv-x="1262" d="M23 0l540 1443h136l539 -1443h-144l-160 442h-606l-160 -442h-145zM369 560h524l-259 714h-6zM587 1557l184 289h151l-229 -289h-106z" />
<glyph unicode="&#xc2;" horiz-adv-x="1262" d="M23 0l540 1443h136l539 -1443h-144l-160 442h-606l-160 -442h-145zM311 1552l268 294h104l268 -294h-128l-190 211h-4l-190 -211h-128zM369 560h524l-259 714h-6z" />
<glyph unicode="&#xc3;" horiz-adv-x="1262" d="M23 0l540 1443h136l539 -1443h-144l-160 442h-606l-160 -442h-145zM332 1594q0 107 47.5 169t132.5 62q38 0 68.5 -15t50.5 -36.5t37.5 -42.5t38 -36t43.5 -15q41 0 64 35t23 101h93q0 -106 -48.5 -168t-134.5 -62q-47 0 -85 22.5t-58.5 50t-46 50t-51.5 22.5 q-39 0 -60 -35t-21 -102h-93zM369 560h524l-259 714h-6z" />
<glyph unicode="&#xc4;" horiz-adv-x="1262" d="M23 0l540 1443h136l539 -1443h-144l-160 442h-606l-160 -442h-145zM369 560h524l-259 714h-6zM372 1711q0 37 26 63t62 26q37 0 63 -26t26 -63q0 -36 -26 -62t-63 -26q-36 0 -62 26t-26 62zM713 1711q0 37 26 63t63 26t62.5 -26t25.5 -63q0 -36 -25.5 -62t-62.5 -26 t-63 26t-26 62z" />
<glyph unicode="&#xc5;" horiz-adv-x="1262" d="M23 0l540 1443h136l539 -1443h-144l-160 442h-606l-160 -442h-145zM369 560h524l-259 714h-6zM449 1699q0 75 53.5 128.5t128.5 53.5t128.5 -53.5t53.5 -128.5t-53.5 -129t-128.5 -54t-128.5 54t-53.5 129zM521 1699q0 -47 32 -79t78 -32t78 32t32 79q0 46 -32 78t-78 32 t-78 -32t-32 -78z" />
<glyph unicode="&#xc6;" horiz-adv-x="1941" d="M23 0l702 1443h1091v-124h-702v-526h665v-122h-665v-547h702v-124h-838v443h-600l-214 -443h-141zM434 561h544v766h-170z" />
<glyph unicode="&#xc7;" horiz-adv-x="1371" d="M77 725q0 339 174.5 540t468.5 201q151 0 277.5 -61t207.5 -171t100 -249h-137q-30 156 -155 255t-293 99q-230 0 -366.5 -166.5t-136.5 -447.5q0 -285 136.5 -453t367.5 -168q173 0 294 87t153 236h137q-36 -196 -174.5 -314t-349.5 -134l-52 -110q98 -2 154.5 -44 t56.5 -116q0 -80 -66 -126.5t-167 -48.5q-92 -2 -140 15v85q45 -13 115 -13q60 0 103 22.5t43 62.5q0 79 -148 79h-62v59l62 134q-278 14 -440.5 215.5t-162.5 531.5z" />
<glyph unicode="&#xc8;" horiz-adv-x="1104" d="M135 0v1443h871v-124h-735v-519h698v-122h-698v-554h735v-124h-871zM280 1846h151l184 -289h-107z" />
<glyph unicode="&#xc9;" horiz-adv-x="1104" d="M135 0v1443h871v-124h-735v-519h698v-122h-698v-554h735v-124h-871zM527 1557l184 289h151l-229 -289h-106z" />
<glyph unicode="&#xca;" horiz-adv-x="1104" d="M135 0v1443h871v-124h-735v-519h698v-122h-698v-554h735v-124h-871zM251 1552l268 294h104l268 -294h-128l-190 211h-4l-190 -211h-128z" />
<glyph unicode="&#xcb;" horiz-adv-x="1104" d="M135 0v1443h871v-124h-735v-519h698v-122h-698v-554h735v-124h-871zM312 1711q0 37 26 63t62 26q37 0 63 -26t26 -63q0 -36 -26 -62t-63 -26q-36 0 -62 26t-26 62zM653 1711q0 37 26 63t63 26t62.5 -26t25.5 -63q0 -36 -25.5 -62t-62.5 -26t-63 26t-26 62z" />
<glyph unicode="&#xcc;" horiz-adv-x="406" d="M-88 1846h151l184 -289h-107zM135 0v1443h136v-1443h-136z" />
<glyph unicode="&#xcd;" horiz-adv-x="406" d="M135 0v1443h136v-1443h-136zM159 1557l184 289h151l-229 -289h-106z" />
<glyph unicode="&#xce;" horiz-adv-x="406" d="M-117 1552l268 294h104l268 -294h-128l-190 211h-4l-190 -211h-128zM135 0v1443h136v-1443h-136z" />
<glyph unicode="&#xcf;" horiz-adv-x="406" d="M-56 1711q0 37 26 63t62 26q37 0 63 -26t26 -63q0 -36 -26 -62t-63 -26q-36 0 -62 26t-26 62zM135 0v1443h136v-1443h-136zM285 1711q0 37 26 63t63 26t62.5 -26t25.5 -63q0 -36 -25.5 -62t-62.5 -26t-63 26t-26 62z" />
<glyph unicode="&#xd0;" horiz-adv-x="1364" d="M5 681v124h130v638h468q324 0 504 -189.5t180 -531.5q0 -343 -179.5 -532.5t-504.5 -189.5h-468v681h-130zM272 124h323q266 0 409.5 155t143.5 442q0 288 -143.5 443t-409.5 155h-323v-514h367v-124h-367v-557z" />
<glyph unicode="&#xd1;" horiz-adv-x="1393" d="M135 0v1443h135l846 -1205h7v1205h135v-1443h-132l-849 1206h-7v-1206h-135zM397 1594q0 107 47.5 169t132.5 62q38 0 68.5 -15t50.5 -36.5t37.5 -42.5t38 -36t43.5 -15q41 0 64 35t23 101h93q0 -106 -48.5 -168t-134.5 -62q-47 0 -85 22.5t-58.5 50t-46 50t-51.5 22.5 q-39 0 -60 -35t-21 -102h-93z" />
<glyph unicode="&#xd2;" horiz-adv-x="1465" d="M77 721q0 343 177 544t478 201q302 0 479 -201t177 -544t-177 -543.5t-479 -200.5t-478.5 200.5t-176.5 543.5zM217 721q0 -284 139 -450.5t376 -166.5t376.5 167t139.5 450q0 284 -139.5 451t-376.5 167t-376 -167t-139 -451zM441 1846h151l184 -289h-107z" />
<glyph unicode="&#xd3;" horiz-adv-x="1465" d="M77 721q0 343 177 544t478 201q302 0 479 -201t177 -544t-177 -543.5t-479 -200.5t-478.5 200.5t-176.5 543.5zM217 721q0 -284 139 -450.5t376 -166.5t376.5 167t139.5 450q0 284 -139.5 451t-376.5 167t-376 -167t-139 -451zM688 1557l184 289h151l-229 -289h-106z" />
<glyph unicode="&#xd4;" horiz-adv-x="1465" d="M77 721q0 343 177 544t478 201q302 0 479 -201t177 -544t-177 -543.5t-479 -200.5t-478.5 200.5t-176.5 543.5zM217 721q0 -284 139 -450.5t376 -166.5t376.5 167t139.5 450q0 284 -139.5 451t-376.5 167t-376 -167t-139 -451zM412 1552l268 294h104l268 -294h-128 l-190 211h-4l-190 -211h-128z" />
<glyph unicode="&#xd5;" horiz-adv-x="1465" d="M77 721q0 343 177 544t478 201q302 0 479 -201t177 -544t-177 -543.5t-479 -200.5t-478.5 200.5t-176.5 543.5zM217 721q0 -284 139 -450.5t376 -166.5t376.5 167t139.5 450q0 284 -139.5 451t-376.5 167t-376 -167t-139 -451zM433 1594q0 107 47.5 169t132.5 62 q38 0 68.5 -15t50.5 -36.5t37.5 -42.5t38 -36t43.5 -15q41 0 64 35t23 101h93q0 -106 -48.5 -168t-134.5 -62q-47 0 -85 22.5t-58.5 50t-46 50t-51.5 22.5q-39 0 -60 -35t-21 -102h-93z" />
<glyph unicode="&#xd6;" horiz-adv-x="1465" d="M77 721q0 343 177 544t478 201q302 0 479 -201t177 -544t-177 -543.5t-479 -200.5t-478.5 200.5t-176.5 543.5zM217 721q0 -284 139 -450.5t376 -166.5t376.5 167t139.5 450q0 284 -139.5 451t-376.5 167t-376 -167t-139 -451zM473 1711q0 37 26 63t62 26q37 0 63 -26 t26 -63q0 -36 -26 -62t-63 -26q-36 0 -62 26t-26 62zM814 1711q0 37 26 63t63 26t62.5 -26t25.5 -63q0 -36 -25.5 -62t-62.5 -26t-63 26t-26 62z" />
<glyph unicode="&#xd7;" d="M183 226l345 346l-345 346l81 81l345 -346l346 346l80 -80l-344 -347l344 -346l-81 -80l-345 345l-345 -345z" />
<glyph unicode="&#xd8;" horiz-adv-x="1465" d="M77 721q0 343 177 544t478 201q257 0 426 -149l130 163l78 -55l-141 -178q163 -199 163 -526q0 -343 -177 -543.5t-479 -200.5q-242 0 -407 133l-118 -149l-79 60l125 157q-176 201 -176 543zM210 721q0 -270 126 -438l742 933q-137 132 -346 132q-240 0 -381 -169.5 t-141 -457.5zM404 210q134 -115 328 -115q240 0 381.5 169.5t141.5 456.5q0 256 -113 420z" />
<glyph unicode="&#xd9;" horiz-adv-x="1386" d="M135 504v939h136v-931q0 -184 113 -296t309 -112t309 112t113 296v931h137v-939q0 -236 -151 -381.5t-408 -145.5t-407.5 145.5t-150.5 381.5zM402 1846h151l184 -289h-107z" />
<glyph unicode="&#xda;" horiz-adv-x="1386" d="M135 504v939h136v-931q0 -184 113 -296t309 -112t309 112t113 296v931h137v-939q0 -236 -151 -381.5t-408 -145.5t-407.5 145.5t-150.5 381.5zM649 1557l184 289h151l-229 -289h-106z" />
<glyph unicode="&#xdb;" horiz-adv-x="1386" d="M135 504v939h136v-931q0 -184 113 -296t309 -112t309 112t113 296v931h137v-939q0 -236 -151 -381.5t-408 -145.5t-407.5 145.5t-150.5 381.5zM373 1552l268 294h104l268 -294h-128l-190 211h-4l-190 -211h-128z" />
<glyph unicode="&#xdc;" horiz-adv-x="1386" d="M135 504v939h136v-931q0 -184 113 -296t309 -112t309 112t113 296v931h137v-939q0 -236 -151 -381.5t-408 -145.5t-407.5 145.5t-150.5 381.5zM434 1711q0 37 26 63t62 26q37 0 63 -26t26 -63q0 -36 -26 -62t-63 -26q-36 0 -62 26t-26 62zM775 1711q0 37 26 63t63 26 t62.5 -26t25.5 -63q0 -36 -25.5 -62t-62.5 -26t-63 26t-26 62z" />
<glyph unicode="&#xdd;" horiz-adv-x="1219" d="M24 1443h156l427 -685h5l427 685h156l-517 -819v-624h-137v624zM565 1557l184 289h151l-229 -289h-106z" />
<glyph unicode="&#xde;" horiz-adv-x="1222" d="M161 0v1443h137v-274h386q184 0 307.5 -111t123.5 -299q0 -126 -58.5 -220.5t-156 -142.5t-217.5 -48h-385v-348h-137zM298 470h352q149 0 237 75.5t88 213.5q0 137 -88 212t-237 75h-352v-576z" />
<glyph unicode="&#xdf;" horiz-adv-x="1137" d="M155 0v1073q0 173 105.5 276.5t285.5 103.5q172 0 281 -100t109 -255q0 -122 -65 -217t-168 -124v-3q156 -20 248.5 -119.5t92.5 -247.5q0 -178 -121.5 -290.5t-315.5 -112.5q-77 0 -150 14v118q58 -16 141 -16q139 0 227 81t88 208q0 131 -97.5 212t-260.5 81h-75v128 h68q114 0 186 79.5t72 201.5q0 107 -72 176.5t-186 69.5q-123 0 -193 -74.5t-70 -202.5v-1060h-130z" />
<glyph unicode="&#xe0;" horiz-adv-x="1014" d="M77 288q0 134 96.5 212t276.5 90l324 20v90q0 113 -68 176.5t-189 63.5q-114 0 -185.5 -53t-88.5 -148h-128q11 142 120.5 230t284.5 88q178 0 282 -93t104 -252v-712h-126v198h-3q-43 -97 -141 -156t-214 -59q-154 0 -249.5 84.5t-95.5 220.5zM211 288q0 -85 66 -138 t172 -53q137 0 231 85t94 209v115l-308 -21q-123 -8 -189 -59.5t-66 -137.5zM232 1500h147l186 -301h-107z" />
<glyph unicode="&#xe1;" horiz-adv-x="1014" d="M77 288q0 134 96.5 212t276.5 90l324 20v90q0 113 -68 176.5t-189 63.5q-114 0 -185.5 -53t-88.5 -148h-128q11 142 120.5 230t284.5 88q178 0 282 -93t104 -252v-712h-126v198h-3q-43 -97 -141 -156t-214 -59q-154 0 -249.5 84.5t-95.5 220.5zM211 288q0 -85 66 -138 t172 -53q137 0 231 85t94 209v115l-308 -21q-123 -8 -189 -59.5t-66 -137.5zM459 1199l186 301h147l-226 -301h-107z" />
<glyph unicode="&#xe2;" horiz-adv-x="1014" d="M77 288q0 134 96.5 212t276.5 90l324 20v90q0 113 -68 176.5t-189 63.5q-114 0 -185.5 -53t-88.5 -148h-128q11 142 120.5 230t284.5 88q178 0 282 -93t104 -252v-712h-126v198h-3q-43 -97 -141 -156t-214 -59q-154 0 -249.5 84.5t-95.5 220.5zM206 1199l254 301h104 l254 -301h-124l-180 213h-4l-180 -213h-124zM211 288q0 -85 66 -138t172 -53q137 0 231 85t94 209v115l-308 -21q-123 -8 -189 -59.5t-66 -137.5z" />
<glyph unicode="&#xe3;" horiz-adv-x="1014" d="M77 288q0 134 96.5 212t276.5 90l324 20v90q0 113 -68 176.5t-189 63.5q-114 0 -185.5 -53t-88.5 -148h-128q11 142 120.5 230t284.5 88q178 0 282 -93t104 -252v-712h-126v198h-3q-43 -97 -141 -156t-214 -59q-154 0 -249.5 84.5t-95.5 220.5zM211 288q0 -85 66 -138 t172 -53q137 0 231 85t94 209v115l-308 -21q-123 -8 -189 -59.5t-66 -137.5zM213 1227q0 106 47.5 168t132.5 62q38 0 68.5 -15t50.5 -36.5t37.5 -42.5t38 -36t43.5 -15q41 0 64 35.5t23 100.5h93q0 -105 -48.5 -167.5t-134.5 -62.5q-47 0 -85 22.5t-58.5 50t-46 50 t-51.5 22.5q-39 0 -60 -34.5t-21 -101.5h-93z" />
<glyph unicode="&#xe4;" horiz-adv-x="1014" d="M77 288q0 134 96.5 212t276.5 90l324 20v90q0 113 -68 176.5t-189 63.5q-114 0 -185.5 -53t-88.5 -148h-128q11 142 120.5 230t284.5 88q178 0 282 -93t104 -252v-712h-126v198h-3q-43 -97 -141 -156t-214 -59q-154 0 -249.5 84.5t-95.5 220.5zM211 288q0 -85 66 -138 t172 -53q137 0 231 85t94 209v115l-308 -21q-123 -8 -189 -59.5t-66 -137.5zM253 1344q0 37 26 62.5t62 25.5q37 0 63 -25.5t26 -62.5t-26 -62.5t-63 -25.5q-36 0 -62 25.5t-26 62.5zM594 1344q0 37 26 62.5t63 25.5t62.5 -25.5t25.5 -62.5t-25.5 -62.5t-62.5 -25.5 t-63 25.5t-26 62.5z" />
<glyph unicode="&#xe5;" horiz-adv-x="1014" d="M77 288q0 134 96.5 212t276.5 90l324 20v90q0 113 -68 176.5t-189 63.5q-114 0 -185.5 -53t-88.5 -148h-128q11 142 120.5 230t284.5 88q178 0 282 -93t104 -252v-712h-126v198h-3q-43 -97 -141 -156t-214 -59q-154 0 -249.5 84.5t-95.5 220.5zM211 288q0 -85 66 -138 t172 -53q137 0 231 85t94 209v115l-308 -21q-123 -8 -189 -59.5t-66 -137.5zM330 1332q0 75 53.5 128.5t128.5 53.5t128.5 -53.5t53.5 -128.5t-53.5 -129t-128.5 -54t-128.5 54t-53.5 129zM402 1332q0 -47 32 -79t78 -32t78 32t32 79q0 46 -32 78t-78 32t-78 -32t-32 -78z " />
<glyph unicode="&#xe6;" horiz-adv-x="1734" d="M73 286q0 132 98 207.5t282 85.5l320 18v94q0 112 -73 180.5t-194 68.5q-112 0 -183.5 -55t-82.5 -147h-129q10 141 116.5 230t274.5 89q138 0 234.5 -62.5t124.5 -172.5h7q50 111 146 173t227 62q197 0 313.5 -139t116.5 -371v-56h-766v-10q0 -172 92 -277t245 -105 q111 0 186 53.5t99 142.5h131q-24 -137 -139 -224.5t-279 -87.5q-136 0 -238 66.5t-152 186.5h-8q-54 -119 -159.5 -186t-243.5 -67q-166 0 -266 83t-100 220zM208 288q0 -84 65 -137.5t171 -53.5q138 0 233.5 86.5t95.5 209.5v100l-305 -19q-127 -8 -193.5 -55.5 t-66.5 -130.5zM905 596h631q-2 156 -85 250.5t-220 94.5q-139 0 -228 -95.5t-98 -249.5z" />
<glyph unicode="&#xe7;" horiz-adv-x="1012" d="M62 520q0 245 128.5 391t341.5 146q177 0 292.5 -100t135.5 -246h-130q-22 101 -100.5 165t-196.5 64q-153 0 -244.5 -114t-91.5 -306q0 -194 92 -307t245 -113q116 0 194.5 60t101.5 162h131q-20 -135 -118.5 -226.5t-245.5 -108.5l-56 -118q98 -2 154.5 -44t56.5 -116 q0 -80 -66 -126.5t-167 -48.5q-92 -2 -140 15v85q45 -13 115 -13q60 0 103 22.5t43 62.5q0 79 -148 79h-62v59l65 140q-198 14 -315.5 157t-117.5 379z" />
<glyph unicode="&#xe8;" horiz-adv-x="1040" d="M62 517q0 243 127 391.5t338 148.5q206 0 328 -140t122 -373v-56h-779v-8q0 -176 92 -278.5t248 -102.5q115 0 194 54t101 142h131q-24 -137 -141.5 -224.5t-287.5 -87.5q-219 0 -346 143.5t-127 390.5zM199 593h642q-2 155 -89 251.5t-227 96.5q-139 0 -228.5 -96.5 t-97.5 -251.5zM247 1500h147l186 -301h-107z" />
<glyph unicode="&#xe9;" horiz-adv-x="1040" d="M62 517q0 243 127 391.5t338 148.5q206 0 328 -140t122 -373v-56h-779v-8q0 -176 92 -278.5t248 -102.5q115 0 194 54t101 142h131q-24 -137 -141.5 -224.5t-287.5 -87.5q-219 0 -346 143.5t-127 390.5zM199 593h642q-2 155 -89 251.5t-227 96.5q-139 0 -228.5 -96.5 t-97.5 -251.5zM474 1199l186 301h147l-226 -301h-107z" />
<glyph unicode="&#xea;" horiz-adv-x="1040" d="M62 517q0 243 127 391.5t338 148.5q206 0 328 -140t122 -373v-56h-779v-8q0 -176 92 -278.5t248 -102.5q115 0 194 54t101 142h131q-24 -137 -141.5 -224.5t-287.5 -87.5q-219 0 -346 143.5t-127 390.5zM199 593h642q-2 155 -89 251.5t-227 96.5q-139 0 -228.5 -96.5 t-97.5 -251.5zM221 1199l254 301h104l254 -301h-124l-180 213h-4l-180 -213h-124z" />
<glyph unicode="&#xeb;" horiz-adv-x="1040" d="M62 517q0 243 127 391.5t338 148.5q206 0 328 -140t122 -373v-56h-779v-8q0 -176 92 -278.5t248 -102.5q115 0 194 54t101 142h131q-24 -137 -141.5 -224.5t-287.5 -87.5q-219 0 -346 143.5t-127 390.5zM199 593h642q-2 155 -89 251.5t-227 96.5q-139 0 -228.5 -96.5 t-97.5 -251.5zM268 1344q0 37 26 62.5t62 25.5q37 0 63 -25.5t26 -62.5t-26 -62.5t-63 -25.5q-36 0 -62 25.5t-26 62.5zM609 1344q0 37 26 62.5t63 25.5t62.5 -25.5t25.5 -62.5t-25.5 -62.5t-62.5 -25.5t-63 25.5t-26 62.5z" />
<glyph unicode="&#xec;" horiz-adv-x="378" d="M-91 1500h147l186 -301h-107zM123 0v1040h132v-1040h-132z" />
<glyph unicode="&#xed;" horiz-adv-x="378" d="M123 0v1040h132v-1040h-132zM136 1199l186 301h147l-226 -301h-107z" />
<glyph unicode="&#xee;" horiz-adv-x="378" d="M-117 1199l254 301h104l254 -301h-124l-180 213h-4l-180 -213h-124zM123 0v1040h132v-1040h-132z" />
<glyph unicode="&#xef;" horiz-adv-x="378" d="M-70 1344q0 37 26 62.5t62 25.5q37 0 63 -25.5t26 -62.5t-26 -62.5t-63 -25.5q-36 0 -62 25.5t-26 62.5zM123 0v1040h132v-1040h-132zM271 1344q0 37 26 62.5t63 25.5t62.5 -25.5t25.5 -62.5t-25.5 -62.5t-62.5 -25.5t-63 25.5t-26 62.5z" />
<glyph unicode="&#xf0;" horiz-adv-x="1090" d="M75 512q0 228 129 366.5t323 138.5q107 0 187.5 -49.5t127.5 -135.5h11q-29 108 -113 210t-209 188l-291 -160v106l201 111q-97 54 -205 95v100q179 -59 313 -136l273 151l1 -106l-184 -101q188 -131 277.5 -311.5t89.5 -420.5q0 -122 -29 -226t-85 -182.5t-144 -123 t-199 -44.5q-221 0 -347.5 143.5t-126.5 386.5zM211 512q0 -189 90 -300t247 -111q152 0 241.5 112t89.5 285q0 188 -90 295.5t-242 107.5q-148 0 -242 -105t-94 -284z" />
<glyph unicode="&#xf1;" horiz-adv-x="1062" d="M114 0v1040h125v-192h3q41 97 130.5 153t212.5 56q171 0 269.5 -103t98.5 -280v-674h-132v653q0 136 -71.5 211t-202.5 75q-135 0 -218 -89t-83 -234v-616h-132zM234 1227q0 106 47.5 168t132.5 62q38 0 68.5 -15t50.5 -36.5t37.5 -42.5t38 -36t43.5 -15q41 0 64 35.5 t23 100.5h93q0 -105 -48.5 -167.5t-134.5 -62.5q-47 0 -85 22.5t-58.5 50t-46 50t-51.5 22.5q-39 0 -60 -34.5t-21 -101.5h-93z" />
<glyph unicode="&#xf2;" horiz-adv-x="1072" d="M62 520q0 246 130.5 391.5t343.5 145.5q214 0 344 -145.5t130 -391.5t-130 -391.5t-344 -145.5t-344 145.5t-130 391.5zM197 520q0 -196 92 -308t247 -112t247.5 112t92.5 308t-92.5 308t-247.5 112t-247 -112t-92 -308zM257 1500h147l186 -301h-107z" />
<glyph unicode="&#xf3;" horiz-adv-x="1072" d="M62 520q0 246 130.5 391.5t343.5 145.5q214 0 344 -145.5t130 -391.5t-130 -391.5t-344 -145.5t-344 145.5t-130 391.5zM197 520q0 -196 92 -308t247 -112t247.5 112t92.5 308t-92.5 308t-247.5 112t-247 -112t-92 -308zM484 1199l186 301h147l-226 -301h-107z" />
<glyph unicode="&#xf4;" horiz-adv-x="1072" d="M62 520q0 246 130.5 391.5t343.5 145.5q214 0 344 -145.5t130 -391.5t-130 -391.5t-344 -145.5t-344 145.5t-130 391.5zM197 520q0 -196 92 -308t247 -112t247.5 112t92.5 308t-92.5 308t-247.5 112t-247 -112t-92 -308zM231 1199l254 301h104l254 -301h-124l-180 213h-4 l-180 -213h-124z" />
<glyph unicode="&#xf5;" horiz-adv-x="1072" d="M62 520q0 246 130.5 391.5t343.5 145.5q214 0 344 -145.5t130 -391.5t-130 -391.5t-344 -145.5t-344 145.5t-130 391.5zM197 520q0 -196 92 -308t247 -112t247.5 112t92.5 308t-92.5 308t-247.5 112t-247 -112t-92 -308zM237 1227q0 106 47.5 168t132.5 62q38 0 68.5 -15 t50.5 -36.5t37.5 -42.5t38 -36t43.5 -15q41 0 64 35.5t23 100.5h93q0 -105 -48.5 -167.5t-134.5 -62.5q-47 0 -85 22.5t-58.5 50t-46 50t-51.5 22.5q-39 0 -60 -34.5t-21 -101.5h-93z" />
<glyph unicode="&#xf6;" horiz-adv-x="1072" d="M62 520q0 246 130.5 391.5t343.5 145.5q214 0 344 -145.5t130 -391.5t-130 -391.5t-344 -145.5t-344 145.5t-130 391.5zM197 520q0 -196 92 -308t247 -112t247.5 112t92.5 308t-92.5 308t-247.5 112t-247 -112t-92 -308zM278 1344q0 37 26 62.5t62 25.5q37 0 63 -25.5 t26 -62.5t-26 -62.5t-63 -25.5q-36 0 -62 25.5t-26 62.5zM619 1344q0 37 26 62.5t63 25.5t62.5 -25.5t25.5 -62.5t-25.5 -62.5t-62.5 -25.5t-63 25.5t-26 62.5z" />
<glyph unicode="&#xf7;" d="M138 513v117h942v-117h-942zM518 177q0 39 26 65.5t66 26.5q39 0 66 -26.5t27 -65.5q0 -40 -27 -66.5t-66 -26.5q-40 0 -66 26.5t-26 66.5zM518 966q0 40 26 66.5t66 26.5q39 0 66 -26.5t27 -66.5q0 -39 -27 -65.5t-66 -26.5q-40 0 -66 26t-26 66z" />
<glyph unicode="&#xf8;" horiz-adv-x="1072" d="M62 520q0 246 130.5 391.5t343.5 145.5q157 0 272 -81l78 108l75 -50l-85 -118q134 -147 134 -396q0 -246 -130 -391.5t-344 -145.5q-157 0 -272 81l-69 -96l-78 53l77 106q-132 146 -132 393zM193 520q0 -177 76 -289l469 649q-84 66 -202 66q-157 0 -250 -114t-93 -312 zM334 161q82 -67 202 -67q157 0 250.5 114t93.5 312q0 180 -78 292z" />
<glyph unicode="&#xf9;" horiz-adv-x="1062" d="M108 364v676h133v-653q0 -138 70.5 -212t201.5 -74q136 0 219.5 88t83.5 234v617h132v-1040h-125v193h-3q-42 -97 -132.5 -153.5t-212.5 -56.5q-169 0 -268 102.5t-99 278.5zM249 1500h147l186 -301h-107z" />
<glyph unicode="&#xfa;" horiz-adv-x="1062" d="M108 364v676h133v-653q0 -138 70.5 -212t201.5 -74q136 0 219.5 88t83.5 234v617h132v-1040h-125v193h-3q-42 -97 -132.5 -153.5t-212.5 -56.5q-169 0 -268 102.5t-99 278.5zM476 1199l186 301h147l-226 -301h-107z" />
<glyph unicode="&#xfb;" horiz-adv-x="1062" d="M108 364v676h133v-653q0 -138 70.5 -212t201.5 -74q136 0 219.5 88t83.5 234v617h132v-1040h-125v193h-3q-42 -97 -132.5 -153.5t-212.5 -56.5q-169 0 -268 102.5t-99 278.5zM223 1199l254 301h104l254 -301h-124l-180 213h-4l-180 -213h-124z" />
<glyph unicode="&#xfc;" horiz-adv-x="1062" d="M108 364v676h133v-653q0 -138 70.5 -212t201.5 -74q136 0 219.5 88t83.5 234v617h132v-1040h-125v193h-3q-42 -97 -132.5 -153.5t-212.5 -56.5q-169 0 -268 102.5t-99 278.5zM270 1344q0 37 26 62.5t62 25.5q37 0 63 -25.5t26 -62.5t-26 -62.5t-63 -25.5q-36 0 -62 25.5 t-26 62.5zM611 1344q0 37 26 62.5t63 25.5t62.5 -25.5t25.5 -62.5t-25.5 -62.5t-62.5 -25.5t-63 25.5t-26 62.5z" />
<glyph unicode="&#xfd;" horiz-adv-x="951" d="M17 1040h142l316 -908h3l316 908h140l-409 -1103q-68 -183 -138 -248t-198 -65q-36 0 -66 6v113q24 -6 62 -6q72 0 115.5 40t78.5 138l27 78zM424 1199l186 301h147l-226 -301h-107z" />
<glyph unicode="&#xfe;" horiz-adv-x="1115" d="M123 -357v1800h126v-615h11q48 106 142.5 167.5t212.5 61.5q198 0 317.5 -146.5t119.5 -390.5q0 -242 -120 -389.5t-317 -147.5q-120 0 -213 57t-136 157h-12v-554h-131zM252 520q0 -190 91.5 -305t241.5 -115q153 0 242.5 113.5t89.5 306.5q0 192 -89.5 306t-241.5 114 q-151 0 -242.5 -114.5t-91.5 -305.5z" />
<glyph unicode="&#xff;" horiz-adv-x="951" d="M17 1040h142l316 -908h3l316 908h140l-409 -1103q-68 -183 -138 -248t-198 -65q-36 0 -66 6v113q24 -6 62 -6q72 0 115.5 40t78.5 138l27 78zM218 1344q0 37 26 62.5t62 25.5q37 0 63 -25.5t26 -62.5t-26 -62.5t-63 -25.5q-36 0 -62 25.5t-26 62.5zM559 1344 q0 37 26 62.5t63 25.5t62.5 -25.5t25.5 -62.5t-25.5 -62.5t-62.5 -25.5t-63 25.5t-26 62.5z" />
<glyph unicode="&#x152;" horiz-adv-x="2200" d="M77 721q0 344 178.5 544.5t483.5 200.5q180 0 316 -80.5t207 -229.5v287h849v-124h-712v-519h674v-122h-674v-554h712v-124h-849v290q-71 -149 -208 -231t-315 -82q-305 0 -483.5 200.5t-178.5 543.5zM217 721q0 -283 141 -450t381 -167q239 0 380 167t141 450 t-141 450.5t-380 167.5q-240 0 -381 -167t-141 -451z" />
<glyph unicode="&#x153;" horiz-adv-x="1852" d="M62 519q0 246 129 391.5t345 145.5q143 0 246 -70t156 -197h7q44 120 149.5 194t245.5 74q206 0 328 -140t122 -372v-57h-778v-9q0 -170 93 -275t246 -105q114 0 193 54.5t103 141.5h131q-24 -135 -143 -223.5t-286 -88.5q-140 0 -250 72.5t-154 188.5h-7 q-52 -124 -155.5 -193t-246.5 -69q-216 0 -345 145.5t-129 391.5zM197 519q0 -195 91 -307.5t248 -112.5t248 112.5t91 307.5t-91 307.5t-248 112.5t-248 -112.5t-91 -307.5zM1012 593h641q-2 155 -89 251.5t-226 96.5q-137 0 -227 -96.5t-99 -251.5z" />
<glyph unicode="&#x178;" horiz-adv-x="1219" d="M24 1443h156l427 -685h5l427 685h156l-517 -819v-624h-137v624zM350 1711q0 37 26 63t62 26q37 0 63 -26t26 -63q0 -36 -26 -62t-63 -26q-36 0 -62 26t-26 62zM691 1711q0 37 26 63t63 26t62.5 -26t25.5 -63q0 -36 -25.5 -62t-62.5 -26t-63 26t-26 62z" />
<glyph unicode="&#x2c6;" horiz-adv-x="1024" d="M206 1199l254 301h104l254 -301h-124l-180 213h-4l-180 -213h-124z" />
<glyph unicode="&#x2dc;" horiz-adv-x="1024" d="M213 1227q0 106 47.5 168t132.5 62q38 0 68.5 -15t50.5 -36.5t37.5 -42.5t38 -36t43.5 -15q41 0 64 35.5t23 100.5h93q0 -105 -48.5 -167.5t-134.5 -62.5q-47 0 -85 22.5t-58.5 50t-46 50t-51.5 22.5q-39 0 -60 -34.5t-21 -101.5h-93z" />
<glyph unicode="&#x2000;" horiz-adv-x="940" />
<glyph unicode="&#x2001;" horiz-adv-x="1881" />
<glyph unicode="&#x2002;" horiz-adv-x="940" />
<glyph unicode="&#x2003;" horiz-adv-x="1881" />
<glyph unicode="&#x2004;" horiz-adv-x="627" />
<glyph unicode="&#x2005;" horiz-adv-x="470" />
<glyph unicode="&#x2006;" horiz-adv-x="313" />
<glyph unicode="&#x2007;" horiz-adv-x="313" />
<glyph unicode="&#x2008;" horiz-adv-x="235" />
<glyph unicode="&#x2009;" horiz-adv-x="376" />
<glyph unicode="&#x200a;" horiz-adv-x="104" />
<glyph unicode="&#x2010;" horiz-adv-x="874" d="M109 521v124h656v-124h-656z" />
<glyph unicode="&#x2011;" horiz-adv-x="874" d="M109 521v124h656v-124h-656z" />
<glyph unicode="&#x2012;" horiz-adv-x="874" d="M109 521v124h656v-124h-656z" />
<glyph unicode="&#x2013;" horiz-adv-x="1024" d="M0 524v123h1024v-123h-1024z" />
<glyph unicode="&#x2014;" horiz-adv-x="2048" d="M0 524v123h2048v-123h-2048z" />
<glyph unicode="&#x2018;" horiz-adv-x="480" d="M122 962l125 481h112l-97 -481h-140z" />
<glyph unicode="&#x2019;" horiz-adv-x="480" d="M122 962l96 481h141l-126 -481h-111z" />
<glyph unicode="&#x201a;" horiz-adv-x="480" d="M122 -276l96 482h141l-126 -482h-111z" />
<glyph unicode="&#x201c;" horiz-adv-x="810" d="M119 962l125 481h111l-96 -481h-140zM455 962l125 481h111l-96 -481h-140z" />
<glyph unicode="&#x201d;" horiz-adv-x="810" d="M119 962l96 481h141l-126 -481h-111zM455 962l96 481h141l-126 -481h-111z" />
<glyph unicode="&#x201e;" horiz-adv-x="810" d="M119 -276l96 482h141l-126 -482h-111zM455 -276l96 482h141l-126 -482h-111z" />
<glyph unicode="&#x2022;" horiz-adv-x="789" d="M130 559q0 109 78 186.5t187 77.5q108 0 186 -77.5t78 -186.5t-78 -187t-186 -78q-109 0 -187 78t-78 187z" />
<glyph unicode="&#x2026;" horiz-adv-x="1348" d="M161 84q0 40 27.5 67t66.5 27t66 -27t27 -67q0 -39 -27 -66t-66 -27t-66.5 27t-27.5 66zM581 84q0 40 27 67t66 27t66.5 -27t27.5 -67q0 -39 -27.5 -66t-66.5 -27t-66 27t-27 66zM1000 84q0 40 27 67t67 27q39 0 66 -27t27 -67q0 -39 -27 -66t-66 -27q-40 0 -67 27 t-27 66z" />
<glyph unicode="&#x202f;" horiz-adv-x="376" />
<glyph unicode="&#x2039;" horiz-adv-x="801" d="M143 563v6l358 414h157l-357 -411v-12l357 -411h-157z" />
<glyph unicode="&#x203a;" horiz-adv-x="801" d="M143 149l357 411v12l-357 411h157l358 -414v-6l-358 -414h-157z" />
<glyph unicode="&#x205f;" horiz-adv-x="470" />
<glyph unicode="&#x20ac;" d="M50 533v94h219q-4 40 -4 94q0 53 4 93h-219v95h233q35 174 135.5 296.5t238.5 180.5t302 58q117 0 176 -18v-124q-68 16 -176 16q-198 0 -341.5 -105t-190.5 -304h558v-95h-574q-5 -50 -5 -93q0 -44 5 -94h574v-94h-558q47 -199 190.5 -304t341.5 -105q121 0 176 16v-123 q-54 -18 -176 -18q-164 0 -302 58t-238.5 180.5t-135.5 295.5h-233z" />
<glyph unicode="&#x2122;" horiz-adv-x="1713" d="M142 1349v94h555v-94h-225v-590h-105v590h-225zM781 759v684h120l232 -533h4l232 533h120v-684h-94v503h-4l-219 -503h-73l-220 503h-3v-503h-95z" />
<glyph unicode="&#x25fc;" horiz-adv-x="1040" d="M0 0v1040h1040v-1040h-1040z" />
<glyph unicode="&#xfb01;" horiz-adv-x="959" d="M22 930v110h145v132q0 274 266 274q52 0 96 -8v-109q-37 7 -77 7q-153 0 -153 -167v-129h224v-110h-223v-930h-133v930h-145zM681 1344q0 37 26 62.5t63 25.5t63 -25.5t26 -62.5t-26 -62.5t-63 -25.5t-63 25.5t-26 62.5zM704 0v1040h132v-1040h-132z" />
<glyph unicode="&#xfb02;" horiz-adv-x="959" d="M22 930v110h145v132q0 274 266 274q52 0 96 -8v-109q-37 7 -77 7q-153 0 -153 -167v-129h224v-110h-223v-930h-133v930h-145zM704 0v1443h132v-1443h-132z" />
</font>
</defs>
</svg>
