<?xml version="1.0" encoding="UTF-8" standalone="no"?>
<!DOCTYPE svg PUBLIC "-//W3C//DTD SVG 1.1//EN" "http://www.w3.org/Graphics/SVG/1.1/DTD/svg11.dtd">
<svg width="100%" height="100%" viewBox="0 0 512 512" version="1.1" xmlns="http://www.w3.org/2000/svg" xmlns:xlink="http://www.w3.org/1999/xlink" xml:space="preserve" xmlns:serif="http://www.serif.com/" style="fill-rule:evenodd;clip-rule:evenodd;stroke-linejoin:round;stroke-miterlimit:2;">
    <g transform="matrix(1,0,0,1,-536.314,0)">
        <g id="Artboard2" transform="matrix(1,0,0,1,536.314,0)">
            <rect x="0" y="0" width="512" height="512" style="fill:none;"/>
            <g transform="matrix(0.988281,0,0,0.988281,3,3)">
                <circle cx="256" cy="256" r="256" style="fill:none;stroke:white;stroke-width:6.07px;"/>
                <g>
                    <path d="M256,37.89C254.276,37.89 252.878,36.492 252.878,34.768L252.878,20.482C252.878,18.758 254.276,17.36 256,17.36C257.724,17.36 259.122,18.758 259.122,20.482L259.122,34.768C259.122,36.492 257.724,37.89 256,37.89Z" style="fill:white;fill-rule:nonzero;"/>
                    <path d="M256,494.64C254.276,494.64 252.878,493.242 252.878,491.518L252.878,477.232C252.878,475.508 254.276,474.11 256,474.11C257.724,474.11 259.122,475.508 259.122,477.232L259.122,491.518C259.122,493.242 257.724,494.64 256,494.64Z" style="fill:white;fill-rule:nonzero;"/>
                    <path d="M217.58,41.252C216.092,41.252 214.775,40.186 214.508,38.671L212.027,24.602C211.728,22.904 212.862,21.284 214.559,20.986C216.262,20.69 217.878,21.821 218.176,23.519L220.657,37.588C220.956,39.286 219.822,40.906 218.125,41.204C217.941,41.235 217.76,41.252 217.58,41.252Z" style="fill:white;fill-rule:nonzero;"/>
                    <path d="M296.894,491.063C295.406,491.063 294.089,489.997 293.822,488.482L291.341,474.413C291.042,472.715 292.176,471.095 293.873,470.797C295.576,470.497 297.192,471.631 297.49,473.33L299.971,487.398C300.27,489.096 299.136,490.716 297.439,491.014C297.255,491.047 297.074,491.063 296.894,491.063Z" style="fill:white;fill-rule:nonzero;"/>
                    <path d="M180.334,51.232C179.059,51.232 177.862,50.444 177.401,49.177L172.514,35.753C171.926,34.132 172.761,32.341 174.381,31.751C175.996,31.164 177.793,31.996 178.381,33.617L183.267,47.041C183.857,48.662 183.021,50.453 181.401,51.043C181.049,51.171 180.689,51.232 180.334,51.232Z" style="fill:white;fill-rule:nonzero;"/>
                    <path d="M336.552,480.437C335.277,480.437 334.08,479.649 333.619,478.382L328.733,464.958C328.143,463.337 328.979,461.546 330.599,460.956C332.214,460.367 334.011,461.201 334.599,462.822L339.486,476.246C340.074,477.867 339.239,479.658 337.619,480.248C337.267,480.376 336.907,480.437 336.552,480.437Z" style="fill:white;fill-rule:nonzero;"/>
                    <path d="M145.387,67.53C144.308,67.53 143.259,66.97 142.68,65.968L135.537,53.596C134.676,52.103 135.186,50.194 136.68,49.332C138.171,48.466 140.082,48.981 140.945,50.474L148.088,62.846C148.949,64.339 148.439,66.248 146.945,67.11C146.455,67.395 145.917,67.53 145.387,67.53Z" style="fill:white;fill-rule:nonzero;"/>
                    <path d="M373.762,463.087C372.683,463.087 371.634,462.527 371.055,461.525L363.912,449.153C363.051,447.66 363.561,445.751 365.055,444.889C366.546,444.023 368.456,444.538 369.32,446.031L376.463,458.403C377.324,459.896 376.814,461.805 375.32,462.667C374.83,462.952 374.292,463.087 373.762,463.087Z" style="fill:white;fill-rule:nonzero;"/>
                    <path d="M113.796,89.648C112.906,89.648 112.02,89.269 111.403,88.533L102.22,77.59C101.111,76.269 101.284,74.3 102.606,73.191C103.925,72.084 105.895,72.255 107.004,73.576L116.187,84.519C117.296,85.84 117.123,87.809 115.801,88.918C115.217,89.409 114.505,89.648 113.796,89.648Z" style="fill:white;fill-rule:nonzero;"/>
                    <path d="M407.389,439.539C406.499,439.539 405.613,439.16 404.996,438.424L395.814,427.481C394.705,426.16 394.878,424.191 396.2,423.082C397.519,421.977 399.489,422.146 400.598,423.467L409.779,434.41C410.888,435.731 410.715,437.7 409.393,438.809C408.81,439.3 408.097,439.539 407.389,439.539Z" style="fill:white;fill-rule:nonzero;"/>
                    <path d="M86.525,116.917C85.817,116.917 85.104,116.678 84.521,116.187L73.578,107.004C72.256,105.895 72.084,103.927 73.192,102.605C74.301,101.283 76.271,101.113 77.59,102.22L88.533,111.403C89.855,112.512 90.027,114.48 88.919,115.802C88.301,116.537 87.415,116.917 86.525,116.917Z" style="fill:white;fill-rule:nonzero;"/>
                    <path d="M436.415,410.51C435.707,410.51 434.994,410.271 434.409,409.78L423.467,400.597C422.147,399.488 421.975,397.52 423.082,396.198C424.191,394.876 426.159,394.706 427.481,395.813L438.423,404.996C439.743,406.105 439.915,408.073 438.808,409.395C438.19,410.131 437.305,410.51 436.415,410.51Z" style="fill:white;fill-rule:nonzero;"/>
                    <path d="M64.404,148.506C63.875,148.506 63.338,148.371 62.846,148.087L50.474,140.944C48.98,140.082 48.47,138.173 49.331,136.68C50.194,135.188 52.098,134.673 53.596,135.538L65.968,142.681C67.462,143.543 67.972,145.452 67.111,146.945C66.533,147.946 65.484,148.506 64.404,148.506Z" style="fill:white;fill-rule:nonzero;"/>
                    <path d="M459.961,376.881C459.432,376.881 458.894,376.746 458.403,376.462L446.032,369.319C444.538,368.457 444.028,366.548 444.889,365.055C445.75,363.562 447.66,363.046 449.154,363.913L461.525,371.056C463.019,371.918 463.529,373.827 462.668,375.32C462.088,376.321 461.04,376.881 459.961,376.881Z" style="fill:white;fill-rule:nonzero;"/>
                    <path d="M48.11,183.457C47.755,183.457 47.395,183.396 47.043,183.268L33.618,178.382C31.997,177.792 31.162,176.001 31.752,174.38C32.34,172.759 34.136,171.927 35.752,172.514L49.177,177.4C50.798,177.99 51.633,179.781 51.043,181.402C50.582,182.669 49.385,183.457 48.11,183.457Z" style="fill:white;fill-rule:nonzero;"/>
                    <path d="M477.315,339.674C476.96,339.674 476.6,339.613 476.246,339.485L462.822,334.599C461.203,334.009 460.368,332.218 460.958,330.597C461.546,328.976 463.337,328.145 464.96,328.731L478.384,333.617C480.003,334.207 480.838,335.998 480.248,337.619C479.787,338.888 478.588,339.674 477.315,339.674Z" style="fill:white;fill-rule:nonzero;"/>
                    <path d="M38.131,220.706C37.951,220.706 37.769,220.69 37.586,220.658L23.517,218.177C21.819,217.877 20.686,216.258 20.985,214.561C21.284,212.864 22.896,211.731 24.602,212.028L38.671,214.509C40.369,214.809 41.502,216.428 41.203,218.125C40.936,219.64 39.619,220.706 38.131,220.706Z" style="fill:white;fill-rule:nonzero;"/>
                    <path d="M487.942,300.02C487.762,300.02 487.58,300.004 487.397,299.972L473.329,297.491C471.631,297.191 470.498,295.572 470.797,293.875C471.096,292.178 472.706,291.045 474.414,291.342L488.483,293.823C490.181,294.123 491.314,295.742 491.015,297.439C490.748,298.954 489.43,300.02 487.942,300.02Z" style="fill:white;fill-rule:nonzero;"/>
                    <path d="M34.767,259.122L20.482,259.122C18.758,259.122 17.36,257.724 17.36,256C17.36,254.276 18.758,252.878 20.482,252.878L34.767,252.878C36.491,252.878 37.889,254.276 37.889,256C37.889,257.724 36.491,259.122 34.767,259.122Z" style="fill:white;fill-rule:nonzero;"/>
                    <path d="M491.519,259.122L477.232,259.122C475.508,259.122 474.11,257.724 474.11,256C474.11,254.276 475.508,252.878 477.232,252.878L491.519,252.878C493.243,252.878 494.641,254.276 494.641,256C494.641,257.724 493.243,259.122 491.519,259.122Z" style="fill:white;fill-rule:nonzero;"/>
                    <path d="M24.057,300.02C22.569,300.02 21.252,298.954 20.985,297.439C20.686,295.742 21.819,294.121 23.517,293.823L37.586,291.342C39.29,291.045 40.905,292.176 41.203,293.875C41.502,295.572 40.369,297.193 38.671,297.491L24.602,299.972C24.418,300.004 24.236,300.02 24.057,300.02Z" style="fill:white;fill-rule:nonzero;"/>
                    <path d="M473.867,220.706C472.379,220.706 471.062,219.64 470.795,218.125C470.496,216.428 471.629,214.807 473.327,214.509L487.396,212.028C489.097,211.731 490.715,212.862 491.013,214.561C491.312,216.258 490.179,217.879 488.481,218.177L474.413,220.658C474.229,220.69 474.047,220.706 473.867,220.706Z" style="fill:white;fill-rule:nonzero;"/>
                    <path d="M34.684,339.674C33.409,339.674 32.212,338.886 31.751,337.619C31.161,335.998 31.997,334.207 33.617,333.617L47.042,328.731C48.657,328.144 50.454,328.977 51.042,330.597C51.632,332.218 50.796,334.009 49.176,334.599L35.751,339.485C35.4,339.614 35.04,339.674 34.684,339.674Z" style="fill:white;fill-rule:nonzero;"/>
                    <path d="M463.891,183.457C462.616,183.457 461.419,182.669 460.958,181.402C460.368,179.781 461.204,177.99 462.822,177.4L476.246,172.514C477.87,171.927 479.659,172.76 480.248,174.38C480.838,176.001 480.002,177.792 478.384,178.382L464.96,183.268C464.605,183.396 464.246,183.457 463.891,183.457Z" style="fill:white;fill-rule:nonzero;"/>
                    <path d="M52.038,376.881C50.959,376.881 49.91,376.321 49.331,375.319C48.47,373.826 48.98,371.917 50.474,371.055L62.846,363.912C64.341,363.046 66.247,363.561 67.111,365.054C67.972,366.547 67.462,368.456 65.968,369.318L53.596,376.461C53.104,376.746 52.568,376.881 52.038,376.881Z" style="fill:white;fill-rule:nonzero;"/>
                    <path d="M447.597,148.506C446.518,148.506 445.469,147.946 444.89,146.944C444.029,145.451 444.539,143.542 446.033,142.68L458.404,135.537C459.895,134.672 461.805,135.187 462.669,136.679C463.53,138.172 463.02,140.081 461.526,140.943L449.155,148.086C448.664,148.371 448.125,148.506 447.597,148.506Z" style="fill:white;fill-rule:nonzero;"/>
                    <path d="M75.584,410.51C74.694,410.51 73.808,410.131 73.191,409.395C72.082,408.074 72.255,406.105 73.577,404.996L84.52,395.813C85.839,394.706 87.809,394.877 88.918,396.198C90.027,397.519 89.854,399.488 88.532,400.597L77.589,409.78C77.005,410.271 76.293,410.51 75.584,410.51Z" style="fill:white;fill-rule:nonzero;"/>
                    <path d="M425.476,116.917C424.586,116.917 423.7,116.538 423.083,115.802C421.974,114.481 422.147,112.513 423.468,111.403L434.41,102.22C435.732,101.113 437.701,101.284 438.809,102.605C439.918,103.926 439.745,105.894 438.424,107.004L427.482,116.187C426.896,116.677 426.185,116.917 425.476,116.917Z" style="fill:white;fill-rule:nonzero;"/>
                    <path d="M104.61,439.539C103.902,439.539 103.189,439.3 102.606,438.809C101.284,437.7 101.112,435.732 102.22,434.41L111.403,423.467C112.513,422.146 114.483,421.975 115.801,423.082C117.123,424.191 117.295,426.159 116.187,427.481L107.004,438.424C106.386,439.16 105.5,439.539 104.61,439.539Z" style="fill:white;fill-rule:nonzero;"/>
                    <path d="M398.204,89.648C397.496,89.648 396.783,89.409 396.2,88.918C394.878,87.809 394.706,85.841 395.814,84.519L404.996,73.576C406.105,72.255 408.076,72.084 409.394,73.191C410.716,74.3 410.888,76.269 409.78,77.59L400.599,88.533C399.981,89.269 399.095,89.648 398.204,89.648Z" style="fill:white;fill-rule:nonzero;"/>
                    <path d="M138.238,463.087C137.709,463.087 137.172,462.952 136.68,462.668C135.186,461.806 134.676,459.897 135.537,458.404L142.68,446.032C143.543,444.539 145.447,444.024 146.945,444.89C148.439,445.752 148.949,447.661 148.088,449.154L140.945,461.526C140.366,462.527 139.317,463.087 138.238,463.087Z" style="fill:white;fill-rule:nonzero;"/>
                    <path d="M366.613,67.53C366.084,67.53 365.547,67.395 365.055,67.111C363.561,66.249 363.051,64.34 363.912,62.847L371.055,50.475C371.918,48.982 373.822,48.466 375.32,49.333C376.814,50.195 377.324,52.104 376.463,53.597L369.32,65.969C368.741,66.97 367.692,67.53 366.613,67.53Z" style="fill:white;fill-rule:nonzero;"/>
                    <path d="M175.449,480.437C175.094,480.437 174.734,480.376 174.382,480.248C172.761,479.658 171.926,477.867 172.515,476.246L177.402,462.822C177.992,461.2 179.784,460.366 181.402,460.956C183.023,461.546 183.858,463.337 183.268,464.958L178.382,478.382C177.921,479.65 176.723,480.437 175.449,480.437Z" style="fill:white;fill-rule:nonzero;"/>
                    <path d="M331.666,51.232C331.311,51.232 330.951,51.171 330.599,51.043C328.978,50.453 328.143,48.662 328.733,47.041L333.619,33.617C334.207,31.995 336.003,31.164 337.619,31.751C339.24,32.341 340.075,34.132 339.486,35.753L334.599,49.177C334.14,50.445 332.941,51.232 331.666,51.232Z" style="fill:white;fill-rule:nonzero;"/>
                    <path d="M215.106,491.063C214.926,491.063 214.744,491.047 214.561,491.015C212.864,490.715 211.73,489.097 212.029,487.399L214.51,473.331C214.809,471.633 216.421,470.499 218.127,470.798C219.824,471.098 220.958,472.716 220.659,474.414L218.178,488.483C217.91,489.996 216.594,491.063 215.106,491.063Z" style="fill:white;fill-rule:nonzero;"/>
                    <path d="M294.42,41.252C294.24,41.252 294.058,41.236 293.875,41.204C292.178,40.904 291.044,39.286 291.343,37.588L293.824,23.519C294.123,21.822 295.735,20.692 297.441,20.986C299.138,21.286 300.272,22.904 299.973,24.602L297.492,38.671C297.224,40.185 295.908,41.252 294.42,41.252Z" style="fill:white;fill-rule:nonzero;"/>
                    <path d="M238.735,61.821C237.133,61.821 235.77,60.596 235.629,58.972L232.364,21.651C232.214,19.933 233.484,18.419 235.202,18.269C236.922,18.112 238.434,19.39 238.583,21.107L241.848,58.428C241.998,60.146 240.728,61.66 239.01,61.81C238.918,61.817 238.825,61.821 238.735,61.821Z" style="fill:white;fill-rule:nonzero;"/>
                    <path d="M276.523,493.744C274.921,493.744 273.558,492.519 273.417,490.895L270.152,453.574C270.002,451.856 271.272,450.342 272.99,450.192C274.72,450.035 276.22,451.313 276.371,453.03L279.636,490.351C279.786,492.069 278.516,493.583 276.798,493.733C276.706,493.739 276.613,493.744 276.523,493.744Z" style="fill:white;fill-rule:nonzero;"/>
                    <path d="M204.738,67.817C203.359,67.817 202.098,66.897 201.725,65.503L192.028,29.316C191.582,27.65 192.569,25.939 194.235,25.493C195.9,25.038 197.613,26.035 198.058,27.7L207.755,63.887C208.201,65.553 207.214,67.264 205.548,67.71C205.278,67.783 205.005,67.817 204.738,67.817Z" style="fill:white;fill-rule:nonzero;"/>
                    <path d="M316.955,486.615C315.576,486.615 314.315,485.695 313.942,484.301L304.246,448.114C303.8,446.448 304.787,444.737 306.453,444.291C308.124,443.839 309.829,444.833 310.276,446.498L319.972,482.685C320.418,484.351 319.431,486.062 317.765,486.508C317.492,486.581 317.222,486.615 316.955,486.615Z" style="fill:white;fill-rule:nonzero;"/>
                    <path d="M172.301,79.624C171.125,79.624 169.999,78.956 169.47,77.821L153.637,43.867C152.909,42.305 153.584,40.447 155.146,39.719C156.707,38.991 158.568,39.666 159.295,41.229L175.128,75.183C175.856,76.745 175.181,78.603 173.619,79.331C173.193,79.53 172.743,79.624 172.301,79.624Z" style="fill:white;fill-rule:nonzero;"/>
                    <path d="M355.536,472.574C354.36,472.574 353.234,471.906 352.705,470.771L336.873,436.817C336.145,435.255 336.82,433.397 338.382,432.669C339.944,431.941 341.804,432.617 342.531,434.179L358.363,468.133C359.091,469.695 358.416,471.553 356.854,472.281C356.427,472.48 355.978,472.574 355.536,472.574Z" style="fill:white;fill-rule:nonzero;"/>
                    <path d="M142.404,96.885C141.42,96.885 140.451,96.421 139.843,95.554L118.354,64.865C117.367,63.452 117.709,61.506 119.121,60.517C120.539,59.526 122.482,59.873 123.47,61.284L144.959,91.973C145.946,93.386 145.604,95.332 144.192,96.321C143.646,96.702 143.021,96.885 142.404,96.885Z" style="fill:white;fill-rule:nonzero;"/>
                    <path d="M391.091,452.047C390.107,452.047 389.138,451.583 388.53,450.716L367.042,420.027C366.055,418.614 366.397,416.668 367.809,415.679C369.227,414.688 371.17,415.035 372.158,416.446L393.645,447.135C394.632,448.548 394.29,450.494 392.878,451.483C392.333,451.864 391.707,452.047 391.091,452.047Z" style="fill:white;fill-rule:nonzero;"/>
                    <path d="M115.954,119.077C115.156,119.077 114.356,118.772 113.747,118.163L87.256,91.671C86.037,90.453 86.037,88.475 87.256,87.256C88.475,86.037 90.451,86.037 91.671,87.256L118.162,113.747C119.381,114.965 119.381,116.943 118.162,118.162C117.552,118.771 116.754,119.077 115.954,119.077Z" style="fill:white;fill-rule:nonzero;"/>
                    <path d="M422.537,425.658C421.739,425.658 420.939,425.353 420.33,424.744L393.839,398.253C392.62,397.035 392.62,395.057 393.839,393.838C395.058,392.619 397.034,392.619 398.254,393.838L424.745,420.329C425.964,421.547 425.964,423.525 424.745,424.744C424.135,425.353 423.336,425.658 422.537,425.658Z" style="fill:white;fill-rule:nonzero;"/>
                    <path d="M93.76,145.523C93.142,145.523 92.518,145.34 91.972,144.958L61.284,123.47C59.872,122.482 59.53,120.535 60.517,119.122C61.508,117.709 63.451,117.366 64.866,118.355L95.554,139.842C96.966,140.83 97.308,142.777 96.321,144.19C95.713,145.058 94.744,145.523 93.76,145.523Z" style="fill:white;fill-rule:nonzero;"/>
                    <path d="M448.923,394.21C448.305,394.21 447.681,394.027 447.135,393.645L416.446,372.158C415.034,371.17 414.692,369.223 415.679,367.81C416.67,366.399 418.612,366.054 420.028,367.043L450.717,388.531C452.129,389.519 452.471,391.466 451.484,392.879C450.876,393.745 449.907,394.21 448.923,394.21Z" style="fill:white;fill-rule:nonzero;"/>
                    <path d="M76.5,175.421C76.058,175.421 75.61,175.327 75.183,175.127L41.23,159.295C39.666,158.567 38.991,156.709 39.719,155.147C40.447,153.585 42.306,152.91 43.867,153.637L77.821,169.469C79.385,170.197 80.06,172.055 79.332,173.617C78.802,174.753 77.676,175.421 76.5,175.421Z" style="fill:white;fill-rule:nonzero;"/>
                    <path d="M469.45,358.657C469.008,358.657 468.559,358.563 468.131,358.363L434.178,342.531C432.616,341.803 431.94,339.945 432.669,338.383C433.398,336.821 435.257,336.145 436.818,336.873L470.771,352.705C472.333,353.433 473.009,355.291 472.28,356.853C471.752,357.989 470.625,358.657 469.45,358.657Z" style="fill:white;fill-rule:nonzero;"/>
                    <path d="M64.696,207.863C64.43,207.863 64.158,207.829 63.886,207.755L27.698,198.059C26.031,197.613 25.044,195.901 25.491,194.236C25.936,192.571 27.645,191.578 29.314,192.029L65.502,201.725C67.169,202.171 68.156,203.883 67.709,205.548C67.335,206.942 66.073,207.863 64.696,207.863Z" style="fill:white;fill-rule:nonzero;"/>
                    <path d="M483.494,320.079C483.228,320.079 482.956,320.045 482.684,319.971L446.496,310.274C444.829,309.828 443.842,308.116 444.289,306.451C444.734,304.786 446.443,303.795 448.112,304.244L484.3,313.941C485.967,314.387 486.954,316.099 486.507,317.764C486.135,319.16 484.872,320.079 483.494,320.079Z" style="fill:white;fill-rule:nonzero;"/>
                    <path d="M58.701,241.86C58.609,241.86 58.518,241.856 58.425,241.847L21.104,238.582C19.387,238.432 18.117,236.919 18.267,235.2C18.416,233.482 19.935,232.207 21.649,232.362L58.97,235.627C60.687,235.777 61.957,237.29 61.807,239.009C61.667,240.635 60.304,241.86 58.701,241.86Z" style="fill:white;fill-rule:nonzero;"/>
                    <path d="M490.626,279.649C490.536,279.649 490.443,279.645 490.351,279.636L453.029,276.371C451.311,276.221 450.04,274.708 450.191,272.989C450.341,271.272 451.842,270 453.572,270.151L490.894,273.416C492.612,273.566 493.883,275.079 493.732,276.798C493.59,278.425 492.227,279.649 490.626,279.649Z" style="fill:white;fill-rule:nonzero;"/>
                    <path d="M21.375,279.649C19.773,279.649 18.41,278.424 18.269,276.8C18.119,275.082 19.389,273.568 21.106,273.418L58.427,270.153C60.172,270.003 61.66,271.275 61.809,272.991C61.959,274.709 60.689,276.223 58.972,276.373L21.651,279.638C21.558,279.645 21.465,279.649 21.375,279.649Z" style="fill:white;fill-rule:nonzero;"/>
                    <path d="M453.298,241.86C451.696,241.86 450.333,240.635 450.192,239.011C450.042,237.293 451.312,235.779 453.03,235.629L490.352,232.364C492.08,232.202 493.582,233.486 493.733,235.202C493.883,236.92 492.613,238.434 490.895,238.584L453.573,241.849C453.48,241.856 453.387,241.86 453.298,241.86Z" style="fill:white;fill-rule:nonzero;"/>
                    <path d="M28.505,320.079C27.126,320.079 25.865,319.16 25.492,317.765C25.046,316.099 26.033,314.388 27.699,313.942L63.887,304.245C65.548,303.792 67.263,304.787 67.71,306.452C68.156,308.118 67.169,309.829 65.503,310.275L29.315,319.972C29.045,320.045 28.771,320.079 28.505,320.079Z" style="fill:white;fill-rule:nonzero;"/>
                    <path d="M447.304,207.863C445.925,207.863 444.664,206.943 444.291,205.549C443.845,203.883 444.832,202.172 446.498,201.726L482.686,192.03C484.35,191.579 486.062,192.572 486.509,194.237C486.955,195.903 485.968,197.614 484.302,198.06L448.114,207.756C447.843,207.828 447.571,207.863 447.304,207.863Z" style="fill:white;fill-rule:nonzero;"/>
                    <path d="M42.549,358.657C41.373,358.657 40.247,357.989 39.718,356.853C38.99,355.291 39.665,353.433 41.229,352.705L75.183,336.873C76.738,336.145 78.602,336.821 79.331,338.383C80.06,339.945 79.384,341.803 77.82,342.531L43.866,358.363C43.441,358.562 42.991,358.657 42.549,358.657Z" style="fill:white;fill-rule:nonzero;"/>
                    <path d="M435.5,175.421C434.324,175.421 433.198,174.753 432.669,173.618C431.941,172.056 432.616,170.198 434.178,169.47L468.131,153.638C469.693,152.911 471.552,153.586 472.28,155.148C473.008,156.71 472.333,158.568 470.771,159.296L436.818,175.128C436.392,175.327 435.943,175.421 435.5,175.421Z" style="fill:white;fill-rule:nonzero;"/>
                    <path d="M63.078,394.21C62.094,394.21 61.125,393.746 60.517,392.879C59.53,391.466 59.872,389.52 61.284,388.531L91.972,367.043C93.39,366.052 95.333,366.399 96.321,367.81C97.308,369.223 96.966,371.169 95.554,372.158L64.866,393.645C64.321,394.026 63.696,394.21 63.078,394.21Z" style="fill:white;fill-rule:nonzero;"/>
                    <path d="M418.239,145.523C417.255,145.523 416.286,145.059 415.678,144.192C414.691,142.779 415.033,140.833 416.445,139.844L447.134,118.357C448.552,117.366 450.493,117.713 451.483,119.124C452.47,120.537 452.128,122.483 450.716,123.472L420.027,144.959C419.482,145.339 418.857,145.523 418.239,145.523Z" style="fill:white;fill-rule:nonzero;"/>
                    <path d="M89.464,425.658C88.666,425.658 87.866,425.353 87.257,424.744C86.038,423.526 86.038,421.548 87.257,420.329L113.748,393.838C114.967,392.619 116.943,392.619 118.163,393.838C119.382,395.056 119.382,397.034 118.163,398.253L91.672,424.744C91.062,425.353 90.262,425.658 89.464,425.658Z" style="fill:white;fill-rule:nonzero;"/>
                    <path d="M396.047,119.077C395.249,119.077 394.449,118.772 393.84,118.163C392.621,116.945 392.621,114.967 393.84,113.748L420.331,87.257C421.55,86.038 423.526,86.038 424.746,87.257C425.965,88.475 425.965,90.453 424.746,91.672L398.255,118.163C397.643,118.771 396.845,119.077 396.047,119.077Z" style="fill:white;fill-rule:nonzero;"/>
                    <path d="M120.909,452.047C120.291,452.047 119.667,451.864 119.121,451.482C117.709,450.494 117.367,448.547 118.354,447.134L139.843,416.445C140.834,415.034 142.777,414.689 144.192,415.678C145.604,416.666 145.946,418.613 144.959,420.026L123.47,450.715C122.861,451.583 121.894,452.047 120.909,452.047Z" style="fill:white;fill-rule:nonzero;"/>
                    <path d="M369.596,96.885C368.978,96.885 368.354,96.702 367.808,96.32C366.396,95.332 366.054,93.385 367.041,91.972L388.529,61.283C389.519,59.87 391.465,59.527 392.878,60.516C394.29,61.504 394.632,63.451 393.645,64.864L372.158,95.553C371.549,96.421 370.581,96.885 369.596,96.885Z" style="fill:white;fill-rule:nonzero;"/>
                    <path d="M156.464,472.574C156.022,472.574 155.573,472.48 155.145,472.28C153.583,471.552 152.907,469.694 153.636,468.132L169.469,434.178C170.196,432.616 172.057,431.94 173.618,432.668C175.18,433.396 175.856,435.254 175.127,436.816L159.294,470.77C158.766,471.906 157.64,472.574 156.464,472.574Z" style="fill:white;fill-rule:nonzero;"/>
                    <path d="M339.701,79.624C339.259,79.624 338.81,79.53 338.382,79.33C336.82,78.602 336.144,76.744 336.873,75.182L352.705,41.228C353.432,39.665 355.293,38.99 356.854,39.718C358.416,40.446 359.092,42.304 358.363,43.866L342.531,77.82C342.001,78.957 340.875,79.624 339.701,79.624Z" style="fill:white;fill-rule:nonzero;"/>
                    <path d="M195.045,486.615C194.779,486.615 194.506,486.581 194.235,486.507C192.568,486.061 191.581,484.349 192.028,482.684L201.725,446.497C202.171,444.834 203.885,443.839 205.548,444.29C207.215,444.736 208.202,446.448 207.755,448.113L198.058,484.3C197.685,485.696 196.423,486.615 195.045,486.615Z" style="fill:white;fill-rule:nonzero;"/>
                    <path d="M307.263,67.817C306.997,67.817 306.725,67.783 306.453,67.709C304.786,67.263 303.799,65.551 304.246,63.886L313.942,27.699C314.388,26.034 316.093,25.038 317.765,25.492C319.432,25.938 320.419,27.65 319.972,29.315L310.276,65.502C309.903,66.896 308.641,67.817 307.263,67.817Z" style="fill:white;fill-rule:nonzero;"/>
                    <path d="M235.476,493.744C235.386,493.744 235.293,493.74 235.201,493.731C233.483,493.581 232.212,492.067 232.363,490.349L235.628,453.028C235.777,451.311 237.291,450.033 239.009,450.19C240.727,450.34 241.998,451.853 241.847,453.572L238.582,490.893C238.44,492.519 237.078,493.744 235.476,493.744Z" style="fill:white;fill-rule:nonzero;"/>
                    <path d="M273.264,61.821C273.174,61.821 273.081,61.817 272.989,61.808C271.271,61.658 270,60.145 270.151,58.426L273.416,21.105C273.565,19.388 275.063,18.109 276.797,18.267C278.515,18.417 279.786,19.93 279.635,21.649L276.37,58.97C276.229,60.597 274.867,61.821 273.264,61.821Z" style="fill:white;fill-rule:nonzero;"/>
                    <path d="M286.928,286.928L424.877,87.123L225.072,225.072L87.123,424.877L286.928,286.928Z" style="fill:none;fill-rule:nonzero;stroke:white;stroke-width:6.07px;"/>
                </g>
                <path d="M286.928,286.928L424.877,87.123L225.072,225.072L286.928,286.928Z" style="fill:white;fill-rule:nonzero;"/>
            </g>
        </g>
    </g>
</svg>
