<?xml version="1.0" encoding="UTF-8" standalone="no"?>
<!DOCTYPE svg PUBLIC "-//W3C//DTD SVG 1.1//EN" "http://www.w3.org/Graphics/SVG/1.1/DTD/svg11.dtd">
<svg width="100%" height="100%" viewBox="0 0 640 640" version="1.1" xmlns="http://www.w3.org/2000/svg" xmlns:xlink="http://www.w3.org/1999/xlink" xml:space="preserve" xmlns:serif="http://www.serif.com/" style="fill-rule:evenodd;clip-rule:evenodd;stroke-linejoin:round;stroke-miterlimit:2;">
    <g transform="matrix(1,0,0,1,20,65)">
        <path d="M300,77C305.523,77 310,72.523 310,67L310,7C310,1.477 305.523,-3 300,-3C294.477,-3 290,1.477 290,7L290,67C290,72.523 294.477,77 300,77Z" style="fill-rule:nonzero;"/>
    </g>
    <g transform="matrix(1,0,0,1,20,65)">
        <path d="M202.738,88.336C204.852,93.445 210.707,95.867 215.813,93.75C220.914,91.633 223.336,85.785 221.219,80.68L205.906,43.727C203.695,38.793 197.961,36.512 192.961,38.582C187.961,40.652 185.516,46.328 187.441,51.379L202.738,88.336Z" style="fill-rule:nonzero;"/>
    </g>
    <g transform="matrix(1,0,0,1,20,65)">
        <path d="M46.727,202.918L83.73,218.219C84.938,218.723 86.23,218.984 87.539,218.984C92.313,218.984 96.422,215.613 97.352,210.93C98.285,206.254 95.781,201.566 91.371,199.738L54.418,184.441C49.316,182.328 43.469,184.754 41.359,189.855C39.242,194.961 41.664,200.809 46.766,202.918L46.727,202.918Z" style="fill-rule:nonzero;"/>
    </g>
    <g transform="matrix(1,0,0,1,20,65)">
        <path d="M503.25,212.813C504.801,216.551 508.453,218.988 512.5,218.984C513.809,218.984 515.102,218.723 516.309,218.219L553.313,202.918C558.414,200.809 560.84,194.961 558.727,189.855C556.609,184.754 550.762,182.328 545.66,184.441L508.711,199.738C506.25,200.746 504.293,202.688 503.266,205.141C502.242,207.594 502.234,210.355 503.25,212.813Z" style="fill-rule:nonzero;"/>
    </g>
    <g transform="matrix(1,0,0,1,20,65)">
        <path d="M384.188,93.75C389.293,95.867 395.148,93.445 397.262,88.336L412.559,51.34C414.484,46.281 412.039,40.613 407.039,38.543C402.039,36.473 396.305,38.754 394.094,43.688L378.781,80.691C376.672,85.789 379.094,91.633 384.187,93.75Z" style="fill-rule:nonzero;"/>
    </g>
    <g transform="matrix(1,0,0,1,20,65)">
        <path d="M130.289,141.43C134.215,145.219 140.449,145.164 144.305,141.305C148.164,137.449 148.219,131.215 144.43,127.289L102,84.871C99.512,82.172 95.746,81.047 92.188,81.945C88.629,82.852 85.852,85.629 84.945,89.188C84.047,92.746 85.172,96.512 87.871,99L130.289,141.43Z" style="fill-rule:nonzero;"/>
    </g>
    <g transform="matrix(1,0,0,1,20,65)">
        <path d="M10,307L70,307C75.523,307 80,302.523 80,297C80,291.477 75.523,287 70,287L10,287C4.477,287 0,291.477 0,297C0,302.523 4.477,307 10,307Z" style="fill-rule:nonzero;"/>
    </g>
    <g transform="matrix(1,0,0,1,20,65)">
        <path d="M520,297C520,302.523 524.477,307 530,307L590,307C595.523,307 600,302.523 600,297C600,291.477 595.523,287 590,287L530,287C524.477,287 520,291.477 520,297Z" style="fill-rule:nonzero;"/>
    </g>
    <g transform="matrix(1,0,0,1,20,65)">
        <path d="M462.641,144.359C465.293,144.359 467.836,143.305 469.711,141.43L512.129,99C514.828,96.512 515.953,92.746 515.055,89.188C514.148,85.629 511.371,82.852 507.813,81.945C504.254,81.047 500.488,82.172 498,84.871L455.582,127.289C452.719,130.148 451.867,134.453 453.414,138.188C454.961,141.922 458.609,144.359 462.652,144.359L462.641,144.359Z" style="fill-rule:nonzero;"/>
    </g>
    <g transform="matrix(1,0,0,1,20,65)">
        <path d="M530,407L70,407C64.477,407 60,411.477 60,417C60,422.523 64.477,427 70,427L530,427C535.523,427 540,422.523 540,417C540,411.477 535.523,407 530,407Z" style="fill-rule:nonzero;"/>
    </g>
    <g transform="matrix(1,0,0,1,20,65)">
        <path d="M480,447L120,447C114.477,447 110,451.477 110,457C110,462.523 114.477,467 120,467L480,467C485.523,467 490,462.523 490,457C490,451.477 485.523,447 480,447Z" style="fill-rule:nonzero;"/>
    </g>
    <g transform="matrix(1,0,0,1,20,65)">
        <path d="M420,487L180,487C174.477,487 170,491.477 170,497C170,502.523 174.477,507 180,507L420,507C425.523,507 430,502.523 430,497C430,491.477 425.523,487 420,487Z" style="fill-rule:nonzero;"/>
    </g>
    <g transform="matrix(1,0,0,1,20,65)">
        <path d="M590,367L476.641,367C508.047,287.727 482.805,197.238 414.887,145.68C346.973,94.125 253.027,94.125 185.113,145.68C117.195,197.238 91.953,287.727 123.359,367L10,367C4.477,367 0,371.477 0,377C0,382.523 4.477,387 10,387L590,387C595.523,387 600,382.523 600,377C600,371.477 595.523,367 590,367Z" style="fill-rule:nonzero;"/>
    </g>
</svg>
