<svg viewBox="-20 -65 640 640" xmlns="http://www.w3.org/2000/svg">
  <path d="m300 77c5.523438 0 10-4.476562 10-10v-60c0-5.523438-4.476562-10-10-10s-10 4.476562-10 10v60c0 5.523438 4.476562 10 10 10zm0 0"/>
  <path d="m202.738281 88.335938c2.113281 5.109374 7.96875 7.53125 13.074219 5.414062 5.101562-2.117188 7.523438-7.964844 5.40625-13.070312l-15.3125-36.953126c-2.210938-4.933593-7.945312-7.214843-12.945312-5.144531-5 2.070313-7.445313 7.746094-5.519532 12.796875zm0 0"/>
  <path d="m46.726562 202.917969 37.003907 15.300781c1.207031.503906 2.5.765625 3.808593.765625 4.773438 0 8.882813-3.371094 9.8125-8.054687.933594-4.675782-1.570312-9.363282-5.980468-11.191407l-36.953125-15.296875c-5.101563-2.113281-10.949219.3125-13.058594 5.414063-2.117187 5.105469.304687 10.953125 5.40625 13.0625zm0 0"/>
  <path d="m503.25 212.8125c1.550781 3.738281 5.203125 6.175781 9.25 6.171875 1.308594 0 2.601562-.261719 3.808594-.765625l37.003906-15.300781c5.101562-2.109375 7.527344-7.957031 5.414062-13.0625-2.117187-5.101563-7.964843-7.527344-13.066406-5.414063l-36.949218 15.296875c-2.460938 1.007813-4.417969 2.949219-5.445313 5.402344-1.023437 2.453125-1.03125 5.214844-.015625 7.671875zm0 0"/>
  <path d="m384.1875 93.75c5.105469 2.117188 10.960938-.304688 13.074219-5.414062l15.296875-36.996094c1.925781-5.058594-.519532-10.726563-5.519532-12.796875-5-2.070313-10.734374.210937-12.945312 5.144531l-15.3125 37.003906c-2.109375 5.097656.3125 10.941406 5.40625 13.058594zm0 0"/>
  <path d="m130.289062 141.429688c3.925782 3.789062 10.160157 3.734374 14.015626-.125 3.859374-3.855469 3.914062-10.089844.125-14.015626l-42.429688-42.417968c-2.488281-2.699219-6.253906-3.824219-9.8125-2.925782-3.558594.90625-6.335938 3.683594-7.242188 7.242188-.898437 3.558594.226563 7.324219 2.925782 9.8125zm0 0"/>
  <path d="m10 307h60c5.523438 0 10-4.476562 10-10s-4.476562-10-10-10h-60c-5.523438 0-10 4.476562-10 10s4.476562 10 10 10zm0 0"/>
  <path d="m520 297c0 5.523438 4.476562 10 10 10h60c5.523438 0 10-4.476562 10-10s-4.476562-10-10-10h-60c-5.523438 0-10 4.476562-10 10zm0 0"/>
  <path d="m462.640625 144.359375c2.652344 0 5.195313-1.054687 7.070313-2.929687l42.417968-42.429688c2.699219-2.488281 3.824219-6.253906 2.925782-9.8125-.90625-3.558594-3.683594-6.335938-7.242188-7.242188-3.558594-.898437-7.324219.226563-9.8125 2.925782l-42.417969 42.417968c-2.863281 2.859376-3.714843 7.164063-2.167969 10.898438 1.546876 3.734375 5.195313 6.171875 9.238282 6.171875zm0 0"/>
  <path d="m530 407h-460c-5.523438 0-10 4.476562-10 10s4.476562 10 10 10h460c5.523438 0 10-4.476562 10-10s-4.476562-10-10-10zm0 0"/>
  <path d="m480 447h-360c-5.523438 0-10 4.476562-10 10s4.476562 10 10 10h360c5.523438 0 10-4.476562 10-10s-4.476562-10-10-10zm0 0"/>
  <path d="m420 487h-240c-5.523438 0-10 4.476562-10 10s4.476562 10 10 10h240c5.523438 0 10-4.476562 10-10s-4.476562-10-10-10zm0 0"/>
  <path d="m590 367h-113.359375c31.40625-79.273438 6.164063-169.761719-61.753906-221.320312-67.914063-51.554688-161.859375-51.554688-229.773438 0-67.917969 51.558593-93.160156 142.046874-61.753906 221.320312h-113.359375c-5.523438 0-10 4.476562-10 10s4.476562 10 10 10h580c5.523438 0 10-4.476562 10-10s-4.476562-10-10-10zm0 0"/>
</svg>
