<?xml version="1.0" encoding="UTF-8" standalone="no"?>
<!DOCTYPE svg PUBLIC "-//W3C//DTD SVG 1.1//EN" "http://www.w3.org/Graphics/SVG/1.1/DTD/svg11.dtd">
<svg width="100%" height="100%" viewBox="0 0 512 512" version="1.1" xmlns="http://www.w3.org/2000/svg" xmlns:xlink="http://www.w3.org/1999/xlink" xml:space="preserve" xmlns:serif="http://www.serif.com/" style="fill-rule:evenodd;clip-rule:evenodd;stroke-linejoin:round;stroke-miterlimit:2;">
    <g id="Artboard1" transform="matrix(5.02085,0,0,8.25895,-30.2136,-99.1548)">
        <rect x="6.018" y="12.006" width="101.975" height="61.993" style="fill:none;"/>
        <clipPath id="_clip1">
            <rect x="6.018" y="12.006" width="101.975" height="61.993"/>
        </clipPath>
        <g clip-path="url(#_clip1)">
            <g transform="matrix(0.999664,0,0,0.583671,-0.299084,17.9922)">
                <path d="M108.324,42.719C108.324,24.973 94.487,10.566 77.444,10.566L37.199,10.566C20.156,10.566 6.319,24.973 6.319,42.719L6.319,42.981C6.319,60.726 20.156,75.134 37.199,75.134L77.444,75.134C94.487,75.134 108.324,60.726 108.324,42.981L108.324,42.719Z" style="fill:rgb(76,217,100);"/>
            </g>
            <g transform="matrix(0.963371,0,0,0.585661,1.38688,17.8581)">
                <circle cx="79.478" cy="42.984" r="27.186" style="fill:white;"/>
            </g>
        </g>
    </g>
</svg>
